<svg xmlns="http://www.w3.org/2000/svg" xmlns:xlink="http://www.w3.org/1999/xlink" width="139" height="139" viewBox="0 0 139 139">
  <defs>
    <clipPath id="clip-path">
      <rect id="Rectangle_378425" data-name="Rectangle 378425" width="100.545" height="92.56" fill="none"/>
    </clipPath>
  </defs>
  <g id="Group_1073944" data-name="Group 1073944" transform="translate(-418.429 -3916)">
    <g id="Group_1073928" data-name="Group 1073928">
      <g id="Group_1073859" data-name="Group 1073859" transform="translate(-1016.239 -1966)">
        <g id="Group_1072229" data-name="Group 1072229" transform="translate(1434.668 5882)">
          <path id="Path_608385" data-name="Path 608385" d="M69.5,0A69.5,69.5,0,1,1,0,69.5,69.5,69.5,0,0,1,69.5,0Z" transform="translate(0)" fill="#fff"/>
        </g>
      </g>
      <g id="Group_1073864" data-name="Group 1073864" transform="translate(442.429 3943.44)">
        <g id="Group_1073863" data-name="Group 1073863" clip-path="url(#clip-path)">
          <path id="Path_611027" data-name="Path 611027" d="M9.372,4.394c.434,0,.867-.006,1.3-.006q43.363,0,86.725,0a8.048,8.048,0,0,1,2.038.1,1.242,1.242,0,0,1,.9.8,3.408,3.408,0,0,1,.211,1.214q0,29.592-.009,59.185a1.843,1.843,0,0,1-1.011,1.938,2.406,2.406,0,0,1-1.005.107q-8.928,0-17.856-.005-34.972,0-69.943,0c-.6,0-1.2,0-1.794.017-.308.008-.582.024-.35.493.1.2-.027.511-.027.772q0,9.5,0,18.993a4.307,4.307,0,0,1-.8,2.741,4.467,4.467,0,0,1-3.365,1.81A4.281,4.281,0,0,1,.174,89.383,6.1,6.1,0,0,1,.04,87.26a3.371,3.371,0,0,0,0-.4q0-41.047.009-82.094A5.25,5.25,0,0,1,.38,2.569,4.111,4.111,0,0,1,3.355.114a3.787,3.787,0,0,1,2.95.472,4.39,4.39,0,0,1,1.882,2,3.438,3.438,0,0,1,.3,1.228c.012.241-.034.562.35.605a.352.352,0,0,0,.536-.027m.6,24.982c-.17-.048-.163.121-.174.187s.1.071.172.038l.009.575-.074.012c.013.067.057.028.09.027.162.013.324.036.487.037q4.909,0,9.818,0,8.047,0,16.094.008c.345,0,.467-.074.45-.442C36.8,28.98,36.8,28.14,36.8,27.3q0-9.534-.006-19.068a1.64,1.64,0,0,0-.059-.749c-.019-.064-.051-.077-.1-.028-.4,0-.806-.014-1.209-.014q-12.53-.01-25.06-.017c-.169,0-.382-.056-.389.23-.081.009-.206-.026-.207.094s.125.087.206.1c0,2.652.01,5.3.008,7.956q0,6.788-.017,13.576M19.04,40.438c.4-1.173.781-1.463,1.992-1.464q8.567,0,17.135,0a1.406,1.406,0,0,1,.645.145,1.709,1.709,0,0,1,.908,1.756Q39.705,52.6,39.7,64.321c0,.407.13.51.512.506,1.615-.017,3.23,0,4.844-.008.651,0,.569.079.569-.576q0-11.79,0-23.58a1.533,1.533,0,0,1,1.7-1.679c.4,0,.807-.013,1.211-.013l48.131,0h.294c.7-.017.7-.017.7-.717q0-2.16,0-4.32c0-.763-.031-.794-.767-.794H62.456q-7.6,0-15.205,0a1.514,1.514,0,0,1-1.423-.84,2.288,2.288,0,0,1-.2-1.138q0-11.519,0-23.038a.915.915,0,0,1,.013-.357c.174-.374-.03-.395-.318-.393-1.585.008-3.169,0-4.754.013-.868,0-.77-.125-.77.757q-.005,10.934,0,21.868a14.3,14.3,0,0,1-.015,1.439c-.106,1.039-.364,1.683-1.77,1.684H22.893q-6.234,0-12.469-.007c-.377,0-.528.083-.523.5.023,1.725.014,3.45.016,5.174,0,.081-.012.163.106.165,1.39,0,2.782.032,4.17,0a1.925,1.925,0,0,1,1.457.651c.254.244.1.587.29.825a.992.992,0,0,0-.1.335.921.921,0,0,1-.63.928,2.428,2.428,0,0,1-1.142.255c-1.226,0-2.452.01-3.678-.008-.331,0-.42.077-.419.425Q10,53.352,9.981,64.331c0,.406.1.487.492.487q12.918-.018,25.836,0c.33,0,.348-.118.348-.38q0-11.023.029-22.046c0-.359-.085-.449-.442-.448-5.173.012-10.346-.009-15.519.026a1.756,1.756,0,0,1-1.686-1.535M48.507,7.574a3.821,3.821,0,0,1,.045,1.068c-.079,0-.14.028-.128.117.008.061.064.082.125.078.005.135.016.269.016.4q0,10.215,0,20.429c0,.583,0,.583.6.583H96.932c.06,0,.12,0,.179,0,.35.024.474-.15.462-.485-.023-.659-.041-1.319-.042-1.979q-.006-9.922,0-19.845c0-.385-.1-.513-.5-.512q-23.639.014-47.279.009a4.243,4.243,0,0,0-1.157.045q-.107-.019-.085.088M72.988,64.818V64.8q12.088,0,24.176.008c.345,0,.377-.13.376-.418q-.014-10.529-.011-21.058c0-.345-.008-.69.005-1.035.006-.17-.054-.27-.218-.254-.345.033-.664-.1-1.009-.1q-8.746.015-17.493,0l-29.558-.011c-.758,0-.759,0-.759.691q0,10.844-.009,21.688c0,.4.085.514.5.514q12-.021,24-.01M5.427,46.366V4.285c0-.607-.151-.909-.7-1.054-.816-.217-1.463-.086-1.543.843-.048.551-.1,1.1-.1,1.656q.008,37.828,0,75.655c0,2.13-.012,4.261.011,6.391a1.665,1.665,0,0,0,.438,1.442,1.41,1.41,0,0,0,1.372.088c.458-.178.519-.581.519-1.039q-.012-20.95-.007-41.9" transform="translate(0 0)" fill="#5e5a55"/>
          <path id="Path_611028" data-name="Path 611028" d="M25.073,12.071a.352.352,0,0,1-.536.027.459.459,0,0,1,.536-.027" transform="translate(-15.701 -7.677)" fill="#828283"/>
          <path id="Path_611029" data-name="Path 611029" d="M159.144,139.329q-12,0-24,.01c-.418,0-.5-.114-.5-.514q.018-10.844.009-21.688c0-.694,0-.692.759-.691l29.558.011q8.746,0,17.493,0c.345,0,.665.138,1.009.1.165-.016.225.084.218.254-.013.344-.006.69-.005,1.035q0,10.529.011,21.058c0,.288-.031.419-.376.418q-12.088-.016-24.176-.008Z" transform="translate(-86.156 -74.512)" fill="#fff"/>
          <path id="Path_611030" data-name="Path 611030" d="M134.781,20.675a4.242,4.242,0,0,1,1.157-.045q23.639,0,47.279-.009c.4,0,.5.128.5.513q-.011,9.922,0,19.845c0,.66.018,1.319.042,1.979.012.335-.112.51-.462.485-.059,0-.12,0-.179,0H135.349c-.6,0-.6,0-.6-.583q0-10.215,0-20.429c0-.135-.01-.269-.016-.4l0-.195a3.819,3.819,0,0,0-.045-1.068l.085-.088" transform="translate(-86.189 -13.19)" fill="#fff"/>
          <path id="Path_611031" data-name="Path 611031" d="M27.51,51.9c0-1.725.008-3.45-.015-5.174-.006-.414.145-.5.522-.5q6.235.017,12.47.007H55.6c1.407,0,1.665-.645,1.77-1.684a14.292,14.292,0,0,0,.016-1.439q0-10.934,0-21.868c0-.882-.1-.752.77-.757,1.585-.009,3.17,0,4.754-.013.289,0,.492.019.318.393a.913.913,0,0,0-.013.357q0,11.519,0,23.038a2.29,2.29,0,0,0,.2,1.138,1.514,1.514,0,0,0,1.423.84q7.6-.013,15.205,0H114.5c.736,0,.766.031.766.794q0,2.16,0,4.32c0,.7,0,.7-.7.717-.1-.2-.2-.207-.294,0l-48.131,0c-.4,0-.807.015-1.211.013a1.533,1.533,0,0,0-1.7,1.68q0,11.789,0,23.579c0,.655.082.575-.569.577-1.615,0-3.23-.009-4.845.008-.383,0-.513-.1-.512-.505q.021-11.723.019-23.445a1.707,1.707,0,0,0-.908-1.755,1.406,1.406,0,0,0-.645-.145q-8.567,0-17.135,0c-1.211,0-1.59.29-1.991,1.464h-3.1c-.193-.238-.036-.58-.29-.825a1.925,1.925,0,0,0-1.456-.65c-1.389.032-2.78,0-4.171,0L27.51,51.9" transform="translate(-17.593 -13.098)" fill="#0c60c2"/>
          <path id="Path_611032" data-name="Path 611032" d="M33.662,112.288h3.1a1.755,1.755,0,0,0,1.686,1.535c5.173-.034,10.346-.014,15.519-.026.357,0,.443.089.442.448q-.03,11.023-.029,22.046c0,.262-.018.38-.348.38q-12.918-.021-25.836,0c-.394,0-.493-.081-.492-.487q.018-10.979-.007-21.958c0-.348.088-.43.419-.425,1.225.018,2.452.006,3.678.008a2.425,2.425,0,0,0,1.141-.255.921.921,0,0,0,.63-.928.986.986,0,0,1,.1-.335" transform="translate(-17.723 -71.851)" fill="#fff"/>
          <path id="Path_611033" data-name="Path 611033" d="M27.687,20.836c.007-.286.221-.23.389-.229q12.53.006,25.06.017c.4,0,.806.009,1.209.014l.1.028a1.647,1.647,0,0,1,.059.749q.008,9.534.006,19.068c0,.839,0,1.68.038,2.518.017.369-.1.443-.45.442Q46.051,43.427,38,43.435q-4.909,0-9.818,0c-.162,0-.324-.024-.487-.036l.01-.027-.026-.012-.009-.575a.227.227,0,0,0,0-.225q.009-6.787.018-13.576,0-3.978-.008-7.957v-.191" transform="translate(-17.709 -13.183)" fill="#fff"/>
          <path id="Path_611035" data-name="Path 611035" d="M27.369,81.557a.227.227,0,0,1,0,.225c-.071.032-.183.022-.172-.038s0-.235.174-.187" transform="translate(-17.401 -52.181)" fill="#004391"/>
          <path id="Path_611036" data-name="Path 611036" d="M27.341,21.252v.191c-.081-.009-.206.024-.206-.1s.126-.085.207-.094" transform="translate(-17.362 -13.599)" fill="#232527"/>
          <path id="Path_611037" data-name="Path 611037" d="M268.442,107.923c.1-.208.2-.206.294,0h-.294" transform="translate(-171.77 -68.958)" fill="#232527"/>
          <path id="Path_611038" data-name="Path 611038" d="M134.59,24l0,.195c-.061,0-.117-.017-.125-.078-.012-.089.049-.118.129-.117" transform="translate(-86.038 -15.354)" fill="#232527"/>
          <path id="Path_611039" data-name="Path 611039" d="M27.567,83.793l.026.012-.01.027c-.033,0-.077.04-.09-.027l.074-.012" transform="translate(-17.592 -53.617)" fill="#004391"/>
          <path id="Path_611040" data-name="Path 611040" d="M27.534,107.733l.106.165c-.118,0-.11-.085-.106-.165" transform="translate(-17.617 -68.936)" fill="#232527"/>
          <path id="Path_611041" data-name="Path 611041" d="M101.835,20.676l-.1-.028c.05-.049.082-.036.1.028" transform="translate(-65.097 -13.193)" fill="#828283"/>
          <path id="Path_611042" data-name="Path 611042" d="M134.774,20.781l-.085.088c-.015-.072.013-.1.085-.088" transform="translate(-86.182 -13.295)" fill="#828283"/>
        </g>
      </g>
    </g>
  </g>
</svg>
