<svg xmlns="http://www.w3.org/2000/svg" xmlns:xlink="http://www.w3.org/1999/xlink" width="139" height="139" viewBox="0 0 139 139">
  <defs>
    <clipPath id="clip-path">
      <rect id="Rectangle_378424" data-name="Rectangle 378424" width="94" height="86.557" fill="none"/>
    </clipPath>
  </defs>
  <g id="Group_1073945" data-name="Group 1073945" transform="translate(-1043.429 -3916)">
    <g id="Group_1073927" data-name="Group 1073927">
      <g id="Group_1073860" data-name="Group 1073860" transform="translate(-391.239 -1966)">
        <g id="Group_1072229" data-name="Group 1072229" transform="translate(1434.668 5882)">
          <path id="Path_608385" data-name="Path 608385" d="M69.5,0A69.5,69.5,0,1,1,0,69.5,69.5,69.5,0,0,1,69.5,0Z" transform="translate(0)" fill="#fff"/>
        </g>
      </g>
      <g id="Group_1073862" data-name="Group 1073862" transform="translate(1067.429 3943.44)">
        <g id="Group_1073861" data-name="Group 1073861" clip-path="url(#clip-path)">
          <path id="Path_610997" data-name="Path 610997" d="M36.075,75.7a22.17,22.17,0,0,0-2.908-.085,3.609,3.609,0,0,0-.144-.64,1.2,1.2,0,0,0-1.2-.7q-1.929-.028-3.86,0c-.3,0-.367-.089-.367-.379q.009-25.422,0-50.843c0-.771-.005-1.543-.008-2.314l.079-.13c.433,0,.866,0,1.3,0h78.349c.685,0,1.369,0,2.054-.006-.014.09.01.137.11.1,0,.1-.009.2-.009.294q0,25.52.006,51.04c0,.168.008.336.012.5-.137-.022-.109.081-.111.154s.012.137.111.113q0,.237.008.474a.084.084,0,0,0,0,.134.352.352,0,0,0,.017.283c-.07.1-.1.2.011.3-.036.184-.114.293-.334.271a6.637,6.637,0,0,0-.67,0q-28.5,0-57.006,0-6.963,0-13.926.013A1.4,1.4,0,0,0,36.075,75.7m12-23.06a1.456,1.456,0,0,0-2.287.758c-.166.534.183.979.419,1.407.53.957,1.165,1.857,1.658,2.83.577,1.138,1.258,2.214,1.884,3.321.4.713.834,1.412,1.2,2.147a1.483,1.483,0,0,0,2.064.832,1.465,1.465,0,0,0,.553-1.934c-.214-.483-.54-.879-.785-1.333-.416-.773-.885-1.516-1.328-2.274-1.1-1.884-2.11-3.819-3.285-5.658l-.094-.1m19.4,10.211c.122.212.265.205.423.04.811-.115,1.628-.011,2.448-.136a16.709,16.709,0,0,0,4.144-1.09,15.5,15.5,0,0,0,6.9-5.7,15.078,15.078,0,0,0,1.821-3.725,20.5,20.5,0,0,0,.641-2.78,11.952,11.952,0,0,0,.247-2.3,8.658,8.658,0,0,0-.169-1.472,20.385,20.385,0,0,0-.8-3.46,16.359,16.359,0,0,0-2.97-5.051,15.016,15.016,0,0,0-3.588-3,16.152,16.152,0,0,0-2.847-1.347,15.215,15.215,0,0,0-3.687-.882,13.87,13.87,0,0,0-4.7.28,17.712,17.712,0,0,0-3.821,1.357,15,15,0,0,0-4.829,3.827,18.47,18.47,0,0,0-2.084,3.131,14.2,14.2,0,0,0-1.1,2.925,16.609,16.609,0,0,0-.535,3.461,12.356,12.356,0,0,0,.251,2.918,18.294,18.294,0,0,0,.564,2.453,17.169,17.169,0,0,0,1.44,3.056,14.894,14.894,0,0,0,2.247,2.91,11.553,11.553,0,0,0,2.2,1.817,20.888,20.888,0,0,0,3.215,1.73,15.63,15.63,0,0,0,4.595,1.04M45.818,67.873A1.381,1.381,0,0,0,47.041,65.8c-.806-1.47-1.662-2.914-2.5-4.366-.824-1.427-1.645-2.856-2.484-4.273-.27-.456-.524-.923-1.159-1.022a1.3,1.3,0,0,0-1.235.323,1.248,1.248,0,0,0-.257,1.508c.509,1.014,1.1,1.983,1.658,2.966q1.695,2.965,3.413,5.915c.3.52.59,1.083,1.34,1.024M87.87,28.813a1.341,1.341,0,0,0-1.225,1.823,7.1,7.1,0,0,0,.4.773q1.62,2.81,3.246,5.616c.559.966,1.1,1.943,1.689,2.891a1.3,1.3,0,0,0,1.808.5,1.373,1.373,0,0,0,.537-1.868c-.22-.441-.469-.868-.715-1.3-.965-1.676-1.921-3.357-2.906-5.022-.557-.942-1.034-1.932-1.671-2.825a1.274,1.274,0,0,0-1.164-.594m-40.7-.521c0-.53-.015-.6-.231-.855a1.429,1.429,0,0,0-2.282.167c-.1.162-.176.341-.272.507q-1.5,2.6-3.006,5.207c-.685,1.18-1.412,2.338-2.007,3.57A1.123,1.123,0,0,0,39.6,38.16a1.176,1.176,0,0,0,1.241.533,1.671,1.671,0,0,0,1.089-.831c.665-1.131,1.315-2.27,1.973-3.4.85-1.465,1.718-2.921,2.545-4.4.31-.553.8-1.048.718-1.766m3.357,1.73a1.5,1.5,0,0,0-1.342-1.217,1.422,1.422,0,0,0-1.345.888c-1.022,1.722-2.02,3.459-3.013,5.2-.735,1.285-1.548,2.526-2.19,3.863a1.3,1.3,0,0,0,.519,1.6,1.127,1.127,0,0,0,.683.237,1.942,1.942,0,0,0,1.488-1.068c.8-1.424,1.623-2.831,2.44-4.244s1.638-2.824,2.452-4.24a1.73,1.73,0,0,0,.309-1.014m3.189,1.869a1.326,1.326,0,0,0-.788-1.112,1.42,1.42,0,0,0-1.628.5c-.737,1.056-1.309,2.211-1.96,3.318-.98,1.669-1.945,3.347-2.912,5.024a4.256,4.256,0,0,0-.578,1.118A1.335,1.335,0,0,0,46.8,42.4a1.448,1.448,0,0,0,1.616-.716c.349-.632.711-1.255,1.077-1.877q1.789-3.037,3.53-6.1a2.993,2.993,0,0,0,.69-1.809M83.346,62.745c-.157.606.3.872.684,1.186a.778.778,0,0,0,.714.23,1.738,1.738,0,0,0,1.1-.75c.549-.937,1.093-1.876,1.608-2.831a1.244,1.244,0,0,0-.326-1.824,1.27,1.27,0,0,0-1.828.189c-.674.878-1.127,1.887-1.708,2.819a1.417,1.417,0,0,0-.246.981m10.817.866a1.453,1.453,0,0,0-.986-1.36,1.429,1.429,0,0,0-1.511.616q-.893,1.53-1.766,3.071a1.429,1.429,0,0,0,.617,1.763,1.349,1.349,0,0,0,1.854-.554c.455-.718.865-1.465,1.282-2.207.239-.425.582-.816.509-1.329M49.112,65.94a1.342,1.342,0,0,0,1.35-1.665A2.489,2.489,0,0,0,50,63.385c-.449-.829-.934-1.638-1.43-2.44a1.45,1.45,0,0,0-1.9-.406,1.394,1.394,0,0,0-.467,1.779c.545.98,1.1,1.958,1.676,2.917a1.286,1.286,0,0,0,1.232.7M93.4,60.312c.018.191-.025.42.065.566.657,1.067,1.7,1.222,2.429.163.633-.917,1.138-1.924,1.68-2.9a1.244,1.244,0,0,0,.021-1.36,1.393,1.393,0,0,0-2.351-.063q-.661,1.078-1.286,2.176c-.251.44-.64.842-.557,1.421M87.89,65.94a1.269,1.269,0,0,0,1.217-.655c.584-.976,1.138-1.97,1.688-2.966a1.143,1.143,0,0,0,.17-.753A1.438,1.438,0,0,0,89.8,60.388a1.381,1.381,0,0,0-1.453.7c-.545.965-1.161,1.889-1.654,2.885a1.348,1.348,0,0,0,1.2,1.966M90.135,58.4a1.275,1.275,0,0,0,1.315,1.4,1.38,1.38,0,0,0,1.274-.774q.77-1.266,1.481-2.568a2.04,2.04,0,0,0,.3-.84,1.431,1.431,0,0,0-.967-1.361,1.334,1.334,0,0,0-1.6.627c-.555.933-1.075,1.886-1.622,2.823a1.084,1.084,0,0,0-.173.689m-44.674,1.4c.707,0,1.172-.25,1.339-.737a1.849,1.849,0,0,0-.158-1.538c-.381-.684-.8-1.344-1.2-2.021-.174-.3-.495-.577-.548-.851-.073-.377-.264-.3-.472-.343-.039-.007-.072-.044-.111-.055a1.369,1.369,0,0,0-1.586.617,1.074,1.074,0,0,0-.1,1.224c.6,1.066,1.188,2.139,1.858,3.164a.953.953,0,0,0,.97.538m41.4-3.177a1.321,1.321,0,0,0,1.012,1.277,1.35,1.35,0,0,0,1.453-.548,32.3,32.3,0,0,0,1.774-3.1,1.275,1.275,0,0,0-.042-1.22,1.193,1.193,0,0,0-1.12-.644,1.321,1.321,0,0,0-1.3.718c-.39.672-.844,1.307-1.2,1.994a2.974,2.974,0,0,0-.569,1.529M92.8,32.52a1.291,1.291,0,0,0,.572-.093,1.35,1.35,0,0,0,.639-1.981c-.524-.961-1.081-1.9-1.655-2.837a1.254,1.254,0,0,0-.867-.633,1.336,1.336,0,0,0-1.383.474,1.2,1.2,0,0,0-.145,1.425c.549.978,1.094,1.958,1.667,2.921a1.278,1.278,0,0,0,1.171.724m-2.935,9.934a1.453,1.453,0,0,0,.9-.342,1.4,1.4,0,0,0,.183-1.9c-.479-.907-1.016-1.784-1.531-2.672A1.416,1.416,0,0,0,87.556,37a1.3,1.3,0,0,0-.533,1.81c.471.9.933,1.814,1.468,2.679.289.466.621.983,1.371.967m3.549-8.029a1.58,1.58,0,0,0,.067.506c.515,1.091,1.165,2.1,1.781,3.136a1.308,1.308,0,0,0,1.785.45,1.275,1.275,0,0,0,.562-1.806c-.582-1.032-1.115-2.094-1.8-3.065a1.285,1.285,0,0,0-1.588-.458,1.181,1.181,0,0,0-.808,1.236M83.334,31.976a1.527,1.527,0,0,0,.221.881c.41.732.833,1.458,1.244,2.19a3.216,3.216,0,0,0,.843,1.072,1.109,1.109,0,0,0,1.272.018A1.328,1.328,0,0,0,87.7,35.1a1.971,1.971,0,0,0-.434-1.267,22.27,22.27,0,0,0-1.639-2.682,1.335,1.335,0,0,0-1.487-.335,1.1,1.1,0,0,0-.811,1.156" transform="translate(-18.296 -13.665)" fill="#fff"/>
          <path id="Path_610998" data-name="Path 610998" d="M91.216,60.034a.353.353,0,0,1-.017-.283c.067.027.1-.012.1-.069s-.031-.095-.1-.066l-.008-.474a.225.225,0,0,0,0-.268c0-.168-.012-.336-.012-.5q0-25.52-.006-51.04c0-.1.006-.2.009-.294.005-.032.026-.074.013-.093-.032-.046-.081-.04-.123,0-.685,0-1.369.006-2.054.006H10.669c-.433,0-.866,0-1.3,0-.062-.03-.136-.066-.178.009-.051.093.032.108.1.122,0,.771.008,1.543.009,2.314q0,25.421,0,50.843c0,.291.063.383.366.379q1.93-.024,3.86,0a1.2,1.2,0,0,1,1.2.7,3.635,3.635,0,0,1,.144.641c-.121,1.153-.958,1.4-1.806,1.394-1.552-.011-3.1-.007-4.657-.008-.5,0-.5.012-.45.5a5.8,5.8,0,0,1,0,.631q0,8.8.006,17.594a4.925,4.925,0,0,1-.668,2.728,3.382,3.382,0,0,1-1.1,1.038A3.9,3.9,0,0,1,.562,84.577,4.211,4.211,0,0,1,0,82.406Q0,43.155,0,3.9A3.8,3.8,0,0,1,3.33.059,3.887,3.887,0,0,1,6.956,1.376a3.5,3.5,0,0,1,.931,2.165c.049.562.051.566.619.556.531-.009,1.063-.006,1.594-.006q40.408,0,80.817,0a8.108,8.108,0,0,1,1.95.087A1.315,1.315,0,0,1,93.9,5.35,6.765,6.765,0,0,1,94,6.631q-.008,27.339-.007,54.678a2.222,2.222,0,0,1-.522,1.634,1.069,1.069,0,0,1-.8.366c-1.384,0-2.768.014-4.153.014l-67.472,0c-.531,0-1.063.026-1.594.013a1.535,1.535,0,0,1-1.677-1.3,1.4,1.4,0,0,1,1.513-1.431q6.963-.011,13.926-.013,28.5,0,57.005,0a6.644,6.644,0,0,1,.671,0c.219.022.3-.088.333-.27.117-.1.141-.2-.011-.3M5.036,43.191q0-19.55.014-39.1c0-1.084-.817-1.312-1.626-1.094a.54.54,0,0,0-.41.475,9.289,9.289,0,0,0-.16,1.664q0,38.32,0,76.641a5.743,5.743,0,0,0,.088,1c.066.377.182.723.622.783.457.062.932.137,1.266-.312a1.448,1.448,0,0,0,.207-.917q0-19.57,0-39.141" transform="translate(0 0)" fill="#5e5a55"/>
          <path id="Path_610999" data-name="Path 610999" d="M83.916,115.278c1.175,1.839,2.186,3.774,3.285,5.658.442.758.912,1.5,1.328,2.274.244.454.571.851.784,1.334a1.465,1.465,0,0,1-.553,1.934,1.482,1.482,0,0,1-2.063-.832c-.367-.734-.8-1.433-1.2-2.146-.625-1.107-1.306-2.183-1.883-3.321-.494-.974-1.129-1.874-1.658-2.83-.237-.428-.586-.873-.42-1.407a1.456,1.456,0,0,1,2.287-.758l.094.095" transform="translate(-54.046 -76.203)" fill="#5e5a55"/>
          <path id="Path_611000" data-name="Path 611000" d="M68.8,137.784c-.75.06-1.038-.5-1.34-1.023q-1.716-2.952-3.413-5.915c-.562-.983-1.149-1.952-1.657-2.966a1.247,1.247,0,0,1,.256-1.508,1.3,1.3,0,0,1,1.235-.323c.635.1.889.566,1.159,1.022.839,1.418,1.66,2.847,2.484,4.274.839,1.453,1.694,2.9,2.5,4.366a1.381,1.381,0,0,1-1.223,2.073" transform="translate(-41.275 -83.576)" fill="#5e5a55"/>
          <path id="Path_611001" data-name="Path 611001" d="M203.969,44.971a1.273,1.273,0,0,1,1.163.594c.638.893,1.114,1.883,1.672,2.825.985,1.664,1.941,3.346,2.906,5.022.246.428.5.855.715,1.3a1.373,1.373,0,0,1-.537,1.868,1.3,1.3,0,0,1-1.808-.5c-.587-.949-1.13-1.925-1.689-2.891q-1.625-2.807-3.246-5.616a7.038,7.038,0,0,1-.4-.773,1.341,1.341,0,0,1,1.225-1.823" transform="translate(-134.395 -29.823)" fill="#5e5a55"/>
          <path id="Path_611002" data-name="Path 611002" d="M70.15,40.779c.079.718-.409,1.213-.718,1.766-.827,1.478-1.7,2.933-2.546,4.4-.658,1.135-1.308,2.274-1.972,3.4a1.67,1.67,0,0,1-1.089.831,1.176,1.176,0,0,1-1.241-.532,1.124,1.124,0,0,1-.231-1.272c.595-1.232,1.321-2.389,2.006-3.57q1.51-2.6,3.006-5.207c.1-.166.171-.344.272-.507a1.429,1.429,0,0,1,2.282-.167c.216.252.235.325.231.855" transform="translate(-41.279 -26.152)" fill="#5e5a55"/>
          <path id="Path_611003" data-name="Path 611003" d="M79.943,46.165a1.73,1.73,0,0,1-.309,1.014C78.82,48.594,78,50,77.182,51.418s-1.643,2.82-2.44,4.244a1.942,1.942,0,0,1-1.488,1.068,1.127,1.127,0,0,1-.682-.237,1.3,1.3,0,0,1-.519-1.6c.643-1.337,1.456-2.578,2.19-3.863.994-1.739,1.992-3.476,3.013-5.2a1.422,1.422,0,0,1,1.345-.888,1.5,1.5,0,0,1,1.342,1.217" transform="translate(-47.716 -29.808)" fill="#5e5a55"/>
          <path id="Path_611004" data-name="Path 611004" d="M89.581,51.765a2.989,2.989,0,0,1-.69,1.809q-1.736,3.068-3.529,6.1c-.366.622-.729,1.245-1.077,1.877a1.447,1.447,0,0,1-1.616.716,1.336,1.336,0,0,1-.953-1.66,4.251,4.251,0,0,1,.578-1.118c.967-1.677,1.931-3.355,2.912-5.024.651-1.107,1.223-2.262,1.96-3.318a1.42,1.42,0,0,1,1.628-.5,1.325,1.325,0,0,1,.788,1.112" transform="translate(-54.166 -33.539)" fill="#5e5a55"/>
          <path id="Path_611005" data-name="Path 611005" d="M193.08,137.268a1.414,1.414,0,0,1,.246-.981c.581-.932,1.034-1.941,1.708-2.819a1.27,1.27,0,0,1,1.828-.189,1.243,1.243,0,0,1,.326,1.823c-.515.955-1.06,1.9-1.608,2.831a1.736,1.736,0,0,1-1.1.75.779.779,0,0,1-.715-.229c-.382-.315-.841-.58-.684-1.187" transform="translate(-128.03 -88.188)" fill="#5e5a55"/>
          <path id="Path_611006" data-name="Path 611006" d="M216.639,145.536c.073.512-.27.9-.509,1.329-.417.741-.827,1.488-1.282,2.206a1.349,1.349,0,0,1-1.854.554,1.429,1.429,0,0,1-.617-1.763q.876-1.539,1.766-3.071a1.428,1.428,0,0,1,1.511-.616,1.453,1.453,0,0,1,.986,1.36" transform="translate(-140.771 -95.59)" fill="#5e5a55"/>
          <path id="Path_611007" data-name="Path 611007" d="M85.469,144.192a1.284,1.284,0,0,1-1.231-.7c-.581-.959-1.132-1.936-1.676-2.917a1.4,1.4,0,0,1,.467-1.779,1.449,1.449,0,0,1,1.9.406c.5.8.982,1.611,1.43,2.439a2.494,2.494,0,0,1,.462.889,1.342,1.342,0,0,1-1.35,1.665" transform="translate(-54.653 -91.917)" fill="#5e5a55"/>
          <path id="Path_611008" data-name="Path 611008" d="M222.963,130.2c-.083-.58.306-.982.557-1.421q.626-1.1,1.286-2.176a1.393,1.393,0,0,1,2.351.063,1.245,1.245,0,0,1-.021,1.361c-.542.978-1.047,1.985-1.68,2.9-.731,1.06-1.772.9-2.429-.163-.09-.146-.046-.375-.065-.566" transform="translate(-147.861 -83.555)" fill="#5e5a55"/>
          <path id="Path_611009" data-name="Path 611009" d="M203.981,144.228a1.349,1.349,0,0,1-1.2-1.967c.493-1,1.108-1.92,1.654-2.885a1.381,1.381,0,0,1,1.453-.7,1.437,1.437,0,0,1,1.168,1.179,1.141,1.141,0,0,1-.169.753c-.55,1-1.1,1.99-1.688,2.966a1.272,1.272,0,0,1-1.216.656" transform="translate(-134.387 -91.952)" fill="#5e5a55"/>
          <path id="Path_611010" data-name="Path 611010" d="M213.283,124.515a1.086,1.086,0,0,1,.173-.689c.547-.937,1.067-1.891,1.622-2.823a1.333,1.333,0,0,1,1.6-.627,1.431,1.431,0,0,1,.967,1.361,2.048,2.048,0,0,1-.3.841q-.709,1.3-1.481,2.568a1.38,1.38,0,0,1-1.273.774,1.275,1.275,0,0,1-1.315-1.4" transform="translate(-141.444 -79.785)" fill="#5e5a55"/>
          <path id="Path_611011" data-name="Path 611011" d="M74.791,125.932a.953.953,0,0,1-.97-.538c-.671-1.025-1.257-2.1-1.858-3.164a1.073,1.073,0,0,1,.1-1.224,1.369,1.369,0,0,1,1.586-.617c.039.01.072.047.111.055.208.039.4-.034.472.342.054.274.374.552.548.851.394.677.817,1.337,1.2,2.021a1.849,1.849,0,0,1,.158,1.538c-.167.486-.633.735-1.339.736" transform="translate(-47.626 -79.803)" fill="#5e5a55"/>
          <path id="Path_611012" data-name="Path 611012" d="M203.558,119.175a2.977,2.977,0,0,1,.569-1.529c.36-.686.814-1.322,1.2-1.994a1.32,1.32,0,0,1,1.3-.718,1.193,1.193,0,0,1,1.12.644,1.274,1.274,0,0,1,.042,1.22,32.288,32.288,0,0,1-1.773,3.1,1.35,1.35,0,0,1-1.453.549,1.321,1.321,0,0,1-1.012-1.277" transform="translate(-134.997 -76.223)" fill="#5e5a55"/>
          <path id="Path_611013" data-name="Path 611013" d="M215.278,45a1.278,1.278,0,0,1-1.171-.724c-.574-.963-1.119-1.944-1.667-2.922a1.2,1.2,0,0,1,.145-1.425,1.336,1.336,0,0,1,1.383-.474,1.256,1.256,0,0,1,.867.633c.574.933,1.131,1.877,1.655,2.838a1.349,1.349,0,0,1-.64,1.981,1.283,1.283,0,0,1-.572.093" transform="translate(-140.776 -26.146)" fill="#5e5a55"/>
          <path id="Path_611014" data-name="Path 611014" d="M206.546,74.413c-.751.016-1.083-.5-1.371-.966-.536-.864-1-1.776-1.468-2.679a1.3,1.3,0,0,1,.534-1.81,1.416,1.416,0,0,1,1.858.542c.515.888,1.051,1.764,1.531,2.672a1.4,1.4,0,0,1-.183,1.9,1.45,1.45,0,0,1-.9.342" transform="translate(-134.98 -45.624)" fill="#5e5a55"/>
          <path id="Path_611015" data-name="Path 611015" d="M223.025,59.01a1.18,1.18,0,0,1,.808-1.236,1.285,1.285,0,0,1,1.588.458c.684.971,1.217,2.033,1.8,3.065a1.276,1.276,0,0,1-.562,1.806,1.307,1.307,0,0,1-1.785-.45c-.615-1.032-1.266-2.045-1.781-3.136a1.593,1.593,0,0,1-.067-.507" transform="translate(-147.91 -38.25)" fill="#5e5a55"/>
          <path id="Path_611016" data-name="Path 611016" d="M193.094,51.909a1.1,1.1,0,0,1,.811-1.156,1.335,1.335,0,0,1,1.487.335,22.262,22.262,0,0,1,1.639,2.682,1.971,1.971,0,0,1,.434,1.267,1.328,1.328,0,0,1-.79,1.034,1.109,1.109,0,0,1-1.272-.018,3.215,3.215,0,0,1-.843-1.072c-.412-.732-.834-1.457-1.245-2.19a1.527,1.527,0,0,1-.221-.881" transform="translate(-128.056 -33.599)" fill="#5e5a55"/>
          <path id="Path_611017" data-name="Path 611017" d="M146.017,146.022a.651.651,0,0,1,.423.04c-.158.165-.3.172-.423-.04" transform="translate(-96.838 -96.831)" fill="#f5f4f4"/>
          <path id="Path_611018" data-name="Path 611018" d="M270.534,174.8a.225.225,0,0,1,0,.267c-.1.024-.114-.041-.111-.113s-.025-.176.112-.154" transform="translate(-179.343 -115.926)" fill="#00337e"/>
          <path id="Path_611019" data-name="Path 611019" d="M270.71,178.247c.153.094.128.193.011.3-.111-.095-.082-.195-.011-.3" transform="translate(-179.493 -118.213)" fill="#00337e"/>
          <path id="Path_611020" data-name="Path 611020" d="M270.4,20.548c.043-.036.091-.042.124,0,.013.019-.008.061-.013.093-.1.04-.124-.006-.11-.1" transform="translate(-179.324 -13.608)" fill="#00337e"/>
          <path id="Path_611021" data-name="Path 611021" d="M27.36,20.669c-.067-.013-.15-.029-.1-.121.041-.075.116-.039.178-.009l-.079.13" transform="translate(-18.069 -13.598)" fill="#232527"/>
          <path id="Path_611022" data-name="Path 611022" d="M270.715,176.988c.067-.029.1.009.1.066s-.029.1-.1.069a.085.085,0,0,1,0-.135" transform="translate(-179.517 -117.372)" fill="#00337e"/>
          <path id="Path_611023" data-name="Path 611023" d="M88.5,115.829l-.094-.095.094.095" transform="translate(-58.634 -76.755)" fill="#f5f4f4"/>
          <path id="Path_611024" data-name="Path 611024" d="M133.952,70.68a8.887,8.887,0,0,0,.093-1.34,8.654,8.654,0,0,0-.169-1.471,20.425,20.425,0,0,0-.8-3.461,16.37,16.37,0,0,0-2.971-5.051,15.008,15.008,0,0,0-3.588-3,16.1,16.1,0,0,0-2.846-1.347,15.207,15.207,0,0,0-3.687-.882,13.868,13.868,0,0,0-4.7.28,17.7,17.7,0,0,0-3.821,1.358,15,15,0,0,0-4.829,3.827,18.492,18.492,0,0,0-2.084,3.131,14.222,14.222,0,0,0-1.1,2.926,16.6,16.6,0,0,0-.535,3.461,12.356,12.356,0,0,0,.251,2.918,18.208,18.208,0,0,0,.564,2.453,17.165,17.165,0,0,0,1.439,3.056,14.906,14.906,0,0,0,2.247,2.91,11.552,11.552,0,0,0,2.2,1.817,20.9,20.9,0,0,0,3.215,1.73,15.625,15.625,0,0,0,4.595,1.04.651.651,0,0,1,.423.04c.811-.115,1.628-.011,2.448-.136a16.7,16.7,0,0,0,4.144-1.09,15.5,15.5,0,0,0,6.9-5.7,15.058,15.058,0,0,0,1.821-3.725,20.5,20.5,0,0,0,.641-2.78q.066-.366.121-.731l.126-.145-.093-.087" transform="translate(-68.246 -35.843)" fill="#5e5a55"/>
          <path id="Path_611025" data-name="Path 611025" d="M111.156,75.1a18.027,18.027,0,0,1,.512-3.243,10.532,10.532,0,0,1,.788-2.054,18.234,18.234,0,0,1,1.191-2.1,12.259,12.259,0,0,1,4.325-3.737c.475-.248.969-.451,1.46-.663a13.259,13.259,0,0,1,1.617-.5,6.4,6.4,0,0,1,1.645-.247,10.474,10.474,0,0,1,1.243-.072,22.056,22.056,0,0,1,3.145.383,12.373,12.373,0,0,1,5.773,3.3,12.79,12.79,0,0,1,2.843,4.249,11.935,11.935,0,0,1,.9,3.489c-2.974-2.067-7.031-3.237-13.4.51-6.931,4.079-9.866,3.63-11,3a2.429,2.429,0,0,1-.961-.982c0-.041-.01-.082-.014-.123a7.623,7.623,0,0,1-.07-1.208" transform="translate(-73.714 -41.429)" fill="#db0013"/>
          <path id="Path_611026" data-name="Path 611026" d="M130.5,110.254a13.732,13.732,0,0,1-5.807.909,4.625,4.625,0,0,1-.527-.105,12.756,12.756,0,0,1-8.25-4.682,11.16,11.16,0,0,1-1.907-3.2,6.621,6.621,0,0,0,1.944.271c2.626,0,6.063-1.242,10.268-3.717,6.257-3.682,9.423-2.081,12.266.376a13.342,13.342,0,0,1-1.429,4.369,12.417,12.417,0,0,1-6.558,5.78" transform="translate(-75.611 -64.7)" fill="#004391"/>
        </g>
      </g>
    </g>
  </g>
</svg>
