<svg xmlns="http://www.w3.org/2000/svg" xmlns:xlink="http://www.w3.org/1999/xlink" width="62.504" height="62.504" viewBox="0 0 62.504 62.504">
  <defs>
    <clipPath id="clip-path">
      <rect id="Rectangle_378352" data-name="Rectangle 378352" width="37.912" height="41.915" fill="#f8f5f7"/>
    </clipPath>
  </defs>
  <g id="Group_1073941" data-name="Group 1073941" transform="translate(-11640 8562)">
    <g id="Group_1073737" data-name="Group 1073737" transform="translate(11360.184 -9760.717)">
      <g id="Group_1072053" data-name="Group 1072053" transform="translate(279.816 1198.717)">
        <circle id="Ellipse_4742" data-name="Ellipse 4742" cx="31.252" cy="31.252" r="31.252" transform="translate(0)" fill="#9b1497"/>
      </g>
    </g>
    <g id="Group_1073739" data-name="Group 1073739" transform="translate(11652.809 -8552)">
      <g id="Group_1073719" data-name="Group 1073719" clip-path="url(#clip-path)">
        <path id="Path_610882" data-name="Path 610882" d="M22.876,36.612c.649,0,1.275-.023,1.9,0a2.478,2.478,0,0,1,2.3,2.375,2.894,2.894,0,0,1-.276,1.475,2.41,2.41,0,0,1-2.261,1.44q-5.549.018-11.1,0A2.7,2.7,0,0,1,12.154,36.9a1.963,1.963,0,0,1,1.017-.288c.532,0,1.064,0,1.6,0h.3c-.016-.2-.022-.377-.047-.552-.062-.427-.131-.852-.2-1.277a.174.174,0,0,0-.2-.167q-5.465.009-10.93,0A6.276,6.276,0,0,1,2.251,34.5a2.873,2.873,0,0,1-2.2-2.268,3.486,3.486,0,0,1-.045-.841q0-9.7-.005-19.4a3.308,3.308,0,0,1,.438-1.812,2.982,2.982,0,0,1,2.206-1.4,5.583,5.583,0,0,1,.84-.068q3.822-.007,7.644,0c.149,0,.331.047.436-.022s.1-.253.148-.389a11.447,11.447,0,0,1,2.321-4.165A11.926,11.926,0,0,1,19.456.587a12.689,12.689,0,0,1,3.349-.58,10.161,10.161,0,0,1,2.386.222,11.688,11.688,0,0,1,6.05,3.261,11.294,11.294,0,0,1,2.521,3.492c.21.478.369.98.535,1.476.088.262.093.282.4.282a3.3,3.3,0,0,1,1.92.54A2.741,2.741,0,0,1,37.9,11.594c.018,1.533.008,3.067.008,4.6,0,5.171-.018,10.342.006,15.513A2.97,2.97,0,0,1,35.7,34.5a4.948,4.948,0,0,1-1.059.115q-5.615.008-11.231-.009c-.2,0-.3.057-.325.254-.069.52-.144,1.039-.214,1.559a1.184,1.184,0,0,0,.008.191M13.142,20.245l.689-.714c.022-.022.058-.04.065-.066a.223.223,0,0,0,.009-.144,1.613,1.613,0,0,0-.155-.212,12.49,12.49,0,0,1-2.329-5.225,11.559,11.559,0,0,1-.183-3.044c.008-.113-.022-.141-.129-.141-.457,0-.914-.011-1.371-.012q-3.192-.009-6.385-.015a3.066,3.066,0,0,0-.393.025,1.038,1.038,0,0,0-.979,1.108V31.675a.973.973,0,0,0,.9.969c.243.015.488,0,.732,0q15.653.006,31.305.017a1.1,1.1,0,0,0,1.028-1.018q-.027-9.934-.012-19.869c0-.056,0-.113,0-.169a.728.728,0,0,0-.212-.525,1.535,1.535,0,0,0-.952-.4c.19,5.124-1.872,8.975-6.364,11.479-4.642,2.236-8.98,1.587-13.089-1.358l-.807.825a2.025,2.025,0,0,1,.537.94,2.205,2.205,0,0,1-.647,2.174c-1.19,1.164-2.365,2.344-3.545,3.519-.847.844-1.7,1.683-2.536,2.536a2.337,2.337,0,0,1-1.658.729A2.3,2.3,0,0,1,5.018,30.9c-.464-.438-.931-.877-1.353-1.354a2.05,2.05,0,0,1-.514-1.812,2.558,2.558,0,0,1,.769-1.346q2.563-2.522,5.115-5.056c.369-.365.737-.733,1.115-1.089a1.968,1.968,0,0,1,.932-.535,2.158,2.158,0,0,1,2.061.536m17.681-8.459h0a7.234,7.234,0,0,0-.009-1.125,7.672,7.672,0,0,0-.837-2.551,7.791,7.791,0,0,0-6.928-4.2,7.208,7.208,0,0,0-2.417.36,7.635,7.635,0,0,0-3.742,2.517A7.679,7.679,0,0,0,15.131,12.6a7.378,7.378,0,0,0,.919,2.949A7.87,7.87,0,0,0,22.4,19.64a7.225,7.225,0,0,0,2.507-.23,7.686,7.686,0,0,0,4.662-3.273,7.864,7.864,0,0,0,1.244-3.227,7.369,7.369,0,0,0,.009-1.125" transform="translate(0 -0.001)" fill="#f8f5f7"/>
        <path id="Path_610883" data-name="Path 610883" d="M168.395,173.861c-1.371,0-2.742-.009-4.112.006a.933.933,0,0,1-.894-.786.948.948,0,0,1,.465-.985,1.8,1.8,0,0,1,.7-.181c2.566-.013,5.133-.022,7.7,0,.751.006,1.065.357,1.129.94a.919.919,0,0,1-.854,1.011c-1.377-.014-2.754-.005-4.131-.005" transform="translate(-138.823 -146.074)" fill="#f8f5f7"/>
        <path id="Path_610884" data-name="Path 610884" d="M185.069,198.871c-.907,0-1.815-.01-2.722,0a.944.944,0,0,1-.955-.811.962.962,0,0,1,.571-1.015,1.912,1.912,0,0,1,.651-.144c1.627-.012,3.254-.022,4.88,0,.78.011,1.115.375,1.183.933a.918.918,0,0,1-.813,1.027c-.932,0-1.864,0-2.8,0v.007" transform="translate(-154.122 -167.31)" fill="#f8f5f7"/>
      </g>
    </g>
  </g>
</svg>
