<svg xmlns="http://www.w3.org/2000/svg" xmlns:xlink="http://www.w3.org/1999/xlink" width="1327.667" height="584.607" viewBox="0 0 1327.667 584.607">
  <defs>
    <clipPath id="clip-path">
      <path id="Rectangle_652" data-name="Rectangle 652" d="M20.908,0H1306.759c11.547,0,20.908,8.128,20.908,18.154v548.3c0,10.026-9.361,18.154-20.908,18.154H20.908C9.361,584.607,0,576.479,0,566.453V18.154C0,8.128,9.361,0,20.908,0Z" transform="translate(143.333 70)" fill="#9ac1df"/>
    </clipPath>
    <clipPath id="clip-path-2">
      <rect id="Rectangle_378197" data-name="Rectangle 378197" width="1341.228" height="702.191" transform="translate(0 0)" fill="none"/>
    </clipPath>
  </defs>
  <g id="Mask_Group_154374" data-name="Mask Group 154374" transform="translate(-143.333 -70)" clip-path="url(#clip-path)">
    <g id="fondo" transform="translate(123.217 48.878)">
      <path id="Path_610307" data-name="Path 610307" d="M0,0H1374.94V719.153H0Z" fill="#e1d6cb"/>
      <g id="Group_1073407" data-name="Group 1073407" transform="translate(20.116 7.207)" clip-path="url(#clip-path-2)">
        <line id="Line_2908" data-name="Line 2908" x1="1108.255" y2="1108.258" transform="translate(-372.748 -719.199)" fill="none" stroke="#e3dad0" stroke-miterlimit="10" stroke-width="3"/>
        <line id="Line_2909" data-name="Line 2909" x1="1108.258" y2="1108.258" transform="translate(-364.141 -710.588)" fill="none" stroke="#e3dad0" stroke-miterlimit="10" stroke-width="3"/>
        <line id="Line_2910" data-name="Line 2910" x1="1108.258" y2="1108.258" transform="translate(-355.533 -701.98)" fill="none" stroke="#e3dad0" stroke-miterlimit="10" stroke-width="3"/>
        <line id="Line_2911" data-name="Line 2911" x1="1108.255" y2="1108.258" transform="translate(-346.922 -693.372)" fill="none" stroke="#e3dad0" stroke-miterlimit="10" stroke-width="3"/>
        <line id="Line_2912" data-name="Line 2912" x1="1108.258" y2="1108.255" transform="translate(-338.314 -684.761)" fill="none" stroke="#e3dad0" stroke-miterlimit="10" stroke-width="3"/>
        <line id="Line_2913" data-name="Line 2913" x1="1108.258" y2="1108.258" transform="translate(-329.706 -676.153)" fill="none" stroke="#e3dad0" stroke-miterlimit="10" stroke-width="3"/>
        <line id="Line_2914" data-name="Line 2914" x1="1108.258" y2="1108.258" transform="translate(-321.099 -667.546)" fill="none" stroke="#e3dad0" stroke-miterlimit="10" stroke-width="3"/>
        <line id="Line_2915" data-name="Line 2915" x1="1108.255" y2="1108.255" transform="translate(-312.487 -658.934)" fill="none" stroke="#e3dad0" stroke-miterlimit="10" stroke-width="3"/>
        <line id="Line_2916" data-name="Line 2916" x1="1108.258" y2="1108.258" transform="translate(-303.88 -650.327)" fill="none" stroke="#e3dad0" stroke-miterlimit="10" stroke-width="3"/>
        <line id="Line_2917" data-name="Line 2917" x1="1108.258" y2="1108.258" transform="translate(-295.272 -641.719)" fill="none" stroke="#e3dad0" stroke-miterlimit="10" stroke-width="3"/>
        <line id="Line_2918" data-name="Line 2918" x1="1108.255" y2="1108.258" transform="translate(-286.661 -633.111)" fill="none" stroke="#e3dad0" stroke-miterlimit="10" stroke-width="3"/>
        <line id="Line_2919" data-name="Line 2919" x1="1108.258" y2="1108.255" transform="translate(-278.053 -624.5)" fill="none" stroke="#e3dad0" stroke-miterlimit="10" stroke-width="3"/>
        <line id="Line_2920" data-name="Line 2920" x1="1108.258" y2="1108.258" transform="translate(-269.445 -615.892)" fill="none" stroke="#e3dad0" stroke-miterlimit="10" stroke-width="3"/>
        <line id="Line_2921" data-name="Line 2921" x1="1108.255" y2="1108.258" transform="translate(-260.834 -607.285)" fill="none" stroke="#e3dad0" stroke-miterlimit="10" stroke-width="3"/>
        <line id="Line_2922" data-name="Line 2922" x1="1108.258" y2="1108.255" transform="translate(-252.226 -598.673)" fill="none" stroke="#e3dad0" stroke-miterlimit="10" stroke-width="3"/>
        <line id="Line_2923" data-name="Line 2923" x1="1108.258" y2="1108.258" transform="translate(-243.619 -590.066)" fill="none" stroke="#e3dad0" stroke-miterlimit="10" stroke-width="3"/>
        <line id="Line_2924" data-name="Line 2924" x1="1108.258" y2="1108.258" transform="translate(-235.011 -581.458)" fill="none" stroke="#e3dad0" stroke-miterlimit="10" stroke-width="3"/>
        <line id="Line_2925" data-name="Line 2925" x1="1108.255" y2="1108.255" transform="translate(-226.4 -572.846)" fill="none" stroke="#e3dad0" stroke-miterlimit="10" stroke-width="3"/>
        <line id="Line_2926" data-name="Line 2926" x1="1108.258" y2="1108.258" transform="translate(-217.792 -564.239)" fill="none" stroke="#e3dad0" stroke-miterlimit="10" stroke-width="3"/>
        <line id="Line_2927" data-name="Line 2927" x1="1108.258" y2="1108.258" transform="translate(-209.184 -555.631)" fill="none" stroke="#e3dad0" stroke-miterlimit="10" stroke-width="3"/>
        <line id="Line_2928" data-name="Line 2928" x1="1108.255" y2="1108.258" transform="translate(-200.573 -547.024)" fill="none" stroke="#e3dad0" stroke-miterlimit="10" stroke-width="3"/>
        <line id="Line_2929" data-name="Line 2929" x1="1108.258" y2="1108.258" transform="translate(-191.965 -538.412)" fill="none" stroke="#e3dad0" stroke-miterlimit="10" stroke-width="3"/>
        <line id="Line_2930" data-name="Line 2930" x1="1108.258" y2="1108.258" transform="translate(-183.358 -529.805)" fill="none" stroke="#e3dad0" stroke-miterlimit="10" stroke-width="3"/>
        <line id="Line_2931" data-name="Line 2931" x1="1108.255" y2="1108.258" transform="translate(-174.746 -521.197)" fill="none" stroke="#e3dad0" stroke-miterlimit="10" stroke-width="3"/>
        <line id="Line_2932" data-name="Line 2932" x1="1108.258" y2="1108.255" transform="translate(-166.139 -512.586)" fill="none" stroke="#e3dad0" stroke-miterlimit="10" stroke-width="3"/>
        <line id="Line_2933" data-name="Line 2933" x1="1108.258" y2="1108.258" transform="translate(-157.531 -503.978)" fill="none" stroke="#e3dad0" stroke-miterlimit="10" stroke-width="3"/>
        <line id="Line_2934" data-name="Line 2934" x1="1108.255" y2="1108.258" transform="translate(-148.92 -495.37)" fill="none" stroke="#e3dad0" stroke-miterlimit="10" stroke-width="3"/>
        <line id="Line_2935" data-name="Line 2935" x1="1108.255" y2="1108.255" transform="translate(-140.312 -486.759)" fill="none" stroke="#e3dad0" stroke-miterlimit="10" stroke-width="3"/>
        <line id="Line_2936" data-name="Line 2936" x1="1108.258" y2="1108.258" transform="translate(-131.704 -478.151)" fill="none" stroke="#e3dad0" stroke-miterlimit="10" stroke-width="3"/>
        <line id="Line_2937" data-name="Line 2937" x1="1108.258" y2="1108.258" transform="translate(-123.097 -469.544)" fill="none" stroke="#e3dad0" stroke-miterlimit="10" stroke-width="3"/>
        <line id="Line_2938" data-name="Line 2938" x1="1108.255" y2="1108.258" transform="translate(-114.485 -460.936)" fill="none" stroke="#e3dad0" stroke-miterlimit="10" stroke-width="3"/>
        <line id="Line_2939" data-name="Line 2939" x1="1108.258" y2="1108.258" transform="translate(-105.878 -452.325)" fill="none" stroke="#e3dad0" stroke-miterlimit="10" stroke-width="3"/>
        <line id="Line_2940" data-name="Line 2940" x1="1108.258" y2="1108.258" transform="translate(-97.27 -443.717)" fill="none" stroke="#e3dad0" stroke-miterlimit="10" stroke-width="3"/>
        <line id="Line_2941" data-name="Line 2941" x1="1108.255" y2="1108.258" transform="translate(-88.659 -435.109)" fill="none" stroke="#e3dad0" stroke-miterlimit="10" stroke-width="3"/>
        <line id="Line_2942" data-name="Line 2942" x1="1108.258" y2="1108.255" transform="translate(-80.051 -426.498)" fill="none" stroke="#e3dad0" stroke-miterlimit="10" stroke-width="3"/>
        <line id="Line_2943" data-name="Line 2943" x1="1108.258" y2="1108.258" transform="translate(-71.443 -417.89)" fill="none" stroke="#e3dad0" stroke-miterlimit="10" stroke-width="3"/>
        <line id="Line_2944" data-name="Line 2944" x1="1108.258" y2="1108.258" transform="translate(-62.836 -409.283)" fill="none" stroke="#e3dad0" stroke-miterlimit="10" stroke-width="3"/>
        <line id="Line_2945" data-name="Line 2945" x1="1108.255" y2="1108.255" transform="translate(-54.224 -400.671)" fill="none" stroke="#e3dad0" stroke-miterlimit="10" stroke-width="3"/>
        <line id="Line_2946" data-name="Line 2946" x1="1108.258" y2="1108.258" transform="translate(-45.617 -392.064)" fill="none" stroke="#e3dad0" stroke-miterlimit="10" stroke-width="3"/>
        <line id="Line_2947" data-name="Line 2947" x1="1108.258" y2="1108.258" transform="translate(-37.009 -383.456)" fill="none" stroke="#e3dad0" stroke-miterlimit="10" stroke-width="3"/>
        <line id="Line_2948" data-name="Line 2948" x1="1108.255" y2="1108.258" transform="translate(-28.398 -374.848)" fill="none" stroke="#e3dad0" stroke-miterlimit="10" stroke-width="3"/>
        <line id="Line_2949" data-name="Line 2949" x1="1108.258" y2="1108.258" transform="translate(-19.79 -366.237)" fill="none" stroke="#e3dad0" stroke-miterlimit="10" stroke-width="3"/>
        <line id="Line_2950" data-name="Line 2950" x1="1108.258" y2="1108.258" transform="translate(-11.182 -357.629)" fill="none" stroke="#e3dad0" stroke-miterlimit="10" stroke-width="3"/>
        <line id="Line_2951" data-name="Line 2951" x1="1108.255" y2="1108.258" transform="translate(-2.571 -349.022)" fill="none" stroke="#e3dad0" stroke-miterlimit="10" stroke-width="3"/>
        <line id="Line_2952" data-name="Line 2952" x1="1108.258" y2="1108.255" transform="translate(6.037 -340.41)" fill="none" stroke="#e3dad0" stroke-miterlimit="10" stroke-width="3"/>
        <line id="Line_2953" data-name="Line 2953" x1="1108.258" y2="1108.258" transform="translate(14.644 -331.803)" fill="none" stroke="#e3dad0" stroke-miterlimit="10" stroke-width="3"/>
        <line id="Line_2954" data-name="Line 2954" x1="1108.258" y2="1108.258" transform="translate(23.252 -323.195)" fill="none" stroke="#e3dad0" stroke-miterlimit="10" stroke-width="3"/>
        <line id="Line_2955" data-name="Line 2955" x1="1108.255" y2="1108.255" transform="translate(31.863 -314.584)" fill="none" stroke="#e3dad0" stroke-miterlimit="10" stroke-width="3"/>
        <line id="Line_2956" data-name="Line 2956" x1="1108.258" y2="1108.258" transform="translate(40.471 -305.976)" fill="none" stroke="#e3dad0" stroke-miterlimit="10" stroke-width="3"/>
        <line id="Line_2957" data-name="Line 2957" x1="1108.258" y2="1108.258" transform="translate(49.078 -297.368)" fill="none" stroke="#e3dad0" stroke-miterlimit="10" stroke-width="3"/>
        <line id="Line_2958" data-name="Line 2958" x1="1108.255" y2="1108.258" transform="translate(57.69 -288.761)" fill="none" stroke="#e3dad0" stroke-miterlimit="10" stroke-width="3"/>
        <line id="Line_2959" data-name="Line 2959" x1="1108.258" y2="1108.258" transform="translate(66.297 -280.149)" fill="none" stroke="#e3dad0" stroke-miterlimit="10" stroke-width="3"/>
        <line id="Line_2960" data-name="Line 2960" x1="1108.258" y2="1108.258" transform="translate(74.905 -271.542)" fill="none" stroke="#e3dad0" stroke-miterlimit="10" stroke-width="3"/>
        <line id="Line_2961" data-name="Line 2961" x1="1108.255" y2="1108.258" transform="translate(83.517 -262.934)" fill="none" stroke="#e3dad0" stroke-miterlimit="10" stroke-width="3"/>
        <line id="Line_2962" data-name="Line 2962" x1="1108.258" y2="1108.255" transform="translate(92.124 -254.323)" fill="none" stroke="#e3dad0" stroke-miterlimit="10" stroke-width="3"/>
        <line id="Line_2963" data-name="Line 2963" x1="1108.258" y2="1108.258" transform="translate(100.732 -245.715)" fill="none" stroke="#e3dad0" stroke-miterlimit="10" stroke-width="3"/>
        <line id="Line_2964" data-name="Line 2964" x1="1108.258" y2="1108.258" transform="translate(109.339 -237.107)" fill="none" stroke="#e3dad0" stroke-miterlimit="10" stroke-width="3"/>
        <line id="Line_2965" data-name="Line 2965" x1="1108.255" y2="1108.255" transform="translate(117.951 -228.496)" fill="none" stroke="#e3dad0" stroke-miterlimit="10" stroke-width="3"/>
        <line id="Line_2966" data-name="Line 2966" x1="1108.258" y2="1108.258" transform="translate(126.558 -219.888)" fill="none" stroke="#e3dad0" stroke-miterlimit="10" stroke-width="3"/>
        <line id="Line_2967" data-name="Line 2967" x1="1108.258" y2="1108.258" transform="translate(135.166 -211.281)" fill="none" stroke="#e3dad0" stroke-miterlimit="10" stroke-width="3"/>
        <line id="Line_2968" data-name="Line 2968" x1="1108.255" y2="1108.258" transform="translate(143.777 -202.673)" fill="none" stroke="#e3dad0" stroke-miterlimit="10" stroke-width="3"/>
        <line id="Line_2969" data-name="Line 2969" x1="1108.258" y2="1108.258" transform="translate(152.385 -194.062)" fill="none" stroke="#e3dad0" stroke-miterlimit="10" stroke-width="3"/>
        <line id="Line_2970" data-name="Line 2970" x1="1108.258" y2="1108.258" transform="translate(160.993 -185.454)" fill="none" stroke="#e3dad0" stroke-miterlimit="10" stroke-width="3"/>
        <line id="Line_2971" data-name="Line 2971" x1="1108.255" y2="1108.258" transform="translate(169.604 -176.846)" fill="none" stroke="#e3dad0" stroke-miterlimit="10" stroke-width="3"/>
        <line id="Line_2972" data-name="Line 2972" x1="1108.258" y2="1108.255" transform="translate(178.212 -168.235)" fill="none" stroke="#e3dad0" stroke-miterlimit="10" stroke-width="3"/>
        <line id="Line_2973" data-name="Line 2973" x1="1108.258" y2="1108.258" transform="translate(186.819 -159.627)" fill="none" stroke="#e3dad0" stroke-miterlimit="10" stroke-width="3"/>
        <line id="Line_2974" data-name="Line 2974" x1="1108.258" y2="1108.258" transform="translate(195.427 -151.02)" fill="none" stroke="#e3dad0" stroke-miterlimit="10" stroke-width="3"/>
        <line id="Line_2975" data-name="Line 2975" x1="1108.255" y2="1108.255" transform="translate(204.038 -142.408)" fill="none" stroke="#e3dad0" stroke-miterlimit="10" stroke-width="3"/>
        <line id="Line_2976" data-name="Line 2976" x1="1108.258" y2="1108.258" transform="translate(212.646 -133.801)" fill="none" stroke="#e3dad0" stroke-miterlimit="10" stroke-width="3"/>
        <line id="Line_2977" data-name="Line 2977" x1="1108.258" y2="1108.258" transform="translate(221.254 -125.193)" fill="none" stroke="#e3dad0" stroke-miterlimit="10" stroke-width="3"/>
        <line id="Line_2978" data-name="Line 2978" x1="1108.255" y2="1108.258" transform="translate(229.865 -116.586)" fill="none" stroke="#e3dad0" stroke-miterlimit="10" stroke-width="3"/>
        <line id="Line_2979" data-name="Line 2979" x1="1108.258" y2="1108.258" transform="translate(238.473 -107.974)" fill="none" stroke="#e3dad0" stroke-miterlimit="10" stroke-width="3"/>
        <line id="Line_2980" data-name="Line 2980" x1="1108.258" y2="1108.258" transform="translate(247.08 -99.367)" fill="none" stroke="#e3dad0" stroke-miterlimit="10" stroke-width="3"/>
        <line id="Line_2981" data-name="Line 2981" x1="1108.255" y2="1108.258" transform="translate(255.692 -90.759)" fill="none" stroke="#e3dad0" stroke-miterlimit="10" stroke-width="3"/>
        <line id="Line_2982" data-name="Line 2982" x1="1108.258" y2="1108.255" transform="translate(264.299 -82.147)" fill="none" stroke="#e3dad0" stroke-miterlimit="10" stroke-width="3"/>
        <line id="Line_2983" data-name="Line 2983" x1="1108.258" y2="1108.258" transform="translate(272.907 -73.54)" fill="none" stroke="#e3dad0" stroke-miterlimit="10" stroke-width="3"/>
        <line id="Line_2984" data-name="Line 2984" x1="1108.258" y2="1108.258" transform="translate(281.515 -64.932)" fill="none" stroke="#e3dad0" stroke-miterlimit="10" stroke-width="3"/>
        <line id="Line_2985" data-name="Line 2985" x1="1108.255" y2="1108.255" transform="translate(290.126 -56.321)" fill="none" stroke="#e3dad0" stroke-miterlimit="10" stroke-width="3"/>
        <line id="Line_2986" data-name="Line 2986" x1="1108.258" y2="1108.258" transform="translate(298.734 -47.713)" fill="none" stroke="#e3dad0" stroke-miterlimit="10" stroke-width="3"/>
        <line id="Line_2987" data-name="Line 2987" x1="1108.258" y2="1108.258" transform="translate(307.341 -39.106)" fill="none" stroke="#e3dad0" stroke-miterlimit="10" stroke-width="3"/>
        <line id="Line_2988" data-name="Line 2988" x1="1108.255" y2="1108.258" transform="translate(315.953 -30.498)" fill="none" stroke="#e3dad0" stroke-miterlimit="10" stroke-width="3"/>
        <line id="Line_2989" data-name="Line 2989" x1="1108.258" y2="1108.258" transform="translate(324.56 -21.887)" fill="none" stroke="#e3dad0" stroke-miterlimit="10" stroke-width="3"/>
        <line id="Line_2990" data-name="Line 2990" x1="1108.258" y2="1108.258" transform="translate(333.168 -13.279)" fill="none" stroke="#e3dad0" stroke-miterlimit="10" stroke-width="3"/>
        <line id="Line_2991" data-name="Line 2991" x1="1108.255" y2="1108.258" transform="translate(341.779 -4.671)" fill="none" stroke="#e3dad0" stroke-miterlimit="10" stroke-width="3"/>
        <line id="Line_2992" data-name="Line 2992" x1="1108.258" y2="1108.255" transform="translate(350.387 3.94)" fill="none" stroke="#e3dad0" stroke-miterlimit="10" stroke-width="3"/>
        <line id="Line_2993" data-name="Line 2993" x1="1108.258" y2="1108.258" transform="translate(358.995 12.548)" fill="none" stroke="#e3dad0" stroke-miterlimit="10" stroke-width="3"/>
        <line id="Line_2994" data-name="Line 2994" x1="1108.258" y2="1108.258" transform="translate(367.602 21.155)" fill="none" stroke="#e3dad0" stroke-miterlimit="10" stroke-width="3"/>
        <line id="Line_2995" data-name="Line 2995" x1="1108.255" y2="1108.255" transform="translate(376.214 29.767)" fill="none" stroke="#e3dad0" stroke-miterlimit="10" stroke-width="3"/>
        <line id="Line_2996" data-name="Line 2996" x1="1108.258" y2="1108.258" transform="translate(384.821 38.374)" fill="none" stroke="#e3dad0" stroke-miterlimit="10" stroke-width="3"/>
        <line id="Line_2997" data-name="Line 2997" x1="1108.258" y2="1108.258" transform="translate(393.429 46.982)" fill="none" stroke="#e3dad0" stroke-miterlimit="10" stroke-width="3"/>
        <line id="Line_2998" data-name="Line 2998" x1="1108.255" y2="1108.258" transform="translate(402.04 55.59)" fill="none" stroke="#e3dad0" stroke-miterlimit="10" stroke-width="3"/>
        <line id="Line_2999" data-name="Line 2999" x1="1108.258" y2="1108.258" transform="translate(410.648 64.201)" fill="none" stroke="#e3dad0" stroke-miterlimit="10" stroke-width="3"/>
        <line id="Line_3000" data-name="Line 3000" x1="1108.258" y2="1108.258" transform="translate(419.256 72.809)" fill="none" stroke="#e3dad0" stroke-miterlimit="10" stroke-width="3"/>
        <line id="Line_3001" data-name="Line 3001" x1="1108.255" y2="1108.258" transform="translate(427.867 81.416)" fill="none" stroke="#e3dad0" stroke-miterlimit="10" stroke-width="3"/>
        <line id="Line_3002" data-name="Line 3002" x1="1108.258" y2="1108.255" transform="translate(436.475 90.028)" fill="none" stroke="#e3dad0" stroke-miterlimit="10" stroke-width="3"/>
        <line id="Line_3003" data-name="Line 3003" x1="1108.258" y2="1108.258" transform="translate(445.082 98.635)" fill="none" stroke="#e3dad0" stroke-miterlimit="10" stroke-width="3"/>
        <line id="Line_3004" data-name="Line 3004" x1="1108.258" y2="1108.258" transform="translate(453.69 107.243)" fill="none" stroke="#e3dad0" stroke-miterlimit="10" stroke-width="3"/>
        <line id="Line_3005" data-name="Line 3005" x1="1108.255" y2="1108.255" transform="translate(462.301 115.854)" fill="none" stroke="#e3dad0" stroke-miterlimit="10" stroke-width="3"/>
        <line id="Line_3006" data-name="Line 3006" x1="1108.258" y2="1108.258" transform="translate(470.909 124.462)" fill="none" stroke="#e3dad0" stroke-miterlimit="10" stroke-width="3"/>
        <line id="Line_3007" data-name="Line 3007" x1="1108.258" y2="1108.258" transform="translate(479.517 133.07)" fill="none" stroke="#e3dad0" stroke-miterlimit="10" stroke-width="3"/>
        <line id="Line_3008" data-name="Line 3008" x1="1108.255" y2="1108.258" transform="translate(488.128 141.677)" fill="none" stroke="#e3dad0" stroke-miterlimit="10" stroke-width="3"/>
        <line id="Line_3009" data-name="Line 3009" x1="1108.258" y2="1108.258" transform="translate(496.735 150.289)" fill="none" stroke="#e3dad0" stroke-miterlimit="10" stroke-width="3"/>
        <line id="Line_3010" data-name="Line 3010" x1="1108.258" y2="1108.258" transform="translate(505.343 158.896)" fill="none" stroke="#e3dad0" stroke-miterlimit="10" stroke-width="3"/>
        <line id="Line_3011" data-name="Line 3011" x1="1108.255" y2="1108.258" transform="translate(513.955 167.504)" fill="none" stroke="#e3dad0" stroke-miterlimit="10" stroke-width="3"/>
        <line id="Line_3012" data-name="Line 3012" x1="1108.258" y2="1108.255" transform="translate(522.562 176.115)" fill="none" stroke="#e3dad0" stroke-miterlimit="10" stroke-width="3"/>
        <line id="Line_3013" data-name="Line 3013" x1="1108.258" y2="1108.258" transform="translate(531.17 184.723)" fill="none" stroke="#e3dad0" stroke-miterlimit="10" stroke-width="3"/>
        <line id="Line_3014" data-name="Line 3014" x1="1108.258" y2="1108.258" transform="translate(539.777 193.331)" fill="none" stroke="#e3dad0" stroke-miterlimit="10" stroke-width="3"/>
        <line id="Line_3015" data-name="Line 3015" x1="1108.255" y2="1108.255" transform="translate(548.389 201.942)" fill="none" stroke="#e3dad0" stroke-miterlimit="10" stroke-width="3"/>
        <line id="Line_3016" data-name="Line 3016" x1="1108.258" y2="1108.258" transform="translate(556.997 210.55)" fill="none" stroke="#e3dad0" stroke-miterlimit="10" stroke-width="3"/>
        <line id="Line_3017" data-name="Line 3017" x1="1108.258" y2="1108.258" transform="translate(565.604 219.157)" fill="none" stroke="#e3dad0" stroke-miterlimit="10" stroke-width="3"/>
        <line id="Line_3018" data-name="Line 3018" x1="1108.255" y2="1108.258" transform="translate(574.216 227.765)" fill="none" stroke="#e3dad0" stroke-miterlimit="10" stroke-width="3"/>
        <line id="Line_3019" data-name="Line 3019" x1="1108.258" y2="1108.258" transform="translate(582.823 236.376)" fill="none" stroke="#e3dad0" stroke-miterlimit="10" stroke-width="3"/>
        <line id="Line_3020" data-name="Line 3020" x1="1108.258" y2="1108.258" transform="translate(591.431 244.984)" fill="none" stroke="#e3dad0" stroke-miterlimit="10" stroke-width="3"/>
        <line id="Line_3021" data-name="Line 3021" x1="1108.258" y2="1108.258" transform="translate(596.253 257.329)" fill="none" stroke="#e3dad0" stroke-miterlimit="10" stroke-width="3"/>
        <line id="Line_3022" data-name="Line 3022" x1="1108.258" y2="1108.258" transform="translate(601.074 269.678)" fill="none" stroke="#e3dad0" stroke-miterlimit="10" stroke-width="3"/>
        <line id="Line_3023" data-name="Line 3023" x1="1108.258" y2="1108.258" transform="translate(605.896 282.023)" fill="none" stroke="#e3dad0" stroke-miterlimit="10" stroke-width="3"/>
        <line id="Line_3024" data-name="Line 3024" x1="1108.258" y2="1108.255" transform="translate(610.718 294.372)" fill="none" stroke="#e3dad0" stroke-miterlimit="10" stroke-width="3"/>
        <line id="Line_3025" data-name="Line 3025" x1="1108.258" y2="1108.258" transform="translate(615.54 306.717)" fill="none" stroke="#e3dad0" stroke-miterlimit="10" stroke-width="3"/>
      </g>
    </g>
    <path id="Union_189" data-name="Union 189" d="M0,642.685V481.179H19.89c-.075-4.785-.112-9.507-.112-12.378,0-180.6,146.264-327,326.691-327a327.028,327.028,0,0,1,88.96,12.266C508.152,60.334,621.815,0,749.567,0c189.489,0,347.982,132.7,387.843,310.315a78.424,78.424,0,0,1,92.87,92.4c43.276,11.133,80.865,42.809,107.551,78.459h25.876V642.685Z" transform="translate(122.994 48.592)" fill="#b4997f" stroke="rgba(0,0,0,0)" stroke-miterlimit="10" stroke-width="1" opacity="0.56"/>
    <path id="Union_193" data-name="Union 193" d="M209.742,518.66A114.418,114.418,0,1,1,102.57,341.573a291.67,291.67,0,0,1-4.587-51.648C97.984,129.8,227.785,0,387.908,0c119.066,0,221.369,71.775,266,174.416A178.285,178.285,0,1,1,569.991,515.55a289.978,289.978,0,0,1-360.248,3.11Z" transform="translate(696.275 203.316)" fill="#615842" stroke="rgba(0,0,0,0)" stroke-miterlimit="10" stroke-width="1" opacity="0.56"/>
  </g>
</svg>
