<svg xmlns="http://www.w3.org/2000/svg" xmlns:xlink="http://www.w3.org/1999/xlink" width="125" height="125" viewBox="0 0 125 125">
  <defs>
    <clipPath id="clip-path">
      <rect id="Rectangle_377985" data-name="Rectangle 377985" width="80.909" height="80.698" fill="#636363"/>
    </clipPath>
  </defs>
  <g id="Group_1073938" data-name="Group 1073938" transform="translate(-1091 -1034)">
    <path id="Path_608385" data-name="Path 608385" d="M62.5,0A62.5,62.5,0,1,1,0,62.5,62.5,62.5,0,0,1,62.5,0Z" transform="translate(1091 1034)" fill="#fff"/>
    <g id="Group_1072570" data-name="Group 1072570" transform="translate(1114 1056)">
      <g id="Group_1072569" data-name="Group 1072569" clip-path="url(#clip-path)">
        <path id="Path_609878" data-name="Path 609878" d="M21.414,141.81a1.818,1.818,0,0,0,.312,1.3,3.978,3.978,0,0,0,3.218,2.213,6.222,6.222,0,0,1,.714.1,1.134,1.134,0,0,1,.966,1.174c.011,1.338.006,2.676.008,4.013,0,.193-.008.386,0,.578a.881.881,0,0,0,1,.964c1.482,0,2.964,0,4.447,0a1.13,1.13,0,0,1,1.188.9,1.064,1.064,0,0,1-.694,1.269,2.343,2.343,0,0,1-.774.139c-1.35.014-2.7.008-4.049.006a4.026,4.026,0,0,1-2.076-.523.524.524,0,0,0-.444.008,3.945,3.945,0,0,1-2.006.514q-9.924.006-19.849,0a3.1,3.1,0,0,1-3.306-3.133C0,148.792.015,146.248.014,143.706q0-6.092.021-12.182a3.6,3.6,0,0,1,.579-2.2.421.421,0,0,0-.018-.38,3.35,3.35,0,0,1-.561-1.876C.021,124.648,0,122.226,0,119.8q0-6.128.02-12.256a6.878,6.878,0,0,1,.121-1.256,3.044,3.044,0,0,1,2.807-2.45c1.541-.053,3.085-.052,4.627-.04a1.211,1.211,0,0,1,1.323,1.36,1.177,1.177,0,0,1-1.109,1c-1.518,0-3.037,0-4.555,0a.739.739,0,0,0-.854.718,3.8,3.8,0,0,0-.037.612c.006,6.351.024,12.7.016,19.053,0,1.485.321,1.417,1.379,1.411q1.445-.008,2.891.028c.26.007.329-.119.379-.326a6.544,6.544,0,0,1,6.514-5,.575.575,0,0,0,.575-.314,13.136,13.136,0,0,1,6.538-5.5,12.657,12.657,0,0,1,7.4-.666c.481.1.955.231,1.468.355a1.18,1.18,0,0,0-.1-.9,4.153,4.153,0,0,0-3.741-2.736,3.318,3.318,0,0,1-.533-.09,1.136,1.136,0,0,1-.841-1.085c0-1.374,0-2.748,0-4.122,0-.241-.006-.482-.027-.722a.72.72,0,0,0-.786-.71H13.387a1.248,1.248,0,0,1-1.253-1.1,1.2,1.2,0,0,1,1.077-1.231,3.669,3.669,0,0,1,.5-.036c3.122,0,6.243-.011,9.364.01a5.036,5.036,0,0,1,1.522.231,2.959,2.959,0,0,1,2.022,2.835q.011,1.735-.014,3.47c0,.233.051.323.292.388a6.472,6.472,0,0,1,.742,12.419c-.114.039-.228.078-.341.118-.69.246-.683.246-.68,1,.006,1.2,0,2.407,0,3.651.14.013.253.034.367.033,1.554,0,3.109-.008,4.664-.007a4.922,4.922,0,0,1,.755.059,1.121,1.121,0,0,1,.931.966,10.575,10.575,0,0,0,.331,1.658,4.183,4.183,0,0,0,7.7.246,5.56,5.56,0,0,0,.346-1.53c.092-.852.457-1.342,1.288-1.366,1.661-.046,3.33-.1,4.986,0a3.092,3.092,0,0,1,2.9,3.182c.037,1.421.006,2.844,0,4.266a1.119,1.119,0,0,1-.707,1.12,1.058,1.058,0,0,1-1.24-.209,1.437,1.437,0,0,1-.358-.827c-.041-1.095-.013-2.192-.019-3.288A11.859,11.859,0,0,0,48.518,131c-.055-.5-.233-.649-.732-.654-1.181-.012-2.362,0-3.543-.026-.283-.005-.3.169-.349.355a6.428,6.428,0,0,1-3.811,4.436,6.045,6.045,0,0,1-2.776.526.565.565,0,0,0-.414.246,13.64,13.64,0,0,1-3.562,3.9,13.043,13.043,0,0,1-9.013,2.522c-.964-.081-1.915-.319-2.9-.49M13.3,152.153v0h2.783l7.265.005c.675,0,.943-.264.944-.932,0-.9,0-1.807,0-2.711,0-.876,0-.876-.835-1.142a6.483,6.483,0,0,1-4.482-6.242.745.745,0,0,0-.408-.729,20.883,20.883,0,0,1-2.409-1.889,12.856,12.856,0,0,1-3.867-7.761,9.483,9.483,0,0,1,0-3.125c.15-.74.313-1.477.467-2.216.038-.183.142-.41-.219-.361a4.009,4.009,0,0,0-3.3,3.787,1.366,1.366,0,0,1-1.394,1.481c-.288.018-.578.023-.867.022-1.241,0-2.482-.008-3.723-.006-.613,0-.85.227-.88.845-.015.3,0,.6,0,.9q.006,9.487.012,18.975c0,.78.31,1.1,1.081,1.1H13.3m1.919-26.772a10.186,10.186,0,0,0-.386,6.407,10.986,10.986,0,0,0,4.789,6.59,6.6,6.6,0,0,1,4.411-3.491c.243-.061.264-.178.263-.378-.007-1.192-.006-2.384-.008-3.576v-.563c-.161-.011-.29-.027-.42-.028-.542,0-1.084,0-1.626,0-1.12-.006-2.24,0-3.359-.026a1.2,1.2,0,0,1-1.313-1.189c-.025-.178-.054-.357-.078-.535a4.2,4.2,0,0,0-2.273-3.208m15.944,4.963c-1.416,0-2.847,0-4.278.012-.077,0-.211.172-.217.269-.027.48-.023.963-.024,1.444,0,1.216,0,2.432,0,3.648a1.209,1.209,0,0,1-1.193,1.315c-.239.025-.481.037-.717.079a4.35,4.35,0,0,0-3.047,2.215,10.154,10.154,0,0,0,6.563.368,10.588,10.588,0,0,0,6.478-4.727,6.759,6.759,0,0,1-3.565-4.622M16.2,123.3c.117.069.2.117.28.164a6.42,6.42,0,0,1,3.212,4.283c.052.224.176.216.337.215,1.289-.01,2.578-.03,3.867-.018.33,0,.4-.1.4-.412-.012-1.7,0-3.4-.009-5.1a.908.908,0,0,1,.385-.847,2.6,2.6,0,0,1,1.06-.373,4.222,4.222,0,0,0,3.153-1.739c.414-.538.375-.623-.3-.81a12.058,12.058,0,0,0-3.059-.4,10.348,10.348,0,0,0-3.309.434,11.021,11.021,0,0,0-6.02,4.6" transform="translate(0 -73.772)" fill="#636363"/>
        <path id="Path_609879" data-name="Path 609879" d="M144.492,39.062c-.46.835-.9,1.635-1.342,2.43a1.126,1.126,0,0,1-1.247.594,1.028,1.028,0,0,1-.908-.9,1.317,1.317,0,0,1,.14-.784c.637-1.2,1.306-2.385,1.969-3.572q1.735-3.1,3.476-6.2c.029-.052.059-.1.086-.159.4-.792.314-1.08-.466-1.513L129.43,19.661c-.189-.1-.382-.2-.576-.3a.7.7,0,0,0-1,.161.86.86,0,0,0-.143.163c-.615,1.046-1.226,2.093-1.8,3.076.475.568.955,1.061,1.342,1.619a6.4,6.4,0,0,1-.212,7.341.448.448,0,0,0-.031.6,12.923,12.923,0,0,1,1.735,7.31,13.076,13.076,0,0,1-3.3,7.922c-.126.144-.249.29-.45.524a4.048,4.048,0,0,0,.776.215,7.249,7.249,0,0,0,1.48,0,3.827,3.827,0,0,0,2.493-1.451c.189-.234.346-.494.536-.726a1.031,1.031,0,0,1,1.438-.305c1.156.62,2.3,1.263,3.449,1.9.232.128.465.253.7.371a.747.747,0,0,0,1.159-.351c.419-.717.811-1.449,1.219-2.173a3.085,3.085,0,0,1,.3-.453,1.078,1.078,0,0,1,1.533-.233,1.043,1.043,0,0,1,.38,1.394,35.235,35.235,0,0,1-1.791,3.13,2.962,2.962,0,0,1-3.768.793c-1.062-.566-2.108-1.162-3.157-1.752-.154-.086-.244-.131-.389.041a6.13,6.13,0,0,1-4.254,2.19,6.478,6.478,0,0,1-6.812-4.72,6.83,6.83,0,0,1,0-3.467.39.39,0,0,0-.239-.529c-1.376-.743-2.743-1.505-4.116-2.254-1.195-.652-1.343-1.165-.676-2.357.951-1.7,1.91-3.4,2.842-5.112a1.282,1.282,0,0,1,1.882-.631,4.147,4.147,0,0,0,5.723-2.115,4.336,4.336,0,0,0-.959-4.581c-.176-.171-.256-.066-.383.039a4.976,4.976,0,0,1-4.31,1.16,5.448,5.448,0,0,1-1.637-.63,2.172,2.172,0,0,1-.8-2.964c.855-1.831,1.8-3.624,2.581-5.485a16.234,16.234,0,0,1,3.452-5.018c1.993-2.061,3.909-4.2,5.83-6.327a7.614,7.614,0,0,1,3.978-2.341c2.92-.709,5.832-1.453,8.749-2.177q2.115-.525,4.237-1.026a8.314,8.314,0,0,1,3.3.132c1.779.294,3.552.625,5.331.925,1.495.253,2.99.5,4.491.714.629.089,1.275.056,1.911.107a1.11,1.11,0,0,1,1.016.842,1.11,1.11,0,0,1-.408,1.255,1.254,1.254,0,0,1-.658.228,13.358,13.358,0,0,1-3.332-.292c-2.162-.413-4.34-.744-6.511-1.109-1.055-.178-2.113-.334-3.161-.542a5.473,5.473,0,0,0-2.391.178c-1.822.441-3.64.9-5.458,1.359q-3.53.89-7.059,1.789a4.421,4.421,0,0,0-2.175,1.359q-2.612,2.828-5.211,5.668-1,1.09-2.024,2.166a6.378,6.378,0,0,0-1.158,1.731c-.966,2.072-1.954,4.133-2.93,6.2-.4.84-.382.849.536.972a2.727,2.727,0,0,0,2.962-1.458c.394-.69.812-1.368,1.174-2.073a15.745,15.745,0,0,1,4.009-4.971c1.066-.884,2.08-1.83,3.108-2.76a7.974,7.974,0,0,1,5.708-2.129c1.662.036,3.329.061,4.981.216a6.757,6.757,0,0,1,5,2.775,69.072,69.072,0,0,1,3.9,5.941,6.535,6.535,0,0,1,.4,5.262c-.52,1.752-1.108,3.484-1.669,5.223a9.041,9.041,0,0,1-1.514,2.735c-.515.668-1.019,1.344-1.547,2a3.468,3.468,0,0,0-.615,3.011,3.053,3.053,0,0,0,1.163,1.742c.245.194.394.049.549-.116q1-1.066,2.005-2.134c.659-.7,1.316-1.409,1.978-2.11a10.918,10.918,0,0,0,1.8-2.608q1.786-3.546,3.56-7.1a14.333,14.333,0,0,1,3.028-4.107,1.217,1.217,0,0,1,1.023-.347,1.119,1.119,0,0,1,.773,1.782,1.964,1.964,0,0,1-.282.329,13.588,13.588,0,0,0-2.914,4.225c-1.048,2.153-2.142,4.284-3.216,6.424a14.862,14.862,0,0,1-2.5,3.434q-1.875,2.008-3.749,4.016a2.139,2.139,0,0,1-3.147.347,6,6,0,0,1-1.909-2.133,1.5,1.5,0,0,0-.115-.16m-21.406,7.531c.067-.019.112-.017.133-.039q.214-.219.419-.447a10.828,10.828,0,0,0,2.792-7.463,10.306,10.306,0,0,0-.984-4.333c-.367-.8-.351-.759-1.168-.459a5.62,5.62,0,0,1-3.2.485c-.352-.078-.7-.174-1.05-.256a.349.349,0,0,0-.446.19c-.568,1.046-1.152,2.084-1.73,3.124-.292.526-.281.56.249.852,1.4.773,2.807,1.533,4.195,2.328a1.182,1.182,0,0,1,.546,1.744,6.563,6.563,0,0,0-.378,1.049,4.209,4.209,0,0,0,.619,3.225m25.33-19.032c.324-1,.648-2.06,1.006-3.105a5.515,5.515,0,0,0-.854-5.422c-.129-.17-.215-.274-.46-.139q-1.657.917-3.34,1.79A7.217,7.217,0,0,0,141.9,23.2c-.308.486-.272.595.219.867q3.155,1.745,6.3,3.489m-1.3-10.723c-.316-.458-.585-.869-.883-1.259a.413.413,0,0,0-.351-.119c-2,.521-3.984,1.084-5.988,1.58a6.75,6.75,0,0,0-4.208,3.054c-.143.224-.144.335.108.472,1.245.677,2.481,1.371,3.748,2.075.059-.088.122-.172.174-.262a8.51,8.51,0,0,1,3.1-3.209c1.048-.61,2.132-1.16,3.2-1.737l1.1-.594m-3.057-3.27.019-.128a5.879,5.879,0,0,0-1.313-.423c-1.632-.131-3.271-.19-4.906-.284a5.909,5.909,0,0,0-4.68,1.67c-.466.453-.972.865-1.458,1.3l-1.8,1.6,3.571,1.972c.1-.162.191-.3.279-.443a9.1,9.1,0,0,1,5.583-4.06c1.564-.419,3.138-.8,4.708-1.2" transform="translate(-81.638 0)" fill="#636363"/>
        <path id="Path_609880" data-name="Path 609880" d="M140.6,234.914c0,1.626.016,3.253,0,4.879a3.091,3.091,0,0,1-1.828,2.959,3.513,3.513,0,0,1-1.429.318c-3.24.027-6.481.017-9.721.012a1.372,1.372,0,0,1-1.2-.544,1.1,1.1,0,0,1,.634-1.715,2.522,2.522,0,0,1,.572-.051q4.77,0,9.541,0c.706,0,1.064-.308,1.07-1.015.021-2.228.014-4.456.019-6.685,0-1.156.006-2.312.019-3.468a1.06,1.06,0,0,1,.452-.9,1.14,1.14,0,0,1,1.788.62,2.931,2.931,0,0,1,.084.749c.007,1.614,0,3.228,0,4.843Z" transform="translate(-89.7 -162.39)" fill="#636363"/>
        <path id="Path_609881" data-name="Path 609881" d="M232.283,188.539c0-.4-.019-.8,0-1.191a1.164,1.164,0,1,1,2.328-.068c.054.839.018,1.683.015,2.526a1.111,1.111,0,0,1-.056.283,1.358,1.358,0,0,1-1.136.919,1.26,1.26,0,0,1-1.109-1.027c-.046-.476-.01-.96-.01-1.441h-.036" transform="translate(-165.091 -132.305)" fill="#636363"/>
        <path id="Path_609882" data-name="Path 609882" d="M232.313,219.442c0-.445-.035-.892.008-1.333a1.061,1.061,0,0,1,1.083-1.037,1.119,1.119,0,0,1,1.189.939,5.2,5.2,0,0,1,.064.931,15.4,15.4,0,0,1-.008,1.55,1.931,1.931,0,0,1-.271.908.977.977,0,0,1-1.063.52,1.21,1.21,0,0,1-.975-1.04c-.036-.478-.008-.96-.008-1.44h-.02" transform="translate(-165.108 -154.285)" fill="#636363"/>
        <path id="Path_609883" data-name="Path 609883" d="M245.953,208.248c-.515-.03-1.035-.028-1.545-.1a1.159,1.159,0,0,1-.925-1.061,1.184,1.184,0,0,1,.843-1.13,1.164,1.164,0,0,1,.316-.065c.854-.005,1.71-.044,2.56.009a1.091,1.091,0,0,1,1.1,1.249,1.159,1.159,0,0,1-1.23,1.066c-.373.008-.747,0-1.12,0,0,.01,0,.019,0,.029" transform="translate(-173.055 -146.326)" fill="#636363"/>
        <path id="Path_609884" data-name="Path 609884" d="M214.964,208.19c-.526-.031-1.057-.033-1.579-.1a1.122,1.122,0,0,1-.145-2.166,2.83,2.83,0,0,1,.742-.12c.588-.018,1.178-.013,1.767-.006a2.957,2.957,0,0,1,.608.065,1.117,1.117,0,0,1,.922,1.232,1.16,1.16,0,0,1-1.16,1.064c-.384.009-.769,0-1.154,0l0,.03" transform="translate(-151.018 -146.267)" fill="#636363"/>
        <path id="Path_609885" data-name="Path 609885" d="M52.122,58.474c.026-.5.02-1.011.088-1.508a1.21,1.21,0,0,1,1.093-.985,1.133,1.133,0,0,1,1.1.957,23.18,23.18,0,0,1,.034,2.946,1.093,1.093,0,0,1-1.226.971,1.141,1.141,0,0,1-1.062-1.191c-.008-.4,0-.793,0-1.19h-.024" transform="translate(-37.046 -39.789)" fill="#636363"/>
        <path id="Path_609886" data-name="Path 609886" d="M54.518,27.556c0,.433.03.868-.007,1.3a1.205,1.205,0,0,1-1.2,1.119A1.158,1.158,0,0,1,52.2,28.746c-.008-.794-.009-1.589,0-2.383a1.209,1.209,0,0,1,1.141-1.251,1.171,1.171,0,0,1,1.165,1.146c.036.43.007.865.007,1.3h0" transform="translate(-37.097 -17.848)" fill="#636363"/>
        <path id="Path_609887" data-name="Path 609887" d="M65.87,44.948c.409,0,.819-.008,1.228,0a1.161,1.161,0,0,1,.059,2.322c-.865.027-1.733.028-2.6,0a1.162,1.162,0,0,1,.048-2.323c.421-.011.843,0,1.264,0h0" transform="translate(-45.088 -31.944)" fill="#636363"/>
        <path id="Path_609888" data-name="Path 609888" d="M34.69,47.278c-.409,0-.819.017-1.226,0a1.166,1.166,0,1,1,.027-2.328q1.245-.014,2.49,0a1.115,1.115,0,0,1,1.105,1.063,1.155,1.155,0,0,1-1.026,1.256c-.226.024-.456.016-.685.019s-.457,0-.686,0Z" transform="translate(-22.92 -31.941)" fill="#636363"/>
      </g>
    </g>
  </g>
</svg>
