<svg xmlns="http://www.w3.org/2000/svg" xmlns:xlink="http://www.w3.org/1999/xlink" width="125" height="125" viewBox="0 0 125 125">
  <defs>
    <clipPath id="clip-path">
      <rect id="Rectangle_377984" data-name="Rectangle 377984" width="93.904" height="84.667" fill="#636363"/>
    </clipPath>
  </defs>
  <g id="Group_1073939" data-name="Group 1073939" transform="translate(5723.496 10666)">
    <g id="Group_1072564" data-name="Group 1072564" transform="translate(-6109.496 -12812)">
      <path id="Path_608385" data-name="Path 608385" d="M62.5,0A62.5,62.5,0,1,1,0,62.5,62.5,62.5,0,0,1,62.5,0Z" transform="translate(386 2146)" fill="#fff"/>
    </g>
    <g id="Group_1072568" data-name="Group 1072568" transform="translate(-5707.496 -10651)">
      <g id="Group_1072567" data-name="Group 1072567" clip-path="url(#clip-path)">
        <path id="Path_609874" data-name="Path 609874" d="M80.78,48.687c-.354.086-.687.18-1.025.246a4.355,4.355,0,0,1-4.6-2.186,1.494,1.494,0,0,0-1.6-.913c-3.954.053-7.908.041-11.862.039-.3,0-.35.11-.352.367-.008,1.006-.05,2.012-.038,3.017a.95.95,0,0,0,.281.64c.964.828,1.95,1.63,2.945,2.421a1.094,1.094,0,0,0,.6.215c.627.028,1.257,0,1.886.017.241.005.337-.068.436-.316A4.734,4.734,0,0,1,71.3,49.49a4.517,4.517,0,0,1,3.968,1.9,4.285,4.285,0,0,1,.146,4.883,4.337,4.337,0,0,1-4.44,2.084,4.538,4.538,0,0,1-3.7-3.116c-.732,0-1.486-.033-2.235.008a2.576,2.576,0,0,1-2.121-.767c-.447-.454-.975-.827-1.539-1.3-.028.2-.054.308-.057.42a5.164,5.164,0,0,1-5.32,5.2q-9.055.018-18.109,0a5.131,5.131,0,0,1-5.23-4.386,11.938,11.938,0,0,1-.09-1.2c-.233.164-.416.277-.581.411-.486.4-.942.838-1.454,1.2a2.038,2.038,0,0,1-.979.38,23.661,23.661,0,0,1-2.429.006.586.586,0,0,0-.687.446,4.488,4.488,0,0,1-4.573,2.72,4.567,4.567,0,0,1-3.926-3.441,4.5,4.5,0,0,1,8.511-2.771,1.9,1.9,0,0,1,.094.362c.814,0,1.636.008,2.457-.008a.677.677,0,0,0,.361-.178q1.512-1.229,3.01-2.475A.6.6,0,0,0,32.6,49.5c.017-1.2.01-2.4.01-3.649h-2.57c-3.437,0-6.874,0-10.312-.012a.628.628,0,0,0-.693.427,4.52,4.52,0,0,1-4.289,2.737,12.892,12.892,0,0,1-1.6-.287V67.138c.086.009.189.029.293.03.964.014,1.928.011,2.891.042a1.27,1.27,0,0,1,1.261,1.023,1.217,1.217,0,0,1-.65,1.405,2.661,2.661,0,0,1-1.1.327c-1.214.041-2.431.037-3.646,0a2.733,2.733,0,0,1-1.074-.291,1.331,1.331,0,0,1-.727-1.313q0-5.89,0-11.779,0-17.836-.006-35.672a1.548,1.548,0,0,1,1.692-1.754c.852,0,1.7-.012,2.557-.013q10.563,0,21.127.008c.377,0,.479-.11.467-.473-.025-.766-.008-1.533-.008-2.357H10.143a2.369,2.369,0,0,0-2.607,2.636q0,9.18,0,18.36,0,16.579,0,33.158v2.16h78.8c.007-.146.022-.294.022-.441q.005-17.48.008-34.96,0-8.95,0-17.9a6.336,6.336,0,0,0-.046-1.087,2.31,2.31,0,0,0-2.346-1.926q-4.255-.007-8.509,0a1.561,1.561,0,0,1-1.227-.42,1.293,1.293,0,0,1,.579-2.172,2.659,2.659,0,0,1,.7-.09q4.192-.009,8.384,0a5.051,5.051,0,0,1,5.134,4.643,10.917,10.917,0,0,1,.067,1.17q0,25.78,0,51.56V72.64c.156.01.275.023.395.023.894,0,1.789-.013,2.683.01A1.529,1.529,0,0,1,93.9,74.457c-.014,1.564.025,3.133-.09,4.69a6,6,0,0,1-5.26,5.413,15.675,15.675,0,0,1-1.8.1q-6.749.013-13.5,0a5.884,5.884,0,0,1-1.247-.106,1.227,1.227,0,0,1-.96-1.335,1.148,1.148,0,0,1,1.062-1.186,5.738,5.738,0,0,1,.916-.075c4.317-.005,8.635,0,12.953-.007a14.575,14.575,0,0,0,2.418-.094A3.249,3.249,0,0,0,91.2,78.7c.108-1.078.02-2.176.02-3.3H2.689c0,.981-.018,1.954.009,2.926a4.691,4.691,0,0,0,.195,1.186,3.3,3.3,0,0,0,3.2,2.444c.763.061,1.535,0,2.3,0q28.211,0,56.422.006a9.974,9.974,0,0,1,1.376.08,1.269,1.269,0,0,1,.251,2.448,4.545,4.545,0,0,1-1.273.171c-3.507.012-7.014,0-10.521,0l-47.491,0a8.221,8.221,0,0,1-3.095-.409A6.206,6.206,0,0,1,.007,78.231c-.012-1.3-.006-2.6,0-3.9A1.407,1.407,0,0,1,1.4,72.724c.943-.081,1.9-.044,2.847-.058.164,0,.328,0,.53,0,.012-.227.032-.418.032-.609q0-26.366,0-52.732a5.426,5.426,0,0,1,2.113-4.692A5.131,5.131,0,0,1,9.8,13.653c.237-.012.475-.015.712-.015H33.346c-.785-2.414-.184-4.353,1.985-5.666a4.152,4.152,0,0,1,4.929.372c1.751,1.395,1.968,3.216,1.444,5.266h3.888c.007-.1.019-.192.019-.286,0-1.425,0-2.85.006-4.275a.405.405,0,0,0-.309-.447,4.307,4.307,0,0,1-2.836-4A4.191,4.191,0,0,1,44.749.592a4.464,4.464,0,0,1,6.7,3.778A4.4,4.4,0,0,1,48.327,8.7v4.9h3.885c-.6-2.272-.226-4.244,1.9-5.571a4.208,4.208,0,0,1,4.881.178,4.36,4.36,0,0,1,1.735,2.443,4.2,4.2,0,0,1-.207,2.984h.552q3.71,0,7.42,0a1.521,1.521,0,0,1,1.381.634,1.279,1.279,0,0,1-.691,1.956,2.893,2.893,0,0,1-.785.09q-5.093.009-10.186,0h-.517c0,.892-.007,1.766.013,2.639,0,.069.182.187.283.191.4.017.81-.007,1.215-.007q11.067.005,22.133.016a5.194,5.194,0,0,1,1.121.094,1.279,1.279,0,0,1,1.058,1.322c.013.643.005,1.285.005,1.928q0,22.51,0,45.021,0,.294,0,.587A1.63,1.63,0,0,1,81.8,69.974c-.139.009-.279.005-.419.005q-29.007,0-58.015,0a2.268,2.268,0,0,1-1.491-.444A1.24,1.24,0,0,1,21.41,68.2a1.265,1.265,0,0,1,1.122-.981c.305-.03.614-.038.921-.038q28.107,0,56.213,0h.21c.906,0,.906,0,.906-.923q0-7.946,0-15.893V48.687M46.969,33.012v.01c-3.129,0-6.258-.01-9.388.013a2.472,2.472,0,0,0-1.144.287,2.324,2.324,0,0,0-1.093,2.283c.019,5.631.013,11.262.017,16.893,0,.517,0,1.034.016,1.55a2.06,2.06,0,0,0,.755,1.487,2.821,2.821,0,0,0,2.05.548l16.851-.009a10.184,10.184,0,0,0,1.381-.025,3.133,3.133,0,0,0,1.137-.358,2.383,2.383,0,0,0,1.015-2.328q-.018-8.949-.021-17.9a3.92,3.92,0,0,0-.056-.792,2.2,2.2,0,0,0-2.342-1.66H46.969M32.616,43.149c0-1.212.008-2.369-.01-3.525a.642.642,0,0,0-.218-.422q-1.522-1.282-3.07-2.532a.961.961,0,0,0-.523-.215c-.656-.026-1.313-.02-1.969,0a.406.406,0,0,0-.294.205,4.542,4.542,0,0,1-4.371,2.9,4.464,4.464,0,1,1,1.969-8.529,4.431,4.431,0,0,1,2.464,2.726c.742,0,1.5.037,2.248-.01a2.6,2.6,0,0,1,2.054.737c.513.483,1.074.914,1.654,1.4.2-3.615,2.017-5.558,5.7-5.665-.1-.154-.178-.284-.272-.4-.471-.571-.974-1.118-1.41-1.714a1.7,1.7,0,0,1-.328-.908c-.033-1.606-.028-3.213-.009-4.819,0-.36-.074-.479-.457-.479q-10.917.015-21.835.005c-.814,0-.814,0-.814.828q0,8.025,0,16.051v1.544a10.236,10.236,0,0,1,1.558-.269,4.4,4.4,0,0,1,4.3,2.63.722.722,0,0,0,.764.463c4.107-.012,8.214-.008,12.321-.008Zm48.138-2.805c.038-.064.051-.075.051-.088-.011-5.937-.031-11.875-.02-17.812,0-.473-.138-.539-.555-.539q-10.878.014-21.756,0h-.757c-.009.176-.018.285-.018.394,0,1.635.009,3.27-.022,4.9a1.641,1.641,0,0,1-.3.873c-.384.531-.837,1.01-1.256,1.515-.16.193-.3.4-.477.632,3.726.087,5.5,2.077,5.75,5.654.707-.6,1.329-1.182,2.018-1.675a2.6,2.6,0,0,1,1.185-.426,12.524,12.524,0,0,1,1.884-.012c.511.02,1.006.07,1.091-.628a.218.218,0,0,1,.039-.073,4.489,4.489,0,0,1,4.7-2.359,4.464,4.464,0,0,1-.882,8.874,4.719,4.719,0,0,1-4-2.836c-.087-.223-.184-.307-.416-.3-.587.012-1.175-.02-1.76.018a1.355,1.355,0,0,0-.712.267q-1.511,1.2-2.975,2.45a.842.842,0,0,0-.241.57c-.012.936.016,1.872.029,2.808,0,.191,0,.381,0,.577.125.009.194.017.263.018q6.372,0,12.744.008a.49.49,0,0,0,.518-.362,4.5,4.5,0,0,1,5.276-2.588c.2.059.4.092.608.138M55,21.936a.9.9,0,0,0-.166-.043c-2.025.006-4.05.022-6.075.012-.36,0-.442.114-.44.453.011,2.374,0,4.748,0,7.123v.773c1.227,0,2.4.008,3.571-.011A.657.657,0,0,0,52.3,30c.823-.968,1.646-1.937,2.436-2.931a1.331,1.331,0,0,0,.251-.756C55.017,25,55,23.69,55,22.377Zm-16.1-.022v.441c0,1.3.013,2.6-.009,3.9a1.288,1.288,0,0,0,.328.909c.793.939,1.568,1.893,2.374,2.821a.857.857,0,0,0,.564.265c1.047.021,2.095,0,3.143,0a2.117,2.117,0,0,0,.278-.043c0-2.677,0-5.343-.011-8.008a.377.377,0,0,0-.253-.268c-2.12-.015-4.241-.012-6.414-.012m16.085-5.56H48.33v2.773h6.663ZM38.921,19.1c.053.041.064.056.075.056,2.108,0,4.216,0,6.324-.014.083,0,.236-.128.238-.2.016-.86.011-1.721.011-2.587H38.921ZM79.006,42.73a1.987,1.987,0,0,0-1.87,1.765,1.956,1.956,0,0,0,1.847,1.829,1.8,1.8,0,1,0,.023-3.595M13.092,44.551A1.824,1.824,0,0,0,14.9,46.323a1.844,1.844,0,0,0,1.851-1.8,1.89,1.89,0,0,0-1.861-1.795,1.813,1.813,0,0,0-1.8,1.823m33.864-38.3a1.755,1.755,0,0,0,1.795-1.806,1.8,1.8,0,0,0-3.6,0,1.8,1.8,0,0,0,1.808,1.805M71.577,36.863a1.759,1.759,0,0,0,1.868-1.746,1.845,1.845,0,0,0-3.679,0,1.771,1.771,0,0,0,1.811,1.748m-49.3,18.813a1.745,1.745,0,1,0,.1-3.484,1.852,1.852,0,0,0-1.922,1.742,1.829,1.829,0,0,0,1.827,1.743M71.608,52.19a1.772,1.772,0,0,0-1.84,1.717,1.746,1.746,0,0,0,1.778,1.768,1.819,1.819,0,0,0,1.914-1.748,1.847,1.847,0,0,0-1.852-1.737m-49.3-15.327a1.763,1.763,0,0,0,1.837-1.717A1.685,1.685,0,0,0,22.4,33.415a1.787,1.787,0,0,0-1.952,1.676,1.863,1.863,0,0,0,1.86,1.772M54.662,11.779a1.773,1.773,0,0,0,1.774,1.871,1.7,1.7,0,0,0,1.732-1.8,1.686,1.686,0,0,0-1.774-1.754,1.628,1.628,0,0,0-1.731,1.687M37.474,10.094a1.681,1.681,0,0,0-1.731,1.789,1.75,1.75,0,1,0,3.5-.04,1.671,1.671,0,0,0-1.768-1.749" transform="translate(0 0)" fill="#636363"/>
        <path id="Path_609875" data-name="Path 609875" d="M118.322,107.861a1.287,1.287,0,0,1,1.248.936c.639,1.769,1.267,3.542,1.9,5.313.96,2.676,1.93,5.348,2.877,8.028a2.09,2.09,0,0,1,.234,1.491,1.3,1.3,0,0,1-1.231.91,1.182,1.182,0,0,1-1.238-.754c-.258-.617-.477-1.25-.708-1.877-.106-.287-.2-.579-.3-.869-.243-.7-.244-.691-.959-.688-1.327.006-2.654.015-3.981.006-.3,0-.461.058-.563.388-.3.958-.643,1.9-.987,2.844a1.4,1.4,0,0,1-1.3.957,1.243,1.243,0,0,1-1.251-.868,2.019,2.019,0,0,1,.051-1.092c1.216-3.472,2.461-6.934,3.7-10.4.389-1.089.761-2.185,1.165-3.268a1.351,1.351,0,0,1,1.344-1.06m1.555,9.735-1.517-4.183-.151.021-1.474,4.161Z" transform="translate(-74.448 -71.689)" fill="#636363"/>
        <path id="Path_609876" data-name="Path 609876" d="M156.013,134.409c0-1.075,0-2.151,0-3.226a1.4,1.4,0,0,1,1.274-1.446,1.432,1.432,0,0,1,1.405,1.426q.017,3.31,0,6.62a1.317,1.317,0,0,1-1.385,1.321,1.27,1.27,0,0,1-1.293-1.343c0-1.117,0-2.235,0-3.352" transform="translate(-103.693 -86.229)" fill="#636363"/>
        <path id="Path_609877" data-name="Path 609877" d="M158.723,117.07a1.337,1.337,0,1,1-2.674-.01,1.475,1.475,0,0,1,1.325-1.384,1.428,1.428,0,0,1,1.349,1.394" transform="translate(-103.717 -76.884)" fill="#636363"/>
      </g>
    </g>
  </g>
</svg>
