<svg xmlns="http://www.w3.org/2000/svg" xmlns:xlink="http://www.w3.org/1999/xlink" width="125" height="125" viewBox="0 0 125 125">
  <defs>
    <clipPath id="clip-path">
      <rect id="Rectangle_377983" data-name="Rectangle 377983" width="68.033" height="91.997" fill="#636363"/>
    </clipPath>
  </defs>
  <g id="Group_1073940" data-name="Group 1073940" transform="translate(5373.496 10666)">
    <g id="Group_1072563" data-name="Group 1072563" transform="translate(-5759.496 -12812)">
      <path id="Path_608385" data-name="Path 608385" d="M62.5,0A62.5,62.5,0,1,1,0,62.5,62.5,62.5,0,0,1,62.5,0Z" transform="translate(386 2146)" fill="#fff"/>
    </g>
    <g id="Group_1072566" data-name="Group 1072566" transform="translate(-5345.496 -10650)">
      <g id="Group_1072565" data-name="Group 1072565" clip-path="url(#clip-path)">
        <path id="Path_609871" data-name="Path 609871" d="M33.969,83.734a13.06,13.06,0,0,1,3-3.394,12.622,12.622,0,0,1,7.8-2.761c2.072-.032,4.144-.021,6.216-.013.369,0,.488-.1.485-.49-.019-2.555-.015-5.109,0-7.664a3.667,3.667,0,0,1,.138-1.055,1.617,1.617,0,0,1,1.753-1.206,1.681,1.681,0,0,1,1.657,1.586c.049.587.039,1.18.039,1.77,0,2.871-.009,5.741,0,8.612a1.893,1.893,0,0,1-1.032,1.827,1.423,1.423,0,0,1-.621.165c-1.207.016-2.415.015-3.622.005-.241,0-.387.021-.388.317-.007,2.239-.025,4.477-.038,6.716a1.343,1.343,0,0,0,.045.218h.472c3.266,0,6.535-.086,9.8.031a4.712,4.712,0,0,0,4.787-4.689c-.053-4.422-.058-8.845-.156-13.266a14.556,14.556,0,0,0-.523-3.157c-.368-1.473-.837-2.921-1.274-4.377a1.746,1.746,0,0,1,1.129-2.367,1.825,1.825,0,0,1,2.249,1.284,39.2,39.2,0,0,1,1.751,6.754,39.31,39.31,0,0,1,.39,5.7c.035,2.912,0,5.824.015,8.736a8.619,8.619,0,0,1-1.43,5.268,8.2,8.2,0,0,1-6.169,3.629c-.655.056-1.314.079-1.971.08Q33.534,92,8.608,92a8.449,8.449,0,0,1-7.1-3.4A6.779,6.779,0,0,1,0,84.3c.046-4.519-.014-9.039.036-13.557a16.31,16.31,0,0,1,.445-3.5,44.628,44.628,0,0,1,1.482-5.213,33.452,33.452,0,0,1,8.724-13.1,34.39,34.39,0,0,1,12.633-7.5c.332-.112.681-.178,1.073-.279C16.076,36.4,11.664,29.38,12.36,19.7A20.424,20.424,0,0,1,19.69,5.412a21.421,21.421,0,0,1,28.324-.124c5.785,5.014,8.407,11.488,7.4,19.12C54.422,32,50.2,37.5,43.442,41.114a33.935,33.935,0,0,1,12.3,6.5,1.776,1.776,0,0,1,.719,2.159,1.807,1.807,0,0,1-2.781.711c-1.023-.784-2.034-1.592-3.111-2.3A29.764,29.764,0,0,0,38.68,43.648,30.532,30.532,0,0,0,4.326,66.307a31.982,31.982,0,0,0-.887,8.07c0,3.063-.007,6.126-.009,9.189A4.663,4.663,0,0,0,7.168,88.32a3.133,3.133,0,0,0,.572.05q5.249,0,10.5,0c.054,0,.108-.007.208-.013v-7.23H16.913c-.755,0-1.514-.056-2.263.009a1.87,1.87,0,0,1-1.788-1.512,5.25,5.25,0,0,1-.059-.7q0-4.532,0-9.065c0-.329.008-.66.035-.988a1.775,1.775,0,0,1,3.55.029c.035.671.01,1.346.011,2.019,0,2.06.013,4.121,0,6.181,0,.351.077.475.455.472,2.044-.015,4.089-.031,6.133.011A12.651,12.651,0,0,1,33.75,83.475c.038.057.072.116.112.172a.777.777,0,0,0,.106.088m.042-44.06A18.04,18.04,0,1,0,15.84,22.734,18.014,18.014,0,0,0,34.011,39.675M31.957,88.352a9.053,9.053,0,0,0-9.841-7.16v7.16Zm13.819,0c.007-.1.015-.166.015-.232,0-2.237-.013-4.475-.01-6.712,0-.272-.155-.275-.345-.279a9.1,9.1,0,0,0-8.45,4.432,7.954,7.954,0,0,0-1.071,2.791Z" transform="translate(0 0)" fill="#636363"/>
        <path id="Path_609872" data-name="Path 609872" d="M87.689,158.275a8.075,8.075,0,0,1-2.236,5.97q-4.21,4.428-8.646,8.639a5.193,5.193,0,0,1-5.322,1.2,5.606,5.606,0,0,1-2.374-1.426q-3.92-3.912-7.834-7.83a8.564,8.564,0,0,1-2.521-5.028,8.867,8.867,0,0,1,2.529-7.651,9.053,9.053,0,0,1,11.485-1.378.463.463,0,0,0,.607-.021,8.682,8.682,0,0,1,6.842-1.441,8.887,8.887,0,0,1,7.167,6.626,7.556,7.556,0,0,1,.293,1.151,9.44,9.44,0,0,1,.011,1.193m-25.428.184a5.4,5.4,0,0,0,1.637,4.032c.366.352.725.711,1.084,1.07,2.166,2.163,4.348,4.31,6.486,6.5a2.358,2.358,0,0,0,3.277-.018c.641-.714,1.356-1.361,2.035-2.041,1.951-1.95,3.94-3.865,5.839-5.864a5.354,5.354,0,0,0,1.113-6.023,5.464,5.464,0,0,0-5.431-3.453,5.3,5.3,0,0,0-3.809,1.707,1.907,1.907,0,0,1-2.8.021,5.482,5.482,0,0,0-3.879-1.51,5.568,5.568,0,0,0-5.549,5.579" transform="translate(-39.265 -99.799)" fill="#636363"/>
        <path id="Path_609873" data-name="Path 609873" d="M178.882,164.9a1.8,1.8,0,0,1-1.737-1.78,1.749,1.749,0,0,1,3.5.03,1.764,1.764,0,0,1-1.761,1.75" transform="translate(-118.558 -108.016)" fill="#636363"/>
      </g>
    </g>
  </g>
</svg>
