<svg xmlns="http://www.w3.org/2000/svg" xmlns:xlink="http://www.w3.org/1999/xlink" width="190" height="161" viewBox="0 0 190 161">
  <defs>
    <clipPath id="clip-path">
      <rect id="Rectangle_378277" data-name="Rectangle 378277" width="190" height="161" transform="translate(-0.24)" fill="#fff" stroke="#707070" stroke-width="1"/>
    </clipPath>
    <clipPath id="clip-path-2">
      <rect id="Rectangle_378279" data-name="Rectangle 378279" width="139.954" height="141.137" fill="#b4997f"/>
    </clipPath>
  </defs>
  <g id="Mask_Group_154398" data-name="Mask Group 154398" transform="translate(0.24)" clip-path="url(#clip-path)">
    <g id="Group_1073544" data-name="Group 1073544" transform="translate(21.094 9.932)">
      <g id="Group_1073543" data-name="Group 1073543" clip-path="url(#clip-path-2)">
        <path id="Path_610540" data-name="Path 610540" d="M139.939,80.8q0,23.708-.012,47.414a13.642,13.642,0,0,1-.729,5.22,12.281,12.281,0,0,1-3.446,4.836,12.621,12.621,0,0,1-8.5,2.857q-43.842.014-87.684.006c-3.639,0-6.925-.967-9.5-3.666a10.759,10.759,0,0,1-3.238-7.462c-.061-6.026-.136-12.053-.066-18.078a1.778,1.778,0,0,0-1.306-1.9A44.509,44.509,0,0,1,.969,78.833,41.885,41.885,0,0,1,.25,65.4,44.717,44.717,0,0,1,26.122,29.441a.954.954,0,0,0,.636-1.049c.019-5.962-.085-11.931.18-17.883C27.19,4.833,32.207.77,36.814.261a36.31,36.31,0,0,1,3.97-.236Q74.511,0,108.239,0A4.427,4.427,0,0,1,111.6,1.394q11.019,11.06,22.095,22.065c1.626,1.621,3.229,3.268,4.9,4.844a4.269,4.269,0,0,1,1.359,3.378c-.041,5.057-.018,10.115-.018,15.173q0,16.975,0,33.949ZM31.476,112.6c0,.545,0,1.108,0,1.671q-.005,7.618-.013,15.236a6.593,6.593,0,0,0,3.617,6.074,9.956,9.956,0,0,0,5.091.955q27.057-.005,54.115-.007c10.726,0,21.452.015,32.178-.008a17.34,17.34,0,0,0,3.565-.344,6.57,6.57,0,0,0,5.127-5.8c.109-1.273.009-2.563.009-3.846q0-39.133,0-78.267c0-4.7.021-9.4.031-14.1,0-.393,0-.785,0-1.13a.86.86,0,0,0-.153-.071c-7-.016-13.99-.041-20.985-.037a6.744,6.744,0,0,1-3.259-.851,7.343,7.343,0,0,1-3.939-6.811c-.073-6.638-.023-13.276-.023-19.914V4.614h-1.476q-31.863,0-63.726.006c-1.2,0-2.4-.016-3.6.083a7.121,7.121,0,0,0-6.67,7.485c.064,4.823.017,9.649.022,14.473a5.211,5.211,0,0,0,.065.561c.2-.036.318-.053.437-.081,1.676-.4,3.334-.925,5.031-1.177,2.368-.352,4.763-.562,7.153-.724A35.839,35.839,0,0,1,53.121,26a50.384,50.384,0,0,1,6.968,1.966A42.97,42.97,0,0,1,77.383,39.226a44.573,44.573,0,0,1,12.2,26.967,39.334,39.334,0,0,1-.542,11.39,44.219,44.219,0,0,1-5,13.885.726.726,0,0,0,.16,1.062q10.392,10.35,20.754,20.73a11.221,11.221,0,0,1,3.266,10.406A11.719,11.719,0,0,1,92.683,132.5a11.886,11.886,0,0,1-4.467-2.9q-7.553-7.511-15.1-15.024-2.824-2.809-5.659-5.606c-.214-.211-.38-.451-.789-.194a35.28,35.28,0,0,1-7.925,3.543,47.8,47.8,0,0,1-10.562,2.08,43.768,43.768,0,0,1-9.7-.315c-2.343-.308-4.639-.973-7-1.488M44.92,29.917a39.991,39.991,0,1,0,2.334,79.9,39.981,39.981,0,0,0-2.334-79.9M81.24,95.973a49.771,49.771,0,0,1-10.1,10.091,1.924,1.924,0,0,0,.133.2q6.805,6.729,13.61,13.46c2.063,2.046,4.084,4.134,6.153,6.174a7.063,7.063,0,0,0,7.062,2.048c3.728-1,5.775-3.928,5.136-8.138a7.582,7.582,0,0,0-2.427-4.248q-9.245-9.207-18.47-18.433c-.353-.352-.688-.721-1.1-1.157M111.674,8.221c-.015.137-.034.237-.034.336q.014,8.564.037,17.128a2.434,2.434,0,0,0,2.767,2.624q7.8-.038,15.609-.055c.571,0,1.141,0,1.581,0L111.674,8.221" transform="translate(0 0)" fill="#b4997f"/>
        <path id="Path_610541" data-name="Path 610541" d="M109.013,27.946q12.735,0,25.471.011a3.523,3.523,0,0,1,1.405.252,2.224,2.224,0,0,1,1.265,2.388,2.165,2.165,0,0,1-2.065,1.891c-1.112.072-2.231.043-3.347.044q-18.3,0-36.6,0c-3.666,0-7.332.021-11,.018a7.882,7.882,0,0,1-1.693-.134,2.128,2.128,0,0,1-1.721-2.371,2.343,2.343,0,0,1,2.11-2.087c.251-.022.505-.014.758-.014h25.408" transform="translate(-39.774 -13.769)" fill="#b4997f"/>
        <path id="Path_610542" data-name="Path 610542" d="M189,88.2H171.869a2.7,2.7,0,0,1-2.626-1.5,2.26,2.26,0,0,1,1.23-2.905A8.549,8.549,0,0,1,172.4,83.5q16.654-.021,33.309.009a6.8,6.8,0,0,1,1.862.259,2.119,2.119,0,0,1,1.471,2.189,2.347,2.347,0,0,1-1.721,2.1A6.5,6.5,0,0,1,206,88.19q-8.5.013-17,.006" transform="translate(-83.299 -41.138)" fill="#b4997f"/>
        <path id="Path_610543" data-name="Path 610543" d="M195.978,171.59q-7.266,0-14.531,0a7.633,7.633,0,0,1-1.194-.084,2.254,2.254,0,0,1-.39-4.357,6.415,6.415,0,0,1,1.853-.309q14.31-.03,28.62,0a6.2,6.2,0,0,1,1.906.353,2.216,2.216,0,0,1,1.412,2.3,2.3,2.3,0,0,1-1.826,2,6.52,6.52,0,0,1-1.129.091q-7.36.009-14.721,0" transform="translate(-87.87 -82.192)" fill="#b4997f"/>
        <path id="Path_610544" data-name="Path 610544" d="M199.509,139.12c4.486,0,8.973-.02,13.459.022a3.713,3.713,0,0,1,1.955.508,2.19,2.19,0,0,1-.344,3.851,4.094,4.094,0,0,1-1.7.4q-13.458.037-26.918-.007a4.372,4.372,0,0,1-1.9-.561,2.128,2.128,0,0,1-1.063-2.25,2.324,2.324,0,0,1,1.794-1.836,4.467,4.467,0,0,1,1.125-.121q6.792-.011,13.585,0Z" transform="translate(-90.145 -68.541)" fill="#b4997f"/>
        <path id="Path_610545" data-name="Path 610545" d="M199.473,111.453q6.635,0,13.269,0a8.624,8.624,0,0,1,1.194.082,2.211,2.211,0,0,1,.309,4.338,6.088,6.088,0,0,1-1.613.239q-13.238.021-26.475,0c-1.275,0-2.448-.278-2.994-1.643a2.125,2.125,0,0,1,1.659-2.9c1.253-.126,2.521-.124,3.782-.129,3.623-.015,7.245-.006,10.868-.006Z" transform="translate(-90.169 -54.905)" fill="#b4997f"/>
        <path id="Path_610546" data-name="Path 610546" d="M227.856,241.4c-1.705,0-3.412.057-5.114-.017a2.3,2.3,0,0,1-2.418-2.42,2.515,2.515,0,0,1,2.639-2.275c3.011-.012,6.024-.061,9.033.025a2.408,2.408,0,0,0,2.388-2.316c-.027-2.821-.009-5.643,0-8.464a7.258,7.258,0,0,1,.112-1.444,2.119,2.119,0,0,1,1.638-1.735,2.166,2.166,0,0,1,2.32.774,3.044,3.044,0,0,1,.717,2.033c-.023,2.8.045,5.6-.021,8.4a7.247,7.247,0,0,1-7.128,7.425c-1.389.018-2.779,0-4.168,0v.01" transform="translate(-108.551 -109.709)" fill="#b4997f"/>
        <path id="Path_610547" data-name="Path 610547" d="M209.928,199.433c-3.095,0-6.19.008-9.284-.007a11.749,11.749,0,0,1-1.819-.15,2.108,2.108,0,0,1-1.759-2.079,2.137,2.137,0,0,1,1.528-2.208,6.664,6.664,0,0,1,1.679-.232q9.631-.023,19.263,0a7.317,7.317,0,0,1,1.743.235,2.131,2.131,0,0,1,1.564,2.054,2.174,2.174,0,0,1-1.511,2.166,6.507,6.507,0,0,1-1.677.223c-3.242.02-6.484.01-9.726.01Z" transform="translate(-97.091 -95.95)" fill="#b4997f"/>
        <path id="Path_610548" data-name="Path 610548" d="M157.481,60.369c-2.947,0-5.894.014-8.841-.013a4.128,4.128,0,0,1-1.525-.29,2.228,2.228,0,0,1-1.338-2.41,2.4,2.4,0,0,1,1.826-1.878,5.133,5.133,0,0,1,1.064-.107q8.715,0,17.431.015a5.25,5.25,0,0,1,1.614.2,2.24,2.24,0,0,1,1.486,2.435,2.323,2.323,0,0,1-2.181,2.015c-1.451.054-2.9.046-4.357.053-1.726.007-3.452,0-5.179,0v-.019" transform="translate(-71.814 -27.428)" fill="#b4997f"/>
        <path id="Path_610549" data-name="Path 610549" d="M89.433,106.234c.22,15.679-14.478,32.123-34.552,32.621a35.208,35.208,0,1,1-.789-70.407A34.119,34.119,0,0,1,79.045,78.727c6.868,6.829,10.354,15.159,10.389,27.507M23.56,103.778c-.278,16.084,13.135,30.439,30.645,30.4a30.546,30.546,0,1,0-.414-61.088c-15.979.179-30.52,13.449-30.231,30.685" transform="translate(-9.281 -33.724)" fill="#b4997f"/>
        <path id="Path_610550" data-name="Path 610550" d="M43.556,111.134a38.943,38.943,0,0,1,6.45-.5c3.322,0,5.756.773,7.3,2.163a7,7,0,0,1,2.28,5.446,7.665,7.665,0,0,1-2.009,5.563c-1.777,1.892-4.674,2.858-7.957,2.858a11.559,11.559,0,0,1-2.7-.232V136.86h-3.36Zm3.36,12.554a11.26,11.26,0,0,0,2.781.27c4.056,0,6.528-1.97,6.528-5.562,0-3.438-2.434-5.1-6.142-5.1a14.121,14.121,0,0,0-3.167.27Z" transform="translate(-21.46 -54.508)" fill="#b4997f"/>
        <path id="Path_610551" data-name="Path 610551" d="M97.543,124.842H87.423v9.386H98.7v2.82H84.063V111.013h14.06v2.82h-10.7v8.228h10.12Z" transform="translate(-41.417 -54.695)" fill="#b4997f"/>
        <rect id="Rectangle_378278" data-name="Rectangle 378278" width="3.36" height="26.034" transform="translate(61.649 56.318)" fill="#b4997f"/>
      </g>
    </g>
  </g>
</svg>
