<svg xmlns="http://www.w3.org/2000/svg" xmlns:xlink="http://www.w3.org/1999/xlink" width="139" height="139" viewBox="0 0 139 139">
  <defs>
    <clipPath id="clip-path">
      <rect id="Rectangle_377966" data-name="Rectangle 377966" width="92.274" height="91.417" fill="#636363"/>
    </clipPath>
  </defs>
  <g id="Group_1073945" data-name="Group 1073945" transform="translate(-1046 -3901)">
    <g id="Group_1072542" data-name="Group 1072542" transform="translate(-388.668 -1981)">
      <g id="Group_1072229" data-name="Group 1072229" transform="translate(1434.668 5882)">
        <path id="Path_608385" data-name="Path 608385" d="M69.5,0A69.5,69.5,0,1,1,0,69.5,69.5,69.5,0,0,1,69.5,0Z" transform="translate(0)" fill="#fff"/>
      </g>
    </g>
    <rect id="Rectangle_378464" data-name="Rectangle 378464" width="94" height="94" transform="translate(1069 3924)" fill="none"/>
    <g id="Grupo_156261" data-name="Grupo 156261" transform="translate(1071.146 3920.761)">
      <g id="Group_1072546" data-name="Group 1072546" transform="translate(-1.147 4.239)">
        <g id="Group_1072545" data-name="Group 1072545" clip-path="url(#clip-path)">
          <path id="Path_609849" data-name="Path 609849" d="M79.266,70.164c.549,0,1.089-.006,1.628,0a11.675,11.675,0,0,1,1.75.054,3.154,3.154,0,0,1,2.742,2.749c.279,1.357.561,2.713.821,4.074.58,3.036,1.137,6.076,1.725,9.111.492,2.544,1.018,5.082,1.521,7.624q1.009,5.1,2.008,10.2c.233,1.182.459,2.366.719,3.542a4.627,4.627,0,0,1-3.079,5.228,6.361,6.361,0,0,1-1.92.317q-15.731.027-31.463.01c-.181,0-.363-.034-.542-.017a.481.481,0,0,0-.314.141,6.477,6.477,0,0,1-3.912,2.293,29.938,29.938,0,0,1-4.109.648,17.148,17.148,0,0,1-2.621-.125,12.8,12.8,0,0,1-5.045-1.316,5.43,5.43,0,0,1-1.8-1.46.545.545,0,0,0-.364-.2c-4.484.005-8.968.029-13.453.035q-9.151.012-18.3.006a4.927,4.927,0,0,1-4.569-2.321,4.517,4.517,0,0,1-.554-3.513c.447-1.929.788-3.883,1.17-5.827q1.106-5.63,2.207-11.262,1.122-5.733,2.239-11.466.553-2.834,1.1-5.669a3.25,3.25,0,0,1,3.366-2.855c.807-.017,1.616-.006,2.423.016.28.007.4-.084.429-.361.02-.22.088-.435.121-.654a3.144,3.144,0,0,1,2.905-2.9c.206-.031.412-.074.62-.085.313-.016.343-.154.288-.438a19.118,19.118,0,0,1-.515-3.067,12.051,12.051,0,0,1,1.8-6.7,1.543,1.543,0,0,0,.225-1.1,6.3,6.3,0,0,1,3.452-6.429.749.749,0,0,0,.5-.7,7.084,7.084,0,0,1,1.5-3.69,7.977,7.977,0,0,1,4.875-2.968,5.074,5.074,0,0,1,2.992.156.534.534,0,0,0,.705-.192,10.518,10.518,0,0,1,7.044-3.806,10.691,10.691,0,0,1,6.839,1.484.492.492,0,0,0,.448-.057,6.425,6.425,0,0,1,9.3,1.115.733.733,0,0,0,.521.219,13.308,13.308,0,0,1,8.233,2.89,12.9,12.9,0,0,1,4.694,7.467.609.609,0,0,0,.541.554,6.427,6.427,0,0,1,4.478,4.766,6.933,6.933,0,0,1-.116,3.006A1.738,1.738,0,0,0,74.7,59.96a8.71,8.71,0,0,1,.943,5.639c-.112.571-.116.579.454.659a3.163,3.163,0,0,1,2.965,2.891c.044.327.127.649.2,1.016M47.675,103.053a53.253,53.253,0,0,1,33.9-.016c-.015-.271-.008-.464-.038-.652-.313-1.944-.624-3.888-.95-5.829-.337-2.009-.692-4.015-1.034-6.024q-.589-3.464-1.167-6.93-.587-3.507-1.169-7.015c-.253-1.532-.5-3.065-.75-4.6-.13-.793-.255-1.586-.407-2.375-.025-.13-.161-.321-.269-.339a10.341,10.341,0,0,0-1.247-.1c-.1,0-.256.027-.3.1a14.016,14.016,0,0,0-.876,1.586c-.4.928-.651,1.923-1.106,2.819a12.242,12.242,0,0,1-3.43,4.143c-.567.442-.521.45-.228,1.08.373.8.714,1.623,1.029,2.451a4.452,4.452,0,0,1,.14,2.582,4.743,4.743,0,0,1-6.329,3.346,6.413,6.413,0,0,1-2.263-1.665A6.969,6.969,0,0,0,58.4,83.83c-1.158-.429-2.313-.88-3.428-1.409a7.6,7.6,0,0,1-4.254-4.613c-.032-.1-.246-.2-.374-.2a5.046,5.046,0,0,1-2.007-.3,1.9,1.9,0,0,0-.692-.129.776.776,0,0,0-.483.163,9.033,9.033,0,0,1-4.321,2.149,9.776,9.776,0,0,1-10.484-4.661.433.433,0,0,0-.593-.233,9.954,9.954,0,0,1-4.268.2,12.711,12.711,0,0,1-8.826-5.522.614.614,0,0,0-.472-.186c-.527.03-1.05.132-1.577.156-.277.013-.409.1-.442.367-.071.563-.136,1.129-.232,1.688-.186,1.078-.407,2.15-.585,3.23-.349,2.107-.669,4.218-1.019,6.325-.317,1.9-.669,3.793-.987,5.693-.369,2.2-.712,4.407-1.078,6.609-.2,1.175-.426,2.345-.625,3.52-.271,1.6-.529,3.2-.787,4.8-.078.484-.138.971-.22,1.556a53.271,53.271,0,0,1,33.908.011v-1.2q0-8.084,0-16.168c0-.722.019-1.445.069-2.165a1.546,1.546,0,0,1,1.461-1.445,1.579,1.579,0,0,1,1.534,1.371,6.006,6.006,0,0,1,.054.831q-.008,9.167-.022,18.334c0,.12.01.241.019.444m9.65-59.95c0,.226.011.364,0,.5a1.34,1.34,0,0,1-1.07,1.315A1.5,1.5,0,0,1,54.3,43.441c-.022-.151-.044-.3-.063-.454a3.293,3.293,0,0,0-6.445-.357c-.077.323-.1.658-.16.985-.1.514-.224,1.073-.8,1.22-1.189.3-2.2.042-2.2-1.509,0-.535.165-1.067.216-1.6a.573.573,0,0,0-.172-.467,7.448,7.448,0,0,0-7.563-.138,7.3,7.3,0,0,0-3.705,4.663,1.518,1.518,0,1,1-2.941-.753c.085-.3.164-.594.247-.894-2.313-.472-5.309,1.727-5.1,3.7.13.026.264.057.4.081a6.231,6.231,0,0,1,3.87,2.347,1.529,1.529,0,0,1-.113,2.016,1.44,1.44,0,0,1-1.972.094,4.061,4.061,0,0,1-.509-.491,3.244,3.244,0,0,0-3.429-.95,3.319,3.319,0,0,0-1.835,4.891,8.059,8.059,0,0,0,1.268,1.247,1.6,1.6,0,0,1,.212,2.1,1.616,1.616,0,0,1-2.15.2c-.323-.251-.649-.5-.983-.756-.051.085-.083.129-.106.179a2.351,2.351,0,0,0-.113.268,10.159,10.159,0,0,0-.158,5.975,9.43,9.43,0,0,0,10.83,6.625c.1-.018.253-.154.258-.242.026-.453.012-.909.012-1.324a.741.741,0,0,0-.137-.079,5.488,5.488,0,0,1-4.76-4.994,1.555,1.555,0,0,1,1.188-1.787,1.463,1.463,0,0,1,1.859,1.211,4.588,4.588,0,0,1,.1.657,2.242,2.242,0,0,0,1.536,1.8c.535.143.665.05.876-.454a9.4,9.4,0,0,1,.757-1.521A1.413,1.413,0,0,1,34,64.3a1.514,1.514,0,0,1,1.087,2.17,7.481,7.481,0,0,0-.953,2.86,6.721,6.721,0,0,0,11.544,5.25,1.849,1.849,0,0,1,2.169-.55,12.456,12.456,0,0,0,7.6.223,1.55,1.55,0,0,1,2.009,1.224,1.586,1.586,0,0,1-1.31,1.708c-.71.162-1.417.334-2.144.506a2.981,2.981,0,0,0,1.316,1.421,23.869,23.869,0,0,0,3.307,1.557A11.663,11.663,0,0,1,63.8,83.95a1.852,1.852,0,0,0,1.244.606,1.7,1.7,0,0,0,1.788-2.035c-.317-.857-.711-1.684-1.06-2.529-.1-.249-.227-.265-.479-.192a25.743,25.743,0,0,1-2.577.664A1.43,1.43,0,0,1,61.092,79.3a1.461,1.461,0,0,1,.991-1.7,10.452,10.452,0,0,1,1.04-.3,9.447,9.447,0,0,0,5.255-3.254,3.9,3.9,0,0,0,.275-.428,1.091,1.091,0,0,0-.233-.021c-.218.043-.435.091-.651.142a8.727,8.727,0,0,1-5.038-.392,10.742,10.742,0,0,1-2.866-1.6c-.1-.078-.3-.161-.388-.114a4.025,4.025,0,0,1-2.928.219,5.453,5.453,0,0,1-3.521-2.607,1.555,1.555,0,0,1-.114-1.51,1.462,1.462,0,0,1,1.31-.893,1.573,1.573,0,0,1,1.474.908,2.409,2.409,0,0,0,2.86,1.059,2.317,2.317,0,0,0,1.414-2.941,3.327,3.327,0,0,1-.254-1.161,1.463,1.463,0,0,1,1.256-1.325,1.335,1.335,0,0,1,1.412.6,4.212,4.212,0,0,1,.782,2.376,5.016,5.016,0,0,1-.73,2.82c-.276.5-.244.571.247.84a6.817,6.817,0,0,0,8.232-1.3,5.711,5.711,0,0,0,1.6-3.231,17.737,17.737,0,0,0,.009-2.622,3.97,3.97,0,0,0-.22-.842,14.4,14.4,0,0,1-1.364.722,1.468,1.468,0,0,1-1.861-.764,1.422,1.422,0,0,1,.485-1.841c.215-.153.45-.277.67-.423a3.289,3.289,0,0,0-3-5.807c-.347.136-.665.343-1,.508a1.5,1.5,0,0,1-1.542-2.581,13.708,13.708,0,0,1,1.5-.812c.327-.157.491-.318.307-.7-.163-.335-.255-.7-.408-1.046A9.975,9.975,0,0,0,57.325,43.1M79.788,73.253c.027.282.035.5.072.714.34,1.965.7,3.928,1.026,5.895q.981,5.843,1.94,11.689c.5,3.008,1,6.015,1.49,9.025a20.639,20.639,0,0,1,.327,2.552,2.977,2.977,0,0,1-2.766,2.9,8.418,8.418,0,0,1-2.916-.623,48.71,48.71,0,0,0-10.989-1.841,54.33,54.33,0,0,0-9.957.281c-1.055.15-2.112.283-3.2.428.016.2.021.353.041.5.07.523.167,1.042.214,1.567.091,1.008.186,2.018.215,3.029.015.5.222.563.657.562q15.9-.011,31.8,0a1.317,1.317,0,0,0,.621-.171,1.566,1.566,0,0,0,.763-1.851c-.383-1.888-.768-3.775-1.136-5.666-.477-2.448-.934-4.9-1.409-7.35-.33-1.7-.678-3.4-1.014-5.094q-.753-3.814-1.5-7.63c-.391-2-.772-4-1.165-6-.171-.87-.353-1.738-.555-2.6-.029-.122-.194-.3-.3-.3-.722-.027-1.445-.014-2.256-.014M37.4,104.305c-1.564-.234-3.136-.595-4.722-.678-2.472-.129-4.954-.08-7.431-.086a23.765,23.765,0,0,0-2.753.1c-1.407.161-2.8.4-4.2.635a42.324,42.324,0,0,0-6.307,1.549,3.315,3.315,0,0,1-2.754-.12,3.017,3.017,0,0,1-1.6-3.326c.133-.919.279-1.836.432-2.752q.568-3.4,1.148-6.806c.355-2.09.719-4.18,1.071-6.271.31-1.845.6-3.693.911-5.539.361-2.16.732-4.318,1.1-6.477.069-.4.134-.808.21-1.27-.826,0-1.575-.009-2.323.012-.087,0-.217.159-.244.266-.139.55-.26,1.1-.37,1.66Q8.554,80.3,7.554,85.4c-.639,3.249-1.285,6.5-1.918,9.747-.466,2.394-.91,4.793-1.373,7.189-.371,1.918-.725,3.841-1.147,5.748a1.55,1.55,0,0,0,1.612,1.863,3.962,3.962,0,0,1,.667-.014H36.9c.167-1.891.331-3.735.5-5.623m3.062.6c-.049.273-.087.416-.1.56-.164,1.88-.317,3.761-.494,5.64a.6.6,0,0,0,.344.68,10.2,10.2,0,0,0,1.356.631,15.879,15.879,0,0,0,7.143.468,8.738,8.738,0,0,0,3.275-1.045.742.742,0,0,0,.408-.815c-.182-1.878-.338-3.759-.506-5.638-.011-.118-.041-.234-.065-.366a1.43,1.43,0,0,0-.2.032c-1.527.508-3.058,1-4.576,1.534a2.577,2.577,0,0,1-1.861-.016c-1.542-.578-3.105-1.1-4.723-1.666" transform="translate(0 -24.741)" fill="#636363"/>
          <path id="Path_609850" data-name="Path 609850" d="M92.025,11.425a1.45,1.45,0,0,1-1.242-.979c-.575-1.321-1.121-2.655-1.654-3.993a2.608,2.608,0,0,1-.161-.891,1.294,1.294,0,0,1,1-1.4,1.414,1.414,0,0,1,1.721.665c.3.558.533,1.156.779,1.744.4.958.825,1.909,1.176,2.885a1.5,1.5,0,0,1-1.616,1.97" transform="translate(-59.225 -2.724)" fill="#636363"/>
          <path id="Path_609851" data-name="Path 609851" d="M25.663,68.5a1.5,1.5,0,0,1,1.982-1.459c1.177.453,2.344.934,3.514,1.4.3.119.586.25.882.37a1.818,1.818,0,0,1,1.036,1.277.723.723,0,0,1-.033.4,1.609,1.609,0,0,1-2.257,1.089c-1.372-.6-2.764-1.153-4.146-1.731a1.5,1.5,0,0,1-.978-1.351" transform="translate(-17.084 -44.567)" fill="#636363"/>
          <path id="Path_609852" data-name="Path 609852" d="M235.548,68.584a1.44,1.44,0,0,1-.915,1.245c-1.48.629-2.966,1.247-4.464,1.835a1.478,1.478,0,0,1-1.9-.906,1.4,1.4,0,0,1,.514-1.714,1.14,1.14,0,0,1,.246-.155c1.543-.623,3.074-1.278,4.636-1.85a1.473,1.473,0,0,1,1.881,1.545" transform="translate(-151.875 -44.574)" fill="#636363"/>
          <path id="Path_609853" data-name="Path 609853" d="M177.535,5.66c-.1.342-.172.695-.3,1.024-.477,1.2-.976,2.382-1.463,3.573a1.608,1.608,0,0,1-2.155,1.06,1.418,1.418,0,0,1-.841-1.739c.6-1.547,1.22-3.091,1.913-4.6a1.452,1.452,0,0,1,2.349-.456,1.558,1.558,0,0,1,.5,1.135" transform="translate(-114.962 -2.737)" fill="#636363"/>
          <path id="Path_609854" data-name="Path 609854" d="M208.316,34.856a5.14,5.14,0,0,1,.53-.974c.481-.556,1.01-1.073,1.541-1.583a1.478,1.478,0,0,1,2.6.66,1.3,1.3,0,0,1-.337,1.308,16.508,16.508,0,0,1-1.7,1.714,1.415,1.415,0,0,1-2.222-.218,4.6,4.6,0,0,1-.414-.907" transform="translate(-138.674 -21.138)" fill="#636363"/>
          <path id="Path_609855" data-name="Path 609855" d="M58.155,34.859a1.547,1.547,0,0,1-2.205,1.308,2.448,2.448,0,0,1-.575-.406c-.487-.473-.978-.947-1.427-1.455A1.528,1.528,0,0,1,54.7,31.74a1.107,1.107,0,0,1,1.126.26c.711.658,1.4,1.343,2.053,2.058a2.222,2.222,0,0,1,.276.8" transform="translate(-35.607 -21.091)" fill="#636363"/>
          <path id="Path_609856" data-name="Path 609856" d="M133.328,2.352c.022-.408.023-.7.057-.989A1.513,1.513,0,0,1,134.872,0a1.47,1.47,0,0,1,1.493,1.3,10.688,10.688,0,0,1,.02,1.949,1.455,1.455,0,0,1-1.507,1.325,1.47,1.47,0,0,1-1.5-1.339c-.04-.33-.041-.664-.053-.881" transform="translate(-88.755 0.001)" fill="#636363"/>
          <path id="Path_609857" data-name="Path 609857" d="M126.5,101.884c-.831-.334-1.58-.6-2.293-.932a7.819,7.819,0,0,1-2.685-2.008,1.411,1.411,0,0,1,.036-2.143,1.527,1.527,0,0,1,2.174.1,6.37,6.37,0,0,0,4.253,1.969,6.21,6.21,0,0,0,6.584-5.007,1.471,1.471,0,0,1,2.45-.923,1.436,1.436,0,0,1,.543,1.487,9.252,9.252,0,0,1-5.751,6.85c-.559.233-1.17.341-1.753.52a.441.441,0,0,0-.253.2,7.756,7.756,0,0,1-6.8,4.818,1.59,1.59,0,0,1-1.711-.857,1.468,1.468,0,0,1,1.255-2.172,5.056,5.056,0,0,0,2.988-1.012c.335-.26.626-.577.967-.9" transform="translate(-80.581 -61.616)" fill="#636363"/>
          <path id="Path_609858" data-name="Path 609858" d="M101.714,81.051a7.122,7.122,0,0,1,7.06-6.819,1.487,1.487,0,1,1,.2,2.966,4.785,4.785,0,0,0-2.71.947,3.827,3.827,0,0,0-1.5,2.99,1.58,1.58,0,0,1-1.575,1.668,1.53,1.53,0,0,1-1.479-1.752" transform="translate(-67.709 -49.415)" fill="#636363"/>
        </g>
      </g>
    </g>
  </g>
</svg>
