<svg xmlns="http://www.w3.org/2000/svg" xmlns:xlink="http://www.w3.org/1999/xlink" width="62.504" height="62.504" viewBox="0 0 62.504 62.504">
  <defs>
    <clipPath id="clip-path">
      <rect id="Rectangle_378353" data-name="Rectangle 378353" width="43.441" height="43.354" fill="#f8f5f7"/>
    </clipPath>
  </defs>
  <g id="Group_1073745" data-name="Group 1073745" transform="translate(-279.816 -1198.717)">
    <g id="Group_1072053" data-name="Group 1072053" transform="translate(279.816 1198.717)">
      <circle id="Ellipse_4742" data-name="Ellipse 4742" cx="31.252" cy="31.252" r="31.252" transform="translate(0)" fill="#9b1497"/>
    </g>
    <g id="Group_1073722" data-name="Group 1073722" transform="translate(287.247 1208.292)">
      <g id="Group_1073721" data-name="Group 1073721" clip-path="url(#clip-path)">
        <path id="Path_610885" data-name="Path 610885" d="M45.641,31.36c-.177-.142-.312-.265-.46-.367a3.1,3.1,0,0,0-4.8,1.654,5.7,5.7,0,0,0-.136,1.391,11.107,11.107,0,0,0,1.737,6.237c.153.254.311.5.465.757.036.059.067.121.119.215h-.525c-1.771,0-3.543,0-5.314-.006a3.452,3.452,0,0,0-2.4.78,3.032,3.032,0,0,0-.689,3.733.453.453,0,0,1,.017.075c-.1.018-.2.041-.294.052a10.316,10.316,0,0,1-2.73-.133,13.038,13.038,0,0,1-8.872-5.4,12.815,12.815,0,0,1-2.281-5.529,11.917,11.917,0,0,1-.108-3.4A13.241,13.241,0,0,1,28.4,20.259a12.707,12.707,0,0,1,5.273-.613A13.236,13.236,0,0,1,44.769,27.92a13.327,13.327,0,0,1,.805,3.1c.007.052.023.1.033.154s.017.094.034.184m-16.965,6.5c-.079-.072-.108-.1-.136-.126q-1-1-2-2c-.415-.413-.826-.832-1.254-1.232a.832.832,0,0,0-1.1.023.775.775,0,0,0-.02,1.074c.075.091.162.173.246.256q1.433,1.417,2.866,2.833c.248.246.479.508.728.753a.8.8,0,0,0,1.22,0q.856-.848,1.709-1.7l9.322-9.283c.182-.181.374-.354.544-.545a.752.752,0,0,0,.241-.715.788.788,0,0,0-1.368-.382c-.6.577-1.179,1.167-1.765,1.754q-3.626,3.625-7.249,7.251c-.665.667-1.316,1.347-1.986,2.034" transform="translate(-16.238 -16.48)" fill="#f8f5f7"/>
        <path id="Path_610886" data-name="Path 610886" d="M118.233,125.135q-3.329,0-6.658,0A1.635,1.635,0,0,1,110,124.1a1.522,1.522,0,0,1,.807-1.891,3.942,3.942,0,0,1,.861-.182,5.949,5.949,0,0,1,.612,0,.759.759,0,0,0-.018-1.519c-.757,0-1.515.012-2.272,0a1.566,1.566,0,0,1-1.471-.895,1.535,1.535,0,0,1,1.082-2.173,2.154,2.154,0,0,1,.43-.044c.724,0,1.449,0,2.173,0a.772.772,0,0,0,.814-.694.8.8,0,0,0-.671-.845,2.556,2.556,0,0,0-.432-.034q-1.432,0-2.864,0a1.518,1.518,0,0,1-1.443-1.233,1.5,1.5,0,0,1,.884-1.66,2.09,2.09,0,0,1,.762-.158c.974-.016,1.949,0,2.924,0a.775.775,0,1,0,.107-1.545c-.492.032-.987.008-1.481.007a1.711,1.711,0,0,1-1.677-1.538,1.509,1.509,0,0,1,1.168-1.5,3.533,3.533,0,0,1,.744-.073c1.778-.007,3.556-.005,5.334-.007.191,0,.382,0,.573-.006a1.535,1.535,0,0,0,1.3-2.309c-.374-.672-.778-1.328-1.137-2.008a8.678,8.678,0,0,1-.91-2.739,8.873,8.873,0,0,1-.043-2.54,1.573,1.573,0,0,1,1.459-1.3,1.636,1.636,0,0,1,1.553,1.2c.083.425.1.863.2,1.284a6.674,6.674,0,0,0,2.6,4,26.075,26.075,0,0,1,3.624,3.285,9.677,9.677,0,0,1,.737.9,7.741,7.741,0,0,0,4.316,2.946.27.27,0,0,1,.241.317q-.012,5.8-.014,11.6a.382.382,0,0,1-.118.285c-.651.411-1.3.822-1.972,1.2a7.335,7.335,0,0,1-3.309.869c-.611.03-1.224.042-1.836.044-1.8.006-3.6,0-5.394,0" transform="translate(-90.515 -81.782)" fill="#f8f5f7"/>
        <path id="Path_610887" data-name="Path 610887" d="M32.031,20.354a4.029,4.029,0,0,1-1.19-1.531.574.574,0,0,1,0-.292,13.693,13.693,0,0,0,.114-3.662,15.4,15.4,0,0,0-.414-2.387,14.38,14.38,0,0,0-2.994-5.72,14.694,14.694,0,0,0-7.38-4.7,12.622,12.622,0,0,0-4.02-.456c-.125.006-.25,0-.375,0A13.658,13.658,0,0,0,8.714,3.624,14.188,14.188,0,0,0,4.424,7.479,14.6,14.6,0,0,0,1.931,12.8a15.388,15.388,0,0,0-.35,4.662A13.952,13.952,0,0,0,3.555,23.72,14.562,14.562,0,0,0,9.077,29.1a14.381,14.381,0,0,0,3.279,1.333,15.669,15.669,0,0,0,3.384.524,1.268,1.268,0,0,1,.14.023c-.091.242-.191.469-.259.7s-.105.484-.167.777c-.276-.017-.59-.016-.9-.058a18.893,18.893,0,0,1-3.157-.67A16.34,16.34,0,0,1,.894,21.592,15.87,15.87,0,0,1,.17,18.667,17.422,17.422,0,0,1,.013,15.44a14.844,14.844,0,0,1,.653-3.818A16,16,0,0,1,5.035,4.506,16.2,16.2,0,0,1,11.2.821,15.568,15.568,0,0,1,16.517.005,16.123,16.123,0,0,1,28.091,5.083a15.866,15.866,0,0,1,3.965,7.129,14.964,14.964,0,0,1,.512,4.629c-.04.733-.152,1.464-.252,2.193-.055.4-.152.8-.232,1.2a.8.8,0,0,1-.053.122" transform="translate(0 0)" fill="#f8f5f7"/>
        <path id="Path_610888" data-name="Path 610888" d="M264.172,182.841q0-2.953,0-5.905a2.62,2.62,0,0,1,.034-.452.721.721,0,0,1,.723-.6.713.713,0,0,1,.733.587,2.29,2.29,0,0,1,.04.431q0,5.935,0,11.87a2.158,2.158,0,0,1-.034.372.694.694,0,0,1-.724.615.684.684,0,0,1-.739-.619c-.044-.43-.042-.867-.043-1.3,0-1.666,0-3.331,0-5h.009" transform="translate(-222.265 -147.986)" fill="#f8f5f7"/>
      </g>
    </g>
  </g>
</svg>
