<svg xmlns="http://www.w3.org/2000/svg" xmlns:xlink="http://www.w3.org/1999/xlink" width="107" height="107" viewBox="0 0 107 107">
  <defs>
    <clipPath id="clip-path">
      <rect id="Rectangle_378182" data-name="Rectangle 378182" width="69.559" height="69.125" fill="#fff"/>
    </clipPath>
  </defs>
  <g id="Group_1073939" data-name="Group 1073939" transform="translate(-285 -2761.305)">
    <g id="Grupo_156312" data-name="Grupo 156312" transform="translate(285 2761.305)">
      <ellipse id="Elipse_5845" data-name="Elipse 5845" cx="53.5" cy="53.5" rx="53.5" ry="53.5" transform="translate(0 0)" fill="#5e5a55"/>
      <g id="Group_1073399" data-name="Group 1073399" transform="translate(18 20)">
        <g id="Group_1073398" data-name="Group 1073398" clip-path="url(#clip-path)">
          <path id="Path_610289" data-name="Path 610289" d="M98.818,29.962c0,.18,0,.332,0,.485q0,10.45,0,20.9c0,.709-.208,1.029-.762,1.182a.953.953,0,0,1-1.15-.59,2.8,2.8,0,0,1-.122-.82q-.007-14.878.011-29.756a2.4,2.4,0,0,0-.577-1.669,8.779,8.779,0,0,1-2-5.725,8.981,8.981,0,0,1,2.183-5.94,1.463,1.463,0,0,0,.377-1.123,4.893,4.893,0,0,0-3.295-4.552A5.359,5.359,0,0,0,91.614,2q-13.06-.034-26.121-.007A5.027,5.027,0,0,0,60.433,5.7a6.6,6.6,0,0,0-.191,1.776c-.022,1.682,0,3.365,0,5.047a3.113,3.113,0,0,1-.062.645.96.96,0,0,1-.956.773.97.97,0,0,1-.966-.8,2.548,2.548,0,0,1-.05-.491c0-1.827-.017-3.654,0-5.48A7.2,7.2,0,0,1,62.718.527,7.8,7.8,0,0,1,65.695.006Q78.584,0,91.474,0a7.154,7.154,0,0,1,6.81,4.5,6.284,6.284,0,0,1,.348,1.15c.055.269.149.275.349.16a9.858,9.858,0,0,1,3.034-1.131,9.579,9.579,0,0,1,11.279,9.144,9.561,9.561,0,0,1-5.817,8.834,6.051,6.051,0,0,1-2.408.638c-.262,0-.32.137-.318.378.009,1.114.055,2.232-.013,3.342a3.038,3.038,0,0,1-3.132,2.92c-.807.013-1.615,0-2.422,0-.111,0-.222.012-.365.02m.976-12.7a5.086,5.086,0,0,1-1.16-3.75,4.985,4.985,0,0,1,1.913-3.518,5.155,5.155,0,0,1,6.381-.024,5.1,5.1,0,0,1,.783,7.3l1.656,1.659a7.411,7.411,0,0,0-.382-10.3,7.6,7.6,0,0,0-10.96.516,7.428,7.428,0,0,0,.111,9.783l1.657-1.658m7.051-3.283a3.073,3.073,0,0,0-3.08-3.137,3.162,3.162,0,0,0-3.167,3.131,3.2,3.2,0,0,0,3.022,3.144,3.071,3.071,0,0,0,3.225-3.138m-8.02,8.093c-.012.139-.029.247-.029.355.006,1.742.018,3.483.017,5.225,0,.213.05.289.273.289.765,0,1.53.024,2.295.032a2.067,2.067,0,0,0,.462-.042.953.953,0,0,0,.852-.88c.015-1.154.006-2.308.01-3.462,0-.193-.076-.274-.274-.281a7.526,7.526,0,0,1-2.885-.86c-.232-.107-.455-.237-.721-.376m.923-1.83a7.359,7.359,0,0,0,8.015.03,3.365,3.365,0,0,0-1.238-1.308,1.179,1.179,0,0,0-1.113-.154,4.769,4.769,0,0,1-3.394-.013.845.845,0,0,0-.48-.063,3.006,3.006,0,0,0-1.789,1.509" transform="translate(-43.736 0)" fill="#fff"/>
          <path id="Path_610290" data-name="Path 610290" d="M14.547,113.758c-.6.274-1.153.571-1.739.791A9.548,9.548,0,0,1,.743,109.273,8.733,8.733,0,0,1,0,105.786a9.432,9.432,0,0,1,4.124-7.852,10,10,0,0,1,3.286-1.486,4.175,4.175,0,0,1,.8-.1c.242-.016.307-.126.3-.358-.01-1.012-.015-2.023,0-3.035a3.145,3.145,0,0,1,1.311-2.642,3.325,3.325,0,0,1,2.017-.6q1.118,0,2.236,0c.122,0,.244-.018.389-.029v-.328q0-10.436,0-20.871a2.366,2.366,0,0,1,.045-.491.911.911,0,0,1,.812-.736.9.9,0,0,1,1.047.582,2.7,2.7,0,0,1,.127.849q.01,8.547,0,17.094,0,6.565.007,13.13a1.008,1.008,0,0,0,.221.61,9.149,9.149,0,0,1,2.31,6.823,8.869,8.869,0,0,1-2.2,5.343A1.3,1.3,0,0,0,16.5,112.7a4.9,4.9,0,0,0,3.186,4.569,5.206,5.206,0,0,0,1.929.393q13.17.038,26.34,0a4.913,4.913,0,0,0,4.752-3.3,5.7,5.7,0,0,0,.314-1.749c.042-1.8.011-3.592.029-5.388a2.387,2.387,0,0,1,.173-.866.912.912,0,0,1,1.032-.511.954.954,0,0,1,.771.712,1.837,1.837,0,0,1,.051.428c0,1.817.028,3.634-.008,5.45a7.073,7.073,0,0,1-3.945,6.445,6.878,6.878,0,0,1-3.323.773q-13,.018-26,0A7.2,7.2,0,0,1,14.633,114a2.412,2.412,0,0,0-.086-.242m-8.982-4.8a5.137,5.137,0,0,1,7.282-7.184,4.968,4.968,0,0,1,1.776,3.134,5.043,5.043,0,0,1-1.129,4.053l1.657,1.647a7.354,7.354,0,0,0,1.433-7.547,7.542,7.542,0,0,0-14.293.612,7.266,7.266,0,0,0,1.645,6.914l1.63-1.629m.884-3.291a3.045,3.045,0,0,0,3.12,3.153,3.131,3.131,0,0,0,.03-6.262,3.005,3.005,0,0,0-3.15,3.108m8.01-13.981c-.919,0-1.8-.042-2.672.012s-1.262.414-1.233,1.347c.031.989.016,1.979.01,2.969,0,.229.064.34.31.35a8.632,8.632,0,0,1,3.309,1.047c.086.041.166.1.276.161Zm-8.945,20.3c.117.074.208.139.307.192a7.709,7.709,0,0,0,2.715.893,7.625,7.625,0,0,0,4.83-.949c.148-.085.186-.158.091-.314a3.355,3.355,0,0,0-1.506-1.331.7.7,0,0,0-.586-.022,5.151,5.151,0,0,1-3.7,0,.738.738,0,0,0-.5.009,3.276,3.276,0,0,0-1.66,1.521" transform="translate(0 -50.538)" fill="#fff"/>
          <path id="Path_610291" data-name="Path 610291" d="M84.066,123.633V120.2c-.13,0-.249,0-.369,0-.548-.014-1.1.01-1.641-.056a.928.928,0,0,1-.849-1.008.946.946,0,0,1,.908-.923c.431-.04.868-.028,1.3-.036.2,0,.409,0,.644,0v-3.446c-.568,0-1.115.025-1.657-.011a1.7,1.7,0,0,1-.773-.24.884.884,0,0,1-.372-1.032.9.9,0,0,1,.822-.735c.566-.05,1.137-.05,1.705-.046.218,0,.282-.046.279-.272-.013-1.039-.006-2.079-.006-3.164-.422,0-.833.014-1.243,0a4.259,4.259,0,0,1-.948-.115.955.955,0,0,1,.193-1.856c.608-.038,1.22-.031,1.829-.024.208,0,.327-.025.41-.253a3.392,3.392,0,0,1,1.966-1.989.383.383,0,0,0,.275-.411c.008-.618,0-1.239.068-1.852a.907.907,0,0,1,1.04-.8.939.939,0,0,1,.884.913c.025.546.024,1.094.015,1.641,0,.215.056.289.28.287.973-.01,1.946-.012,2.919,0,.251,0,.32-.072.312-.316-.015-.5,0-.991.007-1.486a.99.99,0,0,1,.96-1.032,1.032,1.032,0,0,1,1.034,1.021c.013.537,0,1.073.005,1.61a1.534,1.534,0,0,0,.019.162.731.731,0,0,0,.15.033c1.015,0,2.029,0,3.044.009.212,0,.264-.077.261-.272-.008-.5,0-.991,0-1.486a1.1,1.1,0,0,1,.675-1.021.98.98,0,0,1,1.133.351.914.914,0,0,1,.177.5c.021.618.008,1.237.008,1.889h3.479c.007-.077.023-.176.025-.276.009-.526,0-1.053.026-1.578a.955.955,0,0,1,.909-.958.9.9,0,0,1,1.031.839,16.3,16.3,0,0,1,.052,1.822.362.362,0,0,0,.265.411,3.294,3.294,0,0,1,1.987,2,.305.305,0,0,0,.342.232c.61,0,1.221-.01,1.83.025a.963.963,0,0,1,.913.956.9.9,0,0,1-.8.949c-.531.068-1.073.048-1.61.065-.142,0-.285,0-.451,0v3.446h.316c.548.006,1.1-.017,1.644.029a1.019,1.019,0,0,1,.908,1.074,1.034,1.034,0,0,1-.982.944c-.506.023-1.014,0-1.521,0h-.358v3.438c.1.005.19.013.278.015.589.013,1.181,0,1.767.046a.891.891,0,0,1,.815.873.91.91,0,0,1-.629.989,2.474,2.474,0,0,1-.7.112c-.5.016-1.009,0-1.543,0,0,.938-.008,1.843,0,2.748.008.677.018.676.707.678.393,0,.788-.015,1.179.014a1.008,1.008,0,0,1,.971,1.039,1.064,1.064,0,0,1-1.09.971c-.559,0-1.118.006-1.677,0a.276.276,0,0,0-.313.211,3.218,3.218,0,0,1-1.972,1.968.357.357,0,0,0-.279.4c0,.618.005,1.239-.052,1.853a.918.918,0,0,1-.984.828.966.966,0,0,1-.948-.926c-.031-.535-.021-1.073-.022-1.609,0-.164-.024-.286-.228-.285-1.045.006-2.091.01-3.136.016a.713.713,0,0,0-.143.035c0,.564-.03,1.131.008,1.694a1.017,1.017,0,0,1-.967,1.072,1.052,1.052,0,0,1-1.043-1.049c-.008-.566,0-1.132,0-1.735H94.065c0,.6,0,1.185,0,1.771a1.047,1.047,0,0,1-.712.956.958.958,0,0,1-1.1-.358,1.1,1.1,0,0,1-.176-.542c-.022-.6-.008-1.192-.008-1.82-.225-.016-.418-.04-.611-.041-.869,0-1.739.007-2.609,0-.239,0-.3.08-.3.305q.016.758-.009,1.517a.952.952,0,0,1-.93,1,.934.934,0,0,1-1.016-.866,17.377,17.377,0,0,1-.048-1.821.34.34,0,0,0-.26-.383,3.385,3.385,0,0,1-2.009-1.986.386.386,0,0,0-.281-.195c-.569-.019-1.138-.007-1.708-.01a1.054,1.054,0,0,1-1.068-.992.993.993,0,0,1,.957-1.017c.608-.034,1.22-.008,1.884-.008m2.045-7.219h0q0,4.2,0,8.392a1.241,1.241,0,0,0,1.062,1.215,5.976,5.976,0,0,0,.743.032q7.827,0,15.655,0c.279,0,.559,0,.837-.02a1.2,1.2,0,0,0,.911-.571,1.614,1.614,0,0,0,.178-1.044c0-5.4,0-10.8.023-16.195a1.452,1.452,0,0,0-1.478-1.469c-2.95.026-5.9.019-8.851.02-2.578,0-5.156.005-7.733-.014a1.432,1.432,0,0,0-1.357,1.356c.033,2.766.013,5.532.013,8.3" transform="translate(-61.026 -76.595)" fill="#fff"/>
          <path id="Path_610292" data-name="Path 610292" d="M105.8,54.8c-.838,0-1.677-.007-2.515.008a.662.662,0,0,0-.4.165c-.455.42-.883.87-1.339,1.29a1.6,1.6,0,0,1-2.31-.009c-.446-.415-.865-.86-1.313-1.273a.693.693,0,0,0-.424-.178c-1.594-.007-3.187.007-4.781.006a5.29,5.29,0,0,1-4.208-1.83,4.982,4.982,0,0,1,2.254-7.964,5.067,5.067,0,0,1,1.608-.252c5.444,0,10.888-.013,16.332.011a5,5,0,0,1,.013,9.986c-.969.055-1.944.008-2.917.008V54.8m-5.4-.138c.463-.462.888-.884,1.309-1.309a1.971,1.971,0,0,1,1.5-.6c1.738.023,3.478-.017,5.215.032a3.068,3.068,0,0,0,3.012-2.54,2.975,2.975,0,0,0-2.978-3.476c-5.361,0-10.722.028-16.082-.018a3.073,3.073,0,0,0-3.032,2.613,2.994,2.994,0,0,0,2.943,3.411c1.728.01,3.457.017,5.184-.015a2.225,2.225,0,0,1,1.747.707c.378.394.766.779,1.176,1.2" transform="translate(-65.616 -33.639)" fill="#fff"/>
          <path id="Path_610293" data-name="Path 610293" d="M119.543,17.971c-1.8,0-3.6.01-5.4-.01a1.994,1.994,0,0,1-.878-.217.849.849,0,0,1-.394-1.019.956.956,0,0,1,.713-.705,1.747,1.747,0,0,1,.49-.058q5.508,0,11.016,0a1.08,1.08,0,0,1,1.2.838.978.978,0,0,1-.856,1.144,8.657,8.657,0,0,1-.9.019q-2.5,0-5,0v.01" transform="translate(-84.798 -11.993)" fill="#fff"/>
          <path id="Path_610294" data-name="Path 610294" d="M127.776,248.017c.972,0,1.944-.007,2.916,0a.985.985,0,0,1,1.072.959,1.015,1.015,0,0,1-1,1.071c-2.006.011-4.013.013-6.018,0a1,1,0,0,1-1.074-1.121.905.905,0,0,1,.73-.849,2.683,2.683,0,0,1,.584-.057c.931-.005,1.862,0,2.792,0Z" transform="translate(-92.937 -186.383)" fill="#fff"/>
          <path id="Path_610295" data-name="Path 610295" d="M112.8,147.53a3.189,3.189,0,0,1,.1-.448q1.76-4.586,3.528-9.169a1.22,1.22,0,0,1,2.374.041q1.418,3.741,2.843,7.479c.227.6.459,1.192.674,1.793a.971.971,0,0,1-.24,1.084.885.885,0,0,1-1.013.159,1.227,1.227,0,0,1-.566-.523,10.455,10.455,0,0,1-.54-1.378.466.466,0,0,0-.545-.359c-1.169.028-2.339.022-3.508.014-.539,0-.541-.02-.736.493-.139.366-.261.739-.412,1.1a1.011,1.011,0,0,1-1.11.7.964.964,0,0,1-.853-.988m4.883-6.935-.14-.013-1.407,3.626h2.914l-1.367-3.614" transform="translate(-84.769 -102.953)" fill="#fff"/>
          <path id="Path_610296" data-name="Path 610296" d="M158.335,142.887q0,2.214,0,4.427a1.919,1.919,0,0,1-.051.49,1.029,1.029,0,0,1-1.983-.007,1.8,1.8,0,0,1-.056-.459q0-4.411.007-8.823a4.247,4.247,0,0,1,.043-.586,1,1,0,0,1,1.989-.054,3.171,3.171,0,0,1,.048.585q.006,2.213,0,4.427Z" transform="translate(-117.417 -102.968)" fill="#fff"/>
          <path id="Path_610297" data-name="Path 610297" d="M110.506,62.8c-1.6,0-3.206.011-4.809-.012a1.369,1.369,0,0,1-.758-.262.845.845,0,0,1-.28-.977,1.042,1.042,0,0,1,.893-.714,1.8,1.8,0,0,1,.309-.017q4.669,0,9.339,0a1.089,1.089,0,0,1,1.179.754.966.966,0,0,1-1,1.228c-1.386,0-2.772,0-4.157,0h-.714" transform="translate(-78.612 -45.707)" fill="#fff"/>
          <path id="Path_610298" data-name="Path 610298" d="M161.705,62.769c-.29,0-.58,0-.87,0-.662-.009-1.018-.331-1.038-.933a.976.976,0,0,1,.968-1.036,17.84,17.84,0,0,1,1.862,0,1.007,1.007,0,0,1,.954.676.838.838,0,0,1-.229.989,1.533,1.533,0,0,1-.718.294,5.8,5.8,0,0,1-.93.011" transform="translate(-120.088 -45.672)" fill="#fff"/>
        </g>
      </g>
    </g>
  </g>
</svg>
