<svg xmlns="http://www.w3.org/2000/svg" xmlns:xlink="http://www.w3.org/1999/xlink" width="107" height="107" viewBox="0 0 107 107">
  <defs>
    <clipPath id="clip-path">
      <rect id="Rectangle_378183" data-name="Rectangle 378183" width="69" height="41.526" fill="#fff"/>
    </clipPath>
  </defs>
  <g id="Group_1073940" data-name="Group 1073940" transform="translate(-285 -2915.741)">
    <g id="Grupo_156312" data-name="Grupo 156312" transform="translate(285 2915.305)">
      <ellipse id="Elipse_5845" data-name="Elipse 5845" cx="53.5" cy="53.5" rx="53.5" ry="53.5" transform="translate(0 0.437)" fill="#5e5a55"/>
      <g id="Group_1073401" data-name="Group 1073401" transform="translate(19 32.437)">
        <g id="Group_1073400" data-name="Group 1073400" clip-path="url(#clip-path)">
          <path id="Path_610299" data-name="Path 610299" d="M20.518,5.142c-.565.245-1.136.477-1.695.736a36.022,36.022,0,0,0-9.816,6.676,37.692,37.692,0,0,0-6.19,7.7.828.828,0,0,0,0,.986,37.073,37.073,0,0,0,8.9,10.049,7.1,7.1,0,0,1,.665.574,1.019,1.019,0,0,1,.05,1.553,1.125,1.125,0,0,1-1.6.192c-1.214-1-2.454-1.97-3.594-3.046a37.918,37.918,0,0,1-7-9.009,1.5,1.5,0,0,1,0-1.615A39.092,39.092,0,0,1,9.393,9.013a38.69,38.69,0,0,1,9.818-5.981,40.342,40.342,0,0,1,5.509-1.8A38.982,38.982,0,0,1,35.608.019a43.764,43.764,0,0,1,5.567.568,37.794,37.794,0,0,1,17.415,7.6A39.252,39.252,0,0,1,68.761,19.928a1.538,1.538,0,0,1-.018,1.675,38.906,38.906,0,0,1-10.556,12,1.126,1.126,0,0,1-1.574-.151.987.987,0,0,1-.028-1.545,10.254,10.254,0,0,1,.985-.847,36.915,36.915,0,0,0,8.705-9.987.551.551,0,0,0,0-.642A36.4,36.4,0,0,0,53.946,7.9a37.491,37.491,0,0,0-5.193-2.655.581.581,0,0,0-.368-.023c.281.265.566.525.842.795a20.111,20.111,0,0,1,5.612,9.593,21.145,21.145,0,0,1,.583,5.34,19.653,19.653,0,0,1-1.306,6.842,20.764,20.764,0,0,1-7.785,10.1A19.842,19.842,0,0,1,37.2,41.325a19.975,19.975,0,0,1-4.289.137c-7.661-.769-13.357-4.477-16.985-11.261a21.143,21.143,0,0,1-1.991-5.7,18.831,18.831,0,0,1-.3-5.965,19.9,19.9,0,0,1,3.78-9.825,20.3,20.3,0,0,1,2.955-3.24,2.488,2.488,0,0,0,.205-.226l-.06-.1m32.55,15.64a19.509,19.509,0,0,0-.514-4.231A18.471,18.471,0,0,0,38.71,2.866a17.1,17.1,0,0,0-3.973-.475,20.979,20.979,0,0,0-5.621.827A17.459,17.459,0,0,0,19.8,9.434a18.036,18.036,0,0,0-3.666,9.732,18.85,18.85,0,0,0,1.245,8.625,17.121,17.121,0,0,0,9.37,9.645,20.951,20.951,0,0,0,6.075,1.536,17.4,17.4,0,0,0,6.387-.449,18.064,18.064,0,0,0,8.035-4.454,18.241,18.241,0,0,0,5.817-13.287" transform="translate(0 -0.001)" fill="#fff"/>
          <path id="Path_610300" data-name="Path 610300" d="M83.492,49.13c.029-.779.027-.766-.811-.92a12.345,12.345,0,0,1-8.318-5.4,10.629,10.629,0,0,1-1.84-4.832c-.061-.558-.07-.555-.643-.558a5.288,5.288,0,0,1-.739-.016,1.293,1.293,0,0,1-1.251-1.311,1.363,1.363,0,0,1,1.417-1.2c.27-.01.542-.016.811,0,.235.015.342-.067.362-.306a9.523,9.523,0,0,1,.848-3.165,12.275,12.275,0,0,1,9.863-7.393c.247-.039.323-.129.317-.352-.009-.339-.019-.678-.01-1.017a1.266,1.266,0,0,1,1.191-1.2,1.281,1.281,0,0,1,1.155,1.2c.01.339.025.679.009,1.017-.012.237.063.315.306.349a12.381,12.381,0,0,1,7.207,3.513,12.245,12.245,0,0,1,3.272,5.714,11.447,11.447,0,0,1,.22,1.347.287.287,0,0,0,.349.29c.27-.013.541-.009.811,0a1.27,1.27,0,1,1,.047,2.522,7,7,0,0,1-.846,0c-.237-.014-.337.071-.36.308a10.538,10.538,0,0,1-1.243,3.988A12.2,12.2,0,0,1,87.593,48c-.5.128-1.013.2-1.522.279-.171.027-.247.077-.239.263.016.362.009.724.012,1.087a1.177,1.177,0,0,1-2.35.1c-.014-.2,0-.4,0-.6M74.867,37.417c.042.275.063.483.106.687a9.921,9.921,0,0,0,8.2,7.775c.222.041.338-.016.332-.261-.008-.339-.016-.679,0-1.017a1.175,1.175,0,0,1,2.34.019c.011.327.008.655-.008.982-.013.263.095.335.339.274.489-.123.991-.2,1.467-.364A9.845,9.845,0,0,0,93.7,40.149a7.779,7.779,0,0,0,.739-2.732c-.327,0-.63.02-.93,0a1.491,1.491,0,0,1-1.329-.831,1.02,1.02,0,0,1,.178-1.139,1.483,1.483,0,0,1,1.206-.549c.291-.018.583,0,.9,0a8.677,8.677,0,0,0-.861-2.94,10,10,0,0,0-7.408-5.522c-.233-.048-.395.009-.374.3a3.74,3.74,0,0,1,.019.874,1.836,1.836,0,0,1-.319.817,1.216,1.216,0,0,1-1.367.25,1.058,1.058,0,0,1-.666-1.059c0-.14.01-.28.006-.42-.022-.874.108-.847-.813-.642a9.972,9.972,0,0,0-4.735,2.417,9.611,9.611,0,0,0-3.078,5.926c.332,0,.636-.021.935,0a1.518,1.518,0,0,1,1.359.845,1,1,0,0,1-.176,1.105,1.45,1.45,0,0,1-1.2.568c-.29.019-.582,0-.922,0" transform="translate(-50.164 -15.407)" fill="#fff"/>
        </g>
      </g>
    </g>
  </g>
</svg>
