<svg xmlns="http://www.w3.org/2000/svg" xmlns:xlink="http://www.w3.org/1999/xlink" width="70" height="70" viewBox="0 0 70 70">
  <defs>
    <clipPath id="clip-path">
      <rect id="Rectangle_378433" data-name="Rectangle 378433" width="52" height="51.634" fill="#5e5a55"/>
    </clipPath>
  </defs>
  <g id="Group_1073945" data-name="Group 1073945" transform="translate(-610.429 -5158.572)">
    <g id="Group_1073868" data-name="Group 1073868" transform="translate(341.429 4200.572)">
      <circle id="Ellipse_5614" data-name="Ellipse 5614" cx="35" cy="35" r="35" transform="translate(269 958)" fill="#fff"/>
    </g>
    <g id="Group_1073876" data-name="Group 1073876" transform="translate(620.429 5163.572)" clip-path="url(#clip-path)">
      <path id="Path_611061" data-name="Path 611061" d="M3.044,217.934c0-.473,0-.933,0-1.394a5.779,5.779,0,0,1,.277-1.8,4.373,4.373,0,0,1,3.841-2.954c.332-.016.665-.032,1-.032q7.323,0,14.646,0a4.907,4.907,0,0,1,2.67.628,4.167,4.167,0,0,1,2.072,3.051c.084.585.105,1.179.145,1.769.016.237,0,.476,0,.739a2.417,2.417,0,0,1,1.3.308,2.948,2.948,0,0,1,1.675,2.68c.009.486-.026.974.008,1.457a1.556,1.556,0,0,1-1.662,1.67h-.162q-13.474,0-26.948,0a3.3,3.3,0,0,1-.668-.06,1.463,1.463,0,0,1-1.194-1.436,8.267,8.267,0,0,1,.09-2.3,2.992,2.992,0,0,1,2.806-2.31c.023,0,.046-.005.11-.013" transform="translate(0 -172.425)" fill="#5e5a55"/>
      <path id="Path_611062" data-name="Path 611062" d="M101.122,30.659a.752.752,0,0,1,.192.143q4.36,5.744,8.714,11.492c.573.756,1.156,1.506,1.722,2.267a.355.355,0,0,1,0,.3,15.378,15.378,0,0,1-2.756,3.895,17.283,17.283,0,0,1-7.45,4.593c-.556.172-1.13.284-1.7.405-.066.014-.179-.069-.232-.138-.539-.7-1.07-1.4-1.6-2.1l-7.051-9.3c-.574-.756-1.143-1.516-1.728-2.263a.4.4,0,0,1-.048-.5A16.544,16.544,0,0,1,91.5,36.1a17.091,17.091,0,0,1,7.007-4.74c.793-.287,1.629-.457,2.445-.679.037-.01.076-.012.17-.025" transform="translate(-72.562 -24.965)" fill="#5e5a55"/>
      <path id="Path_611063" data-name="Path 611063" d="M62.4,106.391a2.769,2.769,0,0,1-2.409-1.117c-.828-1.037-1.613-2.108-2.416-3.165l-6.663-8.776a3.49,3.49,0,0,1-.728-1.505,2.9,2.9,0,0,1,.873-2.611,3.036,3.036,0,0,1,4.595.376c.8,1.066,1.614,2.127,2.421,3.19q3.226,4.25,6.446,8.5a5.211,5.211,0,0,1,.68,1.172,2.919,2.919,0,0,1-1.172,3.443,2.522,2.522,0,0,1-1.627.489" transform="translate(-40.822 -71.93)" fill="#5e5a55"/>
      <path id="Path_611064" data-name="Path 611064" d="M180.117,18.091a3,3,0,0,1-2.294-1.316c-.632-.819-1.253-1.646-1.878-2.47q-3.458-4.555-6.917-9.11a4.058,4.058,0,0,1-.822-1.562,2.993,2.993,0,0,1,1.6-3.3,2.943,2.943,0,0,1,3.622.725c.9,1.1,1.748,2.258,2.612,3.395q3.292,4.333,6.579,8.669a3.175,3.175,0,0,1,.736,1.907,3.084,3.084,0,0,1-3.241,3.067" transform="translate(-136.906 0)" fill="#5e5a55"/>
      <path id="Path_611065" data-name="Path 611065" d="M201.358,171.47l4.822-3.61c.061.071.128.141.187.218q4.406,5.8,8.813,11.594a3.1,3.1,0,0,1,.571,3.142A3.013,3.013,0,0,1,211,184.005a7.482,7.482,0,0,1-.97-1.114q-4.2-5.519-8.382-11.049c-.088-.116-.181-.229-.294-.372" transform="translate(-163.959 -136.682)" fill="#5e5a55"/>
      <path id="Path_611066" data-name="Path 611066" d="M180.812,144.5l.418-.232a17.814,17.814,0,0,0,4.273-3.262c.114-.119.185-.076.259.022.153.2.3.412.452.615.414.548.827,1.1,1.246,1.641.1.134.12.218-.038.336q-2.251,1.672-4.488,3.36a.162.162,0,0,1-.269-.038c-.192-.251-.38-.506-.572-.757-.419-.552-.84-1.1-1.282-1.685" transform="translate(-147.229 -114.759)" fill="#5e5a55"/>
    </g>
  </g>
</svg>
