<svg xmlns="http://www.w3.org/2000/svg" xmlns:xlink="http://www.w3.org/1999/xlink" width="120" height="120" viewBox="0 0 120 120">
  <defs>
    <clipPath id="clip-path">
      <rect id="Rectangle_377943" data-name="Rectangle 377943" width="76.365" height="76.082" fill="#636363"/>
    </clipPath>
  </defs>
  <g id="Group_1073931" data-name="Group 1073931" transform="translate(-180 -2135)">
    <g id="Group_1072526" data-name="Group 1072526" transform="translate(-89 1177)">
      <path id="Path_608974" data-name="Path 608974" d="M60,0A60,60,0,1,1,0,60,60,60,0,0,1,60,0Z" transform="translate(269 958)" fill="#ffe7af"/>
    </g>
    <rect id="Rectangle_378460" data-name="Rectangle 378460" width="79" height="79" transform="translate(201 2156)" fill="none"/>
    <g id="Group_1072535" data-name="Group 1072535" transform="translate(202 2158)">
      <g id="Group_1072534" data-name="Group 1072534" clip-path="url(#clip-path)">
        <path id="Path_609831" data-name="Path 609831" d="M38.192,69.346A6.508,6.508,0,0,1,36.22,71a6.729,6.729,0,0,1-3,.655q-10.619,0-21.238,0c-2.068,0-4.137.039-6.2-.011a5.693,5.693,0,0,1-5.048-2.9,5.776,5.776,0,0,1-.725-3.011Q-.005,38,0,10.272a5.626,5.626,0,0,1,4.21-5.607c.23-.066.239-.183.238-.364,0-.955-.008-1.909,0-2.864A1.268,1.268,0,0,1,5.87,0q13.772,0,27.544,0A5.687,5.687,0,0,1,38.029,2.1a.881.881,0,0,1,.09.161c.427-.393.781-.76,1.176-1.077A5.842,5.842,0,0,1,43.089,0Q56.793,0,70.5,0a1.254,1.254,0,0,1,1.412,1.413c.018.965.006,1.932-.017,2.9-.005.23.057.314.273.372A5.457,5.457,0,0,1,76.3,9.612c.037.452.059.907.059,1.36q0,27.34,0,54.68a5.768,5.768,0,0,1-1.719,4.371,5.871,5.871,0,0,1-4.21,1.627c-3.3.019-6.591.006-9.886.007-.5,0-.512,0-.516.484-.007.886-.057,1.777.018,2.657a1.192,1.192,0,0,1-1.289,1.281A7.745,7.745,0,0,1,54.725,74.8a.355.355,0,0,0-.474,0,7.948,7.948,0,0,1-4.006,1.279,1.22,1.22,0,0,1-1.378-1.28c.031-.931,0-1.863.017-2.795.005-.271-.074-.352-.343-.35-1.761.009-3.523-.007-5.284.007a5.992,5.992,0,0,1-5.066-2.314M37.069,57.117V55.327q0-15.373,0-30.745c0-6.261-.026-12.522.03-18.782A3.491,3.491,0,0,0,33.52,2.184q-10.516.007-21.032,0c-1.807,0-3.613.008-5.42-.007-.317,0-.387.1-.362.395.033.384.033.772.033,1.158q0,24.084,0,48.168a6.8,6.8,0,0,1-.048.883,1.093,1.093,0,0,1-.812.944c-.676.092-1.075-.086-1.3-.651a2.179,2.179,0,0,1-.127-.8q-.009-12.136,0-24.271.008-10.448.033-20.9a1.494,1.494,0,0,0-.051-.244c-.238.121-.456.209-.651.334a3.37,3.37,0,0,0-1.587,3Q2.176,38.117,2.2,66.036a3.62,3.62,0,0,0,.451,1.65,3.183,3.183,0,0,0,2.989,1.73q10.192-.007,20.385,0c2.614,0,5.227.01,7.84-.019a3.162,3.162,0,0,0,2.86-1.829,1.957,1.957,0,0,0,.115-.444H36.2l-28.873,0c-.591,0-1.182.008-1.772-.01a1.049,1.049,0,0,1-1.071-.934,2.715,2.715,0,0,1-.038-.508q0-3.784,0-7.568A7.733,7.733,0,0,1,4.5,57.05a1.051,1.051,0,0,1,.785-.933,3.708,3.708,0,0,1,.942-.105q13.516-.007,27.032,0a6.334,6.334,0,0,1,3.261.825c.164.1.338.176.547.284m32.55-1.107V2.2c-.089,0-.145-.01-.2-.01q-13.4,0-26.795.008a3.277,3.277,0,0,0-2.181.838,3.523,3.523,0,0,0-1.167,2.856q.015,25.448,0,50.9c0,.1.01.193.017.318a2.334,2.334,0,0,0,.272-.122A7.307,7.307,0,0,1,43.61,56q12.733.025,25.465.009h.544M71.881,6.865c0,.226,0,.37,0,.514.01.522.031,1.045.031,1.567q0,28.1,0,56.2a8.82,8.82,0,0,1-.049,1.02,1,1,0,0,1-1.036.952c-.136.005-.273.007-.409.006q-5.044-.011-10.088-.028c-.247,0-.314.076-.308.308.015.545.034,1.092,0,1.635-.017.311.076.377.372.376,3.42-.01,6.839-.006,10.259-.008a4.393,4.393,0,0,0,.68-.033,3.421,3.421,0,0,0,2.843-3.413q0-11.81,0-23.62,0-16.019-.009-32.038a4.767,4.767,0,0,0-.352-1.681,3.1,3.1,0,0,0-1.938-1.762M57.817,62.731H51.568c-.468,0-.46,0-.46.459q.009,5.061.01,10.122c0,.434.019.463.433.358a5.577,5.577,0,0,0,2.12-1.118,1.1,1.1,0,0,1,1.57-.041,3.611,3.611,0,0,0,.437.324c.562.288,1.12.591,1.707.821.377.148.433.068.433-.326q0-5.129,0-10.258v-.341M69.625,58.29h-.457q-13.327,0-26.653-.014a3.055,3.055,0,0,0-2.028.747,3.342,3.342,0,0,0-1.221,2.547.377.377,0,0,0,.1,0,.864.864,0,0,0,.118-.067,6.005,6.005,0,0,1,3.378-.965q13.156.032,26.312.011h.448ZM6.74,60.547H7.2q13.187,0,26.374-.011a5.809,5.809,0,0,1,3.161.881c.1.062.208.111.331.176a3.348,3.348,0,0,0-3.188-3.325c-8.882.031-17.764.019-26.647.021h-.5Zm30.119,4.364a1.235,1.235,0,0,0-.032-.161,3.28,3.28,0,0,0-2.878-2.017q-13.461-.007-26.921-.009c-.3,0-.334.117-.323.365.02.453.018.908.014,1.362s-.011.459.447.459H36.859Zm32.773-2.156h-9.59v2.13h9.59ZM39.493,67.116a2.661,2.661,0,0,0,.152.478,3.119,3.119,0,0,0,2.676,1.792c2.1.063,4.2.016,6.3.022.192,0,.259-.062.255-.255q-.016-.886,0-1.772c0-.213-.073-.256-.282-.256-2.771,0-5.543,0-8.314-.009h-.785m.025-2.234H48.86V62.751c-.085-.008-.14-.019-.2-.019-2.09,0-4.18-.026-6.27.01a3.131,3.131,0,0,0-2.747,1.785,2.323,2.323,0,0,0-.13.355" transform="translate(0 0)" fill="#636363"/>
        <path id="Path_609832" data-name="Path 609832" d="M62.445,104.662q-2.418,0-4.836,0c-.25,0-.5-.008-.748-.03a1.1,1.1,0,0,1-.013-2.189,3.35,3.35,0,0,1,.34-.011l10.557,0c.724,0,1.11.233,1.3.77a1.049,1.049,0,0,1-.877,1.426,6.411,6.411,0,0,1-.781.03q-2.469,0-4.938,0" transform="translate(-40.528 -74.408)" fill="#636363"/>
        <path id="Path_609833" data-name="Path 609833" d="M67.693,120.843q-4.666,0-9.332,0c-.477,0-.954.036-1.43.024a1.061,1.061,0,0,1-1.137-1.307,1.02,1.02,0,0,1,.9-.883,3.632,3.632,0,0,1,.61-.037q5.093,0,10.186,0c.159,0,.318,0,.477.007a1.1,1.1,0,0,1,1.139,1.1A1.087,1.087,0,0,1,68,120.882c-.1.006-.2,0-.307,0,0-.013,0-.027,0-.04" transform="translate(-40.522 -86.182)" fill="#636363"/>
        <path id="Path_609834" data-name="Path 609834" d="M62.433,86.141h5.108c.147,0,.3.005.442.016a1.1,1.1,0,1,1,.008,2.192c-.35.023-.7.013-1.055.013q-4.785,0-9.569-.01a3.773,3.773,0,0,1-.875-.1.936.936,0,0,1-.71-1.058.9.9,0,0,1,.735-.967,5.2,5.2,0,0,1,1.013-.086c1.634-.008,3.269,0,4.9,0" transform="translate(-40.52 -62.574)" fill="#636363"/>
        <path id="Path_609835" data-name="Path 609835" d="M161.423,48.78v-.451q0-3.017,0-6.033a2.7,2.7,0,0,1,.062-.642.883.883,0,0,1,.757-.73,2.788,2.788,0,0,1,.4-.051c1.42,0,2.841-.011,4.261,0a1.112,1.112,0,0,1,1.187,1.233q0,3.136,0,6.272v.4h8.2c.931,0,1.344.417,1.344,1.352q0,2.028,0,4.056a1.08,1.08,0,0,1-1.145,1.262c-.3.03-.613.027-.92.027-2.476,0-4.951,0-7.481,0V75.513a1.236,1.236,0,0,1-1.373,1.359c-1.273,0-2.545,0-3.818,0a1.505,1.505,0,0,1-1.09-.4,1.239,1.239,0,0,1-.338-.6,4.585,4.585,0,0,1-.053-.949q0-9.391,0-18.781c0-.676,0-.67-.659-.67q-3.749,0-7.5-.013a2.311,2.311,0,0,1-.639-.084.969.969,0,0,1-.773-.85,4.876,4.876,0,0,1-.044-.542q0-1.858,0-3.715c0-.125,0-.251.012-.375a1.1,1.1,0,0,1,1.234-1.118q3.971,0,7.942,0h.423m-7.38,2.2c0,.706.012,1.351-.006,2-.007.254.089.3.318.3q2.607-.02,5.214-.019c.977,0,1.954,0,2.931.025a1.07,1.07,0,0,1,1.092.935,2.7,2.7,0,0,1,.058.575q0,8.862,0,17.723c0,.591.014,1.182,0,1.772,0,.224.07.3.293.3.374-.013.75,0,1.124,0h.8v-.773q0-9.525,0-19.049c0-1.178.328-1.505,1.5-1.5q3.9,0,7.8.019c.086,0,.173-.011.255-.016V51c-.07-.005-.114-.011-.158-.011l-7.089,0c-.42,0-.841.023-1.26,0a1.082,1.082,0,0,1-1.01-.944,3.767,3.767,0,0,1-.044-.577q.014-3.05.034-6.1c0-.1-.01-.193-.017-.305-.66,0-1.284.013-1.908-.006-.271-.008-.348.075-.346.346.012,2.022.011,4.045.008,6.067a3.136,3.136,0,0,1-.057.609,1.064,1.064,0,0,1-1.037.91c-.17.013-.34.014-.511.014l-5.59-.011c-.783,0-1.566,0-2.407,0" transform="translate(-110.278 -29.687)" fill="#636363"/>
      </g>
    </g>
  </g>
</svg>
