<svg xmlns="http://www.w3.org/2000/svg" xmlns:xlink="http://www.w3.org/1999/xlink" width="62.504" height="62.504" viewBox="0 0 62.504 62.504">
  <defs>
    <clipPath id="clip-path">
      <rect id="Rectangle_378349" data-name="Rectangle 378349" width="34.578" height="41" fill="#f8f5f7"/>
    </clipPath>
  </defs>
  <g id="Group_1073939" data-name="Group 1073939" transform="translate(-285 -1712)">
    <g id="Group_1073922" data-name="Group 1073922" transform="translate(285 1712)">
      <circle id="Ellipse_4742" data-name="Ellipse 4742" cx="31.252" cy="31.252" r="31.252" transform="translate(0)" fill="#9b1497"/>
    </g>
    <rect id="Rectangle_378458" data-name="Rectangle 378458" width="41" height="41" transform="translate(296 1723)" fill="none"/>
    <g id="Group_1073923" data-name="Group 1073923" transform="translate(302.963 1730.5)">
      <g id="Group_1073714" data-name="Group 1073714" transform="translate(-4 -7.5)" clip-path="url(#clip-path)">
        <path id="Path_610867" data-name="Path 610867" d="M125.552,148.649V148.4q0-8.8,0-17.61c0-.213.033-.315.269-.394.77-.258,1.524-.564,2.285-.849l4.242-1.587c1.477-.553,2.959-1.093,4.428-1.664a1.234,1.234,0,0,1,1.682,1.039,4.075,4.075,0,0,1,.037.586c0,.662-.007,1.323,0,1.985,0,.152-.053.188-.193.181a3.527,3.527,0,0,0-1.721.283,3.566,3.566,0,0,0-2.122,2.823,6.239,6.239,0,0,0-.062.9c-.008.876-.015,1.753,0,2.629a3.694,3.694,0,0,0,1.523,3.092,3.3,3.3,0,0,0,2.038.67c.543-.008.543,0,.543.538s.012,1.1-.006,1.654a2.768,2.768,0,0,1-.12.72,1.227,1.227,0,0,1-.815.787q-1.624.6-3.247,1.211-2.534.947-5.067,1.9-1.778.664-3.558,1.324c-.033.012-.069.02-.13.038" transform="translate(-107.085 -107.649)" fill="#f8f5f7"/>
        <path id="Path_610868" data-name="Path 610868" d="M34.479,130.422v18.171c-.068-.019-.125-.031-.18-.051q-2.9-1.082-5.809-2.166c-1.993-.745-3.981-1.5-5.978-2.234a1.413,1.413,0,0,1-.963-1.376c-.022-.722,0-1.446-.008-2.169,0-.13.044-.17.168-.171a5.6,5.6,0,0,0,.935-.03,3.576,3.576,0,0,0,2.939-3.074,11.58,11.58,0,0,0,.065-1.374c.011-.68.012-1.36.005-2.04a3.754,3.754,0,0,0-1.529-3.2,3.237,3.237,0,0,0-2.037-.667c-.543.015-.543.005-.543-.528,0-.643-.013-1.287,0-1.93a1.406,1.406,0,0,1,.626-1.241,1.1,1.1,0,0,1,1.035-.109q1.691.635,3.384,1.265,2.534.945,5.069,1.89c.847.317,1.692.639,2.539.957.085.032.175.048.278.076" transform="translate(-18.371 -107.6)" fill="#f8f5f7"/>
        <path id="Path_610869" data-name="Path 610869" d="M84.825,6.65A6.828,6.828,0,1,1,77.8,0,6.779,6.779,0,0,1,84.825,6.65" transform="translate(-60.704 0)" fill="#f8f5f7"/>
        <path id="Path_610870" data-name="Path 610870" d="M53.977,101.688c.206-.172.376-.318.551-.459a14.227,14.227,0,0,1,3.516-2.068.471.471,0,0,1,.505.035,8.443,8.443,0,0,0,3.208,1.2,9.992,9.992,0,0,0,2.82.043,8.926,8.926,0,0,0,3.677-1.327.234.234,0,0,1,.181-.028,14.413,14.413,0,0,1,4.17,2.529.741.741,0,0,1,.062.075,2.514,2.514,0,0,1-.227.112l-6.786,2.529c-.721.269-1.44.547-2.165.806a.553.553,0,0,1-.35-.016c-1.725-.639-3.447-1.286-5.171-1.93-1.088-.406-2.178-.807-3.267-1.213-.232-.086-.459-.184-.727-.293" transform="translate(-46.039 -84.508)" fill="#f8f5f7"/>
        <path id="Path_610871" data-name="Path 610871" d="M4.792,171.789c0,.515-.028,1.031.007,1.543a1.171,1.171,0,0,1-1.125,1.228,6.969,6.969,0,0,1-1.373-.05,2.775,2.775,0,0,1,.13-5.485,8.051,8.051,0,0,1,1.409,0,1.146,1.146,0,0,1,.958,1.128c-.03.544-.007,1.09-.007,1.635" transform="translate(0 -144.142)" fill="#f8f5f7"/>
        <path id="Path_610872" data-name="Path 610872" d="M202.524,171.676c0-.514.026-1.03-.006-1.543a1.172,1.172,0,0,1,1.062-1.23,4.162,4.162,0,0,1,2.14.265,2.8,2.8,0,0,1,1.578,2.74,2.754,2.754,0,0,1-2.532,2.533,8.41,8.41,0,0,1-1.3-.014,1.109,1.109,0,0,1-.943-1.117q0-.817,0-1.635" transform="translate(-172.733 -144.043)" fill="#f8f5f7"/>
      </g>
    </g>
  </g>
</svg>
