<svg xmlns="http://www.w3.org/2000/svg" xmlns:xlink="http://www.w3.org/1999/xlink" width="190" height="161" viewBox="0 0 190 161">
  <defs>
    <clipPath id="clip-path">
      <rect id="Rectangle_378282" data-name="Rectangle 378282" width="190" height="161" fill="#fff" stroke="#707070" stroke-width="1"/>
    </clipPath>
    <clipPath id="clip-path-2">
      <rect id="Rectangle_378283" data-name="Rectangle 378283" width="141.429" height="141.415" fill="#b4997f"/>
    </clipPath>
  </defs>
  <g id="Mask_Group_154399" data-name="Mask Group 154399" clip-path="url(#clip-path)">
    <g id="Group_1073548" data-name="Group 1073548" transform="translate(28.76 10)">
      <g id="Group_1073547" data-name="Group 1073547" clip-path="url(#clip-path-2)">
        <path id="Path_610564" data-name="Path 610564" d="M108.659,67.871c4.128-4.187,8.271-8.359,12.38-12.565a11.594,11.594,0,0,1,7.783-3.725,11.3,11.3,0,0,1,10.51,5.092,11.481,11.481,0,0,1-.974,14.422c-1.32,1.475-2.758,2.844-4.158,4.245q-7.221,7.223-14.456,14.43A4.437,4.437,0,0,1,116,91.241a2.019,2.019,0,0,0-1.829.7c-1.728,1.79-3.5,3.54-5.26,5.293a1.811,1.811,0,0,0-.537,1.411q.058,17.229.066,34.46a8.782,8.782,0,0,1-.882,4.544,7.264,7.264,0,0,1-6.448,3.758c-.126.005-.252,0-.379,0q-46.442,0-92.883,0a7.813,7.813,0,0,1-4.882-1.4A7.331,7.331,0,0,1,0,134c0-.127,0-.253,0-.38Q0,70.657,0,7.69A7.1,7.1,0,0,1,4.054.8,13.312,13.312,0,0,1,7.21.037,4.651,4.651,0,0,1,8.155.013l92.315,0a8.36,8.36,0,0,1,3.813.7,6.837,6.837,0,0,1,4.075,6.015q.091,1.485.092,2.975.008,27.587,0,55.175v2.882l.2.112m-4.938,34.759-.23-.195a3.63,3.63,0,0,1-.415.638q-8.1,8.133-16.214,16.25a10.456,10.456,0,0,1-3.485,2.461q-4.948,1.973-9.89,3.96a6.464,6.464,0,0,1-2.96.47,1.84,1.84,0,0,0-.881.274,5.87,5.87,0,0,1-1.23.694,2.226,2.226,0,0,1-2.5-1.287,2.03,2.03,0,0,1,.464-2.589,1.4,1.4,0,0,0,.352-1.065,8.864,8.864,0,0,1,.391-2.652c1.01-2.724,2.151-5.4,3.211-8.1a14.013,14.013,0,0,1,3.062-5.249c1.516-1.464,2.978-2.984,4.467-4.475q9.989-10,19.981-20c1.148-1.147,2.292-2.3,3.47-3.415a.964.964,0,0,0,.368-.979,4.287,4.287,0,0,1,1.206-3.834,2.465,2.465,0,0,0,.834-2.358,1.167,1.167,0,0,1-.007-.253q.026-31.7.056-63.408A2.633,2.633,0,0,0,100.9,4.59c-.863,0-1.725.038-2.587.037Q53.067,4.61,7.826,4.588c-2.187,0-3.262,1.068-3.259,3.266,0,1.837.033,3.674.033,5.511q0,17.262-.008,34.524,0,29.741,0,59.482,0,13.207-.027,26.415a2.8,2.8,0,0,0,3.086,3.039c.568-.012,1.136-.029,1.7-.029q40.157,0,80.315,0c3.7,0,7.409.029,11.112.034,2.049,0,3.068-1.077,2.983-3.124-.027-.675-.052-1.35-.053-2.025q-.007-7.887,0-15.773,0-5.828.007-11.656c0-.541,0-1.082,0-1.622m12.532-15.991a1.518,1.518,0,0,0,.278-.143q5.205-5.206,10.407-10.415c2.621-2.622,5.311-5.179,7.848-7.881a6.917,6.917,0,0,0,.59-9.2,7.23,7.23,0,0,0-10.608-.894c-3.784,3.693-7.506,7.45-11.249,11.185-2.431,2.424-4.852,4.857-7.2,7.209l9.934,10.137m-11.561-5.079a1.309,1.309,0,0,0-.118.094q-7.86,7.877-15.72,15.751c-4.041,4.035-8.118,8.034-12.146,12.082a6.654,6.654,0,0,0-1.391,2c-1.027,2.4-1.953,4.842-2.916,7.269-.367.926-.73,1.854-1.165,2.958.451-.22.716-.37,1-.481,2.633-1.049,5.252-2.141,7.912-3.117a11.236,11.236,0,0,0,4.192-2.707Q97.28,102.382,110.272,89.4c.369-.37.777-.7,1.136-1.027l-6.716-6.813" transform="translate(0 0)" fill="#b4997f"/>
        <path id="Path_610565" data-name="Path 610565" d="M63.466,18.613q18.028,0,36.055,0a11.663,11.663,0,0,1,4.286.56,7.412,7.412,0,0,1,4.461,6.63c-.031,4.645-.008,9.291-.009,13.936a7.043,7.043,0,0,1-5.825,6.949,18.275,18.275,0,0,1-3.015.221q-36.466.014-72.931,0a7.38,7.38,0,0,1-6.605-3.262,6.116,6.116,0,0,1-1.121-3.435c0-4.856.021-9.714-.025-14.569a7.122,7.122,0,0,1,6.781-6.98c.715-.014,1.431-.05,2.146-.05q17.9,0,35.8,0m.149,23.535v.026c12.46,0,24.92-.02,37.38.026a2.533,2.533,0,0,0,2.578-2.606c-.065-4.285-.033-8.572-.045-12.858a8.63,8.63,0,0,0-.07-1.39,2.176,2.176,0,0,0-1.611-1.838,4.244,4.244,0,0,0-1.185-.12q-37.286-.007-74.572,0a1.582,1.582,0,0,0-.564.014,5.781,5.781,0,0,0-1.481.724,2.606,2.606,0,0,0-.651,2.227q-.008,6.652,0,13.3a2.352,2.352,0,0,0,2.721,2.56c.777-.038,1.556-.061,2.334-.062q17.585-.005,35.17,0" transform="translate(-9.241 -9.179)" fill="#b4997f"/>
        <path id="Path_610566" data-name="Path 610566" d="M18.758,151.144c0-4.6.072-9.206-.021-13.806A7.227,7.227,0,0,1,26.071,130c9.258-.093,18.52-.153,27.776.025,4.163.081,7.254,2.9,7.273,7.829.023,6.164,0,12.329,0,18.494,0,2.808.019,5.615,0,8.423a7.281,7.281,0,0,1-3.56,6.7,7.145,7.145,0,0,1-3.72,1.036c-9.238,0-18.476.016-27.714-.006a7.172,7.172,0,0,1-7.075-4.989,6.717,6.717,0,0,1-.282-2.052c-.023-4.771-.012-9.541-.012-14.312h0M44.6,134.767c-4.387,0-8.7,0-13.008,0q-2.967,0-5.934.01a2.119,2.119,0,0,0-2.06,1.31,3.809,3.809,0,0,0-.205,1.485q-.017,13.68-.006,27.36a5.975,5.975,0,0,0,.066,1.008,2.071,2.071,0,0,0,1.863,1.779,9,9,0,0,0,1.133.067q13.225-.011,26.451-.029c.441,0,.885.012,1.325-.018a2.114,2.114,0,0,0,2.155-2.117c.052-.65,0-1.307,0-1.961q0-12.065,0-24.13c0-.8.06-1.6.035-2.405a2.279,2.279,0,0,0-2.358-2.357c-1.514-.025-3.03,0-4.545.015a.86.86,0,0,0-.239.08c-.013.163-.033.308-.033.454q-.03,5.6-.055,11.209a2.05,2.05,0,0,1-1.7,2.224,2.151,2.151,0,0,1-2.679-1.5,4.473,4.473,0,0,1-.193-1.3c-.017-2.576-.009-5.151-.009-7.726v-3.457" transform="translate(-9.24 -64.069)" fill="#b4997f"/>
        <path id="Path_610567" data-name="Path 610567" d="M49.293,88.26q13.6,0,27.2.017a5.777,5.777,0,0,1,2.13.4,2.1,2.1,0,0,1,1.259,2.259,2.333,2.333,0,0,1-1.908,2.013,6.191,6.191,0,0,1-1.128.1q-27.457.007-54.913,0a7.44,7.44,0,0,1-1.317-.108,2.357,2.357,0,0,1-1.891-2.031,2.243,2.243,0,0,1,1.452-2.347,5.338,5.338,0,0,1,1.719-.3q13.7-.027,27.393-.012" transform="translate(-9.232 -43.528)" fill="#b4997f"/>
        <path id="Path_610568" data-name="Path 610568" d="M101.568,107.019q14.552,0,29.1,0a2.579,2.579,0,0,1,2.2.876,2.023,2.023,0,0,1,.5,2.1,2.282,2.282,0,0,1-1.946,1.589,17.566,17.566,0,0,1-1.828.065q-27.463-.011-54.925-.03c-.924,0-1.855.048-2.772-.039a2.228,2.228,0,0,1-2.037-2.329,2.27,2.27,0,0,1,2.226-2.226c.21-.012.421,0,.631,0h28.852" transform="translate(-34.452 -52.779)" fill="#b4997f"/>
        <path id="Path_610569" data-name="Path 610569" d="M43.532,246.488q-11.139,0-22.278,0a2.3,2.3,0,0,1-2.421-2.9,2.137,2.137,0,0,1,1.8-1.646,6.892,6.892,0,0,1,1.317-.109q21.646-.011,43.293-.011c1.123,0,2.154.181,2.7,1.339a2.324,2.324,0,0,1-2.074,3.323q-11.171.006-22.341,0" transform="translate(-9.25 -119.265)" fill="#b4997f"/>
        <path id="Path_610570" data-name="Path 610570" d="M130.389,155.139c1.579-1.59,3.083-3.119,4.6-4.633q7.164-7.137,14.34-14.262a7.271,7.271,0,0,1,.951-.825,2.146,2.146,0,0,1,3.091.384,2.187,2.187,0,0,1-.078,3.035c-1.37,1.458-2.789,2.871-4.2,4.285q-8.142,8.127-16.3,16.237a10.347,10.347,0,0,1-1.571,1.258,1.49,1.49,0,0,1-1.723-.048,6.056,6.056,0,0,1-.942-.739q-3.368-3.334-6.713-6.693a2.209,2.209,0,0,1-.721-2.4,2.324,2.324,0,0,1,2.06-1.623,2.294,2.294,0,0,1,1.936.728q2.493,2.466,4.971,4.947c.089.088.164.191.3.354" transform="translate(-59.674 -66.547)" fill="#b4997f"/>
        <path id="Path_610571" data-name="Path 610571" d="M160.685,88.263c2.945,0,5.89-.006,8.834,0a2.88,2.88,0,0,1,2.23.854,2.014,2.014,0,0,1,.607,2.133,2.416,2.416,0,0,1-1.952,1.692,8.469,8.469,0,0,1-1.255.1q-8.362.01-16.722,0c-.336,0-.674-.008-1.009-.039a2.571,2.571,0,0,1-2.564-2.371,2.661,2.661,0,0,1,2.745-2.373c1.619-.035,3.238-.015,4.858-.016q2.114,0,4.228,0Z" transform="translate(-73.413 -43.521)" fill="#b4997f"/>
        <path id="Path_610572" data-name="Path 610572" d="M29.254,107.017q4.006,0,8.012,0a2.523,2.523,0,0,1,2.262,1.224,2.252,2.252,0,0,1-1.7,3.351c-1.008.023-2.017.024-3.025.026q-6.624.014-13.247.019a4.813,4.813,0,0,1-1.186-.121,2.212,2.212,0,0,1-1.631-2.4,2.349,2.349,0,0,1,2.315-2.091c2.081-.028,4.163-.01,6.245-.01h1.956" transform="translate(-9.236 -52.777)" fill="#b4997f"/>
      </g>
    </g>
  </g>
</svg>
