<svg xmlns="http://www.w3.org/2000/svg" xmlns:xlink="http://www.w3.org/1999/xlink" width="125" height="125" viewBox="0 0 125 125">
  <defs>
    <clipPath id="clip-path">
      <rect id="Rectangle_377987" data-name="Rectangle 377987" width="85" height="94.855" fill="#636363" stroke="#707070" stroke-width="0.5"/>
    </clipPath>
  </defs>
  <g id="Group_1073937" data-name="Group 1073937" transform="translate(-388.496 -1033.584)">
    <g id="Group_1072555" data-name="Group 1072555" transform="translate(2.496 -1112.416)">
      <path id="Path_608385" data-name="Path 608385" d="M62.5,0A62.5,62.5,0,1,1,0,62.5,62.5,62.5,0,0,1,62.5,0Z" transform="translate(386 2146)" fill="#fff"/>
    </g>
    <g id="Group_1072575" data-name="Group 1072575" transform="translate(410 1049.156)">
      <g id="Group_1072574" data-name="Group 1072574" clip-path="url(#clip-path)">
        <path id="Path_609894" data-name="Path 609894" d="M15.785,68.138h-.547c-2.212,0-4.423-.013-6.634,0a8.42,8.42,0,0,0-6.029,2.305,8.14,8.14,0,0,0,2.8,13.591,9.063,9.063,0,0,0,3.376.55c2.211-.019,4.422-.02,6.634-.028.057,0,.113.008.2.014-.175.664-.325,1.321-.523,1.964a6.308,6.308,0,0,0,2.6,7.3,6.049,6.049,0,0,0,3.412,1.012q13.032,0,26.064-.007A6.416,6.416,0,0,0,53.1,89.976c.458-2.17.929-4.338,1.451-6.493a2.733,2.733,0,0,1,3.194-1.972c3.322.654,6.677,1.077,10.042,1.425,1.212.125,2.432.233,3.649.24a7.72,7.72,0,0,0,7.513-6.506,13.307,13.307,0,0,0-.394-4.4q-.288-1.507-.561-3.017a.929.929,0,0,1,.322-.881c.2-.186.347-.418.538-.611a3.336,3.336,0,0,0,.846-3.006,1.951,1.951,0,0,0-.242-.63,1.435,1.435,0,0,1,.148-1.657,3.071,3.071,0,0,0,.48-3.539c-.172-.343-.3-.709-.471-1.051a2.023,2.023,0,0,1,.495-2.529,14.808,14.808,0,0,1,1.9-1.378,14.648,14.648,0,0,0,1.687-1.161,3.77,3.77,0,0,0,.161-5.564c-.989-1.051-2.066-2.023-3.021-3.1A20.166,20.166,0,0,1,76.093,35.3a14.851,14.851,0,0,1-.525-4.094,32.487,32.487,0,0,0,0-3.333c-.06-1.1-.185-2.207-.353-3.3A28.786,28.786,0,0,0,66.806,8.155a26.69,26.69,0,0,0-11.335-6.56A40.218,40.218,0,0,0,41,.112C39.35.225,37.7.493,36.06.747A52.437,52.437,0,0,0,22.78,4.469,33.442,33.442,0,0,0,7.47,17.7,32.935,32.935,0,0,0,2.9,38.133,37.548,37.548,0,0,0,7.83,53.33c1.156,2,2.461,3.91,3.778,5.807a29.328,29.328,0,0,1,4.014,8.269c.065.214.1.439.163.732m2.031-.015c-.16-.55-.308-1.068-.462-1.584a27.172,27.172,0,0,0-4.136-8.4,46.863,46.863,0,0,1-6.13-10.834A35.1,35.1,0,0,1,5.3,41.085a41.215,41.215,0,0,1-.475-4.449,29.616,29.616,0,0,1,.916-10.07A30.3,30.3,0,0,1,17.147,9.94,33.875,33.875,0,0,1,28.193,4.529c1.827-.528,3.685-.951,5.538-1.382a27.494,27.494,0,0,1,3.455-.661q3.23-.323,6.479-.452a34.771,34.771,0,0,1,9.8,1.039A26.373,26.373,0,0,1,64.238,8.46a26.861,26.861,0,0,1,7.726,11.186,22.433,22.433,0,0,1,1.551,8.382,33.718,33.718,0,0,0,.3,5.619,22.642,22.642,0,0,0,2.019,6.493,26.564,26.564,0,0,0,4.8,6.638c.562.588,1.189,1.115,1.75,1.7a2,2,0,0,1-.3,3.24c-.332.243-.731.393-1.075.622a16.119,16.119,0,0,0-2.093,1.48,4.094,4.094,0,0,0-.9,5.211,2,2,0,0,1-.159,2.592,2.24,2.24,0,0,0-.431,2.486,2.4,2.4,0,0,1-.6,3.09,2.973,2.973,0,0,0-.735,2.931q.49,2.249.829,4.53a5.586,5.586,0,0,1-.438,3.462A5.653,5.653,0,0,1,70.757,81.2c-1.615-.135-3.236-.227-4.845-.418-1.949-.231-3.888-.553-5.833-.821a10.488,10.488,0,0,0-4.307-.118,3.731,3.731,0,0,0-2.877,2.5c-.576,2.021-.962,4.094-1.452,6.14a8.9,8.9,0,0,1-.647,2.152,4.29,4.29,0,0,1-4.111,2.3c-5.557-.022-11.114-.012-16.671-.015-3,0-6-.024-9,0a4.347,4.347,0,0,1-4.3-3.925c-.12-1.479.53-2.8.843-4.2.023-.1.289-.209.442-.209,5.858-.01,11.717,0,17.575-.011a15.008,15.008,0,0,0,2.23-.12,8.153,8.153,0,0,0,.589-16.048,25.781,25.781,0,0,0-3.423-.263.717.717,0,0,1-.635-.318q-2.24-3.137-4.514-6.25c-.82-1.125-1.341-1.126-2.159-.005q-2.273,3.114-4.524,6.243a.675.675,0,0,1-.629.33c-1.45-.014-2.9-.006-4.351-.007-.127,0-.254-.01-.343-.014m10.9-4.767a.589.589,0,0,1,.085.072c1.44,1.988,2.9,3.965,4.308,5.973a1.474,1.474,0,0,0,1.29.69c.732.008,1.464.007,2.2.006a6.283,6.283,0,0,1,6.206,5.518,6.184,6.184,0,0,1-2.643,5.9,7.137,7.137,0,0,1-4.41,1.11q-13.782-.051-27.564,0A6.264,6.264,0,1,1,8.353,70.1c3.675-.009,7.35,0,11.026,0,1.235,0,2.469,0,3.7,0a1.344,1.344,0,0,0,1.206-.6c.529-.762,1.085-1.505,1.628-2.257l2.8-3.882" transform="translate(-0.001 0)" fill="#636363" stroke="#707070" stroke-width="0.5"/>
        <path id="Path_609895" data-name="Path 609895" d="M70.813,55.357q0,2.137,0,4.275c0,.911.311,1.239,1.227,1.254a11.737,11.737,0,0,1,11.305,9.06A11.818,11.818,0,0,1,63.753,81.09a1.776,1.776,0,0,0-.826-.47,1.143,1.143,0,0,0-.839.273c-2.147,2.078-4.269,4.182-6.395,6.282-.581.574-.581,1.027.054,1.644a22.65,22.65,0,0,0,6.111,4.24,22.377,22.377,0,0,0,11.006,2.26,22.908,22.908,0,0,0,14.919-6.395,22.311,22.311,0,0,0,6.277-10.473,21.036,21.036,0,0,0,.8-7.136,28.048,28.048,0,0,0-.708-4.2,21.819,21.819,0,0,0-5.229-9.775A22.93,22.93,0,0,0,79.737,51.2a26.527,26.527,0,0,0-4.909-1.226,18.229,18.229,0,0,0-2.965-.126c-.682,0-1.011.365-1.017,1.064-.014,1.482,0,2.964,0,4.446Zm2.049-3.508a20.8,20.8,0,1,1-8.924,40.043,19.1,19.1,0,0,1-6.205-3.874l5.056-5.139c5.526,4.043,11.26,4.635,16.956.735a12.5,12.5,0,0,0,5.6-13.321c-1.275-6.738-5.763-10.343-12.486-11.371Z" transform="translate(-28.96 -32.74)" fill="#636363" stroke="#707070" stroke-width="0.5"/>
        <path id="Path_609896" data-name="Path 609896" d="M154.029,44.691c0-1.454.007-2.907,0-4.36-.005-.869-.366-1.232-1.236-1.22A23.091,23.091,0,0,0,131.566,53.76a23.745,23.745,0,0,0-1.564,7.7c-.047,1.044.34,1.408,1.4,1.407q4.093,0,8.185,0c.187,0,.374.008.56-.008.719-.059,1-.371,1.041-1.1a11.887,11.887,0,0,1,4.065-8.657,11.312,11.312,0,0,1,7.2-2.879c1.323-.044,1.641-.269,1.6-1.642-.036-1.3-.008-2.593-.008-3.89h-.02M132.062,60.878a1.273,1.273,0,0,1-.029-.26,34.158,34.158,0,0,1,.535-3.58,20.57,20.57,0,0,1,11.457-13.987,17.565,17.565,0,0,1,7.562-1.9c.379,0,.486.094.481.474-.021,1.865-.012,3.731-.014,5.6,0,1.044,0,1.036-1.052,1.205a13.6,13.6,0,0,0-9.443,6.028,12.475,12.475,0,0,0-2.162,6.085c-.023.294-.15.335-.411.334-2.024-.008-4.047,0-6.071,0h-.854" transform="translate(-113.865 -25.69)" fill="#636363" stroke="#707070" stroke-width="0.5"/>
        <path id="Path_609897" data-name="Path 609897" d="M100.431,99.777c-.976,0-1.953-.009-2.93,0-.9.011-1.238.382-1.2,1.274a8.618,8.618,0,0,0,6.379,7.916,7.985,7.985,0,0,0,3.358.237,8.8,8.8,0,0,0,5.181-2.738,8.025,8.025,0,0,0,2.192-4.6,8.284,8.284,0,0,0-3.853-8.176,8.783,8.783,0,0,0-4.45-1.416,1.078,1.078,0,0,0-1.209,1.181c-.013,1.938-.022,3.876,0,5.814,0,.429-.135.525-.538.514-.976-.027-1.953-.009-2.929-.009m5.447-5.467a6.4,6.4,0,0,1,5.438,8.011c-.787,3.48-3.761,5.489-7.961,4.868-2.41-.356-5.246-3.534-4.921-5.439.565,0,1.137,0,1.709,0,1.535,0,3.072.02,4.607,0a.985.985,0,0,0,1.125-1.1c.007-.327,0-.655,0-.982V94.31" transform="translate(-61.657 -60.61)" fill="#636363" stroke="#707070" stroke-width="0.5"/>
        <path id="Path_609898" data-name="Path 609898" d="M156.341,114.769a22.6,22.6,0,0,0,6.393,15.039c.108.114.219.226.335.333a.956.956,0,0,0,1.416.006c.318-.288.616-.6.922-.9l5.2-5.108c.082-.08.163-.161.241-.244.6-.642.61-1.059.007-1.7a11.1,11.1,0,0,1-2.94-5.322c-.2-.942-.288-1.91-.4-2.868a.852.852,0,0,0-.76-.842,6.312,6.312,0,0,0-.9-.059c-2.685-.007-5.37.024-8.053-.026-1.257-.023-1.571.624-1.459,1.685m1.909.328h.806c2.081,0,4.163,0,6.244-.021.324,0,.44.12.459.407s.025.6.073.893a13.018,13.018,0,0,0,2.874,6.253c.254.309.219.481-.045.738q-2.284,2.236-4.54,4.5c-.244.244-.378.236-.608-.024a20.135,20.135,0,0,1-4.6-8.768c-.3-1.279-.44-2.6-.666-3.978" transform="translate(-140.185 -74.28)" fill="#636363" stroke="#707070" stroke-width="0.5"/>
        <path id="Path_609899" data-name="Path 609899" d="M136.136,88.513c0-1.139.02-2.278-.007-3.416-.019-.823-.433-1.179-1.255-1.165a8.582,8.582,0,0,0-8.191,7.149,11.841,11.841,0,0,0-.058,1.49.649.649,0,0,0,.5.669,3.572,3.572,0,0,0,.965.171q3.25.024,6.5.01c1.17,0,1.573-.4,1.588-1.575.014-1.111,0-2.222,0-3.332h-.047m-1.955-2.507v5.428h-5.526c.119-3,3.4-5.5,5.526-5.428" transform="translate(-94.83 -55.13)" fill="#636363" stroke="#707070" stroke-width="0.5"/>
        <path id="Path_609900" data-name="Path 609900" d="M157.191,215.57q5.75,0,11.5,0a3.394,3.394,0,0,0,.641-.049.891.891,0,0,0,.8-1.029,1,1,0,0,0-.867-.959,2.842,2.842,0,0,0-.43-.014q-11.564,0-23.127.009a1.733,1.733,0,0,0-.847.217.919.919,0,0,0-.493,1.039,1.159,1.159,0,0,0,1.107.788q5.858,0,11.715,0" transform="translate(-134.883 -140.248)" fill="#636363" stroke="#707070" stroke-width="0.5"/>
        <path id="Path_609901" data-name="Path 609901" d="M152.662,231.042q3.444,0,6.887,0a3.978,3.978,0,0,0,.642-.05.89.89,0,0,0,.768-.973.868.868,0,0,0-.79-.911,6.338,6.338,0,0,0-.857-.058q-6.587,0-13.172,0a8.345,8.345,0,0,0-.859.043,1.047,1.047,0,0,0-.947.986,1.035,1.035,0,0,0,.968.921c.342.031.688.039,1.031.039q3.164.005,6.328,0Z" transform="translate(-125.708 -150.45)" fill="#636363" stroke="#707070" stroke-width="0.5"/>
      </g>
    </g>
  </g>
</svg>
