<svg xmlns="http://www.w3.org/2000/svg" xmlns:xlink="http://www.w3.org/1999/xlink" width="295" height="230.1" viewBox="0 0 295 230.1">
  <defs>
    <clipPath id="clip-path">
      <rect id="Rectangle_378454" data-name="Rectangle 378454" width="295" height="230.1" transform="translate(859.286 6052.516)" fill="#fff" stroke="#707070" stroke-width="1"/>
    </clipPath>
    <clipPath id="clip-path-2">
      <path id="Path_609433" data-name="Path 609433" d="M1056.326,1026.86c2.763-16.064,25.836-6.249,36.254-4.19s15.113-2.069,15.113-2.069l-19.18-19.191c-4.305,3.188-9.158,1.584-18.96,1.2s-12.949-2.014-12.949-2.014Z" transform="translate(-1056.326 -1000.595)" fill="#abdbff"/>
    </clipPath>
    <clipPath id="clip-path-3">
      <path id="Path_609434" data-name="Path 609434" d="M1068.771,969.981c-9.8-.385-12.166,4-12.166,4l-.279,26.265c2.763-16.064,22.411-11.652,32.613-8.775,11.021,3.108,17.047.3,17.047.3L1086.9,969.634c-4.305,3.188-8.325.732-18.127.347" transform="translate(-1056.326 -969.634)" fill="#abdbff"/>
    </clipPath>
    <clipPath id="clip-path-4">
      <path id="Path_609435" data-name="Path 609435" d="M1068.771,958.392c-9.8-.385-12.253,3.995-12.253,3.995l-.192,26.265c2.763-16.064,21.111-12.943,31.529-10.883s15.106-2.322,15.106-2.322l-15.467-19.291c-4.305,3.188-8.921,2.622-18.723,2.237" transform="translate(-1056.326 -956.155)" fill="#fff2d5"/>
    </clipPath>
    <clipPath id="clip-path-5">
      <path id="Path_609436" data-name="Path 609436" d="M706.72,1015.229s4.626,4.083,15.073,2.159,32.145-10,36.557,3.536l.1-26.265s-1.089-.651-10.9-.393-18.275,2.669-22.535-.575Z" transform="translate(-706.72 -993.691)" fill="#abdbff"/>
    </clipPath>
    <clipPath id="clip-path-6">
      <path id="Path_609437" data-name="Path 609437" d="M732.934,972.107s2.753,4.9,16.4,2.795c10.5-1.618,28.838-4.807,31.37,11.291l.1-26.266s-2.3-4.411-12.107-4.153-14.43.764-18.69-2.48Z" transform="translate(-732.934 -953.295)" fill="#fff2d5"/>
    </clipPath>
    <clipPath id="clip-path-7">
      <rect id="Rectangle_377779" data-name="Rectangle 377779" width="353.859" height="183.421" fill="none"/>
    </clipPath>
    <clipPath id="clip-path-8">
      <path id="Path_609449" data-name="Path 609449" d="M791.214,980.095,779.765,994.6c30.074-3.112,37.4,2.62,37.4,2.62l1.236-14.929a32.768,32.768,0,0,0-5.847-2.059,40.518,40.518,0,0,0-8.193-.535c-6.136,0-13.143.4-13.143.4" transform="translate(-779.765 -979.698)" fill="none"/>
    </clipPath>
    <clipPath id="clip-path-9">
      <path id="Path_609454" data-name="Path 609454" d="M1084.922,979.66c-3.309.553-10.016,3.3-10.016,3.3l1.1,14.087s7.926-5.268,14.83-4.1,16.815,1.876,18.546,1.458l1.579-.061-9.812-14.576s-6.406-.327-11.351-.327a36.179,36.179,0,0,0-4.876.221" transform="translate(-1074.907 -979.439)" fill="none"/>
    </clipPath>
    <clipPath id="clip-path-10">
      <rect id="Rectangle_378453" data-name="Rectangle 378453" width="189.545" height="179.503" fill="none"/>
    </clipPath>
    <clipPath id="clip-path-12">
      <rect id="Rectangle_378438" data-name="Rectangle 378438" width="159.795" height="6.285" fill="none"/>
    </clipPath>
    <clipPath id="clip-path-13">
      <rect id="Rectangle_378439" data-name="Rectangle 378439" width="9.025" height="9.248" fill="none"/>
    </clipPath>
    <clipPath id="clip-path-14">
      <rect id="Rectangle_378440" data-name="Rectangle 378440" width="50.983" height="13.524" fill="none"/>
    </clipPath>
    <clipPath id="clip-path-15">
      <rect id="Rectangle_378442" data-name="Rectangle 378442" width="37.444" height="1.156" fill="none"/>
    </clipPath>
    <clipPath id="clip-path-17">
      <rect id="Rectangle_378450" data-name="Rectangle 378450" width="20.276" height="14.796" fill="#e6d09d"/>
    </clipPath>
    <clipPath id="clip-path-18">
      <rect id="Rectangle_378451" data-name="Rectangle 378451" width="23.765" height="24.351" fill="#9ac1df"/>
    </clipPath>
  </defs>
  <g id="Mask_Group_154401" data-name="Mask Group 154401" transform="translate(-859.286 -6052.516)" clip-path="url(#clip-path)">
    <g id="Group_1073903" data-name="Group 1073903" transform="translate(824.608 6051.9)">
      <rect id="Rectangle_377812" data-name="Rectangle 377812" width="292.724" height="81.045" rx="40.522" transform="translate(34.09 149.715)" fill="#d2c1b0"/>
      <path id="Intersection_2" data-name="Intersection 2" d="M.6,80.982c-1.988-8.225.771-17.4,11.418-25.625,20.595-15.914,35.4-20.335,37.9-45.976A19.479,19.479,0,0,1,53.189,0H83.551a40.491,40.491,0,1,1,0,80.982Z" transform="translate(202.738 149.646)" fill="#c5ab92"/>
      <g id="Group_1072315" data-name="Group 1072315" transform="translate(0 0)">
        <g id="Group_1072292" data-name="Group 1072292" transform="translate(34.09 0)">
          <g id="Group_1073463" data-name="Group 1073463">
            <path id="Path_609382" data-name="Path 609382" d="M596.814,102.117a17.233,17.233,0,0,1,1.221-12.829c3.434-6.914-2.34-10.468-5.576-8.35s-5.315,9.941,4.355,21.179" transform="translate(-536.913 -21.725)" fill="#e1d6cb"/>
            <path id="Path_609383" data-name="Path 609383" d="M674.936,149.188a15.08,15.08,0,0,1,7.822-7.493c5.969-2.657,4.277-7.774,1.069-8.046s-8.82,3.633-8.891,15.539" transform="translate(-609.534 -64.138)" fill="#e1d6cb"/>
            <path id="Path_609384" data-name="Path 609384" d="M537.8,253.555a19.643,19.643,0,0,0-12.748,4.34c-6.174,4.9-11.239.469-9.894-3.042s8.784-7.387,22.643-1.3" transform="translate(-473.126 -167.914)" fill="#e1d6cb"/>
            <path id="Path_609385" data-name="Path 609385" d="M592.194,330.828a19.643,19.643,0,0,0-12.748,4.34c-6.174,4.9-11.239.469-9.894-3.042s8.784-7.387,22.643-1.3" transform="translate(-519.499 -234.351)" fill="#e1d6cb"/>
            <path id="Path_609386" data-name="Path 609386" d="M623,412.676a19.643,19.643,0,0,0-12.748,4.34c-6.174,4.9-11.239.469-9.894-3.042s8.784-7.387,22.643-1.3" transform="translate(-545.765 -304.721)" fill="#e1d6cb"/>
            <path id="Path_609387" data-name="Path 609387" d="M656.756,515.616a19.643,19.643,0,0,0-12.748,4.34c-6.174,4.9-11.239.469-9.894-3.042s8.784-7.387,22.643-1.3" transform="translate(-574.544 -393.225)" fill="#e1d6cb"/>
            <path id="Path_609388" data-name="Path 609388" d="M723.814,233.5a18.393,18.393,0,0,1,9.541-9.14c7.281-3.241,5.217-9.482,1.3-9.814S723.9,218.982,723.814,233.5" transform="translate(-651.208 -137.11)" fill="#e1d6cb"/>
            <path id="Path_609389" data-name="Path 609389" d="M762.054,323.648a18.394,18.394,0,0,1,9.541-9.14c7.28-3.241,5.216-9.482,1.3-9.814s-10.758,4.432-10.845,18.954" transform="translate(-683.81 -214.612)" fill="#e1d6cb"/>
            <path id="Path_609390" data-name="Path 609390" d="M792.209,417.165a18.394,18.394,0,0,1,9.541-9.14c7.281-3.241,5.217-9.482,1.3-9.814s-10.758,4.432-10.845,18.954" transform="translate(-709.521 -295.015)" fill="#e1d6cb"/>
            <path id="Path_609391" data-name="Path 609391" d="M624.8,212.841q.812.883,1.591,1.786,2.335,2.689,4.417,5.519l.153.208a98.906,98.906,0,0,1,6.462,10.055q.226.4.446.8a115.126,115.126,0,0,1,5.389,11.2c.035.084.07.167.1.251h0A136.177,136.177,0,0,1,648.34,256.9c.021.069.042.139.059.207a162.527,162.527,0,0,1,4.57,21.216,189.854,189.854,0,0,1,1.916,21.564l1.364.012a190.836,190.836,0,0,0-1.924-21.726,163.559,163.559,0,0,0-4.737-21.846c-.073-.252-.148-.5-.225-.759-1.2-4.027-2.609-8.137-4.271-12.251-.061-.151-.123-.3-.186-.457a117.416,117.416,0,0,0-5.606-11.843c-.014-.026-.028-.052-.044-.077,0,0,0,0,0,0a100.784,100.784,0,0,0-7.15-11.29c-.018-.026-.037-.05-.055-.074a89.731,89.731,0,0,0-6.119-7.472l-.1-.111a.707.707,0,0,0-.962-.062.626.626,0,0,0-.067.915" transform="translate(-566.648 -134.729)" fill="#e1d6cb"/>
            <path id="Path_609392" data-name="Path 609392" d="M1958.331,517.768a13.662,13.662,0,0,1,3.284,3.083l.093-.144c.8-1.229,1.738-2.6,2.809-4.042a13.933,13.933,0,0,1-3.679-2.81,12.942,12.942,0,0,1-2.536-4.21,13.777,13.777,0,0,1,4.025,2.981,13.187,13.187,0,0,1,2.377,3.787c.894-1.2,1.878-2.441,2.951-3.7a13.41,13.41,0,0,1-2.778-3.59,12.614,12.614,0,0,1-1.321-4.687,13.263,13.263,0,0,1,3.09,3.861,12.8,12.8,0,0,1,1.264,4.115c1.079-1.257,2.245-2.528,3.5-3.783a13.126,13.126,0,0,1-2.173-3.954,12.518,12.518,0,0,1-.554-4.824,12.993,12.993,0,0,1,2.435,4.264,12.711,12.711,0,0,1,.591,4.216c.849-.841,1.736-1.673,2.662-2.488a12.007,12.007,0,0,1,.967-9.1,12.533,12.533,0,0,1,.559,4.823,12.688,12.688,0,0,1-.99,3.808q.984-.845,2.023-1.657a13.416,13.416,0,0,1,2.7-2.974,14.06,14.06,0,0,1,4.462-2.352,13.224,13.224,0,0,1-3.192,3.785,14.06,14.06,0,0,1-3.51,2.016q-1.075.837-2.091,1.714a14.675,14.675,0,0,1,4.44.352,14.07,14.07,0,0,1,4.6,2.1,14.489,14.489,0,0,1-5.092-.284,14.329,14.329,0,0,1-4.28-1.879c-.932.815-1.825,1.649-2.68,2.493a14.452,14.452,0,0,1,4.328,1.594,13.525,13.525,0,0,1,3.766,3.273,14.286,14.286,0,0,1-4.789-1.671,13.769,13.769,0,0,1-3.528-2.976c-1.29,1.285-2.49,2.589-3.6,3.877a14.554,14.554,0,0,1,4.435,1.221,13.7,13.7,0,0,1,4.054,2.944,14.377,14.377,0,0,1-4.925-1.262,13.956,13.956,0,0,1-3.776-2.654c-1.086,1.275-2.081,2.532-2.983,3.738a14.584,14.584,0,0,1,4.453,1.066,13.773,13.773,0,0,1,4.164,2.8,14.409,14.409,0,0,1-4.969-1.093,14.033,14.033,0,0,1-3.852-2.5c-1.057,1.426-1.983,2.775-2.772,3.989l-.118.181a14.41,14.41,0,0,1,4.648,1.65,13.523,13.523,0,0,1,3.766,3.273,14.281,14.281,0,0,1-4.789-1.671,13.7,13.7,0,0,1-3.682-3.165,68.846,68.846,0,0,0-4.875,8.786l-.626-.246a69.077,69.077,0,0,1,4.815-8.709,14.372,14.372,0,0,1-4.218-1.824,13.411,13.411,0,0,1-3.562-3.473,14.206,14.206,0,0,1,4.68,1.929" transform="translate(-1721.557 -362.84)" fill="#d2c1b0"/>
            <path id="Path_609393" data-name="Path 609393" d="M1639.555,261.644a24.389,24.389,0,0,1,7.189,2.967c.018-.094.036-.187.055-.282.473-2.414,1.077-5.128,1.842-8.043a24.669,24.669,0,0,1-7.638-2.3,23.18,23.18,0,0,1-6.733-5.187,24.375,24.375,0,0,1,8.3,2.373,23.6,23.6,0,0,1,6.208,4.612c.645-2.415,1.4-4.962,2.286-7.59a24.007,24.007,0,0,1-6.715-4.064,22.316,22.316,0,0,1-5.114-6.653,23.75,23.75,0,0,1,7.383,4.312,22.735,22.735,0,0,1,4.657,5.779c.9-2.62,1.925-5.314,3.1-8.033a23.5,23.5,0,0,1-5.991-4.995,21.868,21.868,0,0,1-3.988-7.317,23.26,23.26,0,0,1,6.605,5.333,22.274,22.274,0,0,1,3.656,6.332c.8-1.828,1.672-3.665,2.613-5.495a22.236,22.236,0,0,1-3.55-6.763,21.251,21.251,0,0,1-.785-8.208,22.009,22.009,0,0,1,4,7.313,21.415,21.415,0,0,1,.887,6.61q1.014-1.912,2.136-3.8a21.73,21.73,0,0,1,2.357-6.286,22.688,22.688,0,0,1,5.55-6.328,21.492,21.492,0,0,1-2.615,7.858,22.635,22.635,0,0,1-4.259,5.241q-1.163,1.954-2.206,3.936a23.443,23.443,0,0,1,15.9-1.4,24.243,24.243,0,0,1-8.248,2.522,24.956,24.956,0,0,1-7.991-.478c-.951,1.835-1.827,3.678-2.638,5.513a24.968,24.968,0,0,1,7.883,0,24.108,24.108,0,0,1,8.075,2.986,23.414,23.414,0,0,1-16.169-2.506c-1.215,2.788-2.274,5.554-3.2,8.24a24.941,24.941,0,0,1,7.812-.655,24.3,24.3,0,0,1,8.32,2.3,23.482,23.482,0,0,1-16.307-1.124c-.9,2.653-1.663,5.225-2.314,7.661a24.913,24.913,0,0,1,7.741-.911,24.372,24.372,0,0,1,8.4,2.009,24.523,24.523,0,0,1-8.576,1.17,24.772,24.772,0,0,1-7.714-1.714c-.754,2.875-1.35,5.553-1.818,7.936-.024.119-.046.238-.069.356a24.862,24.862,0,0,1,8.426-.1,24.1,24.1,0,0,1,8.075,2.986,23.415,23.415,0,0,1-16.534-2.715,113.381,113.381,0,0,0-2.055,16.762l-1.15-.024a113.81,113.81,0,0,1,2.01-16.6,24.958,24.958,0,0,1-7.857-.428,23.959,23.959,0,0,1-7.882-3.421,24.614,24.614,0,0,1,8.657.324" transform="translate(-1433.698 -110.904)" fill="#d2c1b0"/>
            <path id="Path_609394" data-name="Path 609394" d="M2142.6,846.13a15.24,15.24,0,0,1,14.739,10.571h-29.478A15.24,15.24,0,0,1,2142.6,846.13" transform="translate(-1876.934 -676.291)" fill="#dfd3c8"/>
            <path id="Path_609395" data-name="Path 609395" d="M1420.571,797.506c10.316,0,19.015,6.582,21.712,15.572h-43.425c2.7-8.99,11.4-15.572,21.712-15.572" transform="translate(-1226.745 -632.668)" fill="#dfd3c8"/>
            <path id="Path_609396" data-name="Path 609396" d="M1690.137,781.9c-3.329-10.96-16.523-19.146-32.293-19.146s-28.964,8.186-32.293,19.146Z" transform="translate(-1428.928 -601.494)" fill="#dfd3c8"/>
            <path id="Path_609397" data-name="Path 609397" d="M448.956,329.517a4.129,4.129,0,0,1,3.993,2.864h-7.986a4.129,4.129,0,0,1,3.993-2.864" transform="translate(-413.462 -235.968)" fill="#ddd0c4"/>
            <path id="Path_609398" data-name="Path 609398" d="M306,319.856a6.082,6.082,0,0,1,5.882,4.219H300.115A6.082,6.082,0,0,1,306,319.856" transform="translate(-289.966 -227.661)" fill="#ddd0c4"/>
            <path id="Path_609399" data-name="Path 609399" d="M362.654,318.139c-.9-2.969-4.476-5.187-8.749-5.187s-7.847,2.218-8.749,5.187Z" transform="translate(-328.368 -221.726)" fill="#ddd0c4"/>
            <path id="Path_609400" data-name="Path 609400" d="M502.45,515.612a9.211,9.211,0,0,1-4.667,3.339,8.368,8.368,0,0,1,.966-5.479,9.212,9.212,0,0,1,4.667-3.339,8.368,8.368,0,0,1-.966,5.479" transform="translate(-439.318 -379.16)" fill="#c19284"/>
            <path id="Path_609401" data-name="Path 609401" d="M539.242,633.6a9.4,9.4,0,0,1-5.184,2.557,8.453,8.453,0,0,1,1.908-5.25,9.4,9.4,0,0,1,5.184-2.557,8.453,8.453,0,0,1-1.908,5.25" transform="translate(-471.7 -485.004)" fill="#c19284"/>
            <path id="Path_609402" data-name="Path 609402" d="M404.69,447a8.4,8.4,0,0,1,1.384,5.4,9.3,9.3,0,0,1-4.911-3.006,8.4,8.4,0,0,1-1.384-5.4A9.3,9.3,0,0,1,404.69,447" transform="translate(-352.168 -319.945)" fill="#c19284"/>
            <path id="Path_609403" data-name="Path 609403" d="M407.895,568.067a9.253,9.253,0,0,1,5.02,2.838,9.555,9.555,0,0,1-5.694,1.232,9.253,9.253,0,0,1-5.02-2.837,9.554,9.554,0,0,1,5.694-1.232" transform="translate(-354.35 -430.962)" fill="#c19284"/>
            <path id="Path_609404" data-name="Path 609404" d="M442.234,674.548a9.253,9.253,0,0,1,5.021,2.837,9.553,9.553,0,0,1-5.694,1.232,9.254,9.254,0,0,1-5.02-2.837,9.552,9.552,0,0,1,5.694-1.232" transform="translate(-384.911 -526.298)" fill="#c19284"/>
            <path id="Path_609405" data-name="Path 609405" d="M455.179,549.357l-.607-.06a74.866,74.866,0,0,0-.355-15.449,64.161,64.161,0,0,0-3.294-14.086,42.956,42.956,0,0,0-7.886-13.685l.469-.372a43.519,43.519,0,0,1,8,13.873,64.721,64.721,0,0,1,3.323,14.215,75.464,75.464,0,0,1,.354,15.563" transform="translate(-390.694 -375.196)" fill="#c19284"/>
            <path id="Path_609406" data-name="Path 609406" d="M255.386,496.828a9.524,9.524,0,0,1-3.505,5.019,9.113,9.113,0,0,1-1.092-5.936,9.523,9.523,0,0,1,3.505-5.019,9.114,9.114,0,0,1,1.092,5.936" transform="translate(-219.463 -361.933)" fill="#c19284"/>
            <path id="Path_609407" data-name="Path 609407" d="M337.17,600.256a9.753,9.753,0,0,1-4.331,4.4,9.056,9.056,0,0,1-.043-6.026,9.752,9.752,0,0,1,4.331-4.4,9.055,9.055,0,0,1,.043,6.026" transform="translate(-292.122 -454.454)" fill="#c19284"/>
            <path id="Path_609408" data-name="Path 609408" d="M112.874,478.461a9.419,9.419,0,0,1,3.465,5.044,10.4,10.4,0,0,1-6.164-1.387,9.419,9.419,0,0,1-3.465-5.044,10.4,10.4,0,0,1,6.164,1.387" transform="translate(-91.371 -349.529)" fill="#c19284"/>
            <path id="Path_609409" data-name="Path 609409" d="M163.6,584.488a10.381,10.381,0,0,1,6.212,1.176,10,10,0,0,1-5.356,3.218,10.382,10.382,0,0,1-6.212-1.176,10,10,0,0,1,5.356-3.218" transform="translate(-137.238 -445.631)" fill="#c19284"/>
            <path id="Path_609410" data-name="Path 609410" d="M237.194,680.991a10.38,10.38,0,0,1,6.212,1.176,10,10,0,0,1-5.356,3.218,10.381,10.381,0,0,1-6.212-1.176,10,10,0,0,1,5.356-3.218" transform="translate(-202.732 -532.032)" fill="#c19284"/>
            <path id="Path_609411" data-name="Path 609411" d="M203.137,564.055l-.643.148a82.7,82.7,0,0,0-6.229-15.68,72.15,72.15,0,0,0-8.718-13.275,48.905,48.905,0,0,0-13.262-11.286l.338-.541a49.551,49.551,0,0,1,13.447,11.441,72.791,72.791,0,0,1,8.8,13.4,83.342,83.342,0,0,1,6.272,15.8" transform="translate(-151.51 -391.056)" fill="#c19284"/>
            <path id="Path_609412" data-name="Path 609412" d="M12.586,868.715A13.014,13.014,0,0,0,0,877.742H25.172a13.014,13.014,0,0,0-12.586-9.027" transform="translate(3.598 -700.208)" fill="#dfd3c8"/>
            <path id="Path_609413" data-name="Path 609413" d="M521.988,827.916a19.171,19.171,0,0,0-18.54,13.3h37.08a19.171,19.171,0,0,0-18.54-13.3" transform="translate(-444.457 -663.68)" fill="#dfd3c8"/>
            <path id="Path_609414" data-name="Path 609414" d="M149,815.11c2.843-9.359,14.109-16.349,27.575-16.349s24.733,6.99,27.575,16.349Z" transform="translate(-129.008 -637.576)" fill="#dfd3c8"/>
            <path id="Path_609415" data-name="Path 609415" d="M1938.543,1243.473a5.087,5.087,0,0,1,4.919,3.529h-9.84a5.088,5.088,0,0,1,4.92-3.529" transform="translate(-1682.68 -1021.754)" fill="#2d334a"/>
            <path id="Path_609416" data-name="Path 609416" d="M1762.4,1231.569a7.493,7.493,0,0,1,7.247,5.2h-14.494a7.494,7.494,0,0,1,7.247-5.2" transform="translate(-1530.519 -1011.52)" fill="#2d334a"/>
            <path id="Path_609417" data-name="Path 609417" d="M1832.209,1229.453c-1.111-3.658-5.515-6.39-10.779-6.39s-9.667,2.732-10.779,6.39Z" transform="translate(-1577.835 -1004.206)" fill="#2d334a"/>
            <path id="Path_609418" data-name="Path 609418" d="M1925.317,1119.815a1.034,1.034,0,0,0-1.3.583.923.923,0,0,0,.006.669,28.423,28.423,0,0,0-2.454,2.439,14.383,14.383,0,0,0,.27-3.586.989.989,0,0,0,.572-.567.957.957,0,0,0-.613-1.24,1.034,1.034,0,0,0-1.3.583.957.957,0,0,0,.613,1.24,1.107,1.107,0,0,0,.185.045,15.225,15.225,0,0,1-.487,4.41,39.9,39.9,0,0,0-3.766,5.412,39.025,39.025,0,0,0-2.462,4.947l.516.18a38.272,38.272,0,0,1,2.427-4.874c.481-.826,1.066-1.766,1.752-2.755a11.376,11.376,0,0,1,3.8-.036.973.973,0,0,0,.672.9,1.033,1.033,0,0,0,1.3-.583.957.957,0,0,0-.613-1.24,1.045,1.045,0,0,0-1.219.414,12.478,12.478,0,0,0-3.516-.058,31.549,31.549,0,0,1,4.653-5.208,1.046,1.046,0,0,0,1.584-.436.957.957,0,0,0-.613-1.24" transform="translate(-1666.439 -913.924)" fill="#2d334a"/>
            <path id="Path_609419" data-name="Path 609419" d="M1891.182,1120.942a11.131,11.131,0,0,1,3.541-1.307,1.017,1.017,0,0,0,.963.618.97.97,0,1,0-.029-1.937,1,1,0,0,0-.987.8,12.255,12.255,0,0,0-3.312,1.124,30.1,30.1,0,0,1,2.426-6.434,1.065,1.065,0,0,0,.316.044.97.97,0,1,0-1.033-.955.938.938,0,0,0,.253.624,27.188,27.188,0,0,0-1.394,3.1,14.546,14.546,0,0,0-1.076-3.447.942.942,0,0,0,.326-.723,1.02,1.02,0,1,0-1,.982,1.073,1.073,0,0,0,.189-.02,15.334,15.334,0,0,1,1.177,4.29,38.4,38.4,0,0,0-1.521,6.327,37.956,37.956,0,0,0-.473,5.455l.549,0a37.319,37.319,0,0,1,.467-5.375c.144-.934.345-2.01.62-3.164" transform="translate(-1644.754 -908.284)" fill="#2d334a"/>
            <path id="Path_609420" data-name="Path 609420" d="M564.4,943.49a8.66,8.66,0,0,1,8.375,6.007h-16.75a8.66,8.66,0,0,1,8.375-6.007" transform="translate(-491.249 -767.156)" fill="#bca28a"/>
            <path id="Path_609421" data-name="Path 609421" d="M161.323,916.341a12.757,12.757,0,0,1,12.337,8.848H148.986a12.757,12.757,0,0,1,12.337-8.848" transform="translate(-128.995 -742.849)" fill="#bca28a"/>
            <path id="Path_609422" data-name="Path 609422" d="M312.259,907.819c-1.892-6.228-9.389-10.879-18.35-10.879s-16.458,4.652-18.35,10.879Z" transform="translate(-241.642 -725.478)" fill="#bca28a"/>
            <rect id="Rectangle_377773" data-name="Rectangle 377773" width="292.724" height="230.76" fill="none"/>
          </g>
        </g>
        <g id="Group_1072294" data-name="Group 1072294" transform="translate(155.711 187.659)">
          <g id="Group_1072293" data-name="Group 1072293" clip-path="url(#clip-path-2)">
            <path id="Path_609601" data-name="Path 609601" d="M0,0,57.7,1.17,58.669,47.7l-57.7-1.17Z" transform="translate(-11.387 5.709) rotate(-27.79)" fill="#abdbff"/>
          </g>
        </g>
        <g id="Group_1072296" data-name="Group 1072296" transform="translate(155.711 183.317)">
          <g id="Group_1072295" data-name="Group 1072295" clip-path="url(#clip-path-3)">
            <path id="Path_609602" data-name="Path 609602" d="M0,0,56.49.744l.588,42.85L.588,42.85Z" transform="translate(-8.681 2.378) rotate(-16.307)" fill="#abdbff"/>
          </g>
        </g>
        <g id="Group_1072298" data-name="Group 1072298" transform="translate(155.711 181.427)">
          <g id="Group_1072297" data-name="Group 1072297" clip-path="url(#clip-path-4)">
            <path id="Path_609605" data-name="Path 609605" d="M0,0,51.615.414l.332,39.507L.332,39.507Z" transform="translate(-5.625 0.907) rotate(-9.615)" fill="#fff2d5"/>
          </g>
        </g>
        <g id="Group_1072300" data-name="Group 1072300" transform="translate(104.176 186.691)">
          <g id="Group_1072299" data-name="Group 1072299" clip-path="url(#clip-path-5)">
            <path id="Path_609603" data-name="Path 609603" d="M0,0,58.317,1.006l.791,44.245L.791,44.245Z" transform="translate(-10.079 3.948) rotate(-22.38)" fill="#abdbff"/>
          </g>
        </g>
        <g id="Group_1072302" data-name="Group 1072302" transform="translate(108.041 181.026)">
          <g id="Group_1072301" data-name="Group 1072301" clip-path="url(#clip-path-6)">
            <path id="Path_609604" data-name="Path 609604" d="M0,0,51.574,1.111l1.217,57.976L1.217,57.976Z" transform="translate(-14.742 25.044) rotate(-60.751)" fill="#fff2d5"/>
          </g>
        </g>
        <g id="Group_1072303" data-name="Group 1072303" transform="translate(0 47.339)" clip-path="url(#clip-path-7)">
          <path id="Path_609438" data-name="Path 609438" d="M1016.591,1175.295a5.214,5.214,0,0,0,5.488,5.753c6.019.179,6.946-4.671,6.946-4.671l-4.308-1.612-4.574-.774Z" transform="translate(-866.726 -1009.355)" fill="#7c808f"/>
          <path id="Path_609439" data-name="Path 609439" d="M728.87,1126.547a14.859,14.859,0,0,1,5.806-2.348s-3.172-6.985-7.956-8.7-15.5,1.1-35.012,5.18c-3.952.827-8.487-1.467-8.487-1.467l-4.17,10.288Z" transform="translate(-578.953 -958.622)" fill="#e5d0a0"/>
          <path id="Path_609440" data-name="Path 609440" d="M1062.225,1126.1a14.865,14.865,0,0,0-5.822-2.314s3.128-7,7.9-8.748,15.506,1.006,35.045,4.977c3.957.8,8.478-1.516,8.478-1.516l4.236,10.263Z" transform="translate(-900.68 -958.208)" fill="#e5d0a0"/>
          <path id="Path_609441" data-name="Path 609441" d="M722.156,1194.153c-3.439,0-6.262-1.494-7.14-3.595l-49.448,3.334a1.36,1.36,0,0,1-1.475-1.218,1.337,1.337,0,0,1,1.28-1.4l50.643-3.415a1.427,1.427,0,0,1,1.038.348,1.287,1.287,0,0,1,.441.959c0,1.118,2,2.362,4.663,2.362h.025a7.017,7.017,0,0,0,3.539-.883,1.985,1.985,0,0,0,1.134-1.506,1.286,1.286,0,0,1,.441-.967,1.428,1.428,0,0,1,1.045-.347l50.1,3.638a1.337,1.337,0,0,1,1.272,1.41,1.357,1.357,0,0,1-1.482,1.21l-48.9-3.551a5.115,5.115,0,0,1-2.116,2.321,9.794,9.794,0,0,1-5.026,1.3h-.034" transform="translate(-566.197 -1021.243)" fill="#464b60"/>
          <path id="Path_609442" data-name="Path 609442" d="M1052.9,1099.763l-1.466-.3c1.486-6.624,5.181-10.5,11.3-11.848,5.315-1.171,11.892-.319,18.252.506q1.252.162,2.5.32c11.43,1.427,14.423-2.021,14.45-2.055l1.021,1.022a6.753,6.753,0,0,1-3.275,1.906c-3.053,1-7.222,1.186-12.391.541-.835-.1-1.672-.213-2.509-.321-6.226-.807-12.665-1.642-17.711-.53-5.568,1.227-8.8,4.645-10.17,10.756" transform="translate(-896.44 -934.038)" fill="#fff"/>
          <path id="Path_609443" data-name="Path 609443" d="M1053.6,1115.324l-1.435-.414c1.828-5.736,6.05-9.077,12.549-9.93,5.451-.715,11.762.348,17.77,1.6,9.508,1.987,16.991,3.318,19.633.938l1.031,1.036c-3.184,2.867-10.707,1.568-20.986-.581-11.894-2.486-24.89-4.174-28.562,7.347" transform="translate(-897.067 -949.824)" fill="#fff"/>
          <path id="Path_609444" data-name="Path 609444" d="M779.361,1097.345c-1.4-6.066-4.624-9.453-10.142-10.657-5-1.092-11.39-.248-17.566.57-.916.121-1.833.243-2.748.358-14.028,1.775-16.487-3.251-16.584-3.466l.688-.284.682-.295a5.017,5.017,0,0,0,2.6,1.893c3.555,1.457,8.712,1.205,12.412.737q1.368-.173,2.739-.357c6.31-.835,12.834-1.7,18.108-.547,6.065,1.324,9.752,5.165,11.271,11.741Z" transform="translate(-624.371 -931.616)" fill="#fff"/>
        </g>
        <g id="Group_1072306" data-name="Group 1072306" transform="translate(114.944 184.728)">
          <g id="Group_1072305" data-name="Group 1072305" clip-path="url(#clip-path-8)">
            <path id="Path_609445" data-name="Path 609445" d="M786.831,1066.162c-.735-4.172-2.612-7.294-5.577-9.277-6.641-4.442-17.622-2.554-24.888-1.3l-.667.114c-13.744,2.354-16.174-2.773-16.271-2.993l.7-.283a5.163,5.163,0,0,0,2.72,2.111c2.016.854,5.858,1.626,12.715.451l.666-.115c7.391-1.271,18.561-3.193,25.462,1.424,3.138,2.1,5.12,5.38,5.89,9.75Z" transform="translate(-745.375 -1042.222)" fill="#999"/>
            <path id="Path_609446" data-name="Path 609446" d="M793.065,1037.041c-.581-4.194-2.34-7.376-5.231-9.458-6.472-4.662-17.516-3.142-24.824-2.136l-.671.092c-13.822,1.893-16.061-3.313-16.15-3.536l.713-.257-.356.128.355-.131a5.135,5.135,0,0,0,2.64,2.2c1.983.921,5.794,1.82,12.69.876l.67-.092c7.433-1.023,18.667-2.569,25.393,2.276,3.058,2.2,4.917,5.548,5.526,9.941Z" transform="translate(-751.139 -1015.848)" fill="#999"/>
            <path id="Path_609447" data-name="Path 609447" d="M800.591,1008.939c-.45-4.209-2.111-7.439-4.935-9.6-6.324-4.842-17.41-3.632-24.747-2.832l-.673.073c-13.876,1.5-15.952-3.763-16.033-3.988l.72-.239a5.111,5.111,0,0,0,2.57,2.275c1.953.976,5.735,1.982,12.658,1.232l.673-.073c7.462-.814,18.739-2.044,25.311,2.988,2.989,2.288,4.744,5.683,5.215,10.092Z" transform="translate(-757.971 -990.578)" fill="#999"/>
            <path id="Path_609448" data-name="Path 609448" d="M809.4,980.963c-.31-4.22-1.863-7.5-4.614-9.744-6.161-5.029-17.282-4.154-24.641-3.574l-.675.053c-13.918,1.086-15.819-4.24-15.893-4.468l.727-.217a5.094,5.094,0,0,0,2.494,2.351c1.92,1.034,5.665,2.153,12.61,1.611l.675-.053c7.486-.589,18.8-1.48,25.2,3.746,2.911,2.377,4.552,5.823,4.878,10.244Z" transform="translate(-765.96 -965.353)" fill="#999"/>
          </g>
        </g>
        <g id="Group_1072307" data-name="Group 1072307" transform="translate(158.451 184.692)" clip-path="url(#clip-path-9)">
          <path id="Path_609450" data-name="Path 609450" d="M1055.415,1060.232l-.757-.088c.566-4.4,2.392-7.76,5.429-9.99,6.678-4.9,17.927-3.457,25.37-2.5l.671.086c6.9.884,10.707-.049,12.681-.987a5.126,5.126,0,0,0,2.618-2.225l.714.253c-.086.223-2.274,5.449-16.115,3.678l-.671-.086c-7.318-.941-18.376-2.365-24.8,2.354-2.87,2.107-4.6,5.3-5.138,9.5" transform="translate(-1057.643 -1035.402)" fill="#999"/>
          <path id="Path_609451" data-name="Path 609451" d="M1051.347,1031.435l-.759-.063c.4-4.415,2.1-7.835,5.056-10.165,6.493-5.124,17.788-4.054,25.262-3.346l.674.064c13.3,1.25,15.153-3.67,15.17-3.72l.724.226c-.078.226-2.072,5.521-15.969,4.215l-.674-.064c-7.348-.7-18.452-1.748-24.7,3.183-2.79,2.2-4.4,5.455-4.784,9.67" transform="translate(-1054.173 -1009.33)" fill="#999"/>
          <path id="Path_609452" data-name="Path 609452" d="M1045.735,1003.7l-.761-.042c.265-4.424,1.86-7.891,4.739-10.3,6.332-5.3,17.654-4.552,25.147-4.055l.676.045c13.33.876,15.032-4.094,15.048-4.145l.731.206c-.071.228-1.9,5.577-15.831,4.662l-.676-.045c-7.367-.489-18.5-1.229-24.59,3.875-2.72,2.279-4.228,5.576-4.481,9.8" transform="translate(-1049.386 -984.393)" fill="#999"/>
          <path id="Path_609453" data-name="Path 609453" d="M1039.331,976.129l-.762-.019c.119-4.43,1.6-7.943,4.395-10.44,6.152-5.492,17.495-5.08,25-4.807l.676.024c6.964.248,10.653-1.029,12.522-2.143a5.056,5.056,0,0,0,2.381-2.454l.737.187c-.063.23-1.717,5.631-15.669,5.135l-.677-.024c-7.379-.268-18.53-.673-24.449,4.612-2.643,2.359-4.041,5.7-4.154,9.929" transform="translate(-1043.926 -959.537)" fill="#999"/>
        </g>
        <rect id="Rectangle_377784" data-name="Rectangle 377784" width="289.086" height="197.042" transform="translate(34.09 33.718)" fill="none"/>
      </g>
      <g id="Group_1073902" data-name="Group 1073902" transform="translate(87.998 2.763)">
        <g id="Group_1073901" data-name="Group 1073901" clip-path="url(#clip-path-10)">
          <g id="Group_1073892" data-name="Group 1073892">
            <g id="Group_1073891" data-name="Group 1073891" clip-path="url(#clip-path-10)">
              <path id="Path_611067" data-name="Path 611067" d="M42.694,176.36H171.26a37.982,37.982,0,0,0,7.274-7.961c3.644-5.5,5.4-12.671,3.235-18.94-1.553-4.488-4.885-8.041-7.544-11.946a45.2,45.2,0,0,1-6.41-35.542C170,92.959,175,84.58,175.3,75.3a27.03,27.03,0,0,0-6.709-18.64c-4.816-5.4-11.574-8.5-18.25-11.1s-13.591-4.916-19.366-9.221-10.336-11.116-9.931-18.422c.138-2.5.846-4.98.587-7.47C120.879,3.219,112.42-.6,105.358.078a25.886,25.886,0,0,0-13.046,5.1C87.6,8.735,84.183,13.81,79.719,17.7c-11.947,10.4-29.316,10.816-43.2,18.261-4.41,2.364-8.678,5.743-10.281,10.571-2.475,7.455,2.085,15.21,5.915,22.038,4.369,7.788,8.09,16.363,7.917,25.343-.207,10.733-5.894,20.464-11.669,29.421-2.494,3.867-5.066,7.76-6.513,12.151-2.693,8.174-1.111,17.467,3.24,24.853a43.383,43.383,0,0,0,17.57,16.027" transform="translate(-11.298 0)" fill="#ede6e0"/>
              <g id="Group_1073881" data-name="Group 1073881" transform="translate(15.061 173.218)" opacity="0.63">
                <g id="Group_1073880" data-name="Group 1073880">
                  <g id="Group_1073879" data-name="Group 1073879" clip-path="url(#clip-path-12)">
                    <path id="Path_611068" data-name="Path 611068" d="M193.225,378.38c0,1.736-35.771,3.142-79.9,3.142s-79.9-1.407-79.9-3.142,35.772-3.142,79.9-3.142,79.9,1.407,79.9,3.142" transform="translate(-33.43 -375.238)" fill="#bfcae0"/>
                  </g>
                </g>
              </g>
              <path id="Path_611069" data-name="Path 611069" d="M303.079,11.208V12.5a1.043,1.043,0,0,0,.763,1.014,15.046,15.046,0,0,1,3.843,1.633,1,1,0,0,0,1.24-.165l.894-.916a1.009,1.009,0,0,1,1.452,0l2.982,3.055a1.072,1.072,0,0,1,0,1.489l-.891.913a1.067,1.067,0,0,0-.16,1.271,15.838,15.838,0,0,1,1.6,3.941,1.026,1.026,0,0,0,.99.781h1.255a1.04,1.04,0,0,1,1.027,1.052v4.321a1.04,1.04,0,0,1-1.027,1.053H315.79a1.026,1.026,0,0,0-.99.781,15.838,15.838,0,0,1-1.6,3.941,1.068,1.068,0,0,0,.16,1.272l.891.913a1.072,1.072,0,0,1,0,1.489L311.271,43.4a1.009,1.009,0,0,1-1.452,0l-.894-.916a1,1,0,0,0-1.24-.164,15.061,15.061,0,0,1-3.843,1.632,1.043,1.043,0,0,0-.763,1.014v1.294a1.04,1.04,0,0,1-1.027,1.053h-4.217a1.04,1.04,0,0,1-1.027-1.053v-1.3a1.044,1.044,0,0,0-.761-1.014,15.044,15.044,0,0,1-3.836-1.634,1,1,0,0,0-1.241.164l-.9.924a1.01,1.01,0,0,1-1.453,0l-2.981-3.055a1.071,1.071,0,0,1,0-1.489l.905-.927a1.067,1.067,0,0,0,.16-1.271,15.851,15.851,0,0,1-1.59-3.927,1.028,1.028,0,0,0-.99-.781h-1.278a1.04,1.04,0,0,1-1.028-1.053V26.572a1.04,1.04,0,0,1,1.028-1.052h1.278a1.027,1.027,0,0,0,.99-.781,15.851,15.851,0,0,1,1.59-3.927,1.066,1.066,0,0,0-.16-1.27l-.905-.928a1.071,1.071,0,0,1,0-1.489l2.981-3.055a1.01,1.01,0,0,1,1.453,0l.9.924a1,1,0,0,0,1.241.164,15.028,15.028,0,0,1,3.836-1.634,1.044,1.044,0,0,0,.761-1.014v-1.3a1.04,1.04,0,0,1,1.027-1.052h4.217a1.04,1.04,0,0,1,1.027,1.052m-12.87,17.524a9.749,9.749,0,1,0,9.746-9.987,9.869,9.869,0,0,0-9.746,9.987" transform="translate(-154.855 -5.468)" fill="#e1d6cb"/>
              <path id="Path_611070" data-name="Path 611070" d="M345.7,90.505l-.631.373a.609.609,0,0,0-.274.682A9.236,9.236,0,0,1,345.1,94a.6.6,0,0,0,.438.587l.7.193a.608.608,0,0,1,.419.743l-.629,2.406a.591.591,0,0,1-.725.429l-.7-.192a.584.584,0,0,0-.666.285,8.976,8.976,0,0,1-1.46,1.953.616.616,0,0,0-.1.732l.362.642a.615.615,0,0,1-.217.829l-2.105,1.245a.584.584,0,0,1-.809-.222l-.362-.642a.584.584,0,0,0-.666-.281,8.589,8.589,0,0,1-2.381.319.592.592,0,0,0-.573.449l-.188.719a.591.591,0,0,1-.725.429l-2.348-.644a.609.609,0,0,1-.419-.743l.189-.722a.611.611,0,0,0-.277-.682,8.8,8.8,0,0,1-1.9-1.5.579.579,0,0,0-.714-.1l-.631.373a.585.585,0,0,1-.809-.222l-1.215-2.157a.616.616,0,0,1,.217-.829l.634-.375a.61.61,0,0,0,.275-.682,9.2,9.2,0,0,1-.309-2.433.6.6,0,0,0-.437-.588l-.71-.195a.609.609,0,0,1-.419-.743l.629-2.406a.591.591,0,0,1,.725-.429l.713.2a.584.584,0,0,0,.665-.284,8.981,8.981,0,0,1,1.456-1.945.616.616,0,0,0,.1-.732l-.369-.653a.615.615,0,0,1,.217-.829l2.105-1.245a.584.584,0,0,1,.809.222l.368.654a.583.583,0,0,0,.665.281,8.6,8.6,0,0,1,2.372-.319.593.593,0,0,0,.573-.448l.191-.731a.591.591,0,0,1,.725-.429l2.348.644a.609.609,0,0,1,.419.743l-.191.728a.611.611,0,0,0,.278.682,8.806,8.806,0,0,1,1.9,1.491.579.579,0,0,0,.714.1l.634-.375a.585.585,0,0,1,.809.222l1.215,2.157a.615.615,0,0,1-.217.829m-11.563-.316a4.411,4.411,0,0,0-1.555,5.945,4.192,4.192,0,0,0,5.8,1.593,4.41,4.41,0,0,0,1.555-5.945,4.192,4.192,0,0,0-5.8-1.593" transform="translate(-179.037 -44.828)" fill="#b4997f"/>
              <path id="Path_611083" data-name="Path 611083" d="M188.6,214.718H89.489a1.189,1.189,0,0,1-1.174-1.2V72.45a1.189,1.189,0,0,1,1.174-1.2H188.6a1.189,1.189,0,0,1,1.174,1.2V213.515a1.189,1.189,0,0,1-1.174,1.2" transform="translate(-48.528 -38.358)" fill="#445866"/>
              <path id="Path_611084" data-name="Path 611084" d="M190.445,215.88H99.694a.415.415,0,0,1-.41-.42V86.805a.415.415,0,0,1,.41-.42h90.751a.415.415,0,0,1,.41.42V215.46a.415.415,0,0,1-.41.42" transform="translate(-54.556 -46.508)" fill="#ebfcfc"/>
              <path id="Path_611085" data-name="Path 611085" d="M191.63,45.678a7.808,7.808,0,1,0,7.609,7.805,7.713,7.713,0,0,0-7.609-7.805m0,10.862a3.058,3.058,0,1,1,2.984-3.057,3.018,3.018,0,0,1-2.984,3.057" transform="translate(-101.114 -24.592)" fill="#fa2f67"/>
              <g id="Group_1073884" data-name="Group 1073884" transform="translate(86.002 24.267)" style="mix-blend-mode: screen;isolation: isolate">
                <g id="Group_1073883" data-name="Group 1073883">
                  <g id="Group_1073882" data-name="Group 1073882" clip-path="url(#clip-path-13)">
                    <path id="Path_611086" data-name="Path 611086" d="M198.242,53.933a4.2,4.2,0,0,0-2.555-.865,4.394,4.394,0,1,0,4.287,4.393,4.448,4.448,0,0,0-.757-2.494" transform="translate(-191.175 -52.837)" fill="none" stroke="#fa2f67" stroke-linecap="round" stroke-linejoin="round" stroke-width="1"/>
                  </g>
                </g>
              </g>
              <path id="Path_611087" data-name="Path 611087" d="M190.754,89.067H148.888a4.617,4.617,0,0,1-4.56-4.672v-8.27a.575.575,0,0,1,.568-.582h49.85a.575.575,0,0,1,.568.582v8.27a4.617,4.617,0,0,1-4.56,4.672" transform="translate(-79.307 -40.671)" fill="#fa2f67"/>
              <g id="Group_1073887" data-name="Group 1073887" transform="translate(65.024 34.874)" opacity="0.36" style="mix-blend-mode: multiply;isolation: isolate">
                <g id="Group_1073886" data-name="Group 1073886">
                  <g id="Group_1073885" data-name="Group 1073885" clip-path="url(#clip-path-14)">
                    <path id="Path_611088" data-name="Path 611088" d="M195.318,75.546V82.93a6.067,6.067,0,0,1-5.992,6.141h-39a6.067,6.067,0,0,1-5.992-6.141V75.546h1.06v5.437a6.067,6.067,0,0,0,5.992,6.14h36.879a6.067,6.067,0,0,0,5.992-6.14V75.546Z" transform="translate(-144.335 -75.546)" fill="#fa2f67"/>
                  </g>
                </g>
              </g>
              <path id="Path_611089" data-name="Path 611089" d="M196.8,68.567H159.358V63.342a.748.748,0,0,1,.738-.757h35.967a.748.748,0,0,1,.738.757Z" transform="translate(-87.566 -33.694)" fill="#fa2f67"/>
              <g id="Group_1073890" data-name="Group 1073890" transform="translate(71.792 33.716)" opacity="0.36" style="mix-blend-mode: multiply;isolation: isolate">
                <g id="Group_1073889" data-name="Group 1073889">
                  <g id="Group_1073888" data-name="Group 1073888" clip-path="url(#clip-path-15)">
                    <rect id="Rectangle_378441" data-name="Rectangle 378441" width="37.444" height="1.156" fill="#fa2f67"/>
                  </g>
                </g>
              </g>
              <rect id="Rectangle_378443" data-name="Rectangle 378443" width="76.029" height="4.714" transform="translate(52.499 81.306)" fill="#b4997f"/>
              <rect id="Rectangle_378444" data-name="Rectangle 378444" width="76.029" height="4.714" transform="translate(52.499 94.438)" fill="#b4997f"/>
              <rect id="Rectangle_378445" data-name="Rectangle 378445" width="76.029" height="4.714" transform="translate(52.499 107.57)" fill="#b4997f"/>
              <rect id="Rectangle_378446" data-name="Rectangle 378446" width="76.029" height="4.714" transform="translate(52.499 120.702)" fill="#b4997f"/>
              <rect id="Rectangle_378447" data-name="Rectangle 378447" width="42.464" height="4.714" transform="translate(52.499 133.834)" fill="#b4997f"/>
              <rect id="Rectangle_378448" data-name="Rectangle 378448" width="42.464" height="4.714" transform="translate(52.499 146.966)" fill="#b4997f"/>
            </g>
          </g>
          <text id="ISO_" data-name="ISO " transform="translate(83.736 69.711)" fill="#5e5a55" font-size="20" font-family="BebasNeue-Regular, Bebas Neue"><tspan x="0" y="0">ISO </tspan></text>
          <g id="Group_1073900" data-name="Group 1073900">
            <g id="Group_1073899" data-name="Group 1073899" clip-path="url(#clip-path-10)">
              <path id="Path_611090" data-name="Path 611090" d="M272.286,347.245l-6.187-2.391-3.235,5.906-3.264-9.185-.6-1.682-3.41-9.6,3.41-1.273,6.017-2.242,4.122,11.607Z" transform="translate(-140.445 -175.93)" fill="#ffe7af"/>
              <path id="Path_611091" data-name="Path 611091" d="M250.366,330.292l-3.41,9.6-.594,1.683-3.264,9.185-3.24-5.906-6.187,2.391,3.147-8.861,4.127-11.606,6.012,2.241Z" transform="translate(-128.4 -175.93)" fill="#ffe7af"/>
              <g id="Group_1073895" data-name="Group 1073895" transform="translate(108.417 150.848)" opacity="0.36" style="mix-blend-mode: multiply;isolation: isolate">
                <g id="Group_1073894" data-name="Group 1073894">
                  <g id="Group_1073893" data-name="Group 1073893" clip-path="url(#clip-path-17)">
                    <path id="Path_611092" data-name="Path 611092" d="M260.932,338.384a1.4,1.4,0,0,1-1.091-.279,1.432,1.432,0,0,0-.867-.295,1.5,1.5,0,0,0-1.486,1.522v.005a1.475,1.475,0,0,1-2.68.889,1.443,1.443,0,0,0-1.194-.629,1.47,1.47,0,0,0-1.413,1.053,1.438,1.438,0,0,1-.809.923l-.6-1.682-.594,1.682a1.42,1.42,0,0,1-.814-.923,1.47,1.47,0,0,0-1.413-1.053,1.442,1.442,0,0,0-1.193.629,1.426,1.426,0,0,1-1.184.629,1.488,1.488,0,0,1-1.491-1.522,1.5,1.5,0,0,0-1.486-1.522,1.432,1.432,0,0,0-.867.295,1.431,1.431,0,0,1-.872.3,1.082,1.082,0,0,1-.224-.02l4.126-11.607,6.012,2.242,6.016-2.242Z" transform="translate(-240.656 -326.777)" fill="#e6d09d"/>
                  </g>
                </g>
              </g>
              <path id="Path_611093" data-name="Path 611093" d="M244.307,282.7h0a1.316,1.316,0,0,0,2.344.38,1.324,1.324,0,0,1,2.407.8,1.327,1.327,0,0,0,2.114,1.1,1.337,1.337,0,0,1,2.048,1.524,1.345,1.345,0,0,0,1.678,1.719,1.353,1.353,0,0,1,1.488,2.1,1.364,1.364,0,0,0,1.077,2.166,1.367,1.367,0,0,1,.783,2.466,1.375,1.375,0,0,0,.371,2.4,1.372,1.372,0,0,1,0,2.593,1.375,1.375,0,0,0-.371,2.4,1.367,1.367,0,0,1-.783,2.466,1.364,1.364,0,0,0-1.077,2.166,1.354,1.354,0,0,1-1.488,2.1,1.345,1.345,0,0,0-1.678,1.719,1.337,1.337,0,0,1-2.048,1.524,1.327,1.327,0,0,0-2.114,1.1h0a1.324,1.324,0,0,1-2.407.8,1.316,1.316,0,0,0-2.344.38,1.319,1.319,0,0,1-2.531,0,1.316,1.316,0,0,0-2.343-.38,1.324,1.324,0,0,1-2.407-.8h0a1.327,1.327,0,0,0-2.114-1.1,1.337,1.337,0,0,1-2.047-1.524,1.345,1.345,0,0,0-1.678-1.719,1.354,1.354,0,0,1-1.488-2.1,1.364,1.364,0,0,0-1.077-2.166,1.367,1.367,0,0,1-.782-2.466,1.376,1.376,0,0,0-.371-2.4,1.372,1.372,0,0,1,0-2.593,1.375,1.375,0,0,0,.371-2.4,1.367,1.367,0,0,1,.782-2.466,1.364,1.364,0,0,0,1.077-2.166,1.353,1.353,0,0,1,1.488-2.1,1.346,1.346,0,0,0,1.678-1.719,1.337,1.337,0,0,1,2.047-1.524,1.327,1.327,0,0,0,2.114-1.1,1.324,1.324,0,0,1,2.407-.8,1.316,1.316,0,0,0,2.343-.38,1.319,1.319,0,0,1,2.531,0" transform="translate(-124.485 -151.69)" fill="#ffe7af"/>
              <path id="Path_611094" data-name="Path 611094" d="M260.494,303.859a12.147,12.147,0,1,1-12.143-12.443,12.3,12.3,0,0,1,12.143,12.443" transform="translate(-129.794 -156.893)" fill="#b4997f"/>
              <path id="Path_611095" data-name="Path 611095" d="M260.722,305.1a11.109,11.109,0,1,1-11.105-11.379A11.244,11.244,0,0,1,260.722,305.1" transform="translate(-131.06 -158.133)" fill="#e6d09d"/>
              <path id="Path_611096" data-name="Path 611096" d="M77.832,370.948s-.447,3.728-.051,3.978h7.566c.175-.021.605-1.522-.073-1.981-.614-.414-1.688-.6-2.1-.867a1.466,1.466,0,0,1-.743-1.13c-.146-2.227-3.291-2.125-3.291-2.125s-1.05.012-1.311,2.125" transform="translate(-42.65 -198.566)" fill="#260040"/>
              <path id="Path_611097" data-name="Path 611097" d="M52.217,370.948s.447,3.728.051,3.978H45.607c-.175-.021-.605-1.522.073-1.981.614-.414.86-.388,1.269-.656a1.642,1.642,0,0,0,.665-1.342c.146-2.227,3.291-2.125,3.291-2.125s1.051.012,1.311,2.125" transform="translate(-24.898 -198.566)" fill="#260040"/>
              <path id="Path_611098" data-name="Path 611098" d="M105.054,225.731s.218.727.429,1.231a6.932,6.932,0,0,1-.094,2.22L104,228.029v-1.571Z" transform="translate(-57.145 -121.529)" fill="#fcb788"/>
              <path id="Path_611099" data-name="Path 611099" d="M67.855,170.635a6.1,6.1,0,0,1,1.728,2.832c.356,1.617-.325,1.123-.122,2.9s-.356,4.242-1.273,4.676-6.989-.423-6.989-.423Z" transform="translate(-33.629 -91.866)" fill="#fcb788"/>
              <path id="Path_611100" data-name="Path 611100" d="M94.587,230.7l-.781-.462a.254.254,0,0,1-.09-.342l5.471-9.709a.241.241,0,0,1,.333-.091l.781.462a.253.253,0,0,1,.089.342l-5.471,9.709a.241.241,0,0,1-.333.091" transform="translate(-51.478 -118.475)" fill="#58258e"/>
              <path id="Path_611101" data-name="Path 611101" d="M95.216,230.742l-.981-.58s0-.021.016-.042l5.114-9.076c.012-.021.025-.037.028-.036l.981.58s0,.021-.016.042l-5.114,9.076c-.012.022-.025.037-.028.036" transform="translate(-51.781 -118.985)" fill="#d9f3f4"/>
              <path id="Path_611102" data-name="Path 611102" d="M106.445,221.349l-.362-.214c-.067-.047-.023-.15.049-.277l.129-.229a.051.051,0,0,1,.075-.019l.474.28c.013.007.026.026,0,.066l-.129.229c-.072.127-.168.2-.24.165" transform="translate(-58.273 -118.766)" fill="#fa2f67"/>
              <path id="Path_611103" data-name="Path 611103" d="M107.147,220.656l-.406-.24.093-.165a.058.058,0,0,1,.088-.026l.325.192c.024.014.016.032,0,.053Z" transform="translate(-58.653 -118.558)" fill="#fa2f67"/>
              <path id="Path_611104" data-name="Path 611104" d="M101.238,223.8s-1.064-1.145-1.241-.888c-.249.36.287.726.427,1.153a.552.552,0,0,0-.4.528c-.231.1-.274.663-.274.847a.526.526,0,0,0-.164.56c.036.21.146.68.335.345s.03-.409.03-.409a.191.191,0,0,0,.318.025c.216-.249.064-.6-.008-.776,0,0,.1.568.432.246.24-.232.094-.824.094-.824Z" transform="translate(-54.71 -119.99)" fill="#fcb788"/>
              <path id="Path_611105" data-name="Path 611105" d="M65.783,191.507c.792.118,3.182.873.807.872a25.247,25.247,0,0,1,.036,2.564H60.174l.462-3.11a34.2,34.2,0,0,1,5.147-.326" transform="translate(-33.065 -103.083)" fill="#f4a671"/>
              <path id="Path_611106" data-name="Path 611106" d="M58.154,168.753s-.406-1.769,2.891-1.928a29.52,29.52,0,0,0,6.408-1.365c.62-.039-.85,2.021-.85,2.021.535.1,1.192-.236,1.3.367a3.392,3.392,0,0,1-2.365,2.74c.151,4.222-1.684,4.916-1.778,6.916a32.432,32.432,0,0,1-5.147.326,29.16,29.16,0,0,0-1.747-4.718c-.811-1.651-.251-4.262,1.285-4.359" transform="translate(-31.046 -89.079)" fill="#260040"/>
              <path id="Path_611107" data-name="Path 611107" d="M70.687,260.422a51.039,51.039,0,0,1,.237,6.76c-.1,6.584-3.161,44.86-3.422,45.2s-4.311.256-4.6,0-.517-22.673-.517-22.673l-1.391-11.315s-5.769,33.836-5.98,33.988a22.714,22.714,0,0,1-4.554,0c-.2-.153,1.749-22.42,1.749-22.42s.56-22.216.653-23.2a31.067,31.067,0,0,1,1.166-6.336Z" transform="translate(-27.717 -140.206)" fill="#574446"/>
              <path id="Path_611108" data-name="Path 611108" d="M74.987,180.931s-.648-1.515-1.191-.717.106,3.141.6,2.658a4.065,4.065,0,0,0,.6-1.941" transform="translate(-40.438 -96.899)" fill="#fcb788"/>
              <path id="Path_611109" data-name="Path 611109" d="M74.412,212.28a2.805,2.805,0,0,1-.286,1.853,12.727,12.727,0,0,1-3.608,3.832,5.613,5.613,0,0,1-1.5.326s.45,7.371.009,7.54c-2.116.815-16.08.757-16.661,0-.451-.588-.905-4.463-1.316-6.92,0,0-2.164-.414-2.611-1.015s-1.69-16.55-.565-17.853a21.2,21.2,0,0,1,5.482-3.87h6.261s6.5,1.691,8.106,2.765c1.1.74,2.547,8.891,3.322,13.6l2.135-1.293s.857-.293,1.235,1.038" transform="translate(-26.053 -105.616)" fill="#615842"/>
              <path id="Path_611110" data-name="Path 611110" d="M49.41,209.784A98.366,98.366,0,0,1,52.134,224.7" transform="translate(-27.15 -112.943)" fill="none" stroke="#260040" stroke-linecap="round" stroke-linejoin="round" stroke-width="0.25"/>
              <path id="Path_611111" data-name="Path 611111" d="M85.507,215.884a65.916,65.916,0,0,0,3.582,12.675" transform="translate(-46.985 -116.227)" fill="none" stroke="#260040" stroke-linecap="round" stroke-linejoin="round" stroke-width="0.25"/>
              <path id="Path_611112" data-name="Path 611112" d="M334.92,187.993s-.232,7.24-1.625,9.143,4.589-.747,4.589-.747l.784-5.166Z" transform="translate(-183.027 -101.211)" fill="#260040"/>
              <path id="Path_611113" data-name="Path 611113" d="M310.43,370.632c-.455,1.94-.133,4.1-.509,4.482H302.8c0-1.47.579-1.746,1.1-2,.788-.393,2.835-.477,3.252-2.111.33-1.293,3.938-3.181,3.278-.366" transform="translate(-166.388 -198.753)" fill="#fa2f67"/>
              <path id="Path_611114" data-name="Path 611114" d="M344.237,370.7c.211,1.984.451,4.12.075,4.506h-4.9a2.64,2.64,0,0,1,.8-2.565,1.484,1.484,0,0,0,.664-1.55c-.108-1.331,3.095-2.958,3.368-.391" transform="translate(-186.481 -198.848)" fill="#fa2f67"/>
              <path id="Path_611115" data-name="Path 611115" d="M346.566,257.923a17.253,17.253,0,0,1,2.044,7.395c.19,4.3-3.91,18.745-4.108,19.721s1.116,2.319.584,7.688-2.558,16.138-2.727,17.987c-.062.677-3.273.976-3.368.391s-.988-22.747-.905-25.285-2.148-25.859-2.148-25.859Z" transform="translate(-184.595 -138.86)" fill="#260040"/>
              <path id="Path_611116" data-name="Path 611116" d="M327.215,257.923a16.392,16.392,0,0,1,1.542,7.395c-.1,4.3-6.424,20.118-6.688,21.093s.241,2.724-.25,5.432c-.97,5.356-5.383,16.156-6.26,19.236-.1.363-3.242.611-3.3.025s3.459-22.353,3.446-24.9c-.029-5.785,3.5-26.366,3.5-26.366Z" transform="translate(-171.585 -138.86)" fill="#260040"/>
              <path id="Path_611117" data-name="Path 611117" d="M334.947,222.192a4.071,4.071,0,0,0,.058.923c.245,1.355,1.083,4.325,1.142,4.67s-.929,1.553-5.007,1.978-11.049-1.489-11.021-2.034,2.353-4.375,2.355-6.716-1.057-9.04-1.057-9.04l-2.976,1.638-1.463-3.251s4.524-5.857,6.228-6.716a24.481,24.481,0,0,1,5.263-1.436l5.214-.265s4.321,1.758,4.808,2.647.05,14.756-.292,15.265a24.754,24.754,0,0,1-3.251,2.337" transform="translate(-174.176 -108.721)" fill="#ffe7af"/>
              <path id="Path_611118" data-name="Path 611118" d="M340.937,196.4a8.721,8.721,0,0,1-.644,2.294c-.46.912-1.236,4.247-.775,4.278s5.039-3.964,5.315-4.97-.92-3.8-.92-3.8Z" transform="translate(-186.484 -104.555)" fill="#f4a671"/>
              <path id="Path_611119" data-name="Path 611119" d="M334.679,181.114c-.033.523.155,1.9.147,2.765-.029,3.346,1.964,5.472,2.786,5.472s3.857-1.125,4.714-2.979.381-7.451.381-7.451H334.72s.031,1.021-.041,2.193" transform="translate(-183.901 -96.327)" fill="#fcb788"/>
              <path id="Path_611120" data-name="Path 611120" d="M338.277,179.379s-3,1.245-5.058.784-2.261-3.446-.367-4.406,6.679-1.543,8.581.057c1.712,1.44,2.113,10.879,1.663,12.338s-3.975,2.683-5.025,1.889.114-3.136.714-5.057-.508-5.606-.508-5.606" transform="translate(-182.181 -94.117)" fill="#260040"/>
              <path id="Path_611121" data-name="Path 611121" d="M357.965,208.146a4.937,4.937,0,0,0-1.738,3.367c-.317,2.383.62,8.456.077,8.972a7.027,7.027,0,0,1-1.163.877" transform="translate(-195.147 -112.061)" fill="none" stroke="#260040" stroke-linecap="round" stroke-linejoin="round" stroke-width="0.25"/>
              <path id="Path_611122" data-name="Path 611122" d="M316.9,233.258H290.643a1.276,1.276,0,0,1-1.26-1.291V205.058a1.276,1.276,0,0,1,1.26-1.291H316.9a1.276,1.276,0,0,1,1.26,1.291v26.908a1.276,1.276,0,0,1-1.26,1.291" transform="translate(-159.014 -109.704)" fill="#445866"/>
              <path id="Path_611123" data-name="Path 611123" d="M317.337,233.593H295.022a1.276,1.276,0,0,1-1.26-1.291V209.438a1.276,1.276,0,0,1,1.26-1.292h22.315a1.276,1.276,0,0,1,1.26,1.292V232.3a1.276,1.276,0,0,1-1.26,1.291" transform="translate(-161.42 -112.061)" fill="#44d5f4"/>
              <g id="Group_1073898" data-name="Group 1073898" transform="translate(132.877 96.633)" opacity="0.36" style="mix-blend-mode: screen;isolation: isolate">
                <g id="Group_1073897" data-name="Group 1073897">
                  <g id="Group_1073896" data-name="Group 1073896" clip-path="url(#clip-path-18)">
                    <path id="Path_611124" data-name="Path 611124" d="M317.455,233.684H296.21a1.276,1.276,0,0,1-1.26-1.291V210.625a1.276,1.276,0,0,1,1.26-1.292h21.245a1.276,1.276,0,0,1,1.26,1.291v21.769a1.276,1.276,0,0,1-1.26,1.291" transform="translate(-294.95 -209.333)" fill="#9ac1df"/>
                  </g>
                </g>
              </g>
              <path id="Path_611125" data-name="Path 611125" d="M319.331,220.893l-12.394,12.7-5.765-5.907" transform="translate(-165.492 -118.924)" fill="none" stroke="#ddf1ff" stroke-linecap="round" stroke-linejoin="round" stroke-width="7"/>
              <path id="Path_611126" data-name="Path 611126" d="M351.05,241.863c-.181.132-.916.746-.929.332s.767-1.032.767-1.032-1.635.872-1.635.289,1.6-1.273,1.6-1.273-2.02,1.089-2.02.456,2-1.7,2-1.7-1.651.8-1.572.27,1.575-1.44,1.575-1.44l0-.632c.306.026,1.117.121,1.182.763.024.236-.253.582-.253,1.231,0,2.082-.413,2.518-.711,2.736" transform="translate(-191.681 -127.668)" fill="#fcb788"/>
              <path id="Path_611127" data-name="Path 611127" d="M287.461,217.726c.215.157.592.376.607-.116a.814.814,0,0,0-.414-.715s1.182.662,1.182-.03-1.14-1.14-1.14-1.14,1.639.921,1.639.169-1.616-1.646-1.616-1.646,2.047.187,2.008-.25c-.059-.652-2.012-.95-2.012-1.04,0-.182,0-.107,0-.3-.358-.033-1.928.382-1.1,1.115.109.1-.458.024-.189.916a5.307,5.307,0,0,1,.043,1.715,1.6,1.6,0,0,0,1,1.322" transform="translate(-157.346 -114.489)" fill="#fcb788"/>
              <path id="Path_611128" data-name="Path 611128" d="M336.857,190.7a.356.356,0,1,1-.356-.364.36.36,0,0,1,.356.364" transform="translate(-184.709 -102.472)" fill="#260040"/>
              <path id="Path_611129" data-name="Path 611129" d="M343.069,190.7a.356.356,0,1,1-.356-.364.36.36,0,0,1,.356.364" transform="translate(-188.122 -102.472)" fill="#260040"/>
              <path id="Path_611130" data-name="Path 611130" d="M336.714,189.108a.851.851,0,0,0-.885,0" transform="translate(-184.535 -101.745)" fill="none" stroke="#260040" stroke-linecap="round" stroke-linejoin="round" stroke-width="0.5"/>
              <path id="Path_611131" data-name="Path 611131" d="M342.959,188.962a.851.851,0,0,0-.885,0" transform="translate(-187.967 -101.666)" fill="none" stroke="#260040" stroke-linecap="round" stroke-linejoin="round" stroke-width="0.5"/>
              <path id="Path_611132" data-name="Path 611132" d="M338.87,191.855c.044.61-.42,1.593-.215,1.652a1.1,1.1,0,0,0,.52,0" transform="translate(-186.059 -103.291)" fill="none" stroke="#260040" stroke-linecap="round" stroke-linejoin="round" stroke-width="0.5"/>
              <path id="Path_611133" data-name="Path 611133" d="M338.812,197.511a2.87,2.87,0,0,0,1.4-.059" transform="translate(-186.175 -106.304)" fill="none" stroke="#260040" stroke-linecap="round" stroke-linejoin="round" stroke-width="0.5"/>
              <path id="Path_611134" data-name="Path 611134" d="M90.665,19.675l1.178,3.831a.089.089,0,0,0,.058.059l3.738,1.207a.091.091,0,0,1,0,.173L91.9,26.152a.089.089,0,0,0-.058.06l-1.178,3.83a.088.088,0,0,1-.169,0l-1.178-3.83a.088.088,0,0,0-.058-.06l-3.738-1.207a.091.091,0,0,1,0-.173l3.738-1.207a.089.089,0,0,0,.058-.059L90.5,19.675a.088.088,0,0,1,.169,0" transform="translate(-46.96 -10.559)" fill="#ffe7af"/>
              <path id="Path_611135" data-name="Path 611135" d="M384.274,53.132l1.178,3.831a.089.089,0,0,0,.058.059l3.738,1.207a.092.092,0,0,1,0,.173l-3.738,1.207a.088.088,0,0,0-.058.06l-1.178,3.83a.088.088,0,0,1-.169,0l-1.178-3.83a.088.088,0,0,0-.058-.06L379.131,58.4a.091.091,0,0,1,0-.173l3.738-1.207a.089.089,0,0,0,.058-.059l1.178-3.831a.088.088,0,0,1,.169,0" transform="translate(-208.295 -28.571)" fill="#ffe7af"/>
              <path id="Path_611136" data-name="Path 611136" d="M59.319,86.417l.589,1.915a.044.044,0,0,0,.029.03l1.869.6a.046.046,0,0,1,0,.087l-1.869.6a.044.044,0,0,0-.029.03L59.319,91.6a.044.044,0,0,1-.085,0l-.589-1.915a.046.046,0,0,0-.029-.03l-1.869-.6a.046.046,0,0,1,0-.087l1.869-.6a.047.047,0,0,0,.029-.03l.589-1.915a.044.044,0,0,1,.085,0" transform="translate(-31.165 -46.508)" fill="#ffe7af"/>
              <path id="Path_611137" data-name="Path 611137" d="M137.765,40.026l.589,1.915a.046.046,0,0,0,.029.03l1.869.6a.046.046,0,0,1,0,.086l-1.869.6a.044.044,0,0,0-.029.03l-.589,1.915a.044.044,0,0,1-.085,0l-.589-1.915a.045.045,0,0,0-.029-.03l-1.869-.6a.046.046,0,0,1,0-.086l1.869-.6a.047.047,0,0,0,.029-.03l.589-1.915a.044.044,0,0,1,.085,0" transform="translate(-74.27 -21.532)" fill="#ffe7af"/>
              <path id="Path_611138" data-name="Path 611138" d="M375.988,119.657l.589,1.915a.046.046,0,0,0,.029.03l1.869.6a.045.045,0,0,1,0,.086l-1.869.6a.044.044,0,0,0-.029.03l-.589,1.915a.044.044,0,0,1-.085,0l-.589-1.915a.044.044,0,0,0-.029-.03l-1.869-.6a.046.046,0,0,1,0-.086l1.869-.6a.046.046,0,0,0,.029-.03l.589-1.915a.044.044,0,0,1,.085,0" transform="translate(-205.173 -64.403)" fill="#ffe7af"/>
              <path id="Path_611139" data-name="Path 611139" d="M364.477,25.326l.589,1.915a.045.045,0,0,0,.029.03l1.869.6a.046.046,0,0,1,0,.086l-1.869.6a.044.044,0,0,0-.029.03l-.589,1.915a.044.044,0,0,1-.085,0l-.589-1.915a.044.044,0,0,0-.029-.03l-1.869-.6a.046.046,0,0,1,0-.086l1.869-.6a.045.045,0,0,0,.029-.03l.589-1.915a.044.044,0,0,1,.085,0" transform="translate(-198.847 -13.618)" fill="#ffe7af"/>
            </g>
          </g>
        </g>
      </g>
    </g>
  </g>
</svg>
