<svg xmlns="http://www.w3.org/2000/svg" xmlns:xlink="http://www.w3.org/1999/xlink" width="120" height="120" viewBox="0 0 120 120">
  <defs>
    <clipPath id="clip-path">
      <rect id="Rectangle_377941" data-name="Rectangle 377941" width="76.455" height="76.219" fill="#636363"/>
    </clipPath>
  </defs>
  <g id="Group_1073932" data-name="Group 1073932" transform="translate(-180 -2331)">
    <g id="Group_1072527" data-name="Group 1072527" transform="translate(-89 1373)">
      <path id="Path_608974" data-name="Path 608974" d="M60,0A60,60,0,1,1,0,60,60,60,0,0,1,60,0Z" transform="translate(269 958)" fill="#ffe7af"/>
    </g>
    <rect id="Rectangle_378461" data-name="Rectangle 378461" width="79" height="79" transform="translate(201 2352)" fill="none"/>
    <g id="Group_1072531" data-name="Group 1072531" transform="translate(202.965 2353.854)">
      <g id="Group_1072530" data-name="Group 1072530" transform="translate(-0.965 -0.854)" clip-path="url(#clip-path)">
        <path id="Path_609819" data-name="Path 609819" d="M65.031,38.1v2.571h6.351c.007-.131.018-.253.018-.374,0-1.9-.01-3.8-.008-5.7a1.361,1.361,0,0,1,.934-1.492,1.307,1.307,0,0,1,1.632,1.309c.022.477.017.956.017,1.434q0,13.68,0,27.359c0,.421.01.843,0,1.264-.007.227.08.293.3.291a8.062,8.062,0,0,1,1.157.051,1.174,1.174,0,0,1,1,.983,1.291,1.291,0,0,1-.577,1.325.621.621,0,0,1-.322.086c-.276-.009-.339.121-.338.376.015,1.912.018,3.825.025,5.738a2.655,2.655,0,0,1-2.713,2.9c-.1.007-.2,0-.307,0H4.191a3.119,3.119,0,0,1-1.644-.369,2.455,2.455,0,0,1-1.274-2.166c-.027-2.026-.012-4.052-.007-6.079,0-.2-.012-.33-.266-.375a1.228,1.228,0,0,1,.063-2.424,6,6,0,0,1,1.055-.047c.286.011.367-.079.366-.366q-.015-6.829-.009-13.659,0-7.956.022-15.913a2.913,2.913,0,0,1,.219-1.084,1.165,1.165,0,0,1,1.222-.683,1.266,1.266,0,0,1,1.089,1.033,3.327,3.327,0,0,1,.049.611q0,2.852-.01,5.7c0,.078.009.157.015.261h6.338V38.1a1.266,1.266,0,0,1-1.2-1.245c-.024-.8.578-1.121,1.135-1.342.115-.941.152-1.846.347-2.714A8.666,8.666,0,0,1,15,27.7c.712-.545,1.4-1.125,2.087-1.7a4.116,4.116,0,0,0,.426-.487,1.4,1.4,0,0,0,.328-1.032c-.031-.989-.008-1.981.036-2.969a1.163,1.163,0,0,1,1.229-1.159,1.145,1.145,0,0,1,1.213,1.134c.051,1.057.024,2.117.056,3.174a1.2,1.2,0,0,0,.2.66c.326.424.707.806,1.066,1.2l.11-.056c.064-.536.1-1.077.2-1.609A16.327,16.327,0,0,1,27.22,15.3a19.1,19.1,0,0,1,2.534-1.9A22.329,22.329,0,0,0,36.538,6.77a2.387,2.387,0,0,0,.43-1.462c-.042-1.353-.019-2.709.026-4.062a1.236,1.236,0,1,1,2.471.007q.061,2.081.022,4.165a2.037,2.037,0,0,0,.344,1.215,21.638,21.638,0,0,0,5.5,5.828c.61.437,1.248.835,1.866,1.26A16.836,16.836,0,0,1,54.348,24.27c.162.729.24,1.476.361,2.237a.7.7,0,0,0,.175-.1c.212-.189.427-.378.621-.585a1.883,1.883,0,0,0,.6-1.519,23.322,23.322,0,0,1,.037-2.8,1.093,1.093,0,0,1,.789-1.084,1.167,1.167,0,0,1,1.364.339,1.507,1.507,0,0,1,.295.811c.041.977.05,1.957.022,2.935a1.184,1.184,0,0,0,.326.962,17.938,17.938,0,0,0,1.935,1.763,9.4,9.4,0,0,1,3.709,4.841,8.564,8.564,0,0,1,.433,3.057.392.392,0,0,0,.285.463,1.664,1.664,0,0,1,.385.217,1.168,1.168,0,0,1,.559,1.164,1.216,1.216,0,0,1-.9,1.047c-.1.033-.2.05-.3.076M62.472,73.724c.11.006.164.012.219.012q2.152,0,4.3-.006c.567,0,.561,0,.568-.579.007-.7-.013-1.413.052-2.114a1.247,1.247,0,0,1,1.254-1.158,1.284,1.284,0,0,1,1.212,1.207c.04.487.027.978.033,1.467,0,.384,0,.767,0,1.172h2.526V67.3H3.826v6.422H6.343c0-.184,0-.34,0-.5.012-.773-.014-1.55.05-2.319a1.206,1.206,0,0,1,1.457-.994A1.382,1.382,0,0,1,8.9,71.427c.014.66.007,1.32.012,1.981,0,.107.017.214.024.3h5.046c0-.138,0-.25,0-.362.015-.785.007-1.571.054-2.354a1.183,1.183,0,0,1,.829-1.037,1.14,1.14,0,0,1,1.26.281,1.545,1.545,0,0,1,.441,1.148c.011.683.014,1.366.014,2.049,0,.177,0,.3.246.3,1.568-.009,3.135,0,4.746,0,.012-.22.025-.42.032-.62.025-.715,0-1.437.088-2.145a1.187,1.187,0,0,1,.982-1.052,1.087,1.087,0,0,1,1.221.48,2.143,2.143,0,0,1,.3.986c.046.669.015,1.343.018,2.014,0,.108.015.215.023.33,1.542,0,3.043,0,4.545,0,.518,0,.512.006.518-.527.007-.716-.015-1.436.049-2.148a1.246,1.246,0,0,1,1.272-1.176,1.271,1.271,0,0,1,1.2,1.222c.045.772.025,1.547.035,2.32,0,.1.01.194.015.289h5.082c0-.152,0-.286,0-.42.015-.74-.005-1.483.066-2.217a1.581,1.581,0,0,1,.411-.858,1.067,1.067,0,0,1,1.227-.251,1.149,1.149,0,0,1,.8,1.047c.039.8.037,1.592.053,2.388,0,.107.013.213.019.316h5.054c.007-.155.019-.3.021-.443.012-.773-.023-1.551.043-2.32a1.222,1.222,0,0,1,1.772-.94,1.454,1.454,0,0,1,.742,1.43c.024.66.009,1.32.014,1.981,0,.1.017.195.026.292h5.025c.007-.13.016-.241.019-.352.016-.785.009-1.571.052-2.354a1.188,1.188,0,0,1,.818-1.046,1.138,1.138,0,0,1,1.263.265,1.524,1.524,0,0,1,.451,1.143c.013.671.023,1.343.013,2.015,0,.255.04.354.335.351,1.535-.019,3.07-.009,4.655-.009.013-.2.03-.4.036-.6.025-.716,0-1.436.084-2.145a1.2,1.2,0,0,1,.971-1.064,1.079,1.079,0,0,1,1.225.466,2.168,2.168,0,0,1,.309,1.016c.045.759.014,1.522.014,2.32M38.236,8.763c-.1.117-.187.216-.265.323a24.633,24.633,0,0,1-7.009,6.463,14.214,14.214,0,0,0-4.669,4.66,14.438,14.438,0,0,0-1.984,5.544c-.133.893-.125.9.769.9q13.424.015,26.848.029c.267,0,.356-.092.3-.342-.239-1.05-.4-2.125-.732-3.144a14.174,14.174,0,0,0-6.128-7.725,24.087,24.087,0,0,1-6.123-5.437c-.328-.418-.657-.835-1-1.276M50.978,64.73c0-.087.009-.142.009-.2,0-1.491-.008-2.982-.008-4.474q0-10.211.006-20.423c0-.2-.041-.285-.263-.278-.455.014-.91,0-1.366,0q-11.817,0-23.634-.013c-.22,0-.262.075-.261.278q.016,7.616.02,15.231,0,4.815-.008,9.631c0,.212.062.284.269.278.353-.012.706,0,1.059,0h1.285V62.92q0-7.667,0-15.334c0-1.115.011-2.231.025-3.346a2.288,2.288,0,0,1,1.076-1.876,3.189,3.189,0,0,1,2-.431q7.019-.008,14.037,0c.318,0,.637.019.954.049a2.367,2.367,0,0,1,2.173,2.273c.015.307.019.614.019.922q0,8.982,0,17.963c0,.521,0,1.043,0,1.591Zm-38.261.008V62.72q0-9.579.008-19.158c0-.309-.063-.415-.388-.413-2.2.012-4.394,0-6.591,0-.663,0-.665,0-.664.66q0,10.262.006,20.524v.4ZM63.724,43.169V43.7q.009,10.363.01,20.726c0,.294.1.335.35.333,2.276-.008,4.553,0,6.829,0,.144,0,.288-.014.441-.022V43.169ZM22.9,43.178H15.291V64.734H22.9Zm38.261,0H53.553V64.734h7.613Zm-15.3,13.935H30.6V64.72h3.8c0-.423,0-.809,0-1.2a3.9,3.9,0,0,1,2.978-3.707,3.858,3.858,0,0,1,4.675,3.7c0,.4,0,.809,0,1.211h3.809Zm6.395-27.9H24.684c-.487,0-.481,0-.477.473.005.558.015,1.116-.009,1.673-.013.292.056.4.37.4q13.287-.013,26.574-.008c.3,0,.593.012.887-.01.081-.006.221-.11.222-.171.015-.77.01-1.541.01-2.352m-6.376,25.4c0-.722.009-1.4-.006-2.087a1.163,1.163,0,0,0-.138-.512A14.847,14.847,0,0,0,43.3,48.867a34.778,34.778,0,0,0-5.083-4.211c-.734.551-1.462,1.077-2.169,1.632a22.967,22.967,0,0,0-4.78,4.841,3.11,3.11,0,0,0-.658,1.178,16.559,16.559,0,0,0-.03,2.3H34.4c0-.365-.009-.715,0-1.064a6.585,6.585,0,0,1,.068-.848,3.82,3.82,0,0,1,7.583.761c0,.382,0,.765,0,1.152Zm5.1-17.8c0-.77-.017-1.486.008-2.2.01-.3-.089-.358-.364-.357q-12.222.008-24.444,0h-.711c0,.829,0,1.611.01,2.392,0,.054.148.144.232.15.295.021.591.016.887.016l23.421,0h.961m2.553-1.344H62.5a.684.684,0,0,0,.03-.121,6.658,6.658,0,0,0-2.668-5.765c-.714-.544-1.4-1.124-2.091-1.7a2.429,2.429,0,0,1-.321-.385c-.857.7-1.645,1.334-2.417,1.988a.649.649,0,0,0-.2.426c-.021.523.007,1.047,0,1.57a2.831,2.831,0,0,1-1.13,2.3.409.409,0,0,0-.159.262c-.016.465-.007.931-.007,1.42m-30.612.007c0-.495.009-.96-.007-1.425a.417.417,0,0,0-.161-.262A2.7,2.7,0,0,1,21.678,32a9.062,9.062,0,0,1-.052-1.7,1.041,1.041,0,0,0-.491-1.057,16.4,16.4,0,0,1-1.376-1.118c-.23-.2-.44-.414-.6-.571-.948.754-1.874,1.469-2.777,2.213a6.611,6.611,0,0,0-2.425,5.715Zm39.558,5.2c0-.775-.012-1.512.006-2.249.007-.273-.071-.344-.345-.344-2.71.005-5.42,0-8.129-.009h-.45v2.6ZM22.9,38.105H13.984v2.56H22.9Zm7.691,9.806,3.665-3.448H30.594Zm11.6-3.454,3.658,3.429V44.457ZM39.529,54.626c0-.412.017-.775,0-1.137-.052-.933-.421-1.474-1.522-1.343a.968.968,0,0,0-1,.883,9.154,9.154,0,0,0-.062,1.426c0,.056.123.162.19.163.783.012,1.567.007,2.4.007m-2.6,10.1h2.607c-.024-.494-.024-.948-.073-1.4a1.133,1.133,0,0,0-1.242-1.045A1.1,1.1,0,0,0,37,63.306c-.055.459-.052.926-.075,1.418" transform="translate(0 0)" fill="#636363"/>
        <path id="Path_609820" data-name="Path 609820" d="M102.349,58.363a5.9,5.9,0,0,1,.336-.839,11.435,11.435,0,0,1,3.8-3.942,33.3,33.3,0,0,0,5.106-3.981,1.245,1.245,0,1,1,1.707,1.8,32.693,32.693,0,0,1-5.175,4.06,9.75,9.75,0,0,0-3.348,3.389,2.163,2.163,0,0,1-.49.555.969.969,0,0,1-1.2.113,1.335,1.335,0,0,1-.742-1.15" transform="translate(-74.306 -35.703)" fill="#636363"/>
        <path id="Path_609821" data-name="Path 609821" d="M27.8,170.068q0-.9,0-1.806a1.234,1.234,0,0,1,.61-1.142,1.211,1.211,0,0,1,1.348.036.993.993,0,0,1,.506.873c.018.772.021,1.545.023,2.317,0,.59.018,1.183-.022,1.771a1.232,1.232,0,0,1-1.209,1.148,1.31,1.31,0,0,1-1.251-1.252c-.017-.647,0-1.3,0-1.943Z" transform="translate(-20.184 -121.193)" fill="#636363"/>
        <path id="Path_609822" data-name="Path 609822" d="M27.806,207.179c0-.614,0-1.229,0-1.843a1.256,1.256,0,0,1,1.236-1.317,1.186,1.186,0,0,1,1.234,1.225c.028,1.307.022,2.616,0,3.924a1.327,1.327,0,0,1-1.2,1.225,1.384,1.384,0,0,1-1.258-1.267c-.021-.648,0-1.3,0-1.945Z" transform="translate(-20.185 -148.118)" fill="#636363"/>
        <path id="Path_609823" data-name="Path 609823" d="M244.665,170.089c0,.626,0,1.251,0,1.877a1.223,1.223,0,0,1-.765,1.148,1.046,1.046,0,0,1-1.261-.172,1.253,1.253,0,0,1-.418-.769q-.067-2.043-.018-4.09a1.167,1.167,0,0,1,1.223-1.159,1.285,1.285,0,0,1,1.24,1.289c0,.023,0,.045,0,.068v1.808Z" transform="translate(-175.825 -121.186)" fill="#636363"/>
        <path id="Path_609824" data-name="Path 609824" d="M242.187,207.227c0-.671-.032-1.344.008-2.014A1.2,1.2,0,0,1,244,204.2a1.13,1.13,0,0,1,.655,1.043c.011,1.275.019,2.55,0,3.824a1.358,1.358,0,0,1-1.168,1.327c-.492.142-1.255-.533-1.281-1.118-.03-.681-.007-1.364-.007-2.047h-.008" transform="translate(-175.82 -148.134)" fill="#636363"/>
        <path id="Path_609825" data-name="Path 609825" d="M67.638,207.278c0,.625.02,1.251-.006,1.875a1.4,1.4,0,0,1-1.146,1.264,1.367,1.367,0,0,1-1.293-1.135c-.039-1.362-.051-2.727-.008-4.089a1.23,1.23,0,0,1,2.451.007c.049.69.011,1.385.011,2.078h-.01" transform="translate(-47.305 -148.154)" fill="#636363"/>
        <path id="Path_609826" data-name="Path 609826" d="M65.123,170.076c0-.637-.022-1.275.006-1.91a1.258,1.258,0,0,1,1.218-1.234,1.24,1.24,0,0,1,1.239,1.208q.046,1.978-.011,3.957a1.249,1.249,0,0,1-1.22,1.156,1.3,1.3,0,0,1-1.224-1.165c-.021-.192-.034-.386-.036-.579,0-.478,0-.956,0-1.434h.03" transform="translate(-47.257 -121.193)" fill="#636363"/>
        <path id="Path_609827" data-name="Path 609827" d="M207.287,207.312c0,.614.02,1.228-.005,1.841a1.4,1.4,0,0,1-1.143,1.267,1.36,1.36,0,0,1-1.3-1.131c-.039-1.374-.047-2.75-.007-4.123a1.229,1.229,0,0,1,2.437-.035c.056.723.013,1.453.013,2.18" transform="translate(-148.692 -148.159)" fill="#636363"/>
        <path id="Path_609828" data-name="Path 609828" d="M204.823,170.079c0-.637-.023-1.275.006-1.91a1.258,1.258,0,0,1,1.216-1.236,1.24,1.24,0,0,1,1.241,1.206c.031,1.318.025,2.639-.01,3.958a1.249,1.249,0,0,1-1.219,1.158,1.268,1.268,0,0,1-1.218-1.163c-.037-.669-.008-1.341-.008-2.012h-.007" transform="translate(-148.696 -121.194)" fill="#636363"/>
      </g>
    </g>
  </g>
</svg>
