<svg xmlns="http://www.w3.org/2000/svg" xmlns:xlink="http://www.w3.org/1999/xlink" width="125" height="125" viewBox="0 0 125 125">
  <defs>
    <clipPath id="clip-path">
      <rect id="Rectangle_377986" data-name="Rectangle 377986" width="86.667" height="94.855" fill="#636363"/>
    </clipPath>
  </defs>
  <g id="Group_1073937" data-name="Group 1073937" transform="translate(-740.496 -1033.584)">
    <g id="Group_1072552" data-name="Group 1072552" transform="translate(354.496 -1112.416)">
      <path id="Path_608385" data-name="Path 608385" d="M62.5,0A62.5,62.5,0,1,1,0,62.5,62.5,62.5,0,0,1,62.5,0Z" transform="translate(386 2146)" fill="#fff"/>
    </g>
    <g id="Group_1072573" data-name="Group 1072573" transform="translate(759.663 1049.156)">
      <g id="Group_1072571" data-name="Group 1072571" clip-path="url(#clip-path)">
        <path id="Path_609889" data-name="Path 609889" d="M60.775,105.832c-.29.18-.537.329-.779.484A8.415,8.415,0,0,1,47.907,103.1a.837.837,0,0,0-.4-.335c-.82-.344-1.687-.6-2.469-1.01a7.844,7.844,0,0,1-3.376-3.587.472.472,0,0,0-.5-.306A8.716,8.716,0,0,1,32.8,91.9a.741.741,0,0,1-.074-.251c.046-.747-.457-1.009-1.03-1.308a8.144,8.144,0,0,1-4.577-6.7,8.487,8.487,0,0,1,3.494-7.729c.113-.09.229-.176.393-.3-.153-.135-.273-.253-.4-.354a8.521,8.521,0,0,1-3.486-6.211,8.14,8.14,0,0,1,4.212-8.008,2.886,2.886,0,0,0,1.535-1.793,8.532,8.532,0,0,1,8.295-5.94.446.446,0,0,0,.477-.273A8.517,8.517,0,0,1,47.3,48.474a.948.948,0,0,0,.668-.5,8.429,8.429,0,0,1,12.381-2.9c.138.1.283.185.43.281a5,5,0,0,1,.18-.931,1.512,1.512,0,0,1,1.5-.948q1.959-.03,3.917,0a1.547,1.547,0,0,1,1.535,1.036c.46,1.183.952,2.356,1.372,3.552a1.467,1.467,0,0,0,1,.946c1.291.47,2.583.938,3.855,1.455.634.257,1.221.63,1.841.925a.708.708,0,0,0,.513.043c1.293-.55,2.577-1.119,3.859-1.694a1.546,1.546,0,0,1,2.069.345q2.691,2.685,5.366,5.384c.072.073.139.151.209.225a1.619,1.619,0,0,1,.34,2.089c-.631,1.2-1.153,2.459-1.7,3.7a.719.719,0,0,0,.061.552,24.6,24.6,0,0,1,2.344,5.507,1.4,1.4,0,0,0,.987,1.124c1.08.367,2.138.8,3.2,1.208,1.2.459,1.447.821,1.447,2.088q0,3.73,0,7.459a1.594,1.594,0,0,1-1.193,1.775q-1.9.754-3.811,1.463a.741.741,0,0,0-.523.575,24.018,24.018,0,0,1-2.494,5.962.657.657,0,0,0-.012.509c.615,1.4,1.266,2.793,1.865,4.2a1.172,1.172,0,0,1-.025.822,2.758,2.758,0,0,1-.6.852q-2.7,2.71-5.419,5.395a1.626,1.626,0,0,1-2.246.4c-1.2-.539-2.414-1.056-3.615-1.6a.714.714,0,0,0-.733.034,22.991,22.991,0,0,1-5.362,2.273,1.729,1.729,0,0,0-1.306,1.208c-.375,1.12-.843,2.209-1.261,3.314a1.627,1.627,0,0,1-1.677,1.094c-1.174.007-2.348,0-3.521,0-1.29,0-1.841-.5-1.976-1.872M85.233,57.309c-1.422-1.445-2.8-2.843-4.171-4.244a.465.465,0,0,0-.612-.143c-1.124.531-2.263,1.031-3.392,1.551a1.916,1.916,0,0,1-1.918-.12,24.138,24.138,0,0,0-6.8-2.787,1.727,1.727,0,0,1-1.313-1.1c-.387-.993-.809-1.973-1.171-2.974-.416-1.152-.281-.922-1.424-.954-.442-.012-.567.129-.566.574q.02,6.054-.008,12.108c0,.3.064.434.386.5.988.2,1.983.4,2.946.692a15.935,15.935,0,0,1,10.8,18.719,15.761,15.761,0,0,1-8.217,10.579,18.758,18.758,0,0,1-5.542,1.756c-.288.052-.383.168-.382.461.016,3.875.018,7.75.03,11.625,0,1.046.015,1.022,1.056,1.086a.684.684,0,0,0,.793-.548c.415-1.137.874-2.259,1.308-3.39a1.589,1.589,0,0,1,1.151-1.051,25.262,25.262,0,0,0,7.124-2.912,1.589,1.589,0,0,1,1.515-.119c1.166.51,2.335,1.012,3.485,1.556a.587.587,0,0,0,.8-.111q1.949-1.965,3.936-3.893a.408.408,0,0,0,.083-.563c-.537-1.167-1.042-2.349-1.577-3.517a1.651,1.651,0,0,1,.1-1.663,25.8,25.8,0,0,0,2.926-7.008,1.6,1.6,0,0,1,1.065-1.175c1.193-.445,2.385-.89,3.568-1.358.17-.068.412-.263.414-.4.027-1.886.015-3.772.019-5.658a.5.5,0,0,0-.4-.534c-1.2-.432-2.381-.9-3.573-1.344a1.656,1.656,0,0,1-1.1-1.2,25.3,25.3,0,0,0-2.87-6.89,1.788,1.788,0,0,1-.1-1.907c.151-.283.264-.585.4-.879.422-.944.845-1.888,1.233-2.755M46.921,99.388c.063-.1.1-.13.106-.168a2.7,2.7,0,0,0,.026-.349,7.487,7.487,0,0,1,1.358-4.145,4.872,4.872,0,0,1,1.069-1.2,1.484,1.484,0,0,1,2.252,1.086,2.065,2.065,0,0,1-.592,1.459,5.161,5.161,0,0,0-.823,5.044,5.426,5.426,0,0,0,7.927,2.777,5.324,5.324,0,0,0,2.6-4.83c.009-5.411.021-10.822-.018-16.232a6.331,6.331,0,0,0-.462-2.471,5.038,5.038,0,0,0-4.935-3.208,5.219,5.219,0,0,0-4.655,2.56c-.1.158-.2.324-.32.472a1.507,1.507,0,0,1-1.678.426,1.279,1.279,0,0,1-.913-1.3,3.021,3.021,0,0,1,.308-1.072,9.085,9.085,0,0,1,.679-1.045c-.158-.01-.272-.022-.385-.022q-6.492,0-12.984,0a3.722,3.722,0,0,0-.657.049,5.7,5.7,0,0,0-3.672,8.824,15.669,15.669,0,0,0,1.5,1.582c.173-.385.291-.615.382-.855a8.051,8.051,0,0,1,2.525-3.419,1.587,1.587,0,0,1,1.909.133,1.348,1.348,0,0,1,.145,1.928c-.2.249-.447.463-.67.7a5.019,5.019,0,0,0,.628,7.588,5.477,5.477,0,0,0,4.536.979,1.52,1.52,0,0,1,1.873,1.168c.029.1.052.2.084.295a5.453,5.453,0,0,0,2.853,3.254M48.85,74a13.822,13.822,0,0,1-.86-1.416,1.444,1.444,0,0,1,.584-1.938,1.525,1.525,0,0,1,2,.524c.145.2.276.414.423.615a5.241,5.241,0,0,0,5.949,2.054,5.331,5.331,0,0,0,3.9-5.412c0-5.059.007-10.118-.013-15.178a11.591,11.591,0,0,0-.212-2.744,5.393,5.393,0,0,0-7.793-3.384,5.279,5.279,0,0,0-2.547,6.31A17.974,17.974,0,0,0,51.5,55.6a1.348,1.348,0,0,1,.058,1.488,1.379,1.379,0,0,1-1.627.749,2.677,2.677,0,0,1-1.1-.82,7.691,7.691,0,0,1-1.781-4.708,3.609,3.609,0,0,0-.075-.5.775.775,0,0,0-.183.032,5.315,5.315,0,0,0-2.745,3.317,1.613,1.613,0,0,1-2.057,1.328,5.651,5.651,0,0,0-2.57.067A5.168,5.168,0,0,0,35.784,63.2a7.12,7.12,0,0,0,1.733,2.45,1.32,1.32,0,0,1-.039,2.022,1.558,1.558,0,0,1-2.039.05,8.112,8.112,0,0,1-2.469-3.51c-.062-.173-.153-.336-.251-.547a4.337,4.337,0,0,0-.436.277,5.4,5.4,0,0,0-2.036,5.495,5.7,5.7,0,0,0,5.3,4.573q6.425,0,12.85-.007h.453M60.5,75.7l-.176-.167a.329.329,0,0,0,.041.12,1.844,1.844,0,0,0,.223.21,8.5,8.5,0,0,1,3.267,6.97c.014,1.667.01,3.335.013,5,0,.17,0,.341,0,.511a12.834,12.834,0,0,0,9.2-20.062,12.553,12.553,0,0,0-9.214-5.546c0,.214,0,.342,0,.47,0,1.74.021,3.481,0,5.221a8.578,8.578,0,0,1-1.836,5.463c-.493.614-1.012,1.206-1.52,1.809" transform="translate(-17.543 -28.154)" fill="#636363"/>
        <path id="Path_609890" data-name="Path 609890" d="M47.48,4.548c-.686-.706-1.291-1.319-1.886-1.942A1.526,1.526,0,0,1,45.18,1a1.453,1.453,0,0,1,2.066-.82,2.934,2.934,0,0,1,.56.42q2.563,2.438,5.115,4.886a3.965,3.965,0,0,1,.385.422,1.354,1.354,0,0,1-.217,2.048c-.651.494-1.359.915-2.054,1.349-1.552.97-3.1,1.946-4.672,2.884a1.545,1.545,0,0,1-2.3-1.146A1.424,1.424,0,0,1,44.8,9.685c.939-.623,1.9-1.215,2.85-1.821.084-.054.163-.115.3-.213a1.523,1.523,0,0,0-.246-.056c-2.244-.033-4.488-.116-6.731-.076a30.8,30.8,0,0,0-3.8.389,38.319,38.319,0,0,0-9.2,2.525A40.416,40.416,0,0,0,5.81,32.855,41.769,41.769,0,0,0,3.58,40.9a40.923,40.923,0,0,0-.408,7.335c0,.2.018.409.017.614A36.318,36.318,0,0,0,7.326,65.345,39.1,39.1,0,0,0,18.388,78.854c1.379,1.081,2.891,1.994,4.342,2.982.218.148.453.273.657.438a1.52,1.52,0,0,1,.371,2.06,1.679,1.679,0,0,1-2.111.362A43.436,43.436,0,0,1,3.714,64.807,42.414,42.414,0,0,1,1.4,58.158a41.123,41.123,0,0,1-1.34-8.375,42.286,42.286,0,0,1,.5-9.176,43.4,43.4,0,0,1,2.719-9.578A43.363,43.363,0,0,1,25.6,8.192c1.784-.8,3.666-1.38,5.519-2.011a34.828,34.828,0,0,1,8.438-1.608c2.143-.175,4.308-.08,6.463-.094.46,0,.921.042,1.464.069" transform="translate(0 0)" fill="#636363"/>
        <path id="Path_609891" data-name="Path 609891" d="M99.5,105.643c2.2,0,4.394.048,6.588-.01a37.582,37.582,0,0,0,12.409-2.568,39.335,39.335,0,0,0,11.526-6.789A39.91,39.91,0,0,0,141.7,79.914a42.494,42.494,0,0,0,2.085-7.679,38.986,38.986,0,0,0,.389-7.293c0-.088-.007-.175,0-.263A35.984,35.984,0,0,0,140.277,48.3,39.116,39.116,0,0,0,128.92,34.256c-1.4-1.1-2.944-2.019-4.423-3.02-.145-.1-.3-.181-.442-.286a1.56,1.56,0,0,1-.475-2.116,1.642,1.642,0,0,1,2.135-.373,44.71,44.71,0,0,1,10.689,8.7,43.074,43.074,0,0,1,7.43,11.632A45.38,45.38,0,0,1,145.952,55a40.618,40.618,0,0,1,1.361,12.408,46.226,46.226,0,0,1-.653,5.831,42.089,42.089,0,0,1-8.483,18.917,43.317,43.317,0,0,1-21.856,14.816,40.9,40.9,0,0,1-8.312,1.593c-2.273.191-4.571.079-6.858.092-.408,0-.817-.039-1.339-.066.133.155.194.238.267.309.575.564,1.179,1.1,1.723,1.693a1.443,1.443,0,0,1-.476,2.4,1.215,1.215,0,0,1-1.218-.032,2.875,2.875,0,0,1-.529-.389c-1.759-1.679-3.519-3.355-5.263-5.049a1.468,1.468,0,0,1,.231-2.559c2.161-1.377,4.348-2.712,6.536-4.047a1.4,1.4,0,0,1,1.9.474,1.358,1.358,0,0,1-.468,2.1c-.874.613-1.8,1.152-2.7,1.724-.119.075-.233.158-.35.237q.019.1.039.193" transform="translate(-60.686 -18.286)" fill="#636363"/>
        <path id="Path_609892" data-name="Path 609892" d="M75.554,161.049a8.532,8.532,0,0,1-8.159-5.833,4.957,4.957,0,0,1-.316-1.174,1.51,1.51,0,0,1,1.3-1.65,1.414,1.414,0,0,1,1.674,1.184,5.489,5.489,0,0,0,2.01,3.3,4.164,4.164,0,0,0,3,1.031,2.014,2.014,0,0,1,.439,0,4.527,4.527,0,0,0,3.492-1.241,1.662,1.662,0,0,1,1.31-.5,1.372,1.372,0,0,1,1.24,1.019,1.429,1.429,0,0,1-.4,1.562,8.082,8.082,0,0,1-4.253,2.136c-.505.083-1.017.129-1.334.168" transform="translate(-43.454 -98.713)" fill="#636363"/>
        <path id="Path_609893" data-name="Path 609893" d="M75.26,92.369a8.511,8.511,0,0,1,5.794,2.261,1.5,1.5,0,0,1,.463,1.589,1.465,1.465,0,0,1-2.3.742,4.886,4.886,0,0,0-.762-.592,4.788,4.788,0,0,0-2.749-.877,5.665,5.665,0,0,0-3.163.675,5.431,5.431,0,0,0-2.388,3.139c-.052.182-.1.366-.157.547a1.475,1.475,0,0,1-1.848,1.112,1.551,1.551,0,0,1-1.1-1.884,8.54,8.54,0,0,1,7.46-6.643c.277-.027.554-.052.746-.07" transform="translate(-43.41 -59.841)" fill="#636363"/>
      </g>
    </g>
  </g>
</svg>
