<svg xmlns="http://www.w3.org/2000/svg" xmlns:xlink="http://www.w3.org/1999/xlink" width="190" height="161" viewBox="0 0 190 161">
  <defs>
    <clipPath id="clip-path">
      <rect id="Rectangle_378286" data-name="Rectangle 378286" width="190" height="161" transform="translate(-0.24)" fill="#fff" stroke="#707070" stroke-width="1"/>
    </clipPath>
    <clipPath id="clip-path-2">
      <rect id="Rectangle_378287" data-name="Rectangle 378287" width="151.837" height="136.896" fill="#b4997f" stroke="#b4997f" stroke-width="1"/>
    </clipPath>
  </defs>
  <g id="Mask_Group_154400" data-name="Mask Group 154400" transform="translate(0.24)" clip-path="url(#clip-path)">
    <g id="Group_1073550" data-name="Group 1073550" transform="translate(19.001 12)">
      <g id="Group_1073549" data-name="Group 1073549" clip-path="url(#clip-path-2)">
        <path id="Path_610573" data-name="Path 610573" d="M77.312,119.109c1.008-.373,1.914-.749,2.845-1.045,3.023-.967,6.021-2.034,9.09-2.821,3.865-.99,7.767-1.877,11.695-2.563a88.05,88.05,0,0,1,16.4-.887,76.409,76.409,0,0,1,11.5,1.2,58.217,58.217,0,0,1,7.7,1.762c3.587,1.111,7.1,2.474,10.639,3.73l1.437.511v-1.052q0-30.169,0-60.337,0-10.848,0-21.7c0-1.247.469-1.95,1.37-2.074a1.538,1.538,0,0,1,1.787,1.228,3.865,3.865,0,0,1,.07.842q-.011,44.242-.028,88.482c0,3.521.009,7.042.007,10.564,0,1.592-.858,2.246-2.381,1.814a143.2,143.2,0,0,0-17.289-3.738c-2.715-.419-5.473-.552-8.2-.907-5.514-.718-11.049-.406-16.579-.459a76.527,76.527,0,0,0-11.738.934c-4.6.668-9.165,1.625-13.728,2.54-1.837.369-3.625.979-5.447,1.431a3.128,3.128,0,0,1-1.425.035c-3.884-.925-7.74-1.983-11.644-2.812-3.011-.639-6.068-1.1-9.125-1.47a124.048,124.048,0,0,0-17.486-.68c-2.259.046-4.528.015-6.775.218a140.541,140.541,0,0,0-20.074,3.027c-2.444.583-4.885,1.183-7.316,1.817-1.7.444-2.542-.115-2.571-1.9C0,132.1.013,129.409.012,126.716Q0,82.084,0,37.452c0-.78.026-1.56.023-2.34a1.924,1.924,0,0,1,1.155-1.865,72.436,72.436,0,0,1,10.467-4.2c1.408-.45,2.819-.894,4.32-1.369V26.9q0-12.3,0-24.606c0-1.878.661-2.492,2.524-2.248,3.148.413,6.316.733,9.43,1.331a78.578,78.578,0,0,1,27.5,10.365A67.5,67.5,0,0,1,75.714,31.783c.653.981.754.939,1.826.535,2.881-1.085,5.763-2.178,8.694-3.116,2.233-.715,4.537-1.213,6.817-1.775a1.585,1.585,0,0,1,1.927,1.223,1.521,1.521,0,0,1-1.165,1.762c-1.7.465-3.448.783-5.117,1.34-3.588,1.2-7.137,2.507-10.7,3.761a1.008,1.008,0,0,0-.706,1.133q.027,40.626.028,81.253v1.21m-3.267-3.36.17-.083v-.561q0-39.313.014-78.629a3.977,3.977,0,0,0-.637-2.194A61.72,61.72,0,0,0,53.719,14.469,70.368,70.368,0,0,0,34.84,6.2c-2.261-.624-4.552-1.162-6.855-1.606-2.33-.449-4.691-.737-7.039-1.086-.547-.082-1.1-.122-1.744-.191v.948Q19.2,17.7,19.191,31.134q0,27.44.006,54.878c0,.548.107.752.706.826,3.449.433,6.918.787,10.33,1.431A72.744,72.744,0,0,1,50.7,95.347a63.69,63.69,0,0,1,21.875,18.448c.487.654.98,1.3,1.471,1.954M3.261,119.058c.87-.367,1.584-.725,2.333-.977,3.628-1.218,7.244-2.474,10.9-3.59a75.6,75.6,0,0,1,12.8-2.5,38.089,38.089,0,0,1,4.8-.175c3.765.014,7.539-.075,11.29.171a76,76,0,0,1,8.435,1.276,99.069,99.069,0,0,1,17.111,4.714,3.789,3.789,0,0,0,.606.118c0-.118.017-.175,0-.208-.11-.18-.221-.362-.347-.531A64.89,64.89,0,0,0,45.938,96.833a78.786,78.786,0,0,0-19.332-5.819c-2.915-.5-5.873-.753-8.809-1.136-1.491-.195-1.833-.614-1.833-2.132V31a80.722,80.722,0,0,0-12.3,4.554c-.458.216-.462.587-.462,1q.008,40.869.01,81.738c0,.205.026.411.05.764m145.363,14.153c0-1.095.026-2.06-.018-3.021a.907.907,0,0,0-.4-.672c-.982-.449-1.989-.847-3-1.233a70.927,70.927,0,0,0-13.292-3.666c-2.177-.375-4.357-.776-6.553-.99a120.763,120.763,0,0,0-17.084-.3,94.771,94.771,0,0,0-13.586,1.643c-3.736.713-7.427,1.681-11.111,2.642-1.972.515-3.883,1.26-5.827,1.888a.591.591,0,0,0-.471.722c.052.706.019,1.417.021,2.126,0,.765.04.783.754.583,1.627-.457,3.243-.974,4.893-1.334a103.632,103.632,0,0,1,20.383-2.752c.094,0,.188-.009.282-.019a73.768,73.768,0,0,1,13.26-.4c3.146.22,6.3.3,9.443.6,2.76.262,5.513.663,8.245,1.141,3.262.572,6.5,1.271,9.745,1.956,1.4.295,2.772.694,4.312,1.086m-74.408-.147c0-1.06-.015-1.977.007-2.893a.564.564,0,0,0-.462-.655c-1.812-.582-3.6-1.254-5.421-1.789a94.434,94.434,0,0,0-13.259-3c-2.886-.409-5.764-.93-8.664-1.161a103.471,103.471,0,0,0-22.21.34c-2.166.294-4.332.611-6.475,1.035a37.674,37.674,0,0,0-4.684,1.249c-3.184,1.069-6.337,2.229-9.5,3.365-.149.053-.358.229-.361.353-.029,1.054-.017,2.11-.017,3.241.372-.049.6-.062.825-.112,2.108-.47,4.207-.982,6.323-1.412,3.042-.618,6.08-1.283,9.148-1.733,3.183-.469,6.4-.734,9.6-1.037,2.481-.235,4.967-.44,7.456-.571a120.1,120.1,0,0,1,17.133.633,66.531,66.531,0,0,1,7.652,1.249c3.886.815,7.742,1.769,11.611,2.66.383.088.775.142,1.3.235M3.227,126.191a3.072,3.072,0,0,0,.488-.1,73.122,73.122,0,0,1,16.012-4.65c3.706-.638,7.447-1.168,11.195-1.44a99.71,99.71,0,0,1,26.9,1.925,122.255,122.255,0,0,1,15.666,4.149,5.16,5.16,0,0,0,.732.128c0-.99-.042-1.887.014-2.777a.994.994,0,0,0-.745-1.113c-.788-.307-1.553-.681-2.352-.951-2.8-.95-5.584-2-8.439-2.764-3.582-.961-7.209-1.789-10.855-2.471a76.35,76.35,0,0,0-9.045-.965,86.349,86.349,0,0,0-19.144.905,70.007,70.007,0,0,0-10.336,2.509,83.4,83.4,0,0,0-9.586,3.736c-.2.094-.47.339-.478.524-.045,1.1-.022,2.2-.022,3.359m145.387.043a12.432,12.432,0,0,1,.016-1.895c.231-1.4-.376-2.011-1.648-2.575a77.789,77.789,0,0,0-15.039-4.955,72.422,72.422,0,0,0-12.791-1.628,106.174,106.174,0,0,0-15.93.5,88.893,88.893,0,0,0-15.491,3.2c-3.011.906-5.966,2.009-8.925,3.084-1.731.629-1.487.33-1.5,2.194,0,.691,0,1.382,0,2.136,1.806-.568,3.449-1.1,5.1-1.6a114.72,114.72,0,0,1,14.073-3.263,118.347,118.347,0,0,1,14.449-1.557,89.551,89.551,0,0,1,25.622,2.5c3.391.843,6.7,2.039,10.034,3.09.64.2,1.258.478,2.027.774" transform="translate(0 0)" fill="#b4997f" stroke="#b4997f" stroke-width="1"/>
        <path id="Path_610574" data-name="Path 610574" d="M198.489,49.977c1.272,1.483,2.5,2.914,3.725,4.339q4.646,5.388,9.295,10.772a5.2,5.2,0,0,1,1.2,5.124,5.059,5.059,0,0,1-8.156,2.387,40.848,40.848,0,0,1-3.51-3.878q-5-5.78-9.981-11.583c-.107-.124-.212-.251-.354-.42-1.49,1.271-2.941,2.5-4.386,3.742-.8.691-1.616,1.377-2.384,2.109a.9.9,0,0,0-.225.759,5.357,5.357,0,0,1-3.87,6.852,5.081,5.081,0,0,1-5.2-1.771c-2.276-2.585-4.5-5.214-6.754-7.821-1.9-2.2-3.767-4.417-5.711-6.571a5.575,5.575,0,0,1-1.364-5.435,5.112,5.112,0,0,1,6.838-3.361,1.468,1.468,0,0,0,1.879-.28q10.384-9.029,20.837-17.979c.252-.217.562-.409.31-.811-1.269-2.028.4-5.4,2.668-6.445a4.771,4.771,0,0,1,5.979,1.077c3.253,3.642,6.422,7.359,9.624,11.046,1.129,1.3,2.271,2.591,3.376,3.912a5.091,5.091,0,0,1,1.511,3.776,5.664,5.664,0,0,1-6.211,5.135c-.474-.076-.9-.421-1.375-.52a2.019,2.019,0,0,0-1.086.12,3.088,3.088,0,0,0-.766.617l-5.91,5.107m-5.853-20.849-21.79,18.793,10.791,12.471c.483-.425.885-.787,1.295-1.14q9.862-8.5,19.723-17c.791-.683.787-.71.1-1.5q-4.231-4.9-8.471-9.8c-.522-.6-1.069-1.182-1.651-1.823m3.1-6.735a2.054,2.054,0,0,0-1.809,3.319c.384.479.766.959,1.166,1.423,2.113,2.445,4.237,4.881,6.347,7.328,1.6,1.858,3.177,3.739,4.786,5.59,1.282,1.475,2.595,1.827,3.538.926,1.03-.983,1.363-1.994-.272-3.789-.731-.8-1.435-1.627-2.145-2.449q-4.925-5.7-9.846-11.413c-.492-.571-1.014-1.077-1.766-.936m-29.848,25.7a1.979,1.979,0,0,0-2.047,1.209,1.679,1.679,0,0,0,.3,2.073c.379.51.762,1.02,1.178,1.5Q170.13,58.446,174.953,64a29.305,29.305,0,0,0,2.433,2.655,1.966,1.966,0,0,0,3.268-1.219,2.235,2.235,0,0,0-.6-2.066q-4.174-4.853-8.35-9.7c-1.339-1.554-2.674-3.111-4.031-4.65-.466-.529-.951-1.085-1.776-.921m27.171,6.6c2.87,3.321,5.673,6.568,8.481,9.811,1.621,1.871,3.224,3.757,4.886,5.59a1.962,1.962,0,0,0,3.037-2.446,8.939,8.939,0,0,0-.759-1.02q-3.917-4.56-7.848-9.109-2.148-2.49-4.306-4.973c-.2-.235-.4-.608-.794-.261-.9.791-1.785,1.591-2.7,2.407" transform="translate(-69.503 -8.272)" fill="#b4997f" stroke="#b4997f" stroke-width="1"/>
        <path id="Path_610575" data-name="Path 610575" d="M162.9,137.952c.068-.707.107-1.363.2-2.013a5.4,5.4,0,0,1,4.851-4.671c.935-.087,1.881-.072,2.823-.073,5.534,0,11.07.1,16.6-.027a5.963,5.963,0,0,1,6.275,6.357,2.175,2.175,0,0,0,.016.285,14.342,14.342,0,0,1,2.536.661,5.9,5.9,0,0,1,3.6,5.4c.048.967.06,1.937.056,2.9a1.78,1.78,0,0,1-1.841,1.973c-.21.019-.423.011-.635.011q-19.075,0-38.151,0a4.394,4.394,0,0,1-1.116-.112,1.623,1.623,0,0,1-1.369-1.791,27.6,27.6,0,0,1,.064-3.608,6.142,6.142,0,0,1,6.089-5.29m15.432,7.426c5.581,0,11.162.016,16.743-.01,1.824-.009,1.551.366,1.533-1.633a2.5,2.5,0,0,0-2.173-2.493,8.889,8.889,0,0,0-1.406-.1q-14.589-.012-29.178-.007a11.256,11.256,0,0,0-1.618.1,2.376,2.376,0,0,0-2.117,1.98c-.1.456-.069.937-.119,1.4-.061.568.135.769.743.767,5.864-.023,11.727-.014,17.591-.011m-12.062-7.4h23.483a1.183,1.183,0,0,0,.42-.016c.126-.052.306-.179.314-.285.117-1.447-.492-3.152-2.363-3.129q-9.572.116-19.146,0c-2.024-.023-3.017,1.284-2.707,3.427" transform="translate(-67.821 -56.764)" fill="#b4997f" stroke="#b4997f" stroke-width="1"/>
        <path id="Path_610576" data-name="Path 610576" d="M71.733,105.7c0,1.984-.035,3.968.01,5.951.043,1.882-1.731,2.088-2.9,1.432-2.252-1.264-4.546-2.457-6.855-3.615a20.151,20.151,0,0,0-2.71-1,1.754,1.754,0,0,1-1.357-1.764q-.037-4.287-.043-8.573c0-1.228-.015-2.457.022-3.684.045-1.5.862-2.089,2.285-1.66a38.7,38.7,0,0,1,10.455,5.025,2.241,2.241,0,0,1,1.095,2.005c-.018,1.96-.006,3.92-.006,5.881h.005M61.071,96.38c0,3.091-.011,6.013.023,8.935,0,.206.286.494.508.6,2.146,1.007,4.306,1.984,6.464,2.967.138.063.284.111.442.171a1.133,1.133,0,0,0,.074-.251c0-2.643-.02-5.287,0-7.93a1.11,1.11,0,0,0-.634-1.08c-1.255-.694-2.492-1.423-3.773-2.067-.977-.492-2.009-.874-3.1-1.342" transform="translate(-25.045 -40.098)" fill="#b4997f" stroke="#b4997f" stroke-width="1"/>
        <path id="Path_610577" data-name="Path 610577" d="M59.483,52.063c1.356.373,2.726.706,4.067,1.126A65.7,65.7,0,0,1,84.706,64.676c1.938,1.532,3.738,3.239,5.6,4.869a3.919,3.919,0,0,1,.44.46,1.59,1.59,0,0,1-.087,2.232,1.542,1.542,0,0,1-2.2-.132A68.655,68.655,0,0,0,64.323,56.751c-1.409-.51-2.889-.821-4.329-1.249a6.835,6.835,0,0,1-1.369-.549,1.467,1.467,0,0,1-.6-1.738,1.619,1.619,0,0,1,1.458-1.152" transform="translate(-25.078 -22.531)" fill="#b4997f" stroke="#b4997f" stroke-width="1"/>
        <path id="Path_610578" data-name="Path 610578" d="M57.974,74.976A1.559,1.559,0,0,1,60,73.527a50.98,50.98,0,0,1,11.143,3.941A73.51,73.51,0,0,1,90,90.524a8.454,8.454,0,0,1,.874.924,1.438,1.438,0,0,1,.032,1.832,1.593,1.593,0,0,1-1.787.469,6.377,6.377,0,0,1-1.348-1,68.264,68.264,0,0,0-21.7-14.021c-2.2-.861-4.512-1.454-6.778-2.154a1.556,1.556,0,0,1-1.317-1.6" transform="translate(-25.089 -31.799)" fill="#b4997f" stroke="#b4997f" stroke-width="1"/>
        <path id="Path_610579" data-name="Path 610579" d="M98.246,54.505c-.627.047-1.062-.479-1.561-.91-2.4-2.082-4.757-4.225-7.241-6.207a47.6,47.6,0,0,0-9.6-5.784,6.239,6.239,0,0,1-.87-.465c-.9-.608-1.092-1.2-.67-1.939a1.5,1.5,0,0,1,2.274-.758A64.137,64.137,0,0,1,99.059,51.517a6.031,6.031,0,0,1,.526.572,1.469,1.469,0,0,1-1.339,2.416" transform="translate(-33.795 -16.527)" fill="#b4997f" stroke="#b4997f" stroke-width="1"/>
        <path id="Path_610580" data-name="Path 610580" d="M90.938,131.982a1.5,1.5,0,0,1,2.368-1.4,49.831,49.831,0,0,1,9.513,7.19c.756.71,1.491,1.446,2.195,2.208a1.446,1.446,0,0,1,.094,2.048,1.6,1.6,0,0,1-2.064.239,5.448,5.448,0,0,1-.858-.733,50.751,50.751,0,0,0-10.405-8.219c-.535-.307-.969-.7-.842-1.336" transform="translate(-39.345 -56.395)" fill="#b4997f" stroke="#b4997f" stroke-width="1"/>
        <path id="Path_610581" data-name="Path 610581" d="M92.5,108.964a9.149,9.149,0,0,1,1.378.673c2.318,1.656,4.646,3.3,6.9,5.039,1.192.918,2.249,2.013,3.357,3.038a9.187,9.187,0,0,1,.825.875,1.566,1.566,0,0,1,.157,2.18,1.669,1.669,0,0,1-2.311.032c-.876-.751-1.671-1.6-2.516-2.385a45.459,45.459,0,0,0-8.467-6.354,1.616,1.616,0,0,1-.153-2.756,4.731,4.731,0,0,1,.829-.343" transform="translate(-39.366 -47.155)" fill="#b4997f" stroke="#b4997f" stroke-width="1"/>
        <path id="Path_610582" data-name="Path 610582" d="M62.563,32.844c-.01,1.237-.556,1.736-1.694,1.576a9.475,9.475,0,0,1-1.849-.4,1.558,1.558,0,0,1,.767-3,13.408,13.408,0,0,1,1.829.488,1.135,1.135,0,0,1,.948,1.339" transform="translate(-25.098 -13.413)" fill="#b4997f" stroke="#b4997f" stroke-width="1"/>
      </g>
    </g>
  </g>
</svg>
