<svg xmlns="http://www.w3.org/2000/svg" xmlns:xlink="http://www.w3.org/1999/xlink" width="120" height="120" viewBox="0 0 120 120">
  <defs>
    <clipPath id="clip-path">
      <rect id="Rectangle_377942" data-name="Rectangle 377942" width="59.522" height="78.823" fill="#636363"/>
    </clipPath>
  </defs>
  <g id="Group_1073933" data-name="Group 1073933" transform="translate(-180 -2527)">
    <g id="Group_1072529" data-name="Group 1072529" transform="translate(-89 1569)">
      <path id="Path_608974" data-name="Path 608974" d="M60,0A60,60,0,1,1,0,60,60,60,0,0,1,60,0Z" transform="translate(269 958)" fill="#ffe7af"/>
    </g>
    <rect id="Rectangle_378462" data-name="Rectangle 378462" width="79" height="79" transform="translate(201 2548)" fill="none"/>
    <g id="Group_1072533" data-name="Group 1072533" transform="translate(210 2548)">
      <g id="Group_1072532" data-name="Group 1072532" clip-path="url(#clip-path)">
        <path id="Path_609829" data-name="Path 609829" d="M32.409,61.867h1.174c.4,0,.8,0,1.2,0a1.841,1.841,0,0,1,1.97,1.867c.028.634.022,1.272-.007,1.906a1.738,1.738,0,0,1-1.633,1.736c-.75.069-1.508.046-2.262.062-.126,0-.253,0-.423,0,0,.424,0,.808,0,1.193q-.016,2.648-.034,5.3a1.559,1.559,0,0,1-1.061,1.519,2.136,2.136,0,0,1-.756.153c-.648.016-1.3.025-1.946-.019a1.738,1.738,0,0,1-1.72-1.788c-.025-2-.022-4-.011-6,0-.266-.055-.357-.322-.352q-.885.016-1.77-.008a1.905,1.905,0,0,1-1.8-.968,2.332,2.332,0,0,1-.228-.909c-.036-.575-.018-1.153-.012-1.73a1.845,1.845,0,0,1,1.953-1.956c.719-.014,1.437,0,2.2,0,0-.571,0-1.119,0-1.667.007-.764.01-.767-.686-1.036a13.333,13.333,0,0,1-6.177-5.039A3.3,3.3,0,0,0,18.766,53a19.707,19.707,0,0,1-6.321-5.024.449.449,0,0,0-.594-.181c-1.465.584-2.981,1.061-4.4,1.744a8.63,8.63,0,0,0-4.779,5.6,9.847,9.847,0,0,0-.371,2.574c-.032,5.9-.017,11.8-.016,17.694a1.024,1.024,0,0,0,1.145,1.149H10.1V75.414q0-7.434,0-14.868c0-.176.012-.353.029-.529a1.022,1.022,0,0,1,.755-.989,1.007,1.007,0,0,1,1.3.495,2.427,2.427,0,0,1,.288,1.064c.018,5.2.012,10.407.012,15.61v.362h.429c4.651,0,9.3,0,13.952.01a1.582,1.582,0,0,1,.919.253,1.072,1.072,0,0,1-.281,1.844,2.06,2.06,0,0,1-.79.148q-11.6.011-23.194.005A3.209,3.209,0,0,1,.209,76.579a4.793,4.793,0,0,1-.181-1.286C.016,69.36-.035,63.426.04,57.493a10.649,10.649,0,0,1,4.485-8.752,1.959,1.959,0,0,0,.83-1.381c.166-1.054.427-2.094.636-3.141.454-2.27.9-4.541,1.349-6.811.438-2.2.884-4.4,1.321-6.6q.956-4.8,1.905-9.61c.425-2.131.838-4.264,1.3-6.388a18.505,18.505,0,0,1,1.754-4.525,19.848,19.848,0,0,1,5.26-6.57A16.815,16.815,0,0,1,27.655.127,17.426,17.426,0,0,1,38.833,2.462,18.311,18.311,0,0,1,45.293,9.2a19.925,19.925,0,0,1,2.5,6.329c.317,1.709.679,3.41,1.02,5.114q.66,3.3,1.32,6.6.8,3.989,1.616,7.977.863,4.283,1.719,8.567.388,1.951.748,3.908a1.257,1.257,0,0,0,.546.856A11.022,11.022,0,0,1,58.8,53.792a11.558,11.558,0,0,1,.709,3.938c.026,2.637.014,5.274.007,7.911a1.14,1.14,0,0,1-1.535,1.181.951.951,0,0,1-.728-.967c-.015-1.9-.012-3.79-.025-5.685-.007-1.035.039-2.076-.056-3.1a8.887,8.887,0,0,0-5.941-7.886c-1.134-.461-2.288-.874-3.425-1.329a.585.585,0,0,0-.8.195,19.86,19.86,0,0,1-6.772,5.234,1.161,1.161,0,0,0-.435.386,15.023,15.023,0,0,1-4.191,4.3,10.8,10.8,0,0,1-2.988,1.42.321.321,0,0,0-.2.221c-.015.739-.009,1.478-.009,2.26M51.8,46.915c-.082-.324-.158-.571-.208-.823-.513-2.593-1.018-5.188-1.534-7.78q-.8-4.044-1.626-8.085-.81-4.025-1.622-8.05c-.482-2.383-.945-4.771-1.463-7.147a16.219,16.219,0,0,0-1.772-4.287A16.09,16.09,0,0,0,36.707,3.83a15.39,15.39,0,0,0-4.82-1.41,16.376,16.376,0,0,0-6.1.339A14,14,0,0,0,17.932,7.8,19.348,19.348,0,0,0,13.8,16.689c-.512,2.856-1.128,5.693-1.7,8.538q-.94,4.665-1.884,9.329Q9.187,39.67,8.167,44.786c-.139.7-.274,1.394-.418,2.136a1.924,1.924,0,0,0,.336-.059c1.735-.671,3.47-1.341,5.2-2.028a.505.505,0,0,0,.254-.348c.147-1.13.257-2.265.407-3.4.184-1.386.407-2.766.59-4.152.192-1.457.339-2.92.538-4.376.256-1.874.521-3.747.824-5.614.272-1.681.541-3.366.923-5.023.312-1.358.784-2.679,1.2-4.012a2.8,2.8,0,0,1,.348-.729,19.46,19.46,0,0,1,5.622-5.692,10.963,10.963,0,0,1,5.588-1.8A10.614,10.614,0,0,1,35.508,11.4a19.035,19.035,0,0,1,5.586,5.484,4.489,4.489,0,0,1,.811,2.154,3.93,3.93,0,0,0,.122.76c.147.482.373.944.488,1.433.352,1.5.724,2.993.981,4.507.3,1.769.486,3.558.728,5.337.239,1.759.5,3.515.726,5.276.159,1.234.262,2.476.416,3.711.185,1.479.392,2.956.608,4.431a.511.511,0,0,0,.264.343c1.709.673,3.424,1.33,5.14,1.987a3.218,3.218,0,0,0,.416.093M39.632,25.585h.031c0-1.083-.076-2.172.023-3.246a1.637,1.637,0,0,0-1.018-1.757,17.446,17.446,0,0,0-11.962-2.125,16.165,16.165,0,0,0-6.462,2.631.636.636,0,0,0-.242.448c-.019,2.318-.016,4.637-.023,6.955a9.883,9.883,0,0,0,.643,3.727,9.965,9.965,0,0,0,9.27,6.152,9.16,9.16,0,0,0,5.249-1.552,9.387,9.387,0,0,0,4.478-7.6c.071-1.207.012-2.423.012-3.634M24.7,39.506c0,.6,0,1.128,0,1.655a2.32,2.32,0,0,1-1.5,2.262c-.557.224-1.118.436-1.678.654-.844.329-1.69.654-2.528,1a.37.37,0,0,0-.2.282,8.923,8.923,0,0,0,.233,1.064,22.963,22.963,0,0,0,1.851,4.789,1.157,1.157,0,0,0,.626.575A20.838,20.838,0,0,0,26.9,53.178a25.068,25.068,0,0,0,5.544.011,21.151,21.151,0,0,0,5.66-1.45.783.783,0,0,0,.375-.3,19.4,19.4,0,0,0,2.116-5.616c.149-.716.113-.718-.583-.981-1.222-.462-2.446-.918-3.66-1.4A2.278,2.278,0,0,1,34.8,41.188c0-.235,0-.471,0-.706v-.913a12.139,12.139,0,0,1-5.075,1.067,13.094,13.094,0,0,1-5.018-1.13m14.557-21.2.055-.082c-.166-.226-.331-.452-.5-.677a15.824,15.824,0,0,0-4.4-4.188,8.21,8.21,0,0,0-8.259-.486,14.276,14.276,0,0,0-5.42,4.8c-.14.195-.244.415-.4.689a19.725,19.725,0,0,1,18.93-.054M17.779,30.338l-.055.018q-.9,6.725-1.807,13.473l6.484-2.5c0-1.014.006-2.025-.009-3.036a.489.489,0,0,0-.19-.3,11.834,11.834,0,0,1-4.28-7.063c-.037-.2-.095-.4-.143-.595m24.072.3c-.1.333-.2.647-.289.967a12.313,12.313,0,0,1-4.205,6.413.606.606,0,0,0-.22.389c-.018.905-.015,1.811,0,2.717a.4.4,0,0,0,.2.293c1.017.4,2.042.784,3.063,1.176,1.071.411,2.141.827,3.2,1.238L41.851,30.642M30.14,59.822c-.244,0-.43.005-.616,0-.239-.008-.316.079-.311.334.018.847,0,1.694,0,2.541a1.4,1.4,0,0,1-1.461,1.434c-.661,0-1.322-.007-1.982,0-.8.011-.666-.147-.691.687-.008.231.064.306.3.3.767-.014,1.534.015,2.3-.012a1.6,1.6,0,0,1,1.547,1.584c-.04,2.046-.011,4.094-.01,6.141,0,.137,0,.273,0,.426h.926V72.183c0-1.777-.018-3.553,0-5.329a1.529,1.529,0,0,1,1.742-1.74c.743-.01,1.486,0,2.229-.018.1,0,.278-.107.29-.183a5.413,5.413,0,0,0,.014-.782c-1,0-1.916,0-2.835,0a1.324,1.324,0,0,1-1.4-1.258c-.037-.35-.044-.7-.048-1.056-.007-.646,0-1.292,0-1.993M35.7,54.945a34.461,34.461,0,0,1-5.93.726,33.437,33.437,0,0,1-5.954-.727,8.147,8.147,0,0,0,11.884,0M17.655,49.688a2.19,2.19,0,0,0-.039-.3c-.316-1.056-.64-2.108-.948-3.166-.058-.2-.146-.21-.307-.148-.537.209-1.077.411-1.613.622a1.716,1.716,0,0,0-.267.17,15.293,15.293,0,0,0,3.174,2.822M45.1,46.816c-.66-.253-1.256-.464-1.837-.712-.283-.12-.358-.027-.433.231-.3,1.013-.615,2.018-.921,3.028a1.63,1.63,0,0,0-.019.327,17.835,17.835,0,0,0,3.21-2.874" transform="translate(0 0)" fill="#636363"/>
        <path id="Path_609830" data-name="Path 609830" d="M126.3,225.752v-.5c0-5.191-.005-10.382.012-15.573a2.141,2.141,0,0,1,.284-.988,1.066,1.066,0,0,1,1.352-.455,1.031,1.031,0,0,1,.694,1q.034.6.035,1.2,0,6.78,0,13.56v1.736c.122.006.258.017.394.017l6.267.006a1.048,1.048,0,0,0,1.146-1.134c0-1.447-.008-2.9.01-4.342a.984.984,0,0,1,1.015-1.074,1.146,1.146,0,0,1,1.19.854,1.588,1.588,0,0,1,.063.416c0,1.389.022,2.778,0,4.167a3.186,3.186,0,0,1-2.273,3.184,4.891,4.891,0,0,1-1.29.178q-11.578.016-23.156.008a1.447,1.447,0,0,1-1.207-.471,1.078,1.078,0,0,1,.627-1.757,3.091,3.091,0,0,1,.564-.034q6.9,0,13.809,0Z" transform="translate(-79.247 -149.192)" fill="#636363"/>
      </g>
    </g>
  </g>
</svg>
