<svg xmlns="http://www.w3.org/2000/svg" xmlns:xlink="http://www.w3.org/1999/xlink" width="62.504" height="62.504" viewBox="0 0 62.504 62.504">
  <defs>
    <clipPath id="clip-path">
      <rect id="Rectangle_378350" data-name="Rectangle 378350" width="38.205" height="41" fill="#fff"/>
    </clipPath>
  </defs>
  <g id="Group_1073940" data-name="Group 1073940" transform="translate(-517.429 -1712)">
    <g id="Group_1073939" data-name="Group 1073939">
      <g id="Group_1073921" data-name="Group 1073921" transform="translate(517.429 1712)">
        <circle id="Ellipse_4742" data-name="Ellipse 4742" cx="31.252" cy="31.252" r="31.252" transform="translate(0)" fill="#9b1497"/>
      </g>
      <rect id="Rectangle_378457" data-name="Rectangle 378457" width="41" height="41" transform="translate(528.429 1723)" fill="none"/>
      <g id="Group_1073716" data-name="Group 1073716" transform="translate(529.429 1723)">
        <g id="Group_1073715" data-name="Group 1073715" clip-path="url(#clip-path)">
          <path id="Path_610873" data-name="Path 610873" d="M77.966,121.083v-.248q0-10.13-.005-20.259a.7.7,0,0,1,.284-.614c.978-.805,1.935-1.636,2.9-2.454q2.089-1.767,4.179-3.533a.207.207,0,0,1,.324,0q2.05,1.756,4.108,3.5c.984.837,1.963,1.679,2.962,2.5a.593.593,0,0,1,.24.53q-.008,10.166,0,20.332v.247H89.61v-.228q0-3.866,0-7.731a.89.89,0,0,0-.106-.6.808.808,0,0,0-.7-.317c-1.433,0-2.865,0-4.3,0-.723,0-1.445,0-2.167,0a1.956,1.956,0,0,0-.346.03.683.683,0,0,0-.57.627c-.014.189-.017.379-.017.569q-.006,3.728-.01,7.457c0,.108.014.2-.152.2-1.065-.006-2.13,0-3.2,0a.6.6,0,0,1-.076-.013m7.526-14.83v0q-1.708,0-3.416,0a.783.783,0,0,0-.727.571.729.729,0,0,0,.338.869,1.536,1.536,0,0,0,.634.131c2.118.006,4.236,0,6.354,0a2.2,2.2,0,0,0,.311-.022.766.766,0,0,0,.675-.8.758.758,0,0,0-.79-.748H85.492" transform="translate(-66.505 -80.1)" fill="#fff"/>
          <path id="Path_610874" data-name="Path 610874" d="M200.951,183.667H190.793v-1.158q0-7.336,0-14.673c0-.141,0-.282-.005-.422-.005-.114.029-.159.155-.159,2.871,0,5.742,0,8.613.008a1.266,1.266,0,0,1,1.23.615,1.312,1.312,0,0,1,.164.59q.013,7.539.006,15.078c0,.036,0,.071-.006.122m-3.814-5.14q0,.413,0,.827c0,.012,0,.025,0,.037a.754.754,0,0,0,.678.761.727.727,0,0,0,.854-.594,4.883,4.883,0,0,0,.07-.911,6.771,6.771,0,0,0-.069-1.113.772.772,0,0,0-.821-.633.8.8,0,0,0-.712.819c0,.269,0,.539,0,.808M197.16,172h-.023c0,.287-.006.575,0,.862a.784.784,0,0,0,1.567,0c.038-.529.022-1.062.017-1.593a1.3,1.3,0,0,0-.081-.393.764.764,0,0,0-.795-.492.712.712,0,0,0-.679.608c-.031.333-.007.671-.007,1.006m-2.4,6.518h.028c0-.281.009-.563,0-.844a.812.812,0,0,0-.732-.785.773.773,0,0,0-.8.659c-.043.637-.017,1.278-.018,1.918a.534.534,0,0,0,.031.143.731.731,0,0,0,.791.54.684.684,0,0,0,.694-.607c.034-.338.007-.683.007-1.024m.027-6.517h0c0-.293.012-.587,0-.879a.744.744,0,0,0-.739-.736.711.711,0,0,0-.787.632c-.047.624-.034,1.254-.023,1.881a.779.779,0,0,0,1.082.664.737.737,0,0,0,.47-.7c.009-.287,0-.574,0-.861" transform="translate(-162.752 -142.679)" fill="#fff"/>
          <path id="Path_610875" data-name="Path 610875" d="M0,183.672v-.213q0-7.474,0-14.949A1.187,1.187,0,0,1,1.069,167.3a3.634,3.634,0,0,1,.457-.031q4.077,0,8.154-.006c.172,0,.215.05.215.217q-.007,7.382,0,14.765c0,.422-.008.845-.006,1.267,0,.12-.028.174-.164.174q-4.812-.005-9.623,0c-.024,0-.048,0-.1-.008m6.173-5.159c0,.281-.009.563,0,.843a.786.786,0,0,0,1.146.724.772.772,0,0,0,.425-.737c.015-.537,0-1.075,0-1.613A.9.9,0,0,0,6.9,176.9a.8.8,0,0,0-.729.8c-.006.269,0,.538,0,.807m0-6.5h0c0,.269,0,.538,0,.807a.738.738,0,0,0,.673.795.713.713,0,0,0,.869-.657,13.652,13.652,0,0,0,0-1.882.727.727,0,0,0-.818-.683.759.759,0,0,0-.722.8c-.006.275,0,.55,0,.825M2.16,178.532h0c0,.3-.007.6,0,.9a.779.779,0,0,0,1.49.276,1.685,1.685,0,0,0,.08-.539c.011-.428.008-.856,0-1.284a1.608,1.608,0,0,0-.065-.45.825.825,0,0,0-.8-.53.8.8,0,0,0-.709.747c-.011.293,0,.587,0,.881m0-6.515h0c0,.281.018.564,0,.844a.8.8,0,0,0,.723.76.733.733,0,0,0,.831-.671c.033-.437.013-.879.013-1.319a4.319,4.319,0,0,0-.015-.586.741.741,0,0,0-.862-.634.725.725,0,0,0-.683.724c-.007.293,0,.587,0,.881" transform="translate(0 -142.684)" fill="#fff"/>
          <path id="Path_610876" data-name="Path 610876" d="M54.635,71.3l-1.39-1.615c.386-.328.768-.652,1.149-.977l5.671-4.839q2.109-1.8,4.217-3.6a.194.194,0,0,1,.307,0q5.2,4.443,10.4,8.88c.2.174.41.346.632.534l-1.435,1.623-.86-.736q-3.883-3.313-7.767-6.626c-.2-.175-.41-.349-.626-.51a.7.7,0,0,0-1,0c-.546.433-1.074.89-1.606,1.342q-3.577,3.036-7.151,6.074c-.177.15-.357.3-.547.453" transform="translate(-45.421 -51.35)" fill="#fff"/>
          <path id="Path_610877" data-name="Path 610877" d="M131.037,2.828c.335.438.663.864.988,1.292a3.259,3.259,0,0,1,.28.407.708.708,0,0,1-.385,1.037,2.457,2.457,0,0,1-.756.109q-2.359.015-4.718,0c-.17,0-.217.048-.214.216.011.538,0,1.077.007,1.615,0,.149-.042.206-.2.2-.4-.009-.808-.005-1.212,0-.121,0-.162-.042-.16-.16,0-.287,0-.575,0-.863q0-2.809.011-5.617a2.269,2.269,0,0,1,.025-.383.746.746,0,0,1,.634-.647,2.051,2.051,0,0,1,.382-.04q2.873,0,5.746,0a1.4,1.4,0,0,1,.344.043.736.736,0,0,1,.464,1.124c-.222.35-.489.672-.738,1.005-.161.215-.327.427-.5.654" transform="translate(-106.351 0)" fill="#fff"/>
          <path id="Path_610878" data-name="Path 610878" d="M112.055,236.566v-7.289h5.07a1.294,1.294,0,0,1,.017.158q-.007,3.5-.016,6.993c0,.1-.021.157-.14.157q-2.441-.005-4.883,0a.235.235,0,0,1-.049-.015" transform="translate(-95.59 -195.587)" fill="#fff"/>
        </g>
      </g>
    </g>
  </g>
</svg>
