<svg xmlns="http://www.w3.org/2000/svg" xmlns:xlink="http://www.w3.org/1999/xlink" width="62.504" height="62.504" viewBox="0 0 62.504 62.504">
  <defs>
    <clipPath id="clip-path">
      <rect id="Rectangle_378351" data-name="Rectangle 378351" width="44.057" height="37.459" fill="#fff"/>
    </clipPath>
  </defs>
  <g id="Group_1073731" data-name="Group 1073731" transform="translate(-279.816 -1198.717)">
    <g id="Group_1072053" data-name="Group 1072053" transform="translate(279.816 1198.717)">
      <circle id="Ellipse_4742" data-name="Ellipse 4742" cx="31.252" cy="31.252" r="31.252" transform="translate(0)" fill="#9b1497"/>
    </g>
    <g id="Group_1073718" data-name="Group 1073718" transform="translate(288.318 1210.153)">
      <g id="Group_1073717" data-name="Group 1073717" clip-path="url(#clip-path)">
        <path id="Path_610879" data-name="Path 610879" d="M151.4,13.645c0-.752.005-1.461,0-2.17a1.831,1.831,0,0,0-.189-.989.51.51,0,0,1-.021-.146h.944q3.808,0,7.616.005c.505,0,.748-.214.758-.682a.706.706,0,0,0-.762-.735q-4.557,0-9.114,0a.49.49,0,0,1-.387-.168,4.378,4.378,0,0,0-3.154-1.4c-.806-.01-1.612-.008-2.417-.005-.133,0-.193-.027-.192-.174.014-1.449,0-2.9.037-4.347A2.9,2.9,0,0,1,147.014.063,6.4,6.4,0,0,1,147.951,0Q154.177,0,160.4,0a3.638,3.638,0,0,1,1.686.313,3.007,3.007,0,0,1,1.719,2.8c.007.248,0,.5,0,.746q0,14.759,0,29.519a3.648,3.648,0,0,1-.241,1.5,2.985,2.985,0,0,1-2.286,1.82,1.574,1.574,0,0,1-.3.014c-4.536,0-9.071-.012-13.607.009a2.979,2.979,0,0,1-2.853-2.631c-.017-.205-.021-.412-.04-.617-.017-.178.035-.251.234-.249.848.008,1.7.011,2.546-.005a4.459,4.459,0,0,0,3.946-2.979,5.442,5.442,0,0,0,.205-1.721q0-4.284-.006-8.567c0-.188.055-.245.242-.245q4.022.009,8.044,0a1.15,1.15,0,0,0,.456-.074c.3-.135.393-.384.329-.772a.713.713,0,0,0-.557-.526,3.473,3.473,0,0,0-.511-.035q-3.733,0-7.466,0h-.522V15.061h.243l7.894,0c.1,0,.2,0,.3,0a.742.742,0,0,0,.625-.5.67.67,0,0,0-.332-.836,1.135,1.135,0,0,0-.456-.073q-3.915-.007-7.83,0H151.4m2.736,16.981a2.406,2.406,0,0,0,2.462-2.369,2.448,2.448,0,0,0-2.316-2.462,2.418,2.418,0,1,0-.146,4.831m.116-26.355v0q-2.748,0-5.5,0a.647.647,0,0,0-.725.7.676.676,0,0,0,.736.706c.164,0,.328-.006.492-.006l10.52.009a.7.7,0,0,0,.2-1.38,1.893,1.893,0,0,0-.446-.029q-2.641,0-5.281,0" transform="translate(-119.753 0)" fill="#fff"/>
        <path id="Path_610880" data-name="Path 610880" d="M15.022,74.206q-5.455,0-10.91,0c-.442,0-.884-.014-1.326-.031a2.816,2.816,0,0,1-2.029-1.04A3.234,3.234,0,0,1,0,70.866q0-5.989,0-11.977,0-2.248,0-4.5a3.163,3.163,0,0,1,.8-2.21,3.039,3.039,0,0,1,2.326-1.041q12.044-.008,24.087,0a3.07,3.07,0,0,1,3.038,3.009q-.026,8.5,0,17.006a3.091,3.091,0,0,1-2.334,2.976,1.97,1.97,0,0,1-.53.053q-6.182,0-12.364,0v.014M27.5,68.693c0-.054.007-.088.007-.122q0-2.28-.007-4.56,0-4.943,0-9.887c0-.194-.1-.177-.228-.177l-24.212,0c-.061,0-.123.005-.188.008V68.693Zm-12.364,3.25v0h1.324a.664.664,0,0,0,.647-.455.707.707,0,0,0-.656-.943c-.875-.009-1.751,0-2.627.007a.788.788,0,0,0-.148.02.713.713,0,0,0-.543.74.722.722,0,0,0,.657.639c.447-.022.9-.005,1.345-.005" transform="translate(0 -42.383)" fill="#fff"/>
        <path id="Path_610881" data-name="Path 610881" d="M41.511,196.978v-2.44c0-.391,0-.386.389-.385l10.821.005c.307,0,.294,0,.291.31-.006.788,0,1.576,0,2.364,0,.152.087.149.194.149.57,0,1.141,0,1.711,0a1.3,1.3,0,0,1,.4.053.668.668,0,0,1,.431.728.645.645,0,0,1-.595.6,2.783,2.783,0,0,1-.405.02q-7.25,0-14.5,0c-.264,0-.528,0-.791-.018a.729.729,0,0,1-.658-.552.678.678,0,0,1,.334-.724,1.172,1.172,0,0,1,.491-.1c.549-.012,1.1,0,1.647,0h.239" transform="translate(-32.147 -160.923)" fill="#fff"/>
      </g>
    </g>
  </g>
</svg>
