<svg xmlns="http://www.w3.org/2000/svg" xmlns:xlink="http://www.w3.org/1999/xlink" width="247.625" height="506.236" viewBox="0 0 247.625 506.236">
  <defs>
    <clipPath id="clip-path">
      <path id="Trazado_194907" data-name="Trazado 194907" d="M0,139.241c0,47.447,39.179,85.908,87.511,85.908s87.511-38.461,87.511-85.908S135.841,53.333,87.511,53.333,0,91.8,0,139.241" transform="translate(0 -53.333)" fill="#ffe7af"/>
    </clipPath>
    <clipPath id="clip-path-2">
      <path id="Trazado_194907-2" data-name="Trazado 194907" d="M0,95.647A42.315,42.315,0,1,0,42.315,53.333,42.315,42.315,0,0,0,0,95.647" transform="translate(0 -53.333)" fill="#7f4fc7"/>
    </clipPath>
    <clipPath id="clip-path-3">
      <rect id="Rectángulo_46351" data-name="Rectángulo 46351" width="115.414" height="119.42" fill="none"/>
    </clipPath>
    <clipPath id="clip-path-4">
      <rect id="Rectangle_378180" data-name="Rectangle 378180" width="208.61" height="506.235" fill="none"/>
    </clipPath>
    <clipPath id="clip-path-6">
      <rect id="Rectangle_378178" data-name="Rectangle 378178" width="6.514" height="4.264" fill="none"/>
    </clipPath>
  </defs>
  <g id="Group_1073937" data-name="Group 1073937" transform="translate(-1067.375 -2539.692)">
    <g id="conectada_01.375dd2a5" transform="translate(1064.936 2517.328)">
      <g id="Grupo_155444" data-name="Grupo 155444" transform="translate(2.439 22.364)">
        <g id="Grupo_155253" data-name="Grupo 155253" transform="translate(4.281 181.396)">
          <path id="Trazado_196478" data-name="Trazado 196478" d="M319.689,149.033q-.327.339-.648.683a52.147,52.147,0,0,0-14.068,37.632l21.849-.761a30.63,30.63,0,1,1,61.222-2.141l21.849-.761a52.492,52.492,0,0,0-90.2-34.646" transform="translate(-304.936 -133.025)" fill="#b4997f"/>
          <path id="Trazado_196479" data-name="Trazado 196479" d="M304.88,231.066A52.492,52.492,0,1,0,409.8,227.4l-21.85.761a30.629,30.629,0,0,1-61.221,2.141Z" transform="translate(-304.844 -176.744)" fill="#615842"/>
        </g>
        <g id="Grupo_154313" data-name="Grupo 154313" transform="translate(72.603 321.891)">
          <g id="Grupo_152768" data-name="Grupo 152768" clip-path="url(#clip-path)">
            <path id="Trazado_194826" data-name="Trazado 194826" d="M4.605,55.593a2.284,2.284,0,0,0-2.3-2.26,2.262,2.262,0,1,0,0,4.522,2.284,2.284,0,0,0,2.3-2.263" transform="translate(0.001 -53.333)" fill="#ffe7af"/>
            <path id="Trazado_194827" data-name="Trazado 194827" d="M12.879,55.589a2.3,2.3,0,1,0-2.3,2.263,2.3,2.3,0,0,0,2.3-2.263" transform="translate(13.028 -53.329)" fill="#ffe7af"/>
            <path id="Trazado_194828" data-name="Trazado 194828" d="M21.152,55.589a2.3,2.3,0,1,0-2.3,2.263,2.3,2.3,0,0,0,2.3-2.263" transform="translate(26.059 -53.329)" fill="#ffe7af"/>
            <path id="Trazado_194829" data-name="Trazado 194829" d="M29.425,55.589a2.3,2.3,0,1,0-2.3,2.263,2.3,2.3,0,0,0,2.3-2.263" transform="translate(39.088 -53.329)" fill="#ffe7af"/>
            <path id="Trazado_194830" data-name="Trazado 194830" d="M37.7,55.589a2.3,2.3,0,1,0-2.3,2.263,2.3,2.3,0,0,0,2.3-2.263" transform="translate(52.116 -53.329)" fill="#ffe7af"/>
            <path id="Trazado_194831" data-name="Trazado 194831" d="M45.966,55.589a2.3,2.3,0,1,0-2.3,2.263,2.3,2.3,0,0,0,2.3-2.263" transform="translate(65.147 -53.329)" fill="#ffe7af"/>
            <path id="Trazado_194832" data-name="Trazado 194832" d="M54.242,55.589a2.3,2.3,0,1,0-2.3,2.263,2.3,2.3,0,0,0,2.3-2.263" transform="translate(78.175 -53.329)" fill="#ffe7af"/>
            <path id="Trazado_194833" data-name="Trazado 194833" d="M62.515,55.589a2.3,2.3,0,1,0-2.3,2.263,2.3,2.3,0,0,0,2.3-2.263" transform="translate(91.204 -53.329)" fill="#ffe7af"/>
            <path id="Trazado_194834" data-name="Trazado 194834" d="M70.788,55.589a2.3,2.3,0,1,0-2.3,2.262,2.3,2.3,0,0,0,2.3-2.262" transform="translate(104.234 -53.329)" fill="#ffe7af"/>
            <path id="Trazado_194835" data-name="Trazado 194835" d="M4.609,63.866a2.284,2.284,0,0,0-2.3-2.26,2.26,2.26,0,0,0,0,4.52,2.284,2.284,0,0,0,2.3-2.26" transform="translate(-0.002 -40.693)" fill="#ffe7af"/>
            <path id="Trazado_194836" data-name="Trazado 194836" d="M12.879,63.862a2.3,2.3,0,1,0-2.3,2.26,2.3,2.3,0,0,0,2.3-2.26" transform="translate(13.028 -40.689)" fill="#ffe7af"/>
            <path id="Trazado_194837" data-name="Trazado 194837" d="M21.152,63.862a2.3,2.3,0,1,0-2.3,2.26,2.3,2.3,0,0,0,2.3-2.26" transform="translate(26.059 -40.689)" fill="#ffe7af"/>
            <path id="Trazado_194838" data-name="Trazado 194838" d="M29.425,63.862a2.3,2.3,0,1,0-2.3,2.26,2.3,2.3,0,0,0,2.3-2.26" transform="translate(39.088 -40.689)" fill="#ffe7af"/>
            <path id="Trazado_194839" data-name="Trazado 194839" d="M37.7,63.862a2.3,2.3,0,1,0-2.3,2.26,2.3,2.3,0,0,0,2.3-2.26" transform="translate(52.116 -40.689)" fill="#ffe7af"/>
            <path id="Trazado_194840" data-name="Trazado 194840" d="M45.966,63.862a2.3,2.3,0,1,0-2.3,2.26,2.3,2.3,0,0,0,2.3-2.26" transform="translate(65.146 -40.689)" fill="#ffe7af"/>
            <path id="Trazado_194841" data-name="Trazado 194841" d="M54.242,63.862a2.3,2.3,0,1,0-2.3,2.26,2.3,2.3,0,0,0,2.3-2.26" transform="translate(78.175 -40.689)" fill="#ffe7af"/>
            <path id="Trazado_194842" data-name="Trazado 194842" d="M62.515,63.862a2.3,2.3,0,1,0-2.3,2.26,2.3,2.3,0,0,0,2.3-2.26" transform="translate(91.204 -40.689)" fill="#ffe7af"/>
            <path id="Trazado_194843" data-name="Trazado 194843" d="M70.788,63.862a2.3,2.3,0,1,0-2.3,2.26,2.3,2.3,0,0,0,2.3-2.26" transform="translate(104.234 -40.689)" fill="#ffe7af"/>
            <path id="Trazado_194844" data-name="Trazado 194844" d="M4.609,72.139a2.284,2.284,0,0,0-2.3-2.26,2.26,2.26,0,0,0,0,4.52,2.284,2.284,0,0,0,2.3-2.26" transform="translate(-0.002 -28.054)" fill="#ffe7af"/>
            <path id="Trazado_194845" data-name="Trazado 194845" d="M12.879,72.135a2.3,2.3,0,1,0-2.3,2.26,2.3,2.3,0,0,0,2.3-2.26" transform="translate(13.028 -28.049)" fill="#ffe7af"/>
            <path id="Trazado_194846" data-name="Trazado 194846" d="M21.152,72.135a2.3,2.3,0,1,0-2.3,2.26,2.3,2.3,0,0,0,2.3-2.26" transform="translate(26.059 -28.049)" fill="#ffe7af"/>
            <path id="Trazado_194847" data-name="Trazado 194847" d="M29.425,72.135a2.3,2.3,0,1,0-2.3,2.26,2.3,2.3,0,0,0,2.3-2.26" transform="translate(39.088 -28.049)" fill="#ffe7af"/>
            <path id="Trazado_194848" data-name="Trazado 194848" d="M37.7,72.135a2.3,2.3,0,1,0-2.3,2.26,2.3,2.3,0,0,0,2.3-2.26" transform="translate(52.116 -28.049)" fill="#ffe7af"/>
            <path id="Trazado_194849" data-name="Trazado 194849" d="M45.966,72.135a2.3,2.3,0,1,0-2.3,2.26,2.3,2.3,0,0,0,2.3-2.26" transform="translate(65.146 -28.049)" fill="#ffe7af"/>
            <path id="Trazado_194850" data-name="Trazado 194850" d="M54.242,72.135a2.3,2.3,0,1,0-2.3,2.26,2.3,2.3,0,0,0,2.3-2.26" transform="translate(78.175 -28.049)" fill="#ffe7af"/>
            <path id="Trazado_194851" data-name="Trazado 194851" d="M62.515,72.135a2.3,2.3,0,1,0-2.3,2.26,2.3,2.3,0,0,0,2.3-2.26" transform="translate(91.204 -28.049)" fill="#ffe7af"/>
            <path id="Trazado_194852" data-name="Trazado 194852" d="M70.788,72.135a2.3,2.3,0,1,0-2.3,2.26,2.3,2.3,0,0,0,2.3-2.26" transform="translate(104.234 -28.049)" fill="#ffe7af"/>
            <path id="Trazado_194853" data-name="Trazado 194853" d="M4.609,80.411a2.284,2.284,0,0,0-2.3-2.26,2.26,2.26,0,0,0,0,4.52,2.284,2.284,0,0,0,2.3-2.26" transform="translate(-0.002 -15.416)" fill="#ffe7af"/>
            <path id="Trazado_194854" data-name="Trazado 194854" d="M12.879,80.407a2.3,2.3,0,1,0-2.3,2.259,2.3,2.3,0,0,0,2.3-2.259" transform="translate(13.028 -15.411)" fill="#ffe7af"/>
            <path id="Trazado_194855" data-name="Trazado 194855" d="M21.152,80.407a2.3,2.3,0,1,0-2.3,2.259,2.3,2.3,0,0,0,2.3-2.259" transform="translate(26.059 -15.411)" fill="#ffe7af"/>
            <path id="Trazado_194856" data-name="Trazado 194856" d="M29.425,80.407a2.3,2.3,0,1,0-2.3,2.259,2.3,2.3,0,0,0,2.3-2.259" transform="translate(39.088 -15.411)" fill="#ffe7af"/>
            <path id="Trazado_194857" data-name="Trazado 194857" d="M37.7,80.407a2.3,2.3,0,1,0-2.3,2.259,2.3,2.3,0,0,0,2.3-2.259" transform="translate(52.116 -15.411)" fill="#ffe7af"/>
            <path id="Trazado_194858" data-name="Trazado 194858" d="M45.966,80.407a2.3,2.3,0,1,0-2.3,2.259,2.3,2.3,0,0,0,2.3-2.259" transform="translate(65.146 -15.411)" fill="#ffe7af"/>
            <path id="Trazado_194859" data-name="Trazado 194859" d="M54.242,80.407a2.3,2.3,0,1,0-2.3,2.259,2.3,2.3,0,0,0,2.3-2.259" transform="translate(78.175 -15.411)" fill="#ffe7af"/>
            <path id="Trazado_194860" data-name="Trazado 194860" d="M62.515,80.407a2.3,2.3,0,1,0-2.3,2.259,2.3,2.3,0,0,0,2.3-2.259" transform="translate(91.204 -15.411)" fill="#ffe7af"/>
            <path id="Trazado_194861" data-name="Trazado 194861" d="M70.788,80.407a2.3,2.3,0,1,0-2.3,2.259,2.3,2.3,0,0,0,2.3-2.259" transform="translate(104.234 -15.411)" fill="#ffe7af"/>
            <path id="Trazado_194862" data-name="Trazado 194862" d="M4.605,88.685a2.284,2.284,0,0,0-2.3-2.26,2.262,2.262,0,1,0,0,4.522,2.284,2.284,0,0,0,2.3-2.262" transform="translate(0.001 -2.776)" fill="#ffe7af"/>
            <path id="Trazado_194863" data-name="Trazado 194863" d="M12.879,88.681a2.3,2.3,0,1,0-2.3,2.262,2.3,2.3,0,0,0,2.3-2.262" transform="translate(13.028 -2.771)" fill="#ffe7af"/>
            <path id="Trazado_194864" data-name="Trazado 194864" d="M21.152,88.681a2.3,2.3,0,1,0-2.3,2.262,2.3,2.3,0,0,0,2.3-2.262" transform="translate(26.059 -2.771)" fill="#ffe7af"/>
            <path id="Trazado_194865" data-name="Trazado 194865" d="M29.425,88.681a2.3,2.3,0,1,0-2.3,2.262,2.3,2.3,0,0,0,2.3-2.262" transform="translate(39.088 -2.771)" fill="#ffe7af"/>
            <path id="Trazado_194866" data-name="Trazado 194866" d="M37.7,88.681a2.3,2.3,0,1,0-2.3,2.262,2.3,2.3,0,0,0,2.3-2.262" transform="translate(52.116 -2.771)" fill="#ffe7af"/>
            <path id="Trazado_194867" data-name="Trazado 194867" d="M45.966,88.681a2.3,2.3,0,1,0-2.3,2.262,2.3,2.3,0,0,0,2.3-2.262" transform="translate(65.146 -2.771)" fill="#ffe7af"/>
            <path id="Trazado_194868" data-name="Trazado 194868" d="M54.242,88.681a2.3,2.3,0,1,0-2.3,2.262,2.3,2.3,0,0,0,2.3-2.262" transform="translate(78.175 -2.771)" fill="#ffe7af"/>
            <path id="Trazado_194869" data-name="Trazado 194869" d="M62.515,88.681a2.3,2.3,0,1,0-2.3,2.262,2.3,2.3,0,0,0,2.3-2.262" transform="translate(91.204 -2.771)" fill="#ffe7af"/>
            <path id="Trazado_194870" data-name="Trazado 194870" d="M70.788,88.681a2.3,2.3,0,1,0-2.3,2.261,2.3,2.3,0,0,0,2.3-2.261" transform="translate(104.234 -2.771)" fill="#ffe7af"/>
            <path id="Trazado_194871" data-name="Trazado 194871" d="M4.609,96.957a2.284,2.284,0,0,0-2.3-2.257,2.26,2.26,0,0,0,0,4.52,2.284,2.284,0,0,0,2.3-2.26" transform="translate(-0.002 9.864)" fill="#ffe7af"/>
            <path id="Trazado_194872" data-name="Trazado 194872" d="M12.879,96.953a2.3,2.3,0,1,0-2.3,2.26,2.3,2.3,0,0,0,2.3-2.26" transform="translate(13.028 9.869)" fill="#ffe7af"/>
            <path id="Trazado_194873" data-name="Trazado 194873" d="M21.152,96.953a2.3,2.3,0,1,0-2.3,2.26,2.3,2.3,0,0,0,2.3-2.26" transform="translate(26.059 9.869)" fill="#ffe7af"/>
            <path id="Trazado_194874" data-name="Trazado 194874" d="M29.425,96.953a2.3,2.3,0,1,0-2.3,2.26,2.3,2.3,0,0,0,2.3-2.26" transform="translate(39.088 9.869)" fill="#ffe7af"/>
            <path id="Trazado_194875" data-name="Trazado 194875" d="M37.7,96.953a2.3,2.3,0,1,0-2.3,2.26,2.3,2.3,0,0,0,2.3-2.26" transform="translate(52.116 9.869)" fill="#ffe7af"/>
            <path id="Trazado_194876" data-name="Trazado 194876" d="M45.966,96.953a2.3,2.3,0,1,0-2.3,2.26,2.3,2.3,0,0,0,2.3-2.26" transform="translate(65.146 9.869)" fill="#ffe7af"/>
            <path id="Trazado_194877" data-name="Trazado 194877" d="M54.242,96.953a2.3,2.3,0,1,0-2.3,2.26,2.3,2.3,0,0,0,2.3-2.26" transform="translate(78.175 9.869)" fill="#ffe7af"/>
            <path id="Trazado_194878" data-name="Trazado 194878" d="M62.515,96.953a2.3,2.3,0,1,0-2.3,2.26,2.3,2.3,0,0,0,2.3-2.26" transform="translate(91.204 9.869)" fill="#ffe7af"/>
            <path id="Trazado_194879" data-name="Trazado 194879" d="M70.788,96.953a2.3,2.3,0,1,0-2.3,2.26,2.3,2.3,0,0,0,2.3-2.26" transform="translate(104.234 9.869)" fill="#ffe7af"/>
            <path id="Trazado_194880" data-name="Trazado 194880" d="M4.609,105.229a2.284,2.284,0,0,0-2.3-2.26,2.26,2.26,0,1,0,0,4.52,2.284,2.284,0,0,0,2.3-2.26" transform="translate(-0.002 22.503)" fill="#ffe7af"/>
            <path id="Trazado_194881" data-name="Trazado 194881" d="M12.879,105.225a2.3,2.3,0,1,0-2.3,2.26,2.3,2.3,0,0,0,2.3-2.26" transform="translate(13.028 22.507)" fill="#ffe7af"/>
            <path id="Trazado_194882" data-name="Trazado 194882" d="M21.152,105.225a2.3,2.3,0,1,0-2.3,2.26,2.3,2.3,0,0,0,2.3-2.26" transform="translate(26.059 22.507)" fill="#ffe7af"/>
            <path id="Trazado_194883" data-name="Trazado 194883" d="M29.425,105.225a2.3,2.3,0,1,0-2.3,2.26,2.3,2.3,0,0,0,2.3-2.26" transform="translate(39.088 22.507)" fill="#ffe7af"/>
            <path id="Trazado_194884" data-name="Trazado 194884" d="M37.7,105.225a2.3,2.3,0,1,0-2.3,2.26,2.3,2.3,0,0,0,2.3-2.26" transform="translate(52.116 22.507)" fill="#ffe7af"/>
            <path id="Trazado_194885" data-name="Trazado 194885" d="M45.966,105.225a2.3,2.3,0,1,0-2.3,2.26,2.3,2.3,0,0,0,2.3-2.26" transform="translate(65.146 22.507)" fill="#ffe7af"/>
            <path id="Trazado_194886" data-name="Trazado 194886" d="M54.242,105.225a2.3,2.3,0,1,0-2.3,2.26,2.3,2.3,0,0,0,2.3-2.26" transform="translate(78.175 22.507)" fill="#ffe7af"/>
            <path id="Trazado_194887" data-name="Trazado 194887" d="M62.515,105.225a2.3,2.3,0,1,0-2.3,2.26,2.3,2.3,0,0,0,2.3-2.26" transform="translate(91.204 22.507)" fill="#ffe7af"/>
            <path id="Trazado_194888" data-name="Trazado 194888" d="M70.788,105.225a2.3,2.3,0,1,0-2.3,2.26,2.3,2.3,0,0,0,2.3-2.26" transform="translate(104.234 22.507)" fill="#ffe7af"/>
            <path id="Trazado_194889" data-name="Trazado 194889" d="M4.609,113.5a2.284,2.284,0,0,0-2.3-2.26,2.26,2.26,0,0,0,0,4.52,2.284,2.284,0,0,0,2.3-2.26" transform="translate(-0.002 35.142)" fill="#ffe7af"/>
            <path id="Trazado_194890" data-name="Trazado 194890" d="M12.879,113.5a2.3,2.3,0,1,0-2.3,2.26,2.3,2.3,0,0,0,2.3-2.26" transform="translate(13.028 35.146)" fill="#ffe7af"/>
            <path id="Trazado_194891" data-name="Trazado 194891" d="M21.152,113.5a2.3,2.3,0,1,0-2.3,2.26,2.3,2.3,0,0,0,2.3-2.26" transform="translate(26.059 35.146)" fill="#ffe7af"/>
            <path id="Trazado_194892" data-name="Trazado 194892" d="M29.425,113.5a2.3,2.3,0,1,0-2.3,2.26,2.3,2.3,0,0,0,2.3-2.26" transform="translate(39.088 35.146)" fill="#ffe7af"/>
            <path id="Trazado_194893" data-name="Trazado 194893" d="M37.7,113.5a2.3,2.3,0,1,0-2.3,2.26,2.3,2.3,0,0,0,2.3-2.26" transform="translate(52.116 35.146)" fill="#ffe7af"/>
            <path id="Trazado_194894" data-name="Trazado 194894" d="M45.966,113.5a2.3,2.3,0,1,0-2.3,2.26,2.3,2.3,0,0,0,2.3-2.26" transform="translate(65.146 35.146)" fill="#ffe7af"/>
            <path id="Trazado_194895" data-name="Trazado 194895" d="M54.242,113.5a2.3,2.3,0,1,0-2.3,2.26,2.3,2.3,0,0,0,2.3-2.26" transform="translate(78.175 35.146)" fill="#ffe7af"/>
            <path id="Trazado_194896" data-name="Trazado 194896" d="M62.515,113.5a2.3,2.3,0,1,0-2.3,2.26,2.3,2.3,0,0,0,2.3-2.26" transform="translate(91.204 35.146)" fill="#ffe7af"/>
            <path id="Trazado_194897" data-name="Trazado 194897" d="M70.788,113.5a2.3,2.3,0,1,0-2.3,2.26,2.3,2.3,0,0,0,2.3-2.26" transform="translate(104.234 35.146)" fill="#ffe7af"/>
            <path id="Trazado_194898" data-name="Trazado 194898" d="M4.609,121.774a2.284,2.284,0,0,0-2.3-2.26,2.26,2.26,0,0,0,0,4.52,2.284,2.284,0,0,0,2.3-2.26" transform="translate(-0.002 47.78)" fill="#ffe7af"/>
            <path id="Trazado_194899" data-name="Trazado 194899" d="M12.879,121.77a2.3,2.3,0,1,0-2.3,2.26,2.3,2.3,0,0,0,2.3-2.26" transform="translate(13.028 47.784)" fill="#ffe7af"/>
            <path id="Trazado_194900" data-name="Trazado 194900" d="M21.152,121.77a2.3,2.3,0,1,0-2.3,2.26,2.3,2.3,0,0,0,2.3-2.26" transform="translate(26.059 47.784)" fill="#ffe7af"/>
            <path id="Trazado_194901" data-name="Trazado 194901" d="M29.425,121.77a2.3,2.3,0,1,0-2.3,2.26,2.3,2.3,0,0,0,2.3-2.26" transform="translate(39.088 47.784)" fill="#ffe7af"/>
            <path id="Trazado_194902" data-name="Trazado 194902" d="M37.7,121.77a2.3,2.3,0,1,0-2.3,2.26,2.3,2.3,0,0,0,2.3-2.26" transform="translate(52.116 47.784)" fill="#ffe7af"/>
            <path id="Trazado_194903" data-name="Trazado 194903" d="M45.966,121.77a2.3,2.3,0,1,0-2.3,2.26,2.3,2.3,0,0,0,2.3-2.26" transform="translate(65.146 47.784)" fill="#ffe7af"/>
            <path id="Trazado_194904" data-name="Trazado 194904" d="M54.242,121.77a2.3,2.3,0,1,0-2.3,2.26,2.3,2.3,0,0,0,2.3-2.26" transform="translate(78.175 47.784)" fill="#ffe7af"/>
            <path id="Trazado_194905" data-name="Trazado 194905" d="M62.515,121.77a2.3,2.3,0,1,0-2.3,2.26,2.3,2.3,0,0,0,2.3-2.26" transform="translate(91.204 47.784)" fill="#ffe7af"/>
            <path id="Trazado_194906" data-name="Trazado 194906" d="M70.788,121.77a2.3,2.3,0,1,0-2.3,2.26,2.3,2.3,0,0,0,2.3-2.26" transform="translate(104.234 47.784)" fill="#ffe7af"/>
          </g>
        </g>
        <g id="Grupo_154805" data-name="Grupo 154805" transform="translate(147.708 0)">
          <g id="Grupo_152768-2" data-name="Grupo 152768" transform="translate(0)" clip-path="url(#clip-path-2)">
            <path id="Trazado_194826-2" data-name="Trazado 194826" d="M2.228,54.443a1.113,1.113,0,1,0-1.113,1.114,1.113,1.113,0,0,0,1.113-1.114" transform="translate(0 -53.333)" fill="#7f4fc7"/>
            <path id="Trazado_194827-2" data-name="Trazado 194827" d="M10.5,54.443a1.113,1.113,0,1,0-1.113,1.114A1.113,1.113,0,0,0,10.5,54.443" transform="translate(2.028 -53.333)" fill="#7f4fc7"/>
            <path id="Trazado_194828-2" data-name="Trazado 194828" d="M18.773,54.443a1.113,1.113,0,1,0-1.113,1.114,1.113,1.113,0,0,0,1.113-1.114" transform="translate(4.056 -53.333)" fill="#7f4fc7"/>
            <path id="Trazado_194829-2" data-name="Trazado 194829" d="M27.046,54.443a1.113,1.113,0,1,0-1.113,1.114,1.113,1.113,0,0,0,1.113-1.114" transform="translate(6.083 -53.333)" fill="#7f4fc7"/>
            <path id="Trazado_194830-2" data-name="Trazado 194830" d="M35.318,54.443A1.113,1.113,0,1,0,34.2,55.558a1.113,1.113,0,0,0,1.113-1.114" transform="translate(8.111 -53.333)" fill="#7f4fc7"/>
            <path id="Trazado_194831-2" data-name="Trazado 194831" d="M43.587,54.443a1.113,1.113,0,1,0-1.113,1.114,1.113,1.113,0,0,0,1.113-1.114" transform="translate(10.139 -53.333)" fill="#7f4fc7"/>
            <path id="Trazado_194832-2" data-name="Trazado 194832" d="M51.863,54.443a1.113,1.113,0,1,0-1.113,1.114,1.113,1.113,0,0,0,1.113-1.114" transform="translate(12.167 -53.333)" fill="#7f4fc7"/>
            <path id="Trazado_194833-2" data-name="Trazado 194833" d="M60.136,54.443a1.113,1.113,0,1,0-1.113,1.114,1.113,1.113,0,0,0,1.113-1.114" transform="translate(14.194 -53.333)" fill="#7f4fc7"/>
            <path id="Trazado_194834-2" data-name="Trazado 194834" d="M68.409,54.443A1.113,1.113,0,1,0,67.3,55.558a1.113,1.113,0,0,0,1.113-1.114" transform="translate(16.222 -53.333)" fill="#7f4fc7"/>
            <path id="Trazado_194835-2" data-name="Trazado 194835" d="M2.228,62.719a1.112,1.112,0,1,0-.326.788,1.113,1.113,0,0,0,.326-.788" transform="translate(0 -51.305)" fill="#7f4fc7"/>
            <path id="Trazado_194836-2" data-name="Trazado 194836" d="M10.5,62.719a1.112,1.112,0,1,0-.326.788,1.113,1.113,0,0,0,.326-.788" transform="translate(2.028 -51.305)" fill="#7f4fc7"/>
            <path id="Trazado_194837-2" data-name="Trazado 194837" d="M18.773,62.719a1.112,1.112,0,1,0-.326.788,1.113,1.113,0,0,0,.326-.788" transform="translate(4.056 -51.305)" fill="#7f4fc7"/>
            <path id="Trazado_194838-2" data-name="Trazado 194838" d="M27.046,62.719a1.112,1.112,0,1,0-.326.788,1.113,1.113,0,0,0,.326-.788" transform="translate(6.083 -51.305)" fill="#7f4fc7"/>
            <path id="Trazado_194839-2" data-name="Trazado 194839" d="M35.318,62.719a1.112,1.112,0,1,0-.326.788,1.113,1.113,0,0,0,.326-.788" transform="translate(8.111 -51.305)" fill="#7f4fc7"/>
            <path id="Trazado_194840-2" data-name="Trazado 194840" d="M43.587,62.719a1.112,1.112,0,1,0-.326.788,1.113,1.113,0,0,0,.326-.788" transform="translate(10.139 -51.305)" fill="#7f4fc7"/>
            <path id="Trazado_194841-2" data-name="Trazado 194841" d="M51.863,62.719a1.112,1.112,0,1,0-.326.788,1.113,1.113,0,0,0,.326-.788" transform="translate(12.167 -51.305)" fill="#7f4fc7"/>
            <path id="Trazado_194842-2" data-name="Trazado 194842" d="M60.136,62.719a1.113,1.113,0,1,0-1.113,1.113,1.113,1.113,0,0,0,1.113-1.113" transform="translate(14.194 -51.305)" fill="#7f4fc7"/>
            <path id="Trazado_194843-2" data-name="Trazado 194843" d="M68.409,62.719a1.112,1.112,0,1,0-.326.788,1.113,1.113,0,0,0,.326-.788" transform="translate(16.222 -51.305)" fill="#7f4fc7"/>
            <path id="Trazado_194844-2" data-name="Trazado 194844" d="M2.228,70.992a1.112,1.112,0,1,0-.326.788,1.113,1.113,0,0,0,.326-.788" transform="translate(0 -49.277)" fill="#7f4fc7"/>
            <path id="Trazado_194845-2" data-name="Trazado 194845" d="M10.5,70.992a1.112,1.112,0,1,0-.326.788,1.113,1.113,0,0,0,.326-.788" transform="translate(2.028 -49.277)" fill="#7f4fc7"/>
            <path id="Trazado_194846-2" data-name="Trazado 194846" d="M18.773,70.992a1.112,1.112,0,1,0-.326.788,1.113,1.113,0,0,0,.326-.788" transform="translate(4.056 -49.277)" fill="#7f4fc7"/>
            <path id="Trazado_194847-2" data-name="Trazado 194847" d="M27.046,70.992a1.112,1.112,0,1,0-.326.788,1.113,1.113,0,0,0,.326-.788" transform="translate(6.083 -49.277)" fill="#7f4fc7"/>
            <path id="Trazado_194848-2" data-name="Trazado 194848" d="M35.318,70.992a1.112,1.112,0,1,0-.326.788,1.113,1.113,0,0,0,.326-.788" transform="translate(8.111 -49.277)" fill="#7f4fc7"/>
            <path id="Trazado_194849-2" data-name="Trazado 194849" d="M43.587,70.992a1.112,1.112,0,1,0-.326.788,1.113,1.113,0,0,0,.326-.788" transform="translate(10.139 -49.277)" fill="#7f4fc7"/>
            <path id="Trazado_194850-2" data-name="Trazado 194850" d="M51.863,70.992a1.112,1.112,0,1,0-.326.788,1.113,1.113,0,0,0,.326-.788" transform="translate(12.167 -49.277)" fill="#7f4fc7"/>
            <path id="Trazado_194851-2" data-name="Trazado 194851" d="M60.136,70.992a1.113,1.113,0,1,0-1.113,1.113,1.113,1.113,0,0,0,1.113-1.113" transform="translate(14.194 -49.277)" fill="#7f4fc7"/>
            <path id="Trazado_194852-2" data-name="Trazado 194852" d="M68.409,70.992a1.112,1.112,0,1,0-.326.788,1.113,1.113,0,0,0,.326-.788" transform="translate(16.222 -49.277)" fill="#7f4fc7"/>
            <path id="Trazado_194853-2" data-name="Trazado 194853" d="M2.228,79.264a1.112,1.112,0,1,0-.326.788,1.113,1.113,0,0,0,.326-.788" transform="translate(0 -47.25)" fill="#7f4fc7"/>
            <path id="Trazado_194854-2" data-name="Trazado 194854" d="M10.5,79.264a1.112,1.112,0,1,0-.326.788,1.113,1.113,0,0,0,.326-.788" transform="translate(2.028 -47.25)" fill="#7f4fc7"/>
            <path id="Trazado_194855-2" data-name="Trazado 194855" d="M18.773,79.264a1.112,1.112,0,1,0-.326.788,1.113,1.113,0,0,0,.326-.788" transform="translate(4.056 -47.25)" fill="#7f4fc7"/>
            <path id="Trazado_194856-2" data-name="Trazado 194856" d="M27.046,79.264a1.112,1.112,0,1,0-.326.788,1.113,1.113,0,0,0,.326-.788" transform="translate(6.083 -47.25)" fill="#7f4fc7"/>
            <path id="Trazado_194857-2" data-name="Trazado 194857" d="M35.318,79.264a1.112,1.112,0,1,0-.326.788,1.113,1.113,0,0,0,.326-.788" transform="translate(8.111 -47.25)" fill="#7f4fc7"/>
            <path id="Trazado_194858-2" data-name="Trazado 194858" d="M43.587,79.264a1.112,1.112,0,1,0-.326.788,1.113,1.113,0,0,0,.326-.788" transform="translate(10.139 -47.25)" fill="#7f4fc7"/>
            <path id="Trazado_194859-2" data-name="Trazado 194859" d="M51.863,79.264a1.112,1.112,0,1,0-.326.788,1.113,1.113,0,0,0,.326-.788" transform="translate(12.167 -47.25)" fill="#7f4fc7"/>
            <path id="Trazado_194860-2" data-name="Trazado 194860" d="M60.136,79.264a1.113,1.113,0,1,0-1.113,1.113,1.113,1.113,0,0,0,1.113-1.113" transform="translate(14.194 -47.25)" fill="#7f4fc7"/>
            <path id="Trazado_194861-2" data-name="Trazado 194861" d="M68.409,79.264a1.112,1.112,0,1,0-.326.788,1.113,1.113,0,0,0,.326-.788" transform="translate(16.222 -47.25)" fill="#7f4fc7"/>
            <path id="Trazado_194862-2" data-name="Trazado 194862" d="M2.228,87.537a1.112,1.112,0,1,0-.325.788,1.113,1.113,0,0,0,.325-.788" transform="translate(0 -45.222)" fill="#7f4fc7"/>
            <path id="Trazado_194863-2" data-name="Trazado 194863" d="M10.5,87.537a1.112,1.112,0,1,0-.325.788,1.113,1.113,0,0,0,.325-.788" transform="translate(2.028 -45.222)" fill="#7f4fc7"/>
            <path id="Trazado_194864-2" data-name="Trazado 194864" d="M18.773,87.537a1.112,1.112,0,1,0-.325.788,1.113,1.113,0,0,0,.325-.788" transform="translate(4.056 -45.222)" fill="#7f4fc7"/>
            <path id="Trazado_194865-2" data-name="Trazado 194865" d="M27.046,87.537a1.112,1.112,0,1,0-.325.788,1.113,1.113,0,0,0,.325-.788" transform="translate(6.083 -45.222)" fill="#7f4fc7"/>
            <path id="Trazado_194866-2" data-name="Trazado 194866" d="M35.318,87.537a1.112,1.112,0,1,0-.325.788,1.113,1.113,0,0,0,.325-.788" transform="translate(8.111 -45.222)" fill="#7f4fc7"/>
            <path id="Trazado_194867-2" data-name="Trazado 194867" d="M43.587,87.537a1.112,1.112,0,1,0-.325.788,1.113,1.113,0,0,0,.325-.788" transform="translate(10.139 -45.222)" fill="#7f4fc7"/>
            <path id="Trazado_194868-2" data-name="Trazado 194868" d="M51.863,87.537a1.112,1.112,0,1,0-.325.788,1.113,1.113,0,0,0,.325-.788" transform="translate(12.167 -45.222)" fill="#7f4fc7"/>
            <path id="Trazado_194869-2" data-name="Trazado 194869" d="M60.136,87.537a1.113,1.113,0,1,0-1.113,1.114,1.113,1.113,0,0,0,1.113-1.114" transform="translate(14.194 -45.222)" fill="#7f4fc7"/>
            <path id="Trazado_194870-2" data-name="Trazado 194870" d="M68.409,87.537a1.112,1.112,0,1,0-.325.788,1.113,1.113,0,0,0,.325-.788" transform="translate(16.222 -45.222)" fill="#7f4fc7"/>
            <path id="Trazado_194871-2" data-name="Trazado 194871" d="M2.228,95.81A1.112,1.112,0,1,0,1.9,96.6a1.113,1.113,0,0,0,.326-.788" transform="translate(0 -43.194)" fill="#7f4fc7"/>
            <path id="Trazado_194872-2" data-name="Trazado 194872" d="M10.5,95.81a1.112,1.112,0,1,0-.326.788,1.113,1.113,0,0,0,.326-.788" transform="translate(2.028 -43.194)" fill="#7f4fc7"/>
            <path id="Trazado_194873-2" data-name="Trazado 194873" d="M18.773,95.81a1.112,1.112,0,1,0-.326.788,1.113,1.113,0,0,0,.326-.788" transform="translate(4.056 -43.194)" fill="#7f4fc7"/>
            <path id="Trazado_194874-2" data-name="Trazado 194874" d="M27.046,95.81a1.112,1.112,0,1,0-.326.788,1.113,1.113,0,0,0,.326-.788" transform="translate(6.083 -43.194)" fill="#7f4fc7"/>
            <path id="Trazado_194875-2" data-name="Trazado 194875" d="M35.318,95.81a1.112,1.112,0,1,0-.326.788,1.113,1.113,0,0,0,.326-.788" transform="translate(8.111 -43.194)" fill="#7f4fc7"/>
            <path id="Trazado_194876-2" data-name="Trazado 194876" d="M43.587,95.81a1.112,1.112,0,1,0-.326.788,1.113,1.113,0,0,0,.326-.788" transform="translate(10.139 -43.194)" fill="#7f4fc7"/>
            <path id="Trazado_194877-2" data-name="Trazado 194877" d="M51.863,95.81a1.112,1.112,0,1,0-.326.788,1.113,1.113,0,0,0,.326-.788" transform="translate(12.167 -43.194)" fill="#7f4fc7"/>
            <path id="Trazado_194878-2" data-name="Trazado 194878" d="M60.136,95.81a1.113,1.113,0,1,0-1.113,1.113,1.113,1.113,0,0,0,1.113-1.113" transform="translate(14.194 -43.194)" fill="#7f4fc7"/>
            <path id="Trazado_194879-2" data-name="Trazado 194879" d="M68.409,95.81a1.112,1.112,0,1,0-.326.788,1.113,1.113,0,0,0,.326-.788" transform="translate(16.222 -43.194)" fill="#7f4fc7"/>
            <path id="Trazado_194880-2" data-name="Trazado 194880" d="M2.228,104.082a1.112,1.112,0,1,0-.326.788,1.113,1.113,0,0,0,.326-.788" transform="translate(0 -41.166)" fill="#7f4fc7"/>
            <path id="Trazado_194881-2" data-name="Trazado 194881" d="M10.5,104.082a1.112,1.112,0,1,0-.326.788,1.113,1.113,0,0,0,.326-.788" transform="translate(2.028 -41.166)" fill="#7f4fc7"/>
            <path id="Trazado_194882-2" data-name="Trazado 194882" d="M18.773,104.082a1.112,1.112,0,1,0-.326.788,1.113,1.113,0,0,0,.326-.788" transform="translate(4.056 -41.166)" fill="#7f4fc7"/>
            <path id="Trazado_194883-2" data-name="Trazado 194883" d="M27.046,104.082a1.112,1.112,0,1,0-.326.788,1.113,1.113,0,0,0,.326-.788" transform="translate(6.083 -41.166)" fill="#7f4fc7"/>
            <path id="Trazado_194884-2" data-name="Trazado 194884" d="M35.318,104.082a1.112,1.112,0,1,0-.326.788,1.113,1.113,0,0,0,.326-.788" transform="translate(8.111 -41.166)" fill="#7f4fc7"/>
            <path id="Trazado_194885-2" data-name="Trazado 194885" d="M43.587,104.082a1.112,1.112,0,1,0-.326.788,1.113,1.113,0,0,0,.326-.788" transform="translate(10.139 -41.166)" fill="#7f4fc7"/>
            <path id="Trazado_194886-2" data-name="Trazado 194886" d="M51.863,104.082a1.112,1.112,0,1,0-.326.788,1.113,1.113,0,0,0,.326-.788" transform="translate(12.167 -41.166)" fill="#7f4fc7"/>
            <path id="Trazado_194887-2" data-name="Trazado 194887" d="M60.136,104.082a1.113,1.113,0,1,0-1.113,1.113,1.113,1.113,0,0,0,1.113-1.113" transform="translate(14.194 -41.166)" fill="#7f4fc7"/>
            <path id="Trazado_194888-2" data-name="Trazado 194888" d="M68.409,104.082a1.112,1.112,0,1,0-.326.788,1.113,1.113,0,0,0,.326-.788" transform="translate(16.222 -41.166)" fill="#7f4fc7"/>
            <path id="Trazado_194889-2" data-name="Trazado 194889" d="M2.228,112.355a1.112,1.112,0,1,0-.326.788,1.113,1.113,0,0,0,.326-.788" transform="translate(0 -39.138)" fill="#7f4fc7"/>
            <path id="Trazado_194890-2" data-name="Trazado 194890" d="M10.5,112.355a1.112,1.112,0,1,0-.326.788,1.113,1.113,0,0,0,.326-.788" transform="translate(2.028 -39.138)" fill="#7f4fc7"/>
            <path id="Trazado_194891-2" data-name="Trazado 194891" d="M18.773,112.355a1.112,1.112,0,1,0-.326.788,1.113,1.113,0,0,0,.326-.788" transform="translate(4.056 -39.138)" fill="#7f4fc7"/>
            <path id="Trazado_194892-2" data-name="Trazado 194892" d="M27.046,112.355a1.112,1.112,0,1,0-.326.788,1.113,1.113,0,0,0,.326-.788" transform="translate(6.083 -39.138)" fill="#7f4fc7"/>
            <path id="Trazado_194893-2" data-name="Trazado 194893" d="M35.318,112.355a1.112,1.112,0,1,0-.326.788,1.113,1.113,0,0,0,.326-.788" transform="translate(8.111 -39.138)" fill="#7f4fc7"/>
            <path id="Trazado_194894-2" data-name="Trazado 194894" d="M43.587,112.355a1.112,1.112,0,1,0-.326.788,1.113,1.113,0,0,0,.326-.788" transform="translate(10.139 -39.138)" fill="#7f4fc7"/>
            <path id="Trazado_194895-2" data-name="Trazado 194895" d="M51.863,112.355a1.112,1.112,0,1,0-.326.788,1.113,1.113,0,0,0,.326-.788" transform="translate(12.167 -39.138)" fill="#7f4fc7"/>
            <path id="Trazado_194896-2" data-name="Trazado 194896" d="M60.136,112.355a1.113,1.113,0,1,0-1.113,1.113,1.113,1.113,0,0,0,1.113-1.113" transform="translate(14.194 -39.138)" fill="#7f4fc7"/>
            <path id="Trazado_194897-2" data-name="Trazado 194897" d="M68.409,112.355a1.112,1.112,0,1,0-.326.788,1.113,1.113,0,0,0,.326-.788" transform="translate(16.222 -39.138)" fill="#7f4fc7"/>
            <path id="Trazado_194898-2" data-name="Trazado 194898" d="M2.228,120.627a1.112,1.112,0,1,0-.326.788,1.113,1.113,0,0,0,.326-.788" transform="translate(0 -37.111)" fill="#7f4fc7"/>
            <path id="Trazado_194899-2" data-name="Trazado 194899" d="M10.5,120.627a1.112,1.112,0,1,0-.326.788,1.113,1.113,0,0,0,.326-.788" transform="translate(2.028 -37.111)" fill="#7f4fc7"/>
            <path id="Trazado_194900-2" data-name="Trazado 194900" d="M18.773,120.627a1.112,1.112,0,1,0-.326.788,1.113,1.113,0,0,0,.326-.788" transform="translate(4.056 -37.111)" fill="#7f4fc7"/>
            <path id="Trazado_194901-2" data-name="Trazado 194901" d="M27.046,120.627a1.112,1.112,0,1,0-.326.788,1.113,1.113,0,0,0,.326-.788" transform="translate(6.083 -37.111)" fill="#7f4fc7"/>
            <path id="Trazado_194902-2" data-name="Trazado 194902" d="M35.318,120.627a1.112,1.112,0,1,0-.326.788,1.113,1.113,0,0,0,.326-.788" transform="translate(8.111 -37.111)" fill="#7f4fc7"/>
            <path id="Trazado_194903-2" data-name="Trazado 194903" d="M43.587,120.627a1.112,1.112,0,1,0-.326.788,1.113,1.113,0,0,0,.326-.788" transform="translate(10.139 -37.111)" fill="#7f4fc7"/>
            <path id="Trazado_194904-2" data-name="Trazado 194904" d="M51.863,120.627a1.112,1.112,0,1,0-.326.788,1.113,1.113,0,0,0,.326-.788" transform="translate(12.167 -37.111)" fill="#7f4fc7"/>
            <path id="Trazado_194905-2" data-name="Trazado 194905" d="M60.136,120.627a1.113,1.113,0,1,0-1.113,1.113,1.113,1.113,0,0,0,1.113-1.113" transform="translate(14.194 -37.111)" fill="#7f4fc7"/>
            <path id="Trazado_194906-2" data-name="Trazado 194906" d="M68.409,120.627a1.112,1.112,0,1,0-.326.788,1.113,1.113,0,0,0,.326-.788" transform="translate(16.222 -37.111)" fill="#7f4fc7"/>
          </g>
        </g>
        <g id="Grupo_155254" data-name="Grupo 155254" transform="translate(28.76 403.11)">
          <g id="Grupo_154318" data-name="Grupo 154318">
            <g id="Grupo_154315" data-name="Grupo 154315" transform="translate(32.747 9.551)">
              <path id="Trazado_195058" data-name="Trazado 195058" d="M14.017,225.789H54.543a1.523,1.523,0,0,0,0-3.038H14.017a1.523,1.523,0,1,0,0,3.038" transform="translate(-12.394 -222.747)" fill="#12263f"/>
              <path id="Trazado_195059" data-name="Trazado 195059" d="M83.974,225.789H94.206a1.523,1.523,0,0,0,0-3.038H83.974a1.523,1.523,0,1,0,0,3.038" transform="translate(-35.06 -222.747)" fill="#12263f"/>
              <path id="Trazado_195064" data-name="Trazado 195064" d="M112.811,232.612H84.346a1.067,1.067,0,1,0,0,2.134h28.469a1.067,1.067,0,1,0,0-2.134" transform="translate(-35.33 -225.943)" fill="#12263f"/>
              <path id="Trazado_195065" data-name="Trazado 195065" d="M73.867,232.612H66.681a1.067,1.067,0,1,0,0,2.134h7.186a1.067,1.067,0,1,0,0-2.134" transform="translate(-29.607 -225.943)" fill="#12263f"/>
            </g>
            <g id="Grupo_154316" data-name="Grupo 154316">
              <path id="Trazado_195062" data-name="Trazado 195062" d="M161.607,1.333H113.762c-.991,0-1.793.476-1.793,1.067s.8,1.068,1.793,1.068h47.845c.991,0,1.794-.476,1.794-1.068s-.8-1.067-1.794-1.067" transform="translate(-80.777 -1.333)" fill="#12263f"/>
              <path id="Trazado_195063" data-name="Trazado 195063" d="M115.873,1.333H97.1c-1.541,0-2.787.476-2.787,1.067S95.556,3.467,97.1,3.467h18.777c1.541,0,2.787-.476,2.787-1.068s-1.247-1.067-2.787-1.067" transform="translate(-94.309 -1.333)" fill="#12263f"/>
            </g>
          </g>
        </g>
        <g id="Grupo_154801" data-name="Grupo 154801" transform="translate(0 386.815)">
          <g id="Grupo_154721" data-name="Grupo 154721" clip-path="url(#clip-path-3)">
            <line id="Línea_1878" data-name="Línea 1878" x1="21.605" y2="101.839" transform="translate(61.14 29.463)" fill="none" stroke="#1e0b4a" stroke-linecap="round" stroke-linejoin="round" stroke-width="1.052"/>
            <path id="Trazado_196481" data-name="Trazado 196481" d="M238.009,274.732a8.116,8.116,0,1,1-8.116-8.116,8.116,8.116,0,0,1,8.116,8.116" transform="translate(-147.148 -245.268)" fill="#e6d09d"/>
            <path id="Trazado_196482" data-name="Trazado 196482" d="M250.969,334.8c-8.993,25.883-37.317,39.553-37.317,39.553s-13.743-28.29-4.749-54.171,37.317-39.552,37.317-39.552,13.743,28.289,4.749,54.17" transform="translate(-144.709 -243.048)" fill="#12263f"/>
            <path id="Trazado_196483" data-name="Trazado 196483" d="M294.477,324.773c4.17,39.347-24.428,74.631-24.428,74.631s-35.357-28.508-39.526-67.855,24.429-74.631,24.429-74.631,35.356,28.508,39.525,67.855" transform="translate(-213.683 -246.805)" fill="#e6d09d"/>
            <path id="Trazado_196484" data-name="Trazado 196484" d="M301.225,323.107A14.827,14.827,0,1,1,286.4,308.28a14.827,14.827,0,0,1,14.827,14.827" transform="translate(-268.053 -238.666)" fill="#12263f"/>
            <line id="Línea_1879" data-name="Línea 1879" x2="14.585" y2="137.648" transform="translate(41.781 14.95)" fill="none" stroke="#1e0b4a" stroke-linecap="round" stroke-linejoin="round" stroke-width="1.052"/>
            <line id="Línea_1880" data-name="Línea 1880" y1="17.929" x2="27.876" transform="translate(50.522 79.509)" fill="none" stroke="#1e0b4a" stroke-linecap="round" stroke-linejoin="round" stroke-width="1.052"/>
            <line id="Línea_1881" data-name="Línea 1881" x1="23.957" y1="12.551" transform="translate(22.858 49.911)" fill="none" stroke="#1e0b4a" stroke-linecap="round" stroke-linejoin="round" stroke-width="1.052"/>
            <line id="Línea_1882" data-name="Línea 1882" x2="26.068" y2="53.467" transform="translate(18.345 84.441)" fill="none" stroke="#1e0b4a" stroke-linecap="round" stroke-linejoin="round" stroke-width="1.052"/>
          </g>
        </g>
        <g id="Grupo_155255" data-name="Grupo 155255" transform="translate(0.001 23.371)">
          <g id="Grupo_154317" data-name="Grupo 154317">
            <g id="Grupo_154315-2" data-name="Grupo 154315" transform="translate(47.652 8.224)">
              <path id="Trazado_195058-2" data-name="Trazado 195058" d="M14.7,227.158H73.5a2.2,2.2,0,1,0,0-4.407H14.7a2.2,2.2,0,1,0,0,4.407" transform="translate(-12.5 -222.751)" fill="#615842"/>
              <path id="Trazado_195059-2" data-name="Trazado 195059" d="M84.665,227.158H99.51a2.2,2.2,0,1,0,0-4.407H84.665a2.2,2.2,0,1,0,0,4.407" transform="translate(-13.851 -222.751)" fill="#615842"/>
              <path id="Trazado_195064-2" data-name="Trazado 195064" d="M126.12,232.612h-41.3a1.548,1.548,0,1,0,0,3.1h41.3a1.548,1.548,0,0,0,0-3.1" transform="translate(-13.866 -222.941)" fill="#615842"/>
              <path id="Trazado_195065-2" data-name="Trazado 195065" d="M77.591,232.612H67.161a1.548,1.548,0,1,0,0,3.1H77.591a1.548,1.548,0,0,0,0-3.1" transform="translate(-13.525 -222.941)" fill="#615842"/>
            </g>
            <g id="Grupo_154316-2" data-name="Grupo 154316">
              <path id="Trazado_195062-2" data-name="Trazado 195062" d="M183.977,1.333h-69.41c-1.437,0-2.6.694-2.6,1.547s1.164,1.548,2.6,1.548h69.408c1.437,0,2.6-.694,2.6-1.548s-1.166-1.547-2.6-1.547" transform="translate(-66.719 -1.333)" fill="#615842"/>
              <path id="Trazado_195063-2" data-name="Trazado 195063" d="M125.591,1.333H98.352c-2.234,0-4.043.694-4.043,1.547s1.808,1.548,4.043,1.548h27.239c2.234,0,4.043-.694,4.043-1.548s-1.808-1.547-4.043-1.547" transform="translate(-94.309 -1.333)" fill="#615842"/>
            </g>
          </g>
        </g>
        <g id="Grupo_155256" data-name="Grupo 155256" transform="translate(199.334 155.617)">
          <rect id="Rectángulo_45220" data-name="Rectángulo 45220" width="106.857" height="25.376" transform="translate(48.291) rotate(90)" fill="#615842"/>
          <rect id="Rectángulo_45221" data-name="Rectángulo 45221" width="3.287" height="3.287" transform="translate(0 23.055) rotate(-90)" fill="#e6d09d"/>
          <rect id="Rectángulo_45222" data-name="Rectángulo 45222" width="3.287" height="3.287" transform="translate(0 30.038) rotate(-90)" fill="#e6d09d"/>
          <rect id="Rectángulo_45223" data-name="Rectángulo 45223" width="3.287" height="3.287" transform="translate(0 37.021) rotate(-90)" fill="#e6d09d"/>
          <rect id="Rectángulo_45224" data-name="Rectángulo 45224" width="3.286" height="3.287" transform="translate(0 44.005) rotate(-90)" fill="#e6d09d"/>
          <rect id="Rectángulo_45225" data-name="Rectángulo 45225" width="3.287" height="3.287" transform="translate(0 50.989) rotate(-90)" fill="#e6d09d"/>
          <rect id="Rectángulo_45226" data-name="Rectángulo 45226" width="3.286" height="3.287" transform="translate(0 57.972) rotate(-90)" fill="#e6d09d"/>
          <rect id="Rectángulo_45227" data-name="Rectángulo 45227" width="3.287" height="3.287" transform="translate(0 64.955) rotate(-90)" fill="#e6d09d"/>
          <rect id="Rectángulo_45228" data-name="Rectángulo 45228" width="3.286" height="3.287" transform="translate(0 71.939) rotate(-90)" fill="#e6d09d"/>
          <rect id="Rectángulo_45229" data-name="Rectángulo 45229" width="3.287" height="3.287" transform="translate(0 78.923) rotate(-90)" fill="#e6d09d"/>
          <rect id="Rectángulo_46135" data-name="Rectángulo 46135" width="3.287" height="3.287" transform="translate(0 99.873) rotate(-90)" fill="#e6d09d"/>
          <rect id="Rectángulo_46159" data-name="Rectángulo 46159" width="3.287" height="3.287" transform="translate(0 120.824) rotate(-90)" fill="#e6d09d"/>
          <rect id="Rectángulo_45230" data-name="Rectángulo 45230" width="3.287" height="3.287" transform="translate(0 85.905) rotate(-90)" fill="#e6d09d"/>
          <rect id="Rectángulo_46125" data-name="Rectángulo 46125" width="3.287" height="3.287" transform="translate(0 106.857) rotate(-90)" fill="#e6d09d"/>
          <rect id="Rectángulo_46160" data-name="Rectángulo 46160" width="3.287" height="3.287" transform="translate(0 127.807) rotate(-90)" fill="#e6d09d"/>
          <rect id="Rectángulo_46168" data-name="Rectángulo 46168" width="3.287" height="3.287" transform="translate(0 141.773) rotate(-90)" fill="#e6d09d"/>
          <rect id="Rectángulo_45231" data-name="Rectángulo 45231" width="3.287" height="3.287" transform="translate(0 92.889) rotate(-90)" fill="#e6d09d"/>
          <rect id="Rectángulo_46123" data-name="Rectángulo 46123" width="3.287" height="3.287" transform="translate(0 113.84) rotate(-90)" fill="#e6d09d"/>
          <rect id="Rectángulo_46161" data-name="Rectángulo 46161" width="3.287" height="3.287" transform="translate(0 134.79) rotate(-90)" fill="#e6d09d"/>
          <rect id="Rectángulo_46162" data-name="Rectángulo 46162" width="3.287" height="3.287" transform="translate(0 148.757) rotate(-90)" fill="#e6d09d"/>
          <rect id="Rectángulo_45232" data-name="Rectángulo 45232" width="3.287" height="3.287" transform="translate(6.984 23.055) rotate(-90)" fill="#e6d09d"/>
          <rect id="Rectángulo_45233" data-name="Rectángulo 45233" width="3.287" height="3.287" transform="translate(6.984 30.038) rotate(-90)" fill="#e6d09d"/>
          <rect id="Rectángulo_45234" data-name="Rectángulo 45234" width="3.287" height="3.287" transform="translate(6.984 37.021) rotate(-90)" fill="#e6d09d"/>
          <rect id="Rectángulo_45235" data-name="Rectángulo 45235" width="3.286" height="3.287" transform="translate(6.984 44.005) rotate(-90)" fill="#e6d09d"/>
          <rect id="Rectángulo_45236" data-name="Rectángulo 45236" width="3.287" height="3.287" transform="translate(6.984 50.989) rotate(-90)" fill="#e6d09d"/>
          <rect id="Rectángulo_45237" data-name="Rectángulo 45237" width="3.286" height="3.287" transform="translate(6.984 57.972) rotate(-90)" fill="#e6d09d"/>
          <rect id="Rectángulo_45238" data-name="Rectángulo 45238" width="3.287" height="3.287" transform="translate(6.984 64.955) rotate(-90)" fill="#e6d09d"/>
          <rect id="Rectángulo_45239" data-name="Rectángulo 45239" width="3.286" height="3.287" transform="translate(6.984 71.939) rotate(-90)" fill="#e6d09d"/>
          <rect id="Rectángulo_45240" data-name="Rectángulo 45240" width="3.287" height="3.287" transform="translate(6.984 78.923) rotate(-90)" fill="#e6d09d"/>
          <rect id="Rectángulo_46136" data-name="Rectángulo 46136" width="3.287" height="3.287" transform="translate(6.984 99.873) rotate(-90)" fill="#e6d09d"/>
          <rect id="Rectángulo_46156" data-name="Rectángulo 46156" width="3.287" height="3.287" transform="translate(6.984 120.824) rotate(-90)" fill="#e6d09d"/>
          <rect id="Rectángulo_45241" data-name="Rectángulo 45241" width="3.287" height="3.287" transform="translate(6.984 85.905) rotate(-90)" fill="#e6d09d"/>
          <rect id="Rectángulo_46126" data-name="Rectángulo 46126" width="3.287" height="3.287" transform="translate(6.984 106.857) rotate(-90)" fill="#e6d09d"/>
          <rect id="Rectángulo_46157" data-name="Rectángulo 46157" width="3.287" height="3.287" transform="translate(6.984 127.807) rotate(-90)" fill="#e6d09d"/>
          <rect id="Rectángulo_46169" data-name="Rectángulo 46169" width="3.287" height="3.287" transform="translate(6.984 141.773) rotate(-90)" fill="#e6d09d"/>
          <rect id="Rectángulo_45242" data-name="Rectángulo 45242" width="3.287" height="3.287" transform="translate(6.984 92.889) rotate(-90)" fill="#e6d09d"/>
          <rect id="Rectángulo_46124" data-name="Rectángulo 46124" width="3.287" height="3.287" transform="translate(6.984 113.84) rotate(-90)" fill="#e6d09d"/>
          <rect id="Rectángulo_46158" data-name="Rectángulo 46158" width="3.287" height="3.287" transform="translate(6.984 134.79) rotate(-90)" fill="#e6d09d"/>
          <rect id="Rectángulo_46163" data-name="Rectángulo 46163" width="3.287" height="3.287" transform="translate(6.984 148.757) rotate(-90)" fill="#e6d09d"/>
          <rect id="Rectángulo_45243" data-name="Rectángulo 45243" width="3.287" height="3.287" transform="translate(12.856 23.055) rotate(-90)" fill="#e6d09d"/>
          <rect id="Rectángulo_45244" data-name="Rectángulo 45244" width="3.287" height="3.287" transform="translate(12.856 30.038) rotate(-90)" fill="#e6d09d"/>
          <rect id="Rectángulo_45245" data-name="Rectángulo 45245" width="3.287" height="3.287" transform="translate(12.856 37.021) rotate(-90)" fill="#e6d09d"/>
          <rect id="Rectángulo_45246" data-name="Rectángulo 45246" width="3.286" height="3.287" transform="translate(12.856 44.005) rotate(-90)" fill="#e6d09d"/>
          <rect id="Rectángulo_45247" data-name="Rectángulo 45247" width="3.287" height="3.287" transform="translate(12.856 50.989) rotate(-90)" fill="#e6d09d"/>
          <rect id="Rectángulo_45248" data-name="Rectángulo 45248" width="3.286" height="3.287" transform="translate(12.856 57.972) rotate(-90)" fill="#e6d09d"/>
          <rect id="Rectángulo_45249" data-name="Rectángulo 45249" width="3.287" height="3.287" transform="translate(12.856 64.955) rotate(-90)" fill="#e6d09d"/>
          <rect id="Rectángulo_45250" data-name="Rectángulo 45250" width="3.286" height="3.287" transform="translate(12.856 71.939) rotate(-90)" fill="#e6d09d"/>
          <rect id="Rectángulo_45251" data-name="Rectángulo 45251" width="3.287" height="3.287" transform="translate(12.856 78.923) rotate(-90)" fill="#e6d09d"/>
          <rect id="Rectángulo_46137" data-name="Rectángulo 46137" width="3.287" height="3.287" transform="translate(12.856 99.873) rotate(-90)" fill="#e6d09d"/>
          <rect id="Rectángulo_46146" data-name="Rectángulo 46146" width="3.287" height="3.287" transform="translate(12.856 120.824) rotate(-90)" fill="#e6d09d"/>
          <rect id="Rectángulo_45252" data-name="Rectángulo 45252" width="3.287" height="3.287" transform="translate(12.856 85.905) rotate(-90)" fill="#e6d09d"/>
          <rect id="Rectángulo_46127" data-name="Rectángulo 46127" width="3.287" height="3.287" transform="translate(12.856 106.857) rotate(-90)" fill="#e6d09d"/>
          <rect id="Rectángulo_46147" data-name="Rectángulo 46147" width="3.287" height="3.287" transform="translate(12.856 127.807) rotate(-90)" fill="#e6d09d"/>
          <rect id="Rectángulo_46170" data-name="Rectángulo 46170" width="3.287" height="3.287" transform="translate(12.856 141.773) rotate(-90)" fill="#e6d09d"/>
          <rect id="Rectángulo_45253" data-name="Rectángulo 45253" width="3.287" height="3.287" transform="translate(12.856 92.889) rotate(-90)" fill="#e6d09d"/>
          <rect id="Rectángulo_46128" data-name="Rectángulo 46128" width="3.287" height="3.287" transform="translate(12.856 113.84) rotate(-90)" fill="#e6d09d"/>
          <rect id="Rectángulo_46148" data-name="Rectángulo 46148" width="3.287" height="3.287" transform="translate(12.856 134.79) rotate(-90)" fill="#e6d09d"/>
          <rect id="Rectángulo_46164" data-name="Rectángulo 46164" width="3.287" height="3.287" transform="translate(12.856 148.757) rotate(-90)" fill="#e6d09d"/>
          <rect id="Rectángulo_45221-2" data-name="Rectángulo 45221" width="3.287" height="3.287" transform="translate(18.747 23.055) rotate(-90)" fill="#e6d09d"/>
          <rect id="Rectángulo_45222-2" data-name="Rectángulo 45222" width="3.287" height="3.287" transform="translate(18.747 30.038) rotate(-90)" fill="#e6d09d"/>
          <rect id="Rectángulo_45223-2" data-name="Rectángulo 45223" width="3.287" height="3.287" transform="translate(18.747 37.021) rotate(-90)" fill="#e6d09d"/>
          <rect id="Rectángulo_45224-2" data-name="Rectángulo 45224" width="3.286" height="3.287" transform="translate(18.747 44.005) rotate(-90)" fill="#e6d09d"/>
          <rect id="Rectángulo_45225-2" data-name="Rectángulo 45225" width="3.287" height="3.287" transform="translate(18.747 50.989) rotate(-90)" fill="#e6d09d"/>
          <rect id="Rectángulo_45226-2" data-name="Rectángulo 45226" width="3.286" height="3.287" transform="translate(18.747 57.972) rotate(-90)" fill="#e6d09d"/>
          <rect id="Rectángulo_45227-2" data-name="Rectángulo 45227" width="3.287" height="3.287" transform="translate(18.747 64.955) rotate(-90)" fill="#e6d09d"/>
          <rect id="Rectángulo_45228-2" data-name="Rectángulo 45228" width="3.286" height="3.287" transform="translate(18.747 71.939) rotate(-90)" fill="#e6d09d"/>
          <rect id="Rectángulo_45229-2" data-name="Rectángulo 45229" width="3.287" height="3.287" transform="translate(18.747 78.923) rotate(-90)" fill="#e6d09d"/>
          <rect id="Rectángulo_46138" data-name="Rectángulo 46138" width="3.287" height="3.287" transform="translate(18.747 99.873) rotate(-90)" fill="#e6d09d"/>
          <rect id="Rectángulo_46149" data-name="Rectángulo 46149" width="3.287" height="3.287" transform="translate(18.747 120.824) rotate(-90)" fill="#e6d09d"/>
          <rect id="Rectángulo_45230-2" data-name="Rectángulo 45230" width="3.287" height="3.287" transform="translate(18.747 85.905) rotate(-90)" fill="#e6d09d"/>
          <rect id="Rectángulo_46129" data-name="Rectángulo 46129" width="3.287" height="3.287" transform="translate(18.747 106.857) rotate(-90)" fill="#e6d09d"/>
          <rect id="Rectángulo_46150" data-name="Rectángulo 46150" width="3.287" height="3.287" transform="translate(18.747 127.807) rotate(-90)" fill="#e6d09d"/>
          <rect id="Rectángulo_46171" data-name="Rectángulo 46171" width="3.287" height="3.287" transform="translate(18.747 141.773) rotate(-90)" fill="#e6d09d"/>
          <rect id="Rectángulo_45231-2" data-name="Rectángulo 45231" width="3.287" height="3.287" transform="translate(18.747 92.889) rotate(-90)" fill="#e6d09d"/>
          <rect id="Rectángulo_46130" data-name="Rectángulo 46130" width="3.287" height="3.287" transform="translate(18.747 113.84) rotate(-90)" fill="#e6d09d"/>
          <rect id="Rectángulo_46151" data-name="Rectángulo 46151" width="3.287" height="3.287" transform="translate(18.747 134.79) rotate(-90)" fill="#e6d09d"/>
          <rect id="Rectángulo_46165" data-name="Rectángulo 46165" width="3.287" height="3.287" transform="translate(18.747 148.757) rotate(-90)" fill="#e6d09d"/>
          <rect id="Rectángulo_45232-2" data-name="Rectángulo 45232" width="3.287" height="3.287" transform="translate(25.175 23.055) rotate(-90)" fill="#e6d09d"/>
          <rect id="Rectángulo_45233-2" data-name="Rectángulo 45233" width="3.287" height="3.287" transform="translate(25.175 30.038) rotate(-90)" fill="#e6d09d"/>
          <rect id="Rectángulo_45234-2" data-name="Rectángulo 45234" width="3.287" height="3.287" transform="translate(25.175 37.021) rotate(-90)" fill="#e6d09d"/>
          <rect id="Rectángulo_45235-2" data-name="Rectángulo 45235" width="3.286" height="3.287" transform="translate(25.175 44.005) rotate(-90)" fill="#e6d09d"/>
          <rect id="Rectángulo_45236-2" data-name="Rectángulo 45236" width="3.287" height="3.287" transform="translate(25.175 50.989) rotate(-90)" fill="#e6d09d"/>
          <rect id="Rectángulo_45237-2" data-name="Rectángulo 45237" width="3.286" height="3.287" transform="translate(25.175 57.972) rotate(-90)" fill="#e6d09d"/>
          <rect id="Rectángulo_45238-2" data-name="Rectángulo 45238" width="3.287" height="3.287" transform="translate(25.175 64.955) rotate(-90)" fill="#e6d09d"/>
          <rect id="Rectángulo_45239-2" data-name="Rectángulo 45239" width="3.286" height="3.287" transform="translate(25.175 71.939) rotate(-90)" fill="#e6d09d"/>
          <rect id="Rectángulo_45240-2" data-name="Rectángulo 45240" width="3.287" height="3.287" transform="translate(25.175 78.923) rotate(-90)" fill="#e6d09d"/>
          <rect id="Rectángulo_46139" data-name="Rectángulo 46139" width="3.287" height="3.287" transform="translate(25.175 99.873) rotate(-90)" fill="#e6d09d"/>
          <rect id="Rectángulo_46152" data-name="Rectángulo 46152" width="3.287" height="3.287" transform="translate(25.175 120.824) rotate(-90)" fill="#e6d09d"/>
          <rect id="Rectángulo_45241-2" data-name="Rectángulo 45241" width="3.287" height="3.287" transform="translate(25.175 85.905) rotate(-90)" fill="#e6d09d"/>
          <rect id="Rectángulo_46131" data-name="Rectángulo 46131" width="3.287" height="3.287" transform="translate(25.175 106.857) rotate(-90)" fill="#e6d09d"/>
          <rect id="Rectángulo_46153" data-name="Rectángulo 46153" width="3.287" height="3.287" transform="translate(25.175 127.807) rotate(-90)" fill="#e6d09d"/>
          <rect id="Rectángulo_46172" data-name="Rectángulo 46172" width="3.287" height="3.287" transform="translate(25.175 141.773) rotate(-90)" fill="#e6d09d"/>
          <rect id="Rectángulo_45242-2" data-name="Rectángulo 45242" width="3.287" height="3.287" transform="translate(25.175 92.889) rotate(-90)" fill="#e6d09d"/>
          <rect id="Rectángulo_46132" data-name="Rectángulo 46132" width="3.287" height="3.287" transform="translate(25.175 113.84) rotate(-90)" fill="#e6d09d"/>
          <rect id="Rectángulo_46154" data-name="Rectángulo 46154" width="3.287" height="3.287" transform="translate(25.175 134.79) rotate(-90)" fill="#e6d09d"/>
          <rect id="Rectángulo_46166" data-name="Rectángulo 46166" width="3.287" height="3.287" transform="translate(25.175 148.757) rotate(-90)" fill="#e6d09d"/>
          <rect id="Rectángulo_45243-2" data-name="Rectángulo 45243" width="3.287" height="3.287" transform="translate(31.603 23.055) rotate(-90)" fill="#e6d09d"/>
          <rect id="Rectángulo_45244-2" data-name="Rectángulo 45244" width="3.287" height="3.287" transform="translate(31.603 30.038) rotate(-90)" fill="#e6d09d"/>
          <rect id="Rectángulo_45245-2" data-name="Rectángulo 45245" width="3.287" height="3.287" transform="translate(31.603 37.021) rotate(-90)" fill="#e6d09d"/>
          <rect id="Rectángulo_45246-2" data-name="Rectángulo 45246" width="3.286" height="3.287" transform="translate(31.603 44.005) rotate(-90)" fill="#e6d09d"/>
          <rect id="Rectángulo_45247-2" data-name="Rectángulo 45247" width="3.287" height="3.287" transform="translate(31.603 50.989) rotate(-90)" fill="#e6d09d"/>
          <rect id="Rectángulo_45248-2" data-name="Rectángulo 45248" width="3.286" height="3.287" transform="translate(31.603 57.972) rotate(-90)" fill="#e6d09d"/>
          <rect id="Rectángulo_45249-2" data-name="Rectángulo 45249" width="3.287" height="3.287" transform="translate(31.603 64.955) rotate(-90)" fill="#e6d09d"/>
          <rect id="Rectángulo_45250-2" data-name="Rectángulo 45250" width="3.286" height="3.287" transform="translate(31.603 71.939) rotate(-90)" fill="#e6d09d"/>
          <rect id="Rectángulo_45251-2" data-name="Rectángulo 45251" width="3.287" height="3.287" transform="translate(31.603 78.923) rotate(-90)" fill="#e6d09d"/>
          <rect id="Rectángulo_46140" data-name="Rectángulo 46140" width="3.287" height="3.287" transform="translate(31.603 99.873) rotate(-90)" fill="#e6d09d"/>
          <rect id="Rectángulo_46144" data-name="Rectángulo 46144" width="3.287" height="3.287" transform="translate(31.603 120.824) rotate(-90)" fill="#e6d09d"/>
          <rect id="Rectángulo_45252-2" data-name="Rectángulo 45252" width="3.287" height="3.287" transform="translate(31.603 85.905) rotate(-90)" fill="#e6d09d"/>
          <rect id="Rectángulo_46133" data-name="Rectángulo 46133" width="3.287" height="3.287" transform="translate(31.603 106.857) rotate(-90)" fill="#e6d09d"/>
          <rect id="Rectángulo_46145" data-name="Rectángulo 46145" width="3.287" height="3.287" transform="translate(31.603 127.807) rotate(-90)" fill="#e6d09d"/>
          <rect id="Rectángulo_46173" data-name="Rectángulo 46173" width="3.287" height="3.287" transform="translate(31.603 141.773) rotate(-90)" fill="#e6d09d"/>
          <rect id="Rectángulo_45253-2" data-name="Rectángulo 45253" width="3.287" height="3.287" transform="translate(31.603 92.889) rotate(-90)" fill="#e6d09d"/>
          <rect id="Rectángulo_46134" data-name="Rectángulo 46134" width="3.287" height="3.287" transform="translate(31.603 113.84) rotate(-90)" fill="#e6d09d"/>
          <rect id="Rectángulo_46155" data-name="Rectángulo 46155" width="3.287" height="3.287" transform="translate(31.603 134.79) rotate(-90)" fill="#e6d09d"/>
          <rect id="Rectángulo_46167" data-name="Rectángulo 46167" width="3.287" height="3.287" transform="translate(31.603 148.757) rotate(-90)" fill="#e6d09d"/>
        </g>
      </g>
      <g id="Group_1073395" data-name="Group 1073395" transform="translate(14.064 22.364)">
        <g id="Group_1073394" data-name="Group 1073394" transform="translate(0 0)" clip-path="url(#clip-path-4)">
          <g id="Group_1073393" data-name="Group 1073393">
            <g id="Group_1073392" data-name="Group 1073392" clip-path="url(#clip-path-4)">
              <path id="Path_610208" data-name="Path 610208" d="M87.563,148.67a14.014,14.014,0,0,0,7.266-1.3c11.816-5.582,25.031-16.341,39.276-31.975a270.355,270.355,0,0,0,17.533-21.284,14.092,14.092,0,0,0-22.824-16.536c-6.932,9.55-28.713,36.131-46.027,44.312a14.095,14.095,0,0,0,4.775,26.782" transform="translate(-51.51 29.858)" fill="#b5591d"/>
              <path id="Path_610209" data-name="Path 610209" d="M110.848,72.148l-23.76,28.1,14.124,32.174,15.658-17.883s2.263-35.689-6.023-42.387" transform="translate(-31.871 30.022)" fill="#e6d09d"/>
              <path id="Path_610210" data-name="Path 610210" d="M119.73,70.726a10.947,10.947,0,0,1,13.443,7.681l.057.21,1.232,4.515,1.3,4.571q1.319,4.567,2.719,9.106c1.866,6.044,3.836,12.034,5.956,17.877,1.061,2.919,2.161,5.8,3.309,8.6s2.349,5.531,3.605,8.068c.627,1.265,1.269,2.481,1.91,3.59l.024.038c-.843,1.372-1.749,2.712-2.684,4.033H126.583c-.9-2.366-1.725-4.7-2.5-7.024-1.085-3.27-2.073-6.516-3.006-9.753-1.858-6.475-3.5-12.916-5.014-19.365q-1.139-4.835-2.182-9.678l-1.025-4.854-.5-2.44-.493-2.5a10.986,10.986,0,0,1,7.861-12.681" transform="translate(-102.806 29.269)" fill="#b5591d"/>
              <path id="Path_610211" data-name="Path 610211" d="M144.5,76.489s-2.681,12.5-20.044,12.288a12.165,12.165,0,0,0,1.216,5.606s14.181,0,20.313-11.846c0,0,.86-2.457-1.486-6.048" transform="translate(-113.775 31.829)" fill="#36251f"/>
              <path id="Path_610212" data-name="Path 610212" d="M114.12,103.367a.791.791,0,0,0,.129.2c2.15,2.434,3.648,7.742,3.662,7.794a.765.765,0,1,0,1.474-.411c-.065-.232-1.61-5.7-3.989-8.4a.765.765,0,0,0-1.276.81" transform="translate(-72.324 42.569)" fill="#8f2d00"/>
              <path id="Path_610213" data-name="Path 610213" d="M111.9,103.691a.759.759,0,0,0,.2.139c2.91,1.44,6.3,5.785,6.339,5.829a.765.765,0,0,0,1.209-.937c-.149-.19-3.648-4.669-6.871-6.262a.765.765,0,0,0-.874,1.232" transform="translate(-69.324 42.603)" fill="#8f2d00"/>
              <path id="Path_610214" data-name="Path 610214" d="M142.986,94.756s-11.921-.457-16.438-6.334c-5.068-6.588,4.135-21.791,8.269-24.764,5.172-3.72,12.04,3.886,12.04,3.886s5.165-10.755,7.943-9.3c3.621,1.893-2.791,9.985,1.263,19.245.911,2.072.448,4.506-.273,6.65-1.362,4.054-4.719,9.945-12.8,10.618" transform="translate(-125.062 24.18)" fill="#b5591d"/>
              <path id="Path_610215" data-name="Path 610215" d="M147.148,79.154a.706.706,0,0,0-.193-.653c-.181-.178-4.485-4.381-8.542-5.429a.7.7,0,1,0-.35,1.361c3.693.953,7.864,5.029,7.906,5.07a.7.7,0,0,0,.993-.007.7.7,0,0,0,.186-.341" transform="translate(-133.323 30.397)" fill="#8f2d00"/>
              <path id="Path_610216" data-name="Path 610216" d="M145.291,75.663a.7.7,0,0,0-.157-.613,19.525,19.525,0,0,0-9.623-5.564.7.7,0,0,0-.841.528v.006a.7.7,0,0,0,.53.836,18.433,18.433,0,0,1,8.876,5.119.7.7,0,0,0,.991.065.7.7,0,0,0,.224-.377" transform="translate(-127.383 28.907)" fill="#8f2d00"/>
              <path id="Path_610217" data-name="Path 610217" d="M142.69,71.151a.7.7,0,0,0-.152-.608,17.4,17.4,0,0,0-8.757-5,.7.7,0,0,0-.844.525.693.693,0,0,0,.525.843,16.288,16.288,0,0,1,8.008,4.546.7.7,0,0,0,1.219-.306" transform="translate(-122.322 27.266)" fill="#8f2d00"/>
              <path id="Path_610218" data-name="Path 610218" d="M136.672,80.894a.705.705,0,0,0-.331-.758c-4.189-2.448-4.849-7.571-4.856-7.622a.7.7,0,0,0-1.395.164c.027.238.736,5.861,5.541,8.671a.7.7,0,0,0,1.041-.456" transform="translate(-112.293 29.917)" fill="#8f2d00"/>
              <path id="Path_610219" data-name="Path 610219" d="M143.3,72.115a19.012,19.012,0,0,0,.389-5.786.7.7,0,1,0-1.4.123c.957,10.974-9.229,19.247-9.332,19.329a.7.7,0,0,0,.877,1.1c.367-.293,7.559-6.125,9.465-14.764" transform="translate(-123.058 27.334)" fill="#8f2d00"/>
              <path id="Path_610220" data-name="Path 610220" d="M17.329,60.333s12.594-7.637,22.6-3.577S57.068,76.4,57.068,76.4l-26.8,5.727Z" transform="translate(127.002 23.122)" fill="#5b413c"/>
              <path id="Path_610221" data-name="Path 610221" d="M.255,88.579s18.158-21.787,28.491-3.137c11.132,20.095,2.327,35.785,2.327,35.785l-17.88-10.85Z" transform="translate(173.872 32.414)" fill="#5b413c"/>
              <path id="Path_610222" data-name="Path 610222" d="M0,63.311S28.035,38.648,63.34,74.388s31.589,89.43,12.019,107.339-49.1,8.021-49.1,8.021Z" transform="translate(118.564 22.894)" fill="#36251f"/>
              <path id="Path_610223" data-name="Path 610223" d="M94.2,326.693l-1.964,14.731H73.956l1.964-14.731Z" transform="translate(9.682 135.944)" fill="#b5591d"/>
              <path id="Path_610224" data-name="Path 610224" d="M72.186,367.083h66.548a9.262,9.262,0,0,0,.875-3.7c.416-5.628-1.379-14.612-2.259-20.276-.1-.663-.2-1.28-.268-1.84a19.642,19.642,0,0,1-.2-2.312c0-4.622-4.093-3.831-4.093-3.831-6.735,6.6-14.359-3.3-18.813-.051,0,0-1.916,1.374-7.2,6.128S92.511,349.1,84.863,352.3c-9.876,4.128-12.677,8.252-13.222,11.091a5.2,5.2,0,0,0,.545,3.7" transform="translate(-32.356 139.152)" fill="#d65900"/>
              <path id="Path_610225" data-name="Path 610225" d="M72.229,358.566h66.548a9.262,9.262,0,0,0,.875-3.7H71.684a5.2,5.2,0,0,0,.545,3.7" transform="translate(-32.4 147.669)" fill="#aa3714"/>
              <path id="Path_610226" data-name="Path 610226" d="M76.375,365.065h1.977a14.6,14.6,0,0,1-3.577-10.655,18.762,18.762,0,0,1,7.007-13.317c-.106-.663-.2-1.28-.269-1.84-2.955,2.259-7.935,7.2-8.323,15.077a16.152,16.152,0,0,0,3.185,10.734" transform="translate(23.213 141.171)" fill="#aa3714"/>
              <path id="Path_610227" data-name="Path 610227" d="M98.25,342.6a1.1,1.1,0,0,0,.263-2.161l-4.158-1.032a1.1,1.1,0,1,0-.527,2.128l4.156,1.032a1.137,1.137,0,0,0,.265.033" transform="translate(-22.428 141.22)" fill="#f4ece1"/>
              <path id="Path_610228" data-name="Path 610228" d="M95.4,340.321a1.1,1.1,0,0,0,.263-2.161L91.5,337.128a1.1,1.1,0,1,0-.527,2.128l4.156,1.032a1.138,1.138,0,0,0,.265.033" transform="translate(-15.533 140.272)" fill="#f4ece1"/>
              <path id="Path_610229" data-name="Path 610229" d="M101.376,344.633a1.1,1.1,0,0,0,.263-2.161l-4.158-1.032a1.1,1.1,0,1,0-.528,2.128l4.158,1.032a1.067,1.067,0,0,0,.265.033" transform="translate(-29.981 142.067)" fill="#f4ece1"/>
              <path id="Path_610230" data-name="Path 610230" d="M104.312,346.273a1.1,1.1,0,0,0,.263-2.161l-4.158-1.032a1.1,1.1,0,0,0-.528,2.128l4.158,1.032a1.131,1.131,0,0,0,.265.033" transform="translate(-37.075 142.749)" fill="#f4ece1"/>
              <path id="Path_610231" data-name="Path 610231" d="M107.513,347.79a1.1,1.1,0,0,0,.263-2.161l-4.158-1.032a1.1,1.1,0,1,0-.528,2.128l4.158,1.032a1.068,1.068,0,0,0,.265.033" transform="translate(-44.809 143.381)" fill="#f4ece1"/>
              <path id="Path_610232" data-name="Path 610232" d="M110.984,349.084a1.1,1.1,0,0,0,.263-2.161l-4.158-1.032a1.1,1.1,0,0,0-.528,2.128l4.158,1.032a1.13,1.13,0,0,0,.265.033" transform="translate(-53.195 143.919)" fill="#f4ece1"/>
              <path id="Path_610233" data-name="Path 610233" d="M107.544,175.1s-9.281,68.591-9.92,90.332c0,0-.135,34.842-.969,54.807s-15.713,77.289-15.713,77.289l-24.424-2.3L53.862,258.97,59.61,169.3Z" transform="translate(24.791 70.448)" fill="#5e5a55"/>
              <path id="Path_610234" data-name="Path 610234" d="M60.663,381.374a1.029,1.029,0,0,0,1.005-.816c.086-.411,8.7-41.286,11.612-60.192,2.855-18.554.169-59.559.017-61.829,1.762-15.249,9.022-73.992,9.1-74.586a1.028,1.028,0,1,0-2.041-.252c-.074.593-7.367,59.588-9.11,74.695a1.049,1.049,0,0,0,0,.188c.03.425,2.9,42.706.01,61.472-2.9,18.85-11.506,59.668-11.592,60.079a1.028,1.028,0,0,0,.793,1.218,1.006,1.006,0,0,0,.214.023" transform="translate(41.761 76.066)" fill="#a19d98"/>
              <path id="Path_610235" data-name="Path 610235" d="M97.154,325.31a1.029,1.029,0,0,0,.067-2.055L71.9,321.593a1.028,1.028,0,1,0-.135,2.052l25.322,1.663a.539.539,0,0,0,.068,0" transform="translate(10.163 133.821)" fill="#9e9b96"/>
              <path id="Path_610236" data-name="Path 610236" d="M113.33,154.638s4.4,23.692.969,38.234c0,0-67.2,6.058-91.433-3.2,0,0,.312-23.642,2.955-35.121Z" transform="translate(60.623 64.313)" fill="#632627"/>
              <path id="Path_610237" data-name="Path 610237" d="M39.13,323.491l1.123,16.384-19.615-.722-1.03-14.6Z" transform="translate(140.588 134.612)" fill="#b5591d"/>
              <path id="Path_610238" data-name="Path 610238" d="M7.14,363.933c0,.173,0,.34.008.506.016.766.048,1.456.082,2.046.078,1.3.171,2.1.171,2.1H50.578a23.71,23.71,0,0,0,.05-4.148c-.283-4.413-1.747-11.381-7.711-15.985-8.163-6.312-5.01-4.995-6.686-7.871-.188-.32-1.658-5.208-1.814-5.544-1.4-2.988-2.695-4.4-10.431-4.4-10.26,0-11.162,4.978-12.258,7.6a48.831,48.831,0,0,0-1.708,6.095c-.258,1.09-.517,2.256-.77,3.443-.633,2.975-1.224,6.082-1.626,8.56a44.806,44.806,0,0,0-.484,7.6" transform="translate(147.817 137.586)" fill="#d65900"/>
              <path id="Path_610239" data-name="Path 610239" d="M34.02,359.922c0,.173,0,.34.008.506.016.766.048,1.456.082,2.046a12.05,12.05,0,0,0,4.485-5.815c2.672-7.276-1.436-16.009-1.609-16.379l-.086.042c-.258,1.09-.517,2.256-.77,3.443.971,2.971,2.092,7.966.537,12.193a10.045,10.045,0,0,1-2.647,3.964" transform="translate(120.938 141.598)" fill="#aa3714"/>
              <path id="Path_610240" data-name="Path 610240" d="M7.135,354.506c.058,2.458.255,4.149.255,4.149H50.566a23.834,23.834,0,0,0,.048-4.149Z" transform="translate(147.83 147.518)" fill="#aa3714"/>
              <path id="Path_610241" data-name="Path 610241" d="M19.839,341.083a1.24,1.24,0,0,0,.31-.04,21.361,21.361,0,0,1,10.009-.205,1.231,1.231,0,1,0,.656-2.373,23.633,23.633,0,0,0-11.282.2,1.231,1.231,0,0,0,.307,2.423" transform="translate(150.541 140.602)" fill="#f4ece1"/>
              <path id="Path_610242" data-name="Path 610242" d="M20.2,337.85a1.243,1.243,0,0,0,.31-.04A21.338,21.338,0,0,1,30.52,337.6a1.231,1.231,0,1,0,.656-2.373,23.633,23.633,0,0,0-11.282.2,1.231,1.231,0,0,0,.307,2.423" transform="translate(149.666 139.256)" fill="#f4ece1"/>
              <path id="Path_610243" data-name="Path 610243" d="M18.537,343.837a1.244,1.244,0,0,0,.312-.04,21.535,21.535,0,0,1,10.009-.205,1.232,1.232,0,0,0,.654-2.375,23.658,23.658,0,0,0-11.281.2,1.231,1.231,0,0,0,.306,2.423" transform="translate(153.688 141.747)" fill="#f4ece1"/>
              <path id="Path_610244" data-name="Path 610244" d="M17,346.969a1.228,1.228,0,0,0,.31-.04,21.541,21.541,0,0,1,10.011-.205,1.231,1.231,0,0,0,.654-2.373,23.643,23.643,0,0,0-11.282.194A1.232,1.232,0,0,0,17,346.969" transform="translate(157.391 143.051)" fill="#f4ece1"/>
              <path id="Path_610245" data-name="Path 610245" d="M18.609,181.881s8.973,103.03,12.211,125.127C34.835,334.391,46.3,389.257,46.3,389.257s15.045,1.038,24.563-1.184l-6.615-211.73Z" transform="translate(111.398 73.38)" fill="#5e5a55"/>
              <path id="Path_610246" data-name="Path 610246" d="M55.511,152.655c.011.255.021.513.033.776.292,6.885.656,16.637.844,26.586.013.548.021,1.1.034,1.65.051,3.174.088,6.354.1,9.453a.8.8,0,0,1-.79.8h-.006a.8.8,0,0,1-.8-.8c-.008-2.994-.044-6.06-.095-9.123-.008-.538-.017-1.078-.028-1.617-.187-10.011-.551-19.847-.847-26.794-.013-.317-.027-.627-.04-.935Z" transform="translate(75.742 63.523)" fill="#915054"/>
              <path id="Path_610247" data-name="Path 610247" d="M53.247,152.655c.02.426.04.861.059,1.308.425,9.009,1.078,21.763,1.508,24.774a1.785,1.785,0,0,0,.9,1.44,5.453,5.453,0,0,0,3.366.207,16.252,16.252,0,0,0,1.589-.367,18.575,18.575,0,0,0,2.225-.783.8.8,0,1,1,.64,1.461,20.277,20.277,0,0,1-2.832.971,15.858,15.858,0,0,1-1.592.334,10.986,10.986,0,0,1-1.518.132,5.342,5.342,0,0,1-2.654-.564,3.382,3.382,0,0,1-1.7-2.608c-.445-3.106-1.1-15.879-1.522-24.911-.024-.476-.045-.939-.067-1.395Z" transform="translate(71.464 63.523)" fill="#915054"/>
              <path id="Path_610248" data-name="Path 610248" d="M57.08,381.6a1.074,1.074,0,0,0,.177-.016,1.026,1.026,0,0,0,.837-1.188c-.144-.837-14.514-84.009-16.635-108.474-2.124-24.5-6.07-88.054-6.109-88.695a1.029,1.029,0,0,0-2.053.127c.04.64,3.986,64.224,6.113,88.746,2.128,24.55,16.513,107.808,16.658,108.645a1.028,1.028,0,0,0,1.013.854" transform="translate(103.353 75.843)" fill="#a19d98"/>
              <path id="Path_610249" data-name="Path 610249" d="M19.828,324.485a1.02,1.02,0,0,1-.054-2.036L43.363,321.1a1.019,1.019,0,0,1,.112,2.035l-23.59,1.345h-.057" transform="translate(137.524 133.618)" fill="#9e9b96"/>
              <path id="Path_610250" data-name="Path 610250" d="M32.123,130.7c.337,1.6.68,3.583,1.035,5.877q.183,1.181.375,2.461c1.064,7.142,2.271,16.552,3.826,26.285.14.872.285,1.752.433,2.627,3.462,20.944-3.191,21.347-1.818,28.131,5.284,26.112,83.043,17.437,90.6,7.834,3.547-4.5.449-47.216-4.636-73.89-.17-.9-.334-1.79-.5-2.658-1.372-7.26-2.443-13.222-2.77-16.734-1.514-16.321-5.206-33.534-8.315-40.774S79.5,59.122,79.5,59.122L50.54,63.965S36.3,70.049,26.505,82.252s2.062,31.486,5.618,48.447" transform="translate(48.344 24.602)" fill="#e6d09d"/>
              <path id="Path_610251" data-name="Path 610251" d="M36.577,66.339s-3.3,20.316,9.88,38.548,52.616,28.022,70.941,21.366a19.934,19.934,0,0,1,2.253,13.457s-36.768,12.851-69.287-12.788C16.971,100.592,26.63,74.306,26.63,74.306c1.633-3.131,6.585-8.492,9.947-7.967" transform="translate(52.74 27.59)" fill="#36251f"/>
              <path id="Path_610252" data-name="Path 610252" d="M78.953,90.328a32.537,32.537,0,0,0-8.661,5.194,3.772,3.772,0,0,0-.331,5.322c3.057,3.482,8.628,9.625,12.839,13.1a3.266,3.266,0,0,0,4.3-.127l6.656-6.166a3.269,3.269,0,0,0-.075-4.864A71.757,71.757,0,0,1,82.87,91.446a3.259,3.259,0,0,0-3.917-1.117" transform="translate(16.07 37.482)" fill="#5b413c"/>
              <path id="Path_610253" data-name="Path 610253" d="M85.156,132.853a1.038,1.038,0,0,1-.214.034c-16.545.777-34.279-15.787-35.025-16.492a.976.976,0,0,1,1.34-1.42c.177.167,17.883,16.7,33.595,15.963a.976.976,0,0,1,.3,1.916" transform="translate(52.482 47.733)" fill="#927f52"/>
              <path id="Path_610254" data-name="Path 610254" d="M67.4,79.284c11.791-1.052,21.62-15.791,22.033-16.419a.941.941,0,0,0-1.572-1.037c-.1.147-9.749,14.609-20.629,15.58h-.013c-7.714.681-11.447-7.059-11.6-7.388a.941.941,0,0,0-1.705.8c.177.378,4.434,9.264,13.473,8.466H67.4" transform="translate(42.797 25.553)" fill="#927f52"/>
              <path id="Path_610255" data-name="Path 610255" d="M98.066,123.985a.748.748,0,0,0,.146-.024.773.773,0,0,0,.547-.946c-2.463-9.191-9.259-30.28-9.327-30.491a.772.772,0,0,0-1.47.473c.068.212,6.853,21.265,9.305,30.417a.77.77,0,0,0,.8.571" transform="translate(-14.686 38.278)" fill="#927f52"/>
              <path id="Path_610256" data-name="Path 610256" d="M64.062,48.979S52.6,52.011,52.356,41.6a8.859,8.859,0,0,1-5.517-9.931c.9-5.411,6.544-4.478,6.544-4.478s-5.247-9.9,2.876-12.705c0,0-3.695-7.918,1.762-10.995S69.564,6.687,69.564,6.687,69.5-.194,75.819,0s8.167,7.711,8.167,7.711,4.325-6.554,9.648-4.093,5.352,10.135,5.352,10.135,7.731-2.271,13.231,3.635-.336,10.692-.336,10.692,7.173,1.358,8.368,5.894-7.085,6.541-7.085,6.541,3.693,7.062-1.985,9.921-11.986.167-11.986.167Z" transform="translate(22.132 0)" fill="#36251f"/>
              <path id="Path_610257" data-name="Path 610257" d="M56.641,62.319l1.073,7.9a23.307,23.307,0,0,0,2.886,1.6c13.976,6.493,26.462-5.588,26.462-5.588L85.276,48.516l-25.451,11Z" transform="translate(41.338 20.189)" fill="#b5591d"/>
              <path id="Path_610258" data-name="Path 610258" d="M63.588,61.185l1.073,7.9a23.307,23.307,0,0,0,2.886,1.6c10.319-6.109,16.624-19.448,16.624-19.448l-17.4,7.144Z" transform="translate(34.391 21.323)" fill="#36251f"/>
              <path id="Path_610259" data-name="Path 610259" d="M93.307,38.833s-4.88-4.4-6.582.894,1.491,15.1,7.667,12.585Z" transform="translate(-7.95 15.446)" fill="#8f2d00"/>
              <path id="Path_610260" data-name="Path 610260" d="M60.905,62.321S63.354,77.7,79.272,75.507a42.077,42.077,0,0,0,25.366-13.371l.016-.017-.265-3.242-1.367-16.821-.731-8.992s-.161-16.346-15.832-17.2C75.008,15.234,64.8,18.508,60.3,25.048c-.144.211-.285.426-.414.644A13.867,13.867,0,0,0,57.9,33.586l1.682,16.1L60,53.631Z" transform="translate(21.976 6.569)" fill="#b5591d"/>
              <path id="Path_610261" data-name="Path 610261" d="M87.948,41.889s-.449,7.017-5.537,9.359c-5.789,2.667-8.984-4.611-8.984-4.611Z" transform="translate(16.681 17.431)" fill="#f4ece1"/>
              <path id="Path_610262" data-name="Path 610262" d="M76.71,51.257a3.772,3.772,0,0,1-.391-.031.512.512,0,0,1,.159-1.011,3.275,3.275,0,0,0,3.005-1.25.512.512,0,0,1,.828.6,4.225,4.225,0,0,1-3.6,1.692" transform="translate(20.735 20.287)" fill="#8f2d00"/>
              <path id="Path_610263" data-name="Path 610263" d="M73.167,35.549c.208,1.531,1.071,2.678,1.927,2.56s1.382-1.452,1.174-2.981S75.2,32.45,74.341,32.566s-1.382,1.452-1.174,2.982" transform="translate(28.747 13.548)" fill="#36251f"/>
              <path id="Path_610264" data-name="Path 610264" d="M83.862,37c.208,1.531,1.071,2.678,1.927,2.562s1.382-1.452,1.174-2.982-1.071-2.678-1.926-2.562S83.654,35.47,83.862,37" transform="translate(2.906 14.152)" fill="#36251f"/>
              <path id="Path_610265" data-name="Path 610265" d="M84.913,45.174A5.43,5.43,0,0,1,79.5,43.142a.638.638,0,0,1-.069-.542c1.842-5.621,3.7-11.393,3.719-11.451a.635.635,0,1,1,1.209.389c-.018.057-1.806,5.614-3.615,11.135a4.364,4.364,0,0,0,4,1.242.635.635,0,1,1,.171,1.259" transform="translate(10.706 12.778)" fill="#36251f"/>
              <path id="Path_610266" data-name="Path 610266" d="M82.154,23.793A3.732,3.732,0,0,1,86.1,26.333c.364,1.19,1.333,2.531,3.614,3.579,5.32,2.446,5.023,6.84,4.386,10.54s7.347,9.288,10.491-.116S101.21,12.9,88.028,13.789s-29.87,7.473-30.513,13.578a29.815,29.815,0,0,0,.939,11.043,7.033,7.033,0,0,0,1.2-5.778c-.671-3.688,1.7-5.5,5.942-6.669,2.892-.8,11.425-1.685,16.562-2.171" transform="translate(22.008 5.725)" fill="#36251f"/>
              <g id="Group_1073391" data-name="Group 1073391" transform="translate(81.56 55.935)" opacity="0.8">
                <g id="Group_1073390" data-name="Group 1073390" transform="translate(0)">
                  <g id="Group_1073389" data-name="Group 1073389" clip-path="url(#clip-path-6)">
                    <path id="Path_610267" data-name="Path 610267" d="M85.53,43.763a12.478,12.478,0,0,0,1.243-.109c2.829-.384,5-1.6,4.85-2.715s-2.569-1.706-5.4-1.323c-.384.052-.753.12-1.107.2Z" transform="translate(-85.118 -39.499)" fill="#8f2d00"/>
                  </g>
                </g>
              </g>
              <path id="Path_610268" data-name="Path 610268" d="M67.622,39.955c.152,1.114,2.57,1.706,5.4,1.323s5-1.6,4.854-2.715-2.57-1.706-5.4-1.323-5,1.6-4.853,2.715" transform="translate(34.974 15.448)" fill="#8f2d00"/>
              <path id="Path_610269" data-name="Path 610269" d="M81.469,29.1h0a3.634,3.634,0,0,1-4.455,2.467,20.245,20.245,0,0,0-3.767-.694,3.339,3.339,0,0,1-3.059-3.764s7.321-1.687,11.281,1.991" transform="translate(27.79 11.121)" fill="#36251f"/>
              <path id="Path_610270" data-name="Path 610270" d="M83,32.613h0A3.633,3.633,0,0,0,87.953,33.8,20.2,20.2,0,0,1,91.4,32.131a3.34,3.34,0,0,0,1.943-4.445s-7.5.327-10.341,4.927" transform="translate(-2.539 11.521)" fill="#36251f"/>
              <path id="Path_610271" data-name="Path 610271" d="M57.893,44.608c.095.16,2.744,4.56,5.829,5.536l.013-.018-.263-3.24a11.1,11.1,0,0,1-5.578-2.277" transform="translate(62.892 18.562)" fill="#36251f"/>
              <path id="Path_610272" data-name="Path 610272" d="M52.584,38.35s5-9.053,10.366-3.2c4.418,4.822-.684,19.644-8.644,15.885Z" transform="translate(69.563 13.807)" fill="#b5591d"/>
              <path id="Path_610273" data-name="Path 610273" d="M56.092,47.234l-.069.006a.635.635,0,0,1-.651-.619A11.894,11.894,0,0,1,60.978,36.17a.636.636,0,1,1,.626,1.107,10.619,10.619,0,0,0-4.962,9.311.636.636,0,0,1-.549.646" transform="translate(68.277 15.017)" fill="#36251f"/>
              <path id="Path_610274" data-name="Path 610274" d="M60.07,41.37a.645.645,0,0,1-.416-.086c-.608-.37-2.416-1.235-3.464-.81a.636.636,0,0,1-.479-1.178c1.825-.741,4.326.732,4.605.9a.636.636,0,0,1-.246,1.173" transform="translate(69.659 16.266)" fill="#36251f"/>
              <path id="Path_610275" data-name="Path 610275" d="M3.5,194.879l69.214,22.334a1.448,1.448,0,0,0,1.824-.933l15.678-48.587a1.45,1.45,0,0,0-.935-1.824L20.065,143.535a1.446,1.446,0,0,0-1.823.935L2.564,193.055a1.45,1.45,0,0,0,.935,1.824" transform="translate(114.795 59.699)" fill="#ff9918"/>
              <path id="Path_610276" data-name="Path 610276" d="M49.635,181.859,57.56,157.3a1.134,1.134,0,0,0-.729-1.426l-5.915-1.909a1.132,1.132,0,0,0-1.426.731l-7.925,24.557a1.131,1.131,0,0,0,.731,1.426l5.914,1.909a1.134,1.134,0,0,0,1.426-.731" transform="translate(92.214 64.046)" fill="#f4ece1"/>
              <path id="Path_610277" data-name="Path 610277" d="M13.3,182.01l69.214,22.334a1.448,1.448,0,0,0,1.824-.933l1.869-5.8L14.235,174.39l-1.871,5.8a1.45,1.45,0,0,0,.935,1.824" transform="translate(104.994 72.568)" fill="#dd6a18"/>
              <path id="Path_610278" data-name="Path 610278" d="M11.851,101.094l.068.2,2.168,6.2,1.457,4.238.708,2.055.793,2.344,1.337,3.955,2.072,6.3c1.372,4.2,2.668,8.4,3.918,12.572.615,2.086,1.216,4.172,1.769,6.239.574,2.072,1.112,4.125,1.6,6.156s.919,4.022,1.272,5.941l.251,1.354c.076.382.135.776.194,1.17.12.79.2,1.607.252,2.444s.076,1.7.071,2.567-.044,1.763-.1,2.668a50.458,50.458,0,0,1-.667,5.547,78.521,78.521,0,0,1-2.9,11.49c-.644,1.922-1.325,3.852-2.086,5.747-.377.953-.765,1.9-1.164,2.824l-.6,1.375-.3.659-.14.312-.065.143c-.021.045-.041.092-.03.082a9.473,9.473,0,1,0,15.977,10.183l.653-.913.566-.8c.368-.532.729-1.055,1.076-1.587.692-1.061,1.359-2.121,2.009-3.193,1.277-2.157,2.5-4.342,3.62-6.6a89.117,89.117,0,0,0,5.714-14.29,66.245,66.245,0,0,0,2.805-16.138c.059-1.432.074-2.879.016-4.352-.03-.734-.065-1.471-.126-2.218l-.045-.555-.052-.491-.109-.966c-.3-2.575-.654-5.051-1.075-7.46s-.861-4.789-1.351-7.127-1.017-4.652-1.558-6.952c-1.078-4.592-2.269-9.117-3.513-13.6-.615-2.247-1.27-4.475-1.925-6.7l-.246-.828c-.579-1.949-1.167-3.89-1.779-5.826-.038-.12-.074-.238-.11-.358-.659-2.093-1.317-4.182-2.014-6.262-.367-1.1-.728-2.2-1.107-3.305l-1.17-3.355-.006-.011a13.839,13.839,0,0,0-26.127,9.134" transform="translate(138.729 34.407)" fill="#b5591d"/>
              <path id="Path_610279" data-name="Path 610279" d="M18.16,105.2l.708,2.053.793,2.345c4.41.6,12.795.293,27.119-5.051C46.2,102.6,45.613,100.66,45,98.724c-.038-.12-.074-.238-.11-.358Z" transform="translate(136.114 40.932)" fill="#8f2d00"/>
              <path id="Path_610280" data-name="Path 610280" d="M21.034,133.88c.321-.167,5.029-2.6,10.706-4.8a.767.767,0,1,1,.555,1.43c-5.711,2.219-10.481,4.68-10.56,4.721a.762.762,0,0,1-.7-1.352" transform="translate(146.621 53.691)" fill="#8f2d00"/>
              <path id="Path_610281" data-name="Path 610281" d="M24.136,134.8a.783.783,0,0,0,.126-.2c1.248-2.982,5.354-6.629,5.4-6.666a.762.762,0,0,0-1.008-1.143c-.18.159-4.411,3.918-5.792,7.221a.761.761,0,0,0,1.279.792" transform="translate(146.41 52.679)" fill="#8f2d00"/>
              <path id="Path_610282" data-name="Path 610282" d="M51.494,160c-.467.775-2.2,5.006-2.409,5.274-3.553,4.643-10.491,3.731-12.771,6.734,0,0-17.381,14.647-13.1,16.359,2.361.942,5.846-1,8.5-2.933-.093.252-.187.479-.28.7-1.951,4.536-9.067,9.715-6.385,12.755S32,197.24,32,197.24s1.749,3.632,7.272,1.231a4.832,4.832,0,0,0,5.772,1.273s3.314,2.982,6.615.545c2.8-2.073,8.114-11.837,14.548-28.32-3.053-5.411-6.877-9.148-14.711-11.968" transform="translate(110.487 66.58)" fill="#b5591d"/>
              <path id="Path_610283" data-name="Path 610283" d="M35.676,64.764s17.386,7.5,27.769,47.6c0,0-13.575,10.178-31,9.7,0,0-11.032-22.785-13.768-36.006s2.742-27.021,16.995-21.289" transform="translate(119.674 26.395)" fill="#e6d09d"/>
              <path id="Path_610284" data-name="Path 610284" d="M52.869,112.437a.888.888,0,0,0,.146-.03.774.774,0,0,0,.508-.967c-2.815-9.087-10.421-29.9-10.5-30.107a.772.772,0,0,0-1.45.53c.076.208,7.67,20.983,10.472,30.035a.773.773,0,0,0,.821.54" transform="translate(96.243 33.633)" fill="#927f52"/>
            </g>
          </g>
        </g>
      </g>
    </g>
  </g>
</svg>
