<svg xmlns="http://www.w3.org/2000/svg" xmlns:xlink="http://www.w3.org/1999/xlink" width="139" height="139" viewBox="0 0 139 139">
  <defs>
    <clipPath id="clip-path">
      <rect id="Rectangle_377965" data-name="Rectangle 377965" width="93.588" height="93.128" fill="#636363"/>
    </clipPath>
  </defs>
  <g id="Group_1073944" data-name="Group 1073944" transform="translate(-421 -3901)">
    <g id="Group_1072541" data-name="Group 1072541" transform="translate(-1013.668 -1981)">
      <g id="Group_1072229" data-name="Group 1072229" transform="translate(1434.668 5882)">
        <path id="Path_608385" data-name="Path 608385" d="M69.5,0A69.5,69.5,0,1,1,0,69.5,69.5,69.5,0,0,1,69.5,0Z" transform="translate(0)" fill="#fff"/>
      </g>
    </g>
    <rect id="Rectangle_378463" data-name="Rectangle 378463" width="94" height="94" transform="translate(444 3924)" fill="none"/>
    <g id="Group_1073934" data-name="Group 1073934" transform="translate(439.806 3919.416)">
      <g id="Group_1072543" data-name="Group 1072543" transform="translate(4.606 4.584)" clip-path="url(#clip-path)">
        <path id="Path_609836" data-name="Path 609836" d="M110.076,133.05a28.608,28.608,0,1,1-28.537-28.179,28.431,28.431,0,0,1,28.537,28.179m-54.229.258a22.631,22.631,0,0,0,.9,6.828,25.073,25.073,0,0,0,10.813,14.7,24.5,24.5,0,0,0,10.99,3.884,26.1,26.1,0,0,0,10.786-1.02A25.54,25.54,0,0,0,106.75,137.68a27.118,27.118,0,0,0,.2-7.374,23.767,23.767,0,0,0-2.227-7.772,25.036,25.036,0,0,0-9.279-10.613,23.617,23.617,0,0,0-12.958-3.99,29.364,29.364,0,0,0-5.357.257,24.5,24.5,0,0,0-6.654,2.1c-9.445,4.774-14.185,12.544-14.624,23.018" transform="translate(-34.654 -68.743)" fill="#636363"/>
        <path id="Path_609837" data-name="Path 609837" d="M36.186,17.9a16.927,16.927,0,0,1-2.213,8.866.838.838,0,0,0-.06.591c.706,2.149,1.431,4.29,2.153,6.434.336.995.146,1.736-.629,2.062a1.841,1.841,0,0,1-1.153.089c-1.644-.5-3.268-1.059-4.9-1.6-.584-.193-1.172-.377-1.753-.58a.989.989,0,0,0-.857.1,16.915,16.915,0,0,1-9.294,2.194C10.1,35.546,4.733,31.93,1.585,25.206a16.143,16.143,0,0,1-1.5-8.544,18.119,18.119,0,0,1,34.851-5.32A15.67,15.67,0,0,1,36.186,17.9m-3.8,14.366c-.044-.192-.068-.358-.119-.515q-.694-2.123-1.4-4.241a1.791,1.791,0,0,1,.159-1.526,18.776,18.776,0,0,0,1.065-2.059,15.217,15.217,0,0,0,.977-8.462A15.015,15.015,0,0,0,20.781,3.244a15.453,15.453,0,0,0-7.1.445,15.026,15.026,0,0,0-10.6,13.779,13.989,13.989,0,0,0,1,5.974c2.748,6.816,8.867,10.328,16.384,9.509a13.121,13.121,0,0,0,5.646-2.078,1.807,1.807,0,0,1,1.713-.153c1.493.53,3,1.021,4.553,1.545" transform="translate(0 0)" fill="#636363"/>
        <path id="Path_609838" data-name="Path 609838" d="M202.79,18.189A18.152,18.152,0,0,1,191.8,34.709a17.847,17.847,0,0,1-7.186,1.5,17.656,17.656,0,0,1-8.33-2.129,1.532,1.532,0,0,0-1.339-.114q-3.025,1.044-6.074,2.015a2.361,2.361,0,0,1-1.211.094c-.925-.227-1.231-1.122-.86-2.208.684-2.006,1.34-4.021,2.039-6.021a1.468,1.468,0,0,0-.125-1.317,17.063,17.063,0,0,1-1.969-10.607A17.513,17.513,0,0,1,171.943,5.45a18.079,18.079,0,0,1,28.8,4.556,18.941,18.941,0,0,1,2.043,8.182M170.432,32.411c1.584-.537,3.066-1.019,4.533-1.545a1.9,1.9,0,0,1,1.8.125,15.124,15.124,0,0,0,22.817-10.455,15.168,15.168,0,0,0-.417-6.547A14.916,14.916,0,0,0,186.91,3.364a15.3,15.3,0,0,0-8.251,1.049,15.041,15.041,0,0,0-8.711,17.067A14.784,14.784,0,0,0,171.78,26a1.8,1.8,0,0,1,.239,1.6c-.372,1.083-.726,2.172-1.084,3.259-.16.486-.315.974-.5,1.558" transform="translate(-109.202 -0.124)" fill="#636363"/>
        <rect id="Rectangle_377961" data-name="Rectangle 377961" width="3.047" height="3.015" transform="translate(39.271 16.529)" fill="#636363"/>
        <rect id="Rectangle_377962" data-name="Rectangle 377962" width="3.052" height="2.996" transform="translate(51.334 16.535)" fill="#636363"/>
        <path id="Path_609839" data-name="Path 609839" d="M131.7,50.956c0-.937-.007-1.864.012-2.791,0-.078.174-.217.27-.219.786-.021,1.574-.023,2.36-.012.093,0,.262.114.264.178.017.94.012,1.882.012,2.844Z" transform="translate(-86.328 -31.416)" fill="#636363"/>
        <path id="Path_609840" data-name="Path 609840" d="M98.723,134.018a7.249,7.249,0,0,1,3.562-2.631,6.8,6.8,0,0,1,4.183-.214,7.4,7.4,0,0,1,5.36,4.928c.145.415.194.864.325,1.285a.678.678,0,0,0,.316.36,7.373,7.373,0,0,1,4.265,6.361c.034.411-.064.832-.04,1.245a1.768,1.768,0,0,0,.224.871,7.312,7.312,0,0,1-.064,8.583,1.069,1.069,0,0,0-.17.7,7.459,7.459,0,0,1-4.118,7.624c-.2.1-.37.181-.426.47a7.5,7.5,0,0,1-13.111,3.69c-.1-.112-.207-.227-.339-.372-.148.163-.269.3-.393.433a7.46,7.46,0,0,1-12.616-2.183c-.208-.511-.279-1.075-.445-1.6a.684.684,0,0,0-.322-.35,7.815,7.815,0,0,1-3.175-2.888,7.337,7.337,0,0,1-1.045-4.867.949.949,0,0,0-.146-.622,7.322,7.322,0,0,1-.135-8.5,1.49,1.49,0,0,0,.292-1.067,7.344,7.344,0,0,1,4.241-7.539.593.593,0,0,0,.287-.368,7.5,7.5,0,0,1,13.384-3.406c.015.02.045.029.106.066m6.4,26.394c-.153-.133-.334-.292-.518-.449a9.6,9.6,0,0,0-3.916-1.881c-.491-.127-.594-.066-.593.44,0,1.191-.019,2.383.031,3.572a6.842,6.842,0,0,0,.295,1.812,4.539,4.539,0,0,0,8.153.994,5.37,5.37,0,0,0,.759-2.787,1.165,1.165,0,0,1,.921-1.2c.311-.106.613-.24.921-.357,1.852-.7,3.189-3.465,2.446-5.156a1.518,1.518,0,0,1,.418-1.8,4.694,4.694,0,0,0-.022-6.331,1.569,1.569,0,0,1-.39-1.816,3.144,3.144,0,0,0,.018-2.144,4.385,4.385,0,0,0-3.048-3.165,3.236,3.236,0,0,1-.691-.339c-.636-.378-.576-1.018-.628-1.636a4.549,4.549,0,0,0-6.7-3.785,4.24,4.24,0,0,0-2.4,3.643c-.117,1.511-.034,3.038-.041,4.558,0,.3.187.257.384.227a7.985,7.985,0,0,0,3.326-1.323c.459-.314.891-.667,1.307-.98l2.047,2.022a11.818,11.818,0,0,1-3.338,2.3,10.748,10.748,0,0,1-3.291.934.452.452,0,0,0-.457.538c.02.688.024,1.377.034,2.065.009.591.008.579.576.579q2.6,0,5.209.026c.113,0,.32.131.322.2.022.9.014,1.795.014,2.726h-6.122c0,1.008-.007,1.982.013,2.954,0,.076.178.187.29.217.9.239,1.82.4,2.7.7a10.8,10.8,0,0,1,4.066,2.609l-2.087,2.017m-7.86-8.524H91.136v-2.9c.164-.01.3-.024.445-.025,1.751-.01,3.5-.022,5.252-.02.29,0,.4-.065.4-.385-.016-.731-.011-1.464.032-2.193.024-.414-.145-.563-.524-.607a10.624,10.624,0,0,1-3.321-.979,11.563,11.563,0,0,1-3.253-2.272c.582-.59,1.16-1.144,1.7-1.735.277-.305.45-.25.73,0a8.379,8.379,0,0,0,4.282,2.055c.238.038.381.027.382-.279,0-1.263.048-2.526.026-3.788a4.6,4.6,0,0,0-5.377-4.77,4.515,4.515,0,0,0-3.8,4.351,1.693,1.693,0,0,1-1.352,1.822,9.5,9.5,0,0,0-1.306.637c-1.186.687-2.384,3.2-1.7,4.648a1.632,1.632,0,0,1-.461,1.952,4.645,4.645,0,0,0,.254,6.447,1.333,1.333,0,0,1,.293,1.314c-.054.223-.135.441-.167.666a3.523,3.523,0,0,0-.092,1.058,4.449,4.449,0,0,0,3.089,3.835,1.921,1.921,0,0,1,1.463,2.036,4.429,4.429,0,0,0,4.382,4.266,4.315,4.315,0,0,0,4.6-3.693,40.171,40.171,0,0,0,.138-5.062c.006-.292-.2-.275-.39-.223a9.944,9.944,0,0,0-3.025,1.189c-.555.373-1.085.783-1.651,1.194l-2-2.046a11.883,11.883,0,0,1,6.707-3.28c.266-.038.388-.11.387-.384-.006-.917,0-1.833,0-2.828" transform="translate(-51.862 -85.83)" fill="#636363"/>
        <path id="Path_609841" data-name="Path 609841" d="M29.958,17.771a11.966,11.966,0,1,1-.1,23.932,11.966,11.966,0,1,1,.1-23.932m-9.067,11.9a9.037,9.037,0,1,0,18.06-.432,9.167,9.167,0,0,0-9.042-8.559,9.007,9.007,0,0,0-9.019,8.991" transform="translate(-11.722 -11.646)" fill="#636363"/>
        <path id="Path_609842" data-name="Path 609842" d="M196.238,17.773a11.961,11.961,0,1,1-.158,23.921,11.961,11.961,0,1,1,.158-23.921m8.94,11.972a8.973,8.973,0,0,0-8.57-9.044,9.039,9.039,0,1,0-.566,18.066,8.945,8.945,0,0,0,9.137-9.021" transform="translate(-120.685 -11.648)" fill="#636363"/>
        <path id="Path_609843" data-name="Path 609843" d="M169.605,186.145h-2.879c0-.526.005-1.038,0-1.55,0-.344-.022-.688-.042-1.031-.014-.24.043-.368.331-.361.759.017,1.519-.005,2.279.01.105,0,.3.123.3.192.02.9.013,1.8.013,2.74" transform="translate(-109.26 -120.089)" fill="#636363"/>
        <path id="Path_609844" data-name="Path 609844" d="M99.608,186.156H96.73c0-.5.005-.978,0-1.46-.006-.372-.021-.744-.042-1.116-.014-.243.047-.365.331-.359.759.015,1.519-.009,2.277,0,.105,0,.3.123.3.193.02.9.013,1.8.013,2.739" transform="translate(-63.377 -120.101)" fill="#636363"/>
        <path id="Path_609845" data-name="Path 609845" d="M35.226,52.657h2.955a3.464,3.464,0,0,0,1.178,2.252,3.081,3.081,0,0,0,4.875-1.572c.2-.73.21-.731.968-.73.545,0,1.091.029,1.635.008.39-.016.449.155.412.493a5.816,5.816,0,0,1-2.49,4.285,5.978,5.978,0,0,1-9.369-3.78c-.058-.292-.1-.587-.164-.957" transform="translate(-23.091 -34.484)" fill="#636363"/>
        <rect id="Rectangle_377963" data-name="Rectangle 377963" width="3.061" height="3.054" transform="translate(19.628 12.01)" fill="#636363"/>
        <path id="Path_609846" data-name="Path 609846" d="M40.012,34.779c.888,0,1.746-.009,2.6.012a.387.387,0,0,1,.269.267c.022.845.025,1.69,0,2.535,0,.1-.2.272-.313.275-.843.023-1.687.013-2.56.013Z" transform="translate(-26.228 -22.796)" fill="#636363"/>
        <path id="Path_609847" data-name="Path 609847" d="M210.769,54.188a3.125,3.125,0,0,0-1.721-2.8,3.054,3.054,0,0,0-4.412,2.4c-.05.336-.173.419-.49.411-.773-.021-1.547-.007-2.439-.007a8.206,8.206,0,0,1,.14-1.44,5.977,5.977,0,0,1,11.463-.638,17.161,17.161,0,0,1,.4,1.754c.048.214-.023.325-.259.324-.887,0-1.774,0-2.686,0" transform="translate(-132.219 -31.526)" fill="#636363"/>
        <rect id="Rectangle_377964" data-name="Rectangle 377964" width="3.05" height="3.049" transform="translate(70.971 12.001)" fill="#636363"/>
        <path id="Path_609848" data-name="Path 609848" d="M226.371,37.939c-.883,0-1.728.009-2.572-.011-.1,0-.291-.158-.293-.246-.021-.928-.013-1.857-.013-2.816h2.879Z" transform="translate(-146.498 -22.855)" fill="#636363"/>
      </g>
    </g>
  </g>
</svg>
