<svg xmlns="http://www.w3.org/2000/svg" xmlns:xlink="http://www.w3.org/1999/xlink" width="107" height="107" viewBox="0 0 107 107">
  <defs>
    <clipPath id="clip-path">
      <rect id="Rectangle_378181" data-name="Rectangle 378181" width="68.22" height="67.966" fill="#fff"/>
    </clipPath>
  </defs>
  <g id="Group_1073938" data-name="Group 1073938" transform="translate(-285 -2594.741)">
    <g id="Grupo_156312" data-name="Grupo 156312" transform="translate(285 2594.305)">
      <path id="Elipse_5845" data-name="Elipse 5845" d="M53.5,0A53.5,53.5,0,1,1,0,53.5,53.5,53.5,0,0,1,53.5,0Z" transform="translate(0 0.437)" fill="#5e5a55"/>
      <g id="Group_1073397" data-name="Group 1073397" transform="translate(19 22.436)">
        <g id="Group_1073396" data-name="Group 1073396" clip-path="url(#clip-path)">
          <path id="Path_610285" data-name="Path 610285" d="M36.84,6.449C36.5,2.164,39.611,0,42.221,0a5.256,5.256,0,0,1,4.21,1.967A5.812,5.812,0,0,1,47.644,6.56,5.716,5.716,0,0,1,51.317,5.1,5.78,5.78,0,0,1,54.99,6.514c0-.424.008-.784,0-1.143a5.405,5.405,0,0,1,10.787-.453c.05.509.052,1.023.074,1.5.486-.279.964-.6,1.477-.841A5.366,5.366,0,0,1,74.245,8.02a6.108,6.108,0,0,1,.644,2.544,7.165,7.165,0,0,1-.6,3.77c-.092.179-.2.351-.314.554a2.173,2.173,0,0,0,.225.092,7.644,7.644,0,0,1,5.645,7.437c.008,1.929,0,3.858,0,5.787a1.413,1.413,0,0,1-1.578,1.579q-4.4,0-8.8,0H24.724c-.183,0-.366,0-.548-.018a1.356,1.356,0,0,1-1.345-1.409c-.013-2.112-.083-4.227.014-6.335A7.575,7.575,0,0,1,28.386,15c.1-.027.187-.066.315-.111-.078-.138-.143-.257-.213-.374a5.664,5.664,0,0,1-.706-2.587,8.15,8.15,0,0,1,.212-2.781A5.323,5.323,0,0,1,31.5,5.406a4.572,4.572,0,0,1,2.57-.242A6.382,6.382,0,0,1,36.7,6.375a1.154,1.154,0,0,0,.136.074M51.3,27.127v-.005c2.5,0,4.995,0,7.492.005.248,0,.335-.063.333-.321-.011-1.391,0-2.781-.011-4.172a7.665,7.665,0,0,0-.111-1.147A4.979,4.979,0,0,0,54.175,17.3c-1.866-.054-3.736-.046-5.6,0a5.037,5.037,0,0,0-5.015,5.05c-.062,1.5,0,3-.013,4.506,0,.21.047.278.268.277,2.5-.008,4.994,0,7.491,0m-25.8,0c.127.006.216.015.3.014,1.208-.006,2.416-.019,3.624-.02q5.513,0,11.026,0c.449,0,.448,0,.448-.446,0-1.523-.008-3.046.005-4.569a4.211,4.211,0,0,0-.251-1.487,5.059,5.059,0,0,0-4.717-3.332c-1.746,0-3.493-.027-5.238.013a6.8,6.8,0,0,0-1.879.3A4.846,4.846,0,0,0,25.5,22.157c.03.822,0,1.645,0,2.467v2.5m51.643-.006c0-.084.012-.143.012-.2q0-2.527,0-5.054a2.484,2.484,0,0,0-.028-.364,5.039,5.039,0,0,0-4.878-4.211c-1.816-.013-3.633-.01-5.449,0a4.987,4.987,0,0,0-3.235,1.136,4.534,4.534,0,0,0-1.8,3.474c-.037,1.633,0,3.268-.013,4.9,0,.252.08.327.334.327q6.88-.012,13.76-.007h1.3M55.932,14.934A7.726,7.726,0,0,1,60.4,18.058a7.719,7.719,0,0,1,4.45-3.124,16.984,16.984,0,0,1-.7-2,16.121,16.121,0,0,1-.2-2.046,5.539,5.539,0,0,1-7.178-.041,14.891,14.891,0,0,1-.147,2.1,14.958,14.958,0,0,1-.7,1.983m-18.213-.023a7.711,7.711,0,0,1,4.532,3.116c1.682-1.845,1.853-2.15,4.482-3.119a14.265,14.265,0,0,1-.683-1.925,15.935,15.935,0,0,1-.165-2.143,5.865,5.865,0,0,1-3.6,1.331,5.754,5.754,0,0,1-3.643-1.356,6.5,6.5,0,0,1-.921,4.1M36,11.246h-.018c0-.264,0-.528,0-.791A2.6,2.6,0,0,0,35.144,8.5a2.8,2.8,0,0,0-4.563,1.119,6.021,6.021,0,0,0-.053,3.01,2.746,2.746,0,0,0,2.8,2.058,2.706,2.706,0,0,0,2.606-2.257A10.859,10.859,0,0,0,36,11.246m30.674-.027h.018c0,.264,0,.528,0,.791a2.773,2.773,0,0,0,5.44.67,6.6,6.6,0,0,0,.109-2.356,2.777,2.777,0,0,0-5.5-.319c-.058.4-.046.808-.067,1.213m-12.562-.046h0c0-.213-.006-.426,0-.639a2.771,2.771,0,0,0-5.514-.44c-.064.6-.023,1.215-.028,1.823a2.773,2.773,0,1,0,5.545-.106c-.01-.213,0-.426,0-.639M45,6.111c0-.4.01-.791-.005-1.187a1.45,1.45,0,0,0-.107-.5,2.646,2.646,0,0,0-2.752-1.773A2.589,2.589,0,0,0,39.65,4.492a5.937,5.937,0,0,0-.029,3.1,2.4,2.4,0,0,0,1.584,1.755,5.483,5.483,0,0,0,1.373.156A2.566,2.566,0,0,0,45,6.993c-.029-.291,0-.588,0-.882m18.236.073c-.033-.467-.042-.812-.084-1.154a2.785,2.785,0,0,0-5.114-1.126,2.135,2.135,0,0,0-.377,1.255c.035.7.008,1.4.01,2.1a1.152,1.152,0,0,0,.026.3A2.841,2.841,0,0,0,61.35,9.41a2.608,2.608,0,0,0,1.744-1.988,12.292,12.292,0,0,0,.143-1.237" transform="translate(-17.222 0)" fill="#fff"/>
          <path id="Path_610286" data-name="Path 610286" d="M37.523,136.157h-.367c-1.553,0-3.107.007-4.66,0a1.431,1.431,0,0,1-1.433-.789,1.327,1.327,0,0,1,1.245-1.88c.111-.011.223-.009.335-.009H66.513a2.465,2.465,0,0,1,.395.019,1.386,1.386,0,0,1,1.31,1.543c-.039,1.165-.087,2.334-.213,3.493A33.223,33.223,0,0,1,62.6,153.482a34.173,34.173,0,0,1-20.013,14.252A33.193,33.193,0,0,1,33.28,168.8c-1.385-.048-2.768-.226-4.147-.385A18.6,18.6,0,0,1,26.709,168c-1.286-.324-2.57-.673-3.824-1.1a33.32,33.32,0,0,1-9.733-5.3,34.149,34.149,0,0,1-9.887-12.294A33.944,33.944,0,0,1,0,135.137a1.471,1.471,0,0,1,1.647-1.66q9.183,0,18.366,0a1.427,1.427,0,0,1,1.419.814,1.225,1.225,0,0,1-.556,1.635,2.338,2.338,0,0,1-.932.219c-1.35.023-2.7.01-4.051.01h-.383c.2.269.363.486.528.7a3.88,3.88,0,0,1,.77,3.3,4.4,4.4,0,0,1-1.332,2.209q-.657.657-1.332,1.295a1.461,1.461,0,0,0-.51,1.2c.043.983,0,1.969.015,2.954a4.552,4.552,0,0,1-.6,2.3q-1.346,2.419-2.722,4.821a.359.359,0,0,0,.054.5,32.246,32.246,0,0,0,7.993,6.555,30.888,30.888,0,0,0,11.5,3.9,33.275,33.275,0,0,0,7.626.095,30.96,30.96,0,0,0,17.656-7.836,31.063,31.063,0,0,0,9.489-15.731,33.812,33.812,0,0,0,.889-5.943c.006-.09,0-.18,0-.29H51.2c.044.085.074.156.116.22.516.79,1.021,1.587,1.558,2.363a1.855,1.855,0,0,0,.6.537c.741.418,1.521.77,2.25,1.208a2.828,2.828,0,0,1,1.449,2.728,7.985,7.985,0,0,1-.414,1.677c-.315,1.09-.647,2.175-.973,3.261a3.093,3.093,0,0,1-3.126,2.518.746.746,0,0,0-.671.426c-.975,1.778-1.959,3.551-2.933,5.33a.906.906,0,0,0-.079.378,3.14,3.14,0,0,1-2.464,2.989,2.626,2.626,0,0,1-2.12-.412,11.328,11.328,0,0,1-1.259-1.052,3.422,3.422,0,0,1-.9-2.207c-.1-.784-.191-1.569-.282-2.354-.239-2.054-.482-4.108-.706-6.164a1.244,1.244,0,0,0-.528-.931c-.706-.529-1.4-1.075-2.078-1.642a3,3,0,0,1-1.119-2.425c.01-2.031,0-4.061,0-6.092Zm6.686,0q-1.8,0-3.593,0c-.353,0-.41.059-.411.4,0,.639,0,1.279,0,1.918,0,1.33.012,2.66-.022,3.989a.81.81,0,0,0,.321.755c.658.509,1.292,1.05,1.961,1.544a3.442,3.442,0,0,1,1.393,2.528c.173,1.541.368,3.08.548,4.621.09.774.163,1.55.25,2.325a12.653,12.653,0,0,1,.172,1.505,1.637,1.637,0,0,0,.952,1.442.317.317,0,0,0,.511-.3,3.048,3.048,0,0,1,.44-1.651c1.033-1.861,2.056-3.728,3.1-5.581a2.941,2.941,0,0,1,2.487-1.569c.819-.055.636.108.992-.744a1.383,1.383,0,0,0,.048-.144c.389-1.321.771-2.644,1.174-3.96.076-.249.049-.4-.186-.518-.709-.371-1.406-.765-2.12-1.128a3.953,3.953,0,0,1-1.558-1.411c-.8-1.234-1.616-2.457-2.412-3.694a.63.63,0,0,0-.61-.336c-1.147.018-2.294.007-3.441.008m-41.528,0A31.022,31.022,0,0,0,8.439,152.97c.053-.082.07-.106.084-.132q1.091-1.933,2.181-3.866a2.053,2.053,0,0,0,.269-1.074c-.018-1.116-.009-2.232-.008-3.349a2.345,2.345,0,0,1,.029-.363,4.218,4.218,0,0,1,1.308-2.382c.53-.517,1.071-1.024,1.576-1.566a1.259,1.259,0,0,0,.089-1.789c-.5-.689-1.023-1.362-1.521-2.053a.545.545,0,0,0-.506-.246q-4.46.011-8.92,0Z" transform="translate(0 -100.848)" fill="#fff"/>
          <path id="Path_610287" data-name="Path 610287" d="M84.722,181.018a4.462,4.462,0,0,1,3.3,1.232c.8.732,1.658,1.4,2.5,2.093a4.182,4.182,0,0,1,1.332,1.884,3.046,3.046,0,0,1-.386,2.787,9.168,9.168,0,0,1-2.715,2.673,3.265,3.265,0,0,1-3.821-.194,2.645,2.645,0,0,0-2-.638c-.686.05-1.38,0-2.07,0a3.482,3.482,0,0,1-3.214-1.972,2.956,2.956,0,0,1-.343-1.435,12.325,12.325,0,0,1,.063-1.974,3.184,3.184,0,0,1,1.737-2.434c1.11-.587,2.252-1.113,3.388-1.648a3.137,3.137,0,0,1,.868-.267c.45-.066.908-.073,1.363-.105m-4.809,5.7c0,.183-.007.365,0,.548.031.666.326.961.987.965.913.006,1.826,0,2.739,0a3.642,3.642,0,0,1,2.389.834,4.959,4.959,0,0,0,.435.333.845.845,0,0,0,1.074-.012c.585-.546,1.142-1.122,1.692-1.7a.654.654,0,0,0,.056-.846,1.866,1.866,0,0,0-.369-.439q-1.454-1.225-2.925-2.43a.864.864,0,0,0-.425-.218,4.325,4.325,0,0,0-2.528.24,19.936,19.936,0,0,1-2.051.99c-.819.324-1.271.814-1.076,1.737" transform="translate(-58.4 -136.767)" fill="#fff"/>
          <path id="Path_610288" data-name="Path 610288" d="M104.477,134.914a1.326,1.326,0,0,1-1.294,1.3,1.314,1.314,0,1,1-.011-2.627,1.333,1.333,0,0,1,1.3,1.325" transform="translate(-76.943 -100.934)" fill="#fff"/>
        </g>
      </g>
    </g>
  </g>
</svg>
